<svg width="18" height="18" viewBox="0 0 18 18" fill="none" xmlns="http://www.w3.org/2000/svg">
<rect width="18" height="18" rx="9" fill="#F8F8F8"/>
<path d="M4 6H5.52968L8.97561 10.3984V7.01634C8.97561 6.65593 8.93682 6.43104 8.85923 6.34166C8.75669 6.22057 8.59458 6.16002 8.37289 6.16002L8.72944 6.09841L8.54027 6.16002H9.29698L9.39156 6.29524C9.43286 6.38491 9.39156 6.19683 9.43286 6.38491C9.37189 6.47717 9.34141 6.68765 9.34141 7.01634V11.9596H9.19176L5.47564 7.23691V10.8482C5.47564 11.2086 5.51305 11.4334 5.58787 11.5228C5.69318 11.6439 5.85529 11.7045 6.07421 11.7045H6.27374V11.8645H4.31176V11.7045H4.50712C4.74821 11.7045 4.91864 11.6295 5.0184 11.4796C5.07937 11.3873 5.10985 11.1768 5.10985 10.8482V6.76982C4.94635 6.57088 4.82165 6.43969 4.73574 6.37626C4.65261 6.31283 4.52929 6.25372 4.36579 6.19894C4.28543 6.17299 4.1635 6.16002 4 6.16002V6Z" fill="#FFD900"/>
<path d="M7.8605 6.04037H9.39018L12.8361 10.4387V7.0567C12.8361 6.6963 12.7973 6.47141 12.7197 6.38203C12.6172 6.26093 12.4551 6.20038 12.2334 6.20038H12.038V6.04037H14V6.20038H13.8005C13.5622 6.20038 13.3931 6.27535 13.2934 6.42528C13.2324 6.51754 13.2019 6.72802 13.2019 7.0567V12H13.0523L9.33614 7.27727V10.8885C9.33614 11.2489 9.37355 11.4738 9.44837 11.5632C9.55368 11.6843 9.71579 11.7448 9.93471 11.7448H10.1342V11.9049H8.17226V11.7448H8.36762C8.60871 11.7448 8.77914 11.6699 8.8789 11.5199C8.93987 11.4277 8.97035 11.2172 8.97035 10.8885V6.81019C8.80685 6.61124 8.68215 6.48006 8.59624 6.41663C8.51311 6.3532 8.38979 6.29409 8.22629 6.23931C8.14593 6.21336 8.024 6.20038 7.8605 6.20038V6.04037Z" fill="#F5A800"/>
</svg>
