<svg width="42" height="24" viewBox="0 0 42 24" fill="none" xmlns="http://www.w3.org/2000/svg">
<path d="M0 0H6.36617L20.7074 17.5935V4.06535C20.7074 2.62374 20.5459 1.72417 20.223 1.36665C19.7963 0.882268 19.1216 0.640077 18.1989 0.640077L19.6828 0.393657L18.8955 0.640077H22.0448L22.4384 1.18097C22.6103 1.53964 22.4384 0.787314 22.6103 1.53964C22.3566 1.9087 22.2297 2.7506 22.2297 4.06535V23.8385H21.6069L6.14128 4.94762V19.3926C6.14128 20.8342 6.29697 21.7338 6.60836 22.0913C7.04661 22.5757 7.72129 22.8179 8.63239 22.8179H9.46276V23.458H1.29745V22.8179H2.11052C3.11389 22.8179 3.82316 22.518 4.23835 21.9183C4.49207 21.5493 4.61893 20.7074 4.61893 19.3926V3.07929C3.93849 2.28352 3.41951 1.75877 3.06199 1.50505C2.716 1.25132 2.20279 1.0149 1.52234 0.795771C1.18789 0.691975 0.680442 0.640077 0 0.640077V0Z" fill="#FFD900"/>
<path d="M16.0665 0.161461H22.4327L36.7739 17.7549V4.22681C36.7739 2.7852 36.6124 1.88563 36.2895 1.52811C35.8628 1.04373 35.1881 0.801538 34.2654 0.801538H33.4524V0.161461H41.6177V0.801538H40.7873C39.7955 0.801538 39.092 1.10139 38.6768 1.70111C38.4231 2.07016 38.2962 2.91206 38.2962 4.22681V24H37.6734L22.2078 5.10908V19.5541C22.2078 20.9957 22.3635 21.8952 22.6749 22.2528C23.1131 22.7371 23.7878 22.9793 24.6989 22.9793H25.5293V23.6194H17.364V22.9793H18.177C19.1804 22.9793 19.8897 22.6795 20.3049 22.0798C20.5586 21.7107 20.6854 20.8688 20.6854 19.5541V3.24075C20.005 2.44498 19.486 1.92023 19.1285 1.66651C18.7825 1.41278 18.2693 1.17636 17.5889 0.957232C17.2544 0.853436 16.7469 0.801538 16.0665 0.801538V0.161461Z" fill="#F5A800"/>
</svg>
