<svg width="46" height="46" viewBox="0 0 46 46" fill="none" xmlns="http://www.w3.org/2000/svg">
<g clip-path="url(#clip0_2477_7368)">
<circle cx="23" cy="23" r="22.5" fill="white" stroke="#035763"/>
<path d="M24.812 43.1429L24.8119 43.143C24.3814 43.4986 23.8278 43.6972 23.2511 43.6967C22.6749 43.6963 22.122 43.4969 21.6923 43.1411C21.692 43.1409 21.6917 43.1406 21.6914 43.1404L21.0207 42.5807C21.0202 42.5804 21.0198 42.58 21.0193 42.5796C11.299 34.3998 6.59314 27.0731 6.59314 20.5104C6.59314 11.7058 14.024 4.51929 23.2539 4.51929C32.4837 4.51929 39.9146 11.7058 39.9146 20.5104C39.9146 27.2248 34.9883 34.7397 24.812 43.1429ZM23.2539 13.3215C21.2882 13.3215 19.3975 14.072 17.9989 15.4168C16.5994 16.7625 15.8074 18.594 15.8074 20.5104C15.8074 22.4267 16.5994 24.2583 17.9989 25.604C19.3975 26.9487 21.2882 27.6992 23.2539 27.6992C25.2195 27.6992 27.1102 26.9487 28.5088 25.604C29.9083 24.2583 30.7003 22.4267 30.7003 20.5104C30.7003 18.594 29.9083 16.7625 28.5088 15.4168C27.1102 14.072 25.2195 13.3215 23.2539 13.3215Z" fill="#2BC2CC" stroke="#035763" stroke-width="1.5"/>
<rect x="13.8431" y="11.4615" width="19" height="20.1923" fill="#2BC2CC"/>
<mask id="path-4-outside-1_2477_7368" maskUnits="userSpaceOnUse" x="13" y="13" width="20" height="14" fill="black">
<rect fill="white" x="13" y="13" width="20" height="14"/>
<path d="M22.5625 24.2422V26H14.7812V24.5L18.4609 20.5547C18.8307 20.1432 19.1224 19.7812 19.3359 19.4688C19.5495 19.151 19.7031 18.8672 19.7969 18.6172C19.8958 18.362 19.9453 18.1198 19.9453 17.8906C19.9453 17.5469 19.888 17.2526 19.7734 17.0078C19.6589 16.7578 19.4896 16.5651 19.2656 16.4297C19.0469 16.2943 18.776 16.2266 18.4531 16.2266C18.1094 16.2266 17.8125 16.3099 17.5625 16.4766C17.3177 16.6432 17.1302 16.875 17 17.1719C16.875 17.4688 16.8125 17.8047 16.8125 18.1797H14.5547C14.5547 17.5026 14.7161 16.8828 15.0391 16.3203C15.362 15.7526 15.8177 15.3021 16.4062 14.9688C16.9948 14.6302 17.6927 14.4609 18.5 14.4609C19.2969 14.4609 19.9688 14.5911 20.5156 14.8516C21.0677 15.1068 21.4844 15.4766 21.7656 15.9609C22.0521 16.4401 22.1953 17.013 22.1953 17.6797C22.1953 18.0547 22.1354 18.4219 22.0156 18.7812C21.8958 19.1354 21.724 19.4896 21.5 19.8438C21.2812 20.1927 21.0156 20.5469 20.7031 20.9062C20.3906 21.2656 20.0443 21.638 19.6641 22.0234L17.6875 24.2422H22.5625ZM31.4219 19.6641V21.625H23.625V19.6641H31.4219ZM28.5938 16.5781V24.8594H26.4609V16.5781H28.5938Z"/>
</mask>
<path d="M22.5625 24.2422V26H14.7812V24.5L18.4609 20.5547C18.8307 20.1432 19.1224 19.7812 19.3359 19.4688C19.5495 19.151 19.7031 18.8672 19.7969 18.6172C19.8958 18.362 19.9453 18.1198 19.9453 17.8906C19.9453 17.5469 19.888 17.2526 19.7734 17.0078C19.6589 16.7578 19.4896 16.5651 19.2656 16.4297C19.0469 16.2943 18.776 16.2266 18.4531 16.2266C18.1094 16.2266 17.8125 16.3099 17.5625 16.4766C17.3177 16.6432 17.1302 16.875 17 17.1719C16.875 17.4688 16.8125 17.8047 16.8125 18.1797H14.5547C14.5547 17.5026 14.7161 16.8828 15.0391 16.3203C15.362 15.7526 15.8177 15.3021 16.4062 14.9688C16.9948 14.6302 17.6927 14.4609 18.5 14.4609C19.2969 14.4609 19.9688 14.5911 20.5156 14.8516C21.0677 15.1068 21.4844 15.4766 21.7656 15.9609C22.0521 16.4401 22.1953 17.013 22.1953 17.6797C22.1953 18.0547 22.1354 18.4219 22.0156 18.7812C21.8958 19.1354 21.724 19.4896 21.5 19.8438C21.2812 20.1927 21.0156 20.5469 20.7031 20.9062C20.3906 21.2656 20.0443 21.638 19.6641 22.0234L17.6875 24.2422H22.5625ZM31.4219 19.6641V21.625H23.625V19.6641H31.4219ZM28.5938 16.5781V24.8594H26.4609V16.5781H28.5938Z" fill="white"/>
<path d="M22.5625 24.2422H23.5625V23.2422H22.5625V24.2422ZM22.5625 26V27H23.5625V26H22.5625ZM14.7812 26H13.7812V27H14.7812V26ZM14.7812 24.5L14.05 23.8179L13.7812 24.106V24.5H14.7812ZM18.4609 20.5547L19.1922 21.2367L19.1985 21.23L19.2047 21.2231L18.4609 20.5547ZM19.3359 19.4688L20.1616 20.033L20.1659 20.0266L19.3359 19.4688ZM19.7969 18.6172L18.8645 18.2556L18.8605 18.2661L19.7969 18.6172ZM19.7734 17.0078L18.8643 17.4245L18.8677 17.4318L19.7734 17.0078ZM19.2656 16.4297L18.7392 17.28L18.7482 17.2854L19.2656 16.4297ZM17.5625 16.4766L17.0078 15.6445L16.9997 15.65L17.5625 16.4766ZM17 17.1719L16.0842 16.7702L16.0812 16.777L16.0784 16.7838L17 17.1719ZM16.8125 18.1797V19.1797H17.8125V18.1797H16.8125ZM14.5547 18.1797H13.5547V19.1797H14.5547V18.1797ZM15.0391 16.3203L15.9063 16.8182L15.9083 16.8147L15.0391 16.3203ZM16.4062 14.9688L16.8991 15.8389L16.9049 15.8356L16.4062 14.9688ZM20.5156 14.8516L20.0857 15.7545L20.096 15.7593L20.5156 14.8516ZM21.7656 15.9609L20.9008 16.4631L20.9073 16.4741L21.7656 15.9609ZM22.0156 18.7812L22.9629 19.1017L22.9643 19.0975L22.0156 18.7812ZM21.5 19.8438L20.6548 19.3093L20.6527 19.3126L21.5 19.8438ZM19.6641 22.0234L18.9522 21.3212L18.9343 21.3393L18.9174 21.3583L19.6641 22.0234ZM17.6875 24.2422L16.9408 23.577L15.4574 25.2422H17.6875V24.2422ZM21.5625 24.2422V26H23.5625V24.2422H21.5625ZM22.5625 25H14.7812V27H22.5625V25ZM15.7812 26V24.5H13.7812V26H15.7812ZM15.5125 25.1821L19.1922 21.2367L17.7296 19.8726L14.05 23.8179L15.5125 25.1821ZM19.2047 21.2231C19.5919 20.7923 19.9146 20.3944 20.1616 20.0329L18.5103 18.9046C18.3302 19.1681 18.0696 19.4941 17.7172 19.8862L19.2047 21.2231ZM20.1659 20.0266C20.4058 19.6696 20.6032 19.315 20.7332 18.9683L18.8605 18.2661C18.8031 18.4194 18.6932 18.6324 18.506 18.9109L20.1659 20.0266ZM20.7292 18.9787C20.8644 18.6301 20.9453 18.2649 20.9453 17.8906H18.9453C18.9453 17.9747 18.9273 18.0939 18.8645 18.2557L20.7292 18.9787ZM20.9453 17.8906C20.9453 17.4389 20.8703 16.9923 20.6791 16.5839L18.8677 17.4318C18.9057 17.5129 18.9453 17.6549 18.9453 17.8906H20.9453ZM20.6825 16.5912C20.4888 16.1686 20.1876 15.8186 19.783 15.574L18.7482 17.2854C18.7916 17.3116 18.8289 17.347 18.8644 17.4245L20.6825 16.5912ZM19.792 15.5794C19.3793 15.324 18.9149 15.2266 18.4531 15.2266V17.2266C18.6372 17.2266 18.7144 17.2646 18.7393 17.28L19.792 15.5794ZM18.4531 15.2266C17.9412 15.2266 17.4449 15.3531 17.0078 15.6445L18.1172 17.3086C18.1801 17.2666 18.2775 17.2266 18.4531 17.2266V15.2266ZM16.9997 15.65C16.5851 15.9322 16.2825 16.3182 16.0842 16.7702L17.9158 17.5735C17.978 17.4318 18.0503 17.3542 18.1253 17.3032L16.9997 15.65ZM16.0784 16.7838C15.8939 17.222 15.8125 17.693 15.8125 18.1797H17.8125C17.8125 17.9163 17.8561 17.7155 17.9216 17.5599L16.0784 16.7838ZM16.8125 17.1797H14.5547V19.1797H16.8125V17.1797ZM15.5547 18.1797C15.5547 17.6693 15.6743 17.2224 15.9063 16.8182L14.1718 15.8224C13.758 16.5432 13.5547 17.3359 13.5547 18.1797H15.5547ZM15.9083 16.8147C16.1387 16.4097 16.4617 16.0866 16.8991 15.8389L15.9134 14.0986C15.1737 14.5176 14.5853 15.0955 14.1698 15.8259L15.9083 16.8147ZM16.9049 15.8356C17.3153 15.5995 17.8345 15.4609 18.5 15.4609V13.4609C17.5509 13.4609 16.6743 13.6609 15.9076 14.1019L16.9049 15.8356ZM18.5 15.4609C19.1931 15.4609 19.7085 15.5748 20.0857 15.7544L20.9456 13.9487C20.229 13.6075 19.4007 13.4609 18.5 13.4609V15.4609ZM20.096 15.7593C20.4784 15.936 20.7317 16.1718 20.9008 16.4631L22.6304 15.4588C22.237 14.7813 21.657 14.2775 20.9352 13.9439L20.096 15.7593ZM20.9073 16.4741C21.0845 16.7704 21.1953 17.1584 21.1953 17.6797H23.1953C23.1953 16.8676 23.0197 16.1098 22.6239 15.4478L20.9073 16.4741ZM21.1953 17.6797C21.1953 17.9461 21.1531 18.2066 21.0669 18.465L22.9643 19.0975C23.1177 18.6372 23.1953 18.1633 23.1953 17.6797H21.1953ZM21.0683 18.4608C20.9768 18.7315 20.8414 19.0142 20.6548 19.3093L22.3452 20.3782C22.6065 19.9649 22.8149 19.5394 22.9629 19.1017L21.0683 18.4608ZM20.6527 19.3126C20.4654 19.6114 20.2321 19.924 19.9485 20.2501L21.4577 21.5624C21.7992 21.1698 22.0971 20.774 22.3473 20.3749L20.6527 19.3126ZM19.9485 20.2501C19.6515 20.5917 19.3196 20.9487 18.9522 21.3212L20.376 22.7257C20.7689 22.3274 21.1298 21.9396 21.4577 21.5624L19.9485 20.2501ZM18.9174 21.3583L16.9408 23.577L18.4342 24.9074L20.4107 22.6886L18.9174 21.3583ZM17.6875 25.2422H22.5625V23.2422H17.6875V25.2422ZM31.4219 19.6641H32.4219V18.6641H31.4219V19.6641ZM31.4219 21.625V22.625H32.4219V21.625H31.4219ZM23.625 21.625H22.625V22.625H23.625V21.625ZM23.625 19.6641V18.6641H22.625V19.6641H23.625ZM28.5938 16.5781H29.5938V15.5781H28.5938V16.5781ZM28.5938 24.8594V25.8594H29.5938V24.8594H28.5938ZM26.4609 24.8594H25.4609V25.8594H26.4609V24.8594ZM26.4609 16.5781V15.5781H25.4609V16.5781H26.4609ZM30.4219 19.6641V21.625H32.4219V19.6641H30.4219ZM31.4219 20.625H23.625V22.625H31.4219V20.625ZM24.625 21.625V19.6641H22.625V21.625H24.625ZM23.625 20.6641H31.4219V18.6641H23.625V20.6641ZM27.5938 16.5781V24.8594H29.5938V16.5781H27.5938ZM28.5938 23.8594H26.4609V25.8594H28.5938V23.8594ZM27.4609 24.8594V16.5781H25.4609V24.8594H27.4609ZM26.4609 17.5781H28.5938V15.5781H26.4609V17.5781Z" fill="#035763" mask="url(#path-4-outside-1_2477_7368)"/>
</g>
<defs>
<clipPath id="clip0_2477_7368">
<rect width="46" height="46" fill="white"/>
</clipPath>
</defs>
</svg>
