<svg width="72" height="72" viewBox="0 0 72 72" fill="none" xmlns="http://www.w3.org/2000/svg">
<g clip-path="url(#clip0_2477_7368)">
<g filter="url(#filter0_d_2477_7368)">
<circle cx="36" cy="36" r="25" fill="white"/>
<circle cx="36" cy="36" r="24.5" stroke="#035763"/>
</g>
<path d="M37.812 57.1429L37.8119 57.143C37.3814 57.4986 36.8278 57.6972 36.2511 57.6967C35.6748 57.6963 35.1218 57.4969 34.6921 57.1409C34.6919 57.1407 34.6916 57.1406 34.6914 57.1404L34.0207 56.5807C34.0202 56.5803 34.0197 56.5799 34.0192 56.5795C24.2989 48.3998 19.5931 41.0731 19.5931 34.5104C19.5931 25.7058 27.024 18.5193 36.2539 18.5193C45.4837 18.5193 52.9146 25.7058 52.9146 34.5104C52.9146 41.2248 47.9883 48.7397 37.812 57.1429ZM36.2539 27.3215C34.2882 27.3215 32.3975 28.072 30.9989 29.4168C29.5994 30.7625 28.8074 32.594 28.8074 34.5104C28.8074 36.4267 29.5994 38.2583 30.9989 39.604C32.3975 40.9487 34.2882 41.6992 36.2539 41.6992C38.2195 41.6992 40.1102 40.9487 41.5088 39.604C42.9083 38.2583 43.7003 36.4267 43.7003 34.5104C43.7003 32.594 42.9083 30.7625 41.5088 29.4168C40.1102 28.072 38.2195 27.3215 36.2539 27.3215Z" fill="#2BC2CC" stroke="#035763" stroke-width="1.5"/>
<rect x="26.8431" y="25.4615" width="19" height="20.1923" fill="#2BC2CC"/>
<mask id="path-5-outside-1_2477_7368" maskUnits="userSpaceOnUse" x="26" y="27" width="20" height="14" fill="black">
<rect fill="white" x="26" y="27" width="20" height="14"/>
<path d="M35.5625 38.2422V40H27.7812V38.5L31.4609 34.5547C31.8307 34.1432 32.1224 33.7812 32.3359 33.4688C32.5495 33.151 32.7031 32.8672 32.7969 32.6172C32.8958 32.362 32.9453 32.1198 32.9453 31.8906C32.9453 31.5469 32.888 31.2526 32.7734 31.0078C32.6589 30.7578 32.4896 30.5651 32.2656 30.4297C32.0469 30.2943 31.776 30.2266 31.4531 30.2266C31.1094 30.2266 30.8125 30.3099 30.5625 30.4766C30.3177 30.6432 30.1302 30.875 30 31.1719C29.875 31.4688 29.8125 31.8047 29.8125 32.1797H27.5547C27.5547 31.5026 27.7161 30.8828 28.0391 30.3203C28.362 29.7526 28.8177 29.3021 29.4062 28.9688C29.9948 28.6302 30.6927 28.4609 31.5 28.4609C32.2969 28.4609 32.9688 28.5911 33.5156 28.8516C34.0677 29.1068 34.4844 29.4766 34.7656 29.9609C35.0521 30.4401 35.1953 31.013 35.1953 31.6797C35.1953 32.0547 35.1354 32.4219 35.0156 32.7812C34.8958 33.1354 34.724 33.4896 34.5 33.8438C34.2812 34.1927 34.0156 34.5469 33.7031 34.9062C33.3906 35.2656 33.0443 35.638 32.6641 36.0234L30.6875 38.2422H35.5625ZM44.4219 33.6641V35.625H36.625V33.6641H44.4219ZM41.5938 30.5781V38.8594H39.4609V30.5781H41.5938Z"/>
</mask>
<path d="M35.5625 38.2422V40H27.7812V38.5L31.4609 34.5547C31.8307 34.1432 32.1224 33.7812 32.3359 33.4688C32.5495 33.151 32.7031 32.8672 32.7969 32.6172C32.8958 32.362 32.9453 32.1198 32.9453 31.8906C32.9453 31.5469 32.888 31.2526 32.7734 31.0078C32.6589 30.7578 32.4896 30.5651 32.2656 30.4297C32.0469 30.2943 31.776 30.2266 31.4531 30.2266C31.1094 30.2266 30.8125 30.3099 30.5625 30.4766C30.3177 30.6432 30.1302 30.875 30 31.1719C29.875 31.4688 29.8125 31.8047 29.8125 32.1797H27.5547C27.5547 31.5026 27.7161 30.8828 28.0391 30.3203C28.362 29.7526 28.8177 29.3021 29.4062 28.9688C29.9948 28.6302 30.6927 28.4609 31.5 28.4609C32.2969 28.4609 32.9688 28.5911 33.5156 28.8516C34.0677 29.1068 34.4844 29.4766 34.7656 29.9609C35.0521 30.4401 35.1953 31.013 35.1953 31.6797C35.1953 32.0547 35.1354 32.4219 35.0156 32.7812C34.8958 33.1354 34.724 33.4896 34.5 33.8438C34.2812 34.1927 34.0156 34.5469 33.7031 34.9062C33.3906 35.2656 33.0443 35.638 32.6641 36.0234L30.6875 38.2422H35.5625ZM44.4219 33.6641V35.625H36.625V33.6641H44.4219ZM41.5938 30.5781V38.8594H39.4609V30.5781H41.5938Z" fill="white"/>
<path d="M35.5625 38.2422H36.5625V37.2422H35.5625V38.2422ZM35.5625 40V41H36.5625V40H35.5625ZM27.7812 40H26.7812V41H27.7812V40ZM27.7812 38.5L27.05 37.8179L26.7812 38.106V38.5H27.7812ZM31.4609 34.5547L32.1922 35.2367L32.1985 35.23L32.2047 35.2231L31.4609 34.5547ZM32.3359 33.4688L33.1616 34.033L33.1659 34.0266L32.3359 33.4688ZM32.7969 32.6172L31.8645 32.2556L31.8605 32.2661L32.7969 32.6172ZM32.7734 31.0078L31.8643 31.4245L31.8677 31.4318L32.7734 31.0078ZM32.2656 30.4297L31.7392 31.28L31.7482 31.2854L32.2656 30.4297ZM30.5625 30.4766L30.0078 29.6445L29.9997 29.65L30.5625 30.4766ZM30 31.1719L29.0842 30.7702L29.0812 30.777L29.0784 30.7838L30 31.1719ZM29.8125 32.1797V33.1797H30.8125V32.1797H29.8125ZM27.5547 32.1797H26.5547V33.1797H27.5547V32.1797ZM28.0391 30.3203L28.9063 30.8182L28.9083 30.8147L28.0391 30.3203ZM29.4062 28.9688L29.8991 29.8389L29.9049 29.8356L29.4062 28.9688ZM33.5156 28.8516L33.0857 29.7545L33.096 29.7593L33.5156 28.8516ZM34.7656 29.9609L33.9008 30.4631L33.9073 30.4741L34.7656 29.9609ZM35.0156 32.7812L35.9629 33.1017L35.9643 33.0975L35.0156 32.7812ZM34.5 33.8438L33.6548 33.3093L33.6527 33.3126L34.5 33.8438ZM32.6641 36.0234L31.9522 35.3212L31.9343 35.3393L31.9174 35.3583L32.6641 36.0234ZM30.6875 38.2422L29.9408 37.577L28.4574 39.2422H30.6875V38.2422ZM34.5625 38.2422V40H36.5625V38.2422H34.5625ZM35.5625 39H27.7812V41H35.5625V39ZM28.7812 40V38.5H26.7812V40H28.7812ZM28.5125 39.1821L32.1922 35.2367L30.7296 33.8726L27.05 37.8179L28.5125 39.1821ZM32.2047 35.2231C32.5919 34.7923 32.9146 34.3944 33.1616 34.0329L31.5103 32.9046C31.3302 33.1681 31.0696 33.4941 30.7172 33.8862L32.2047 35.2231ZM33.1659 34.0266C33.4058 33.6696 33.6032 33.315 33.7332 32.9683L31.8605 32.2661C31.8031 32.4194 31.6932 32.6324 31.506 32.9109L33.1659 34.0266ZM33.7292 32.9787C33.8644 32.6301 33.9453 32.2649 33.9453 31.8906H31.9453C31.9453 31.9747 31.9273 32.0939 31.8645 32.2557L33.7292 32.9787ZM33.9453 31.8906C33.9453 31.4389 33.8703 30.9923 33.6791 30.5839L31.8677 31.4318C31.9057 31.5129 31.9453 31.6549 31.9453 31.8906H33.9453ZM33.6825 30.5912C33.4888 30.1686 33.1876 29.8186 32.783 29.574L31.7482 31.2854C31.7916 31.3116 31.8289 31.347 31.8644 31.4245L33.6825 30.5912ZM32.792 29.5794C32.3793 29.324 31.9149 29.2266 31.4531 29.2266V31.2266C31.6372 31.2266 31.7144 31.2646 31.7393 31.28L32.792 29.5794ZM31.4531 29.2266C30.9412 29.2266 30.4449 29.3531 30.0078 29.6445L31.1172 31.3086C31.1801 31.2666 31.2775 31.2266 31.4531 31.2266V29.2266ZM29.9997 29.65C29.5851 29.9322 29.2825 30.3182 29.0842 30.7702L30.9158 31.5735C30.978 31.4318 31.0503 31.3542 31.1253 31.3032L29.9997 29.65ZM29.0784 30.7838C28.8939 31.222 28.8125 31.693 28.8125 32.1797H30.8125C30.8125 31.9163 30.8561 31.7155 30.9216 31.5599L29.0784 30.7838ZM29.8125 31.1797H27.5547V33.1797H29.8125V31.1797ZM28.5547 32.1797C28.5547 31.6693 28.6743 31.2224 28.9063 30.8182L27.1718 29.8224C26.758 30.5432 26.5547 31.3359 26.5547 32.1797H28.5547ZM28.9083 30.8147C29.1387 30.4097 29.4617 30.0866 29.8991 29.8389L28.9134 28.0986C28.1737 28.5176 27.5853 29.0955 27.1698 29.8259L28.9083 30.8147ZM29.9049 29.8356C30.3153 29.5995 30.8345 29.4609 31.5 29.4609V27.4609C30.5509 27.4609 29.6743 27.6609 28.9076 28.1019L29.9049 29.8356ZM31.5 29.4609C32.1931 29.4609 32.7085 29.5748 33.0857 29.7544L33.9456 27.9487C33.229 27.6075 32.4007 27.4609 31.5 27.4609V29.4609ZM33.096 29.7593C33.4784 29.936 33.7317 30.1718 33.9008 30.4631L35.6304 29.4588C35.237 28.7813 34.657 28.2775 33.9352 27.9439L33.096 29.7593ZM33.9073 30.4741C34.0845 30.7704 34.1953 31.1584 34.1953 31.6797H36.1953C36.1953 30.8676 36.0197 30.1098 35.6239 29.4478L33.9073 30.4741ZM34.1953 31.6797C34.1953 31.9461 34.1531 32.2066 34.0669 32.465L35.9643 33.0975C36.1177 32.6372 36.1953 32.1633 36.1953 31.6797H34.1953ZM34.0683 32.4608C33.9768 32.7315 33.8414 33.0142 33.6548 33.3093L35.3452 34.3782C35.6065 33.9649 35.8149 33.5394 35.9629 33.1017L34.0683 32.4608ZM33.6527 33.3126C33.4654 33.6114 33.2321 33.924 32.9485 34.2501L34.4577 35.5624C34.7992 35.1698 35.0971 34.774 35.3473 34.3749L33.6527 33.3126ZM32.9485 34.2501C32.6515 34.5917 32.3196 34.9487 31.9522 35.3212L33.376 36.7257C33.7689 36.3274 34.1298 35.9396 34.4577 35.5624L32.9485 34.2501ZM31.9174 35.3583L29.9408 37.577L31.4342 38.9074L33.4107 36.6886L31.9174 35.3583ZM30.6875 39.2422H35.5625V37.2422H30.6875V39.2422ZM44.4219 33.6641H45.4219V32.6641H44.4219V33.6641ZM44.4219 35.625V36.625H45.4219V35.625H44.4219ZM36.625 35.625H35.625V36.625H36.625V35.625ZM36.625 33.6641V32.6641H35.625V33.6641H36.625ZM41.5938 30.5781H42.5938V29.5781H41.5938V30.5781ZM41.5938 38.8594V39.8594H42.5938V38.8594H41.5938ZM39.4609 38.8594H38.4609V39.8594H39.4609V38.8594ZM39.4609 30.5781V29.5781H38.4609V30.5781H39.4609ZM43.4219 33.6641V35.625H45.4219V33.6641H43.4219ZM44.4219 34.625H36.625V36.625H44.4219V34.625ZM37.625 35.625V33.6641H35.625V35.625H37.625ZM36.625 34.6641H44.4219V32.6641H36.625V34.6641ZM40.5938 30.5781V38.8594H42.5938V30.5781H40.5938ZM41.5938 37.8594H39.4609V39.8594H41.5938V37.8594ZM40.4609 38.8594V30.5781H38.4609V38.8594H40.4609ZM39.4609 31.5781H41.5938V29.5781H39.4609V31.5781Z" fill="#035763" mask="url(#path-5-outside-1_2477_7368)"/>
</g>
<defs>
<filter id="filter0_d_2477_7368" x="2" y="-4" width="74" height="74" filterUnits="userSpaceOnUse" color-interpolation-filters="sRGB">
<feFlood flood-opacity="0" result="BackgroundImageFix"/>
<feColorMatrix in="SourceAlpha" type="matrix" values="0 0 0 0 0 0 0 0 0 0 0 0 0 0 0 0 0 0 127 0" result="hardAlpha"/>
<feMorphology radius="2" operator="dilate" in="SourceAlpha" result="effect1_dropShadow_2477_7368"/>
<feOffset dx="3" dy="-3"/>
<feGaussianBlur stdDeviation="5"/>
<feComposite in2="hardAlpha" operator="out"/>
<feColorMatrix type="matrix" values="0 0 0 0 0.471667 0 0 0 0 0.471667 0 0 0 0 0.471667 0 0 0 0.25 0"/>
<feBlend mode="normal" in2="BackgroundImageFix" result="effect1_dropShadow_2477_7368"/>
<feBlend mode="normal" in="SourceGraphic" in2="effect1_dropShadow_2477_7368" result="shape"/>
</filter>
<clipPath id="clip0_2477_7368">
<rect width="72" height="72" fill="white"/>
</clipPath>
</defs>
</svg>
