<svg width="50" height="50" viewBox="0 0 50 50" fill="none" xmlns="http://www.w3.org/2000/svg">
<circle cx="25" cy="25" r="24.5" fill="white" stroke="#035763"/>
<path d="M26.812 45.1429L26.8119 45.143C26.3814 45.4986 25.8278 45.6972 25.2511 45.6967C24.6748 45.6963 24.1218 45.4969 23.6921 45.1409C23.6919 45.1407 23.6916 45.1406 23.6914 45.1404L23.0207 44.5807C23.0202 44.5803 23.0197 44.5799 23.0192 44.5795C13.2989 36.3998 8.59314 29.0731 8.59314 22.5104C8.59314 13.7058 16.024 6.51929 25.2539 6.51929C34.4837 6.51929 41.9146 13.7058 41.9146 22.5104C41.9146 29.2248 36.9883 36.7397 26.812 45.1429ZM25.2539 15.3215C23.2882 15.3215 21.3975 16.072 19.9989 17.4168C18.5994 18.7625 17.8074 20.594 17.8074 22.5104C17.8074 24.4267 18.5994 26.2583 19.9989 27.604C21.3975 28.9487 23.2882 29.6992 25.2539 29.6992C27.2195 29.6992 29.1102 28.9487 30.5088 27.604C31.9083 26.2583 32.7003 24.4267 32.7003 22.5104C32.7003 20.594 31.9083 18.7625 30.5088 17.4168C29.1102 16.072 27.2195 15.3215 25.2539 15.3215Z" fill="#2BC2CC" stroke="#035763" stroke-width="1.5"/>
<rect x="15.8431" y="13.4615" width="19" height="20.1923" fill="#2BC2CC"/>
<path d="M24.8728 15.923L24.8724 15.9214L24.7779 15.4845C24.7779 15.4844 24.7779 15.4843 24.7778 15.4841C24.6263 14.7763 25.0981 14.054 25.8803 13.8989C26.6666 13.743 27.4084 14.2339 27.5619 14.9494L27.562 14.9503L27.6564 15.3866C27.6565 15.3868 27.6565 15.3871 27.6566 15.3873C27.9541 16.782 28.7529 18.0263 29.9102 18.9057L29.9108 18.9062L30.206 19.1297C30.2063 19.13 30.2067 19.1303 30.2071 19.1305C31.0004 19.7385 31.4611 20.6491 31.4671 21.6106L31.4937 25.8855C31.5003 26.9441 30.9578 27.9442 30.0331 28.5447L30.0329 28.5448L28.5006 29.5411C28.5005 29.5412 28.5004 29.5413 28.5002 29.5414C27.9521 29.8961 27.3073 30.0883 26.6422 30.0921L22.7441 30.1145C21.9421 30.1191 21.3211 29.5017 21.3166 28.7774C21.316 28.6773 21.327 28.5788 21.3471 28.4851L21.4433 28.0356L21.0034 27.9018C20.4281 27.7268 20.0275 27.2157 20.0239 26.6319C20.0223 26.3793 20.0925 26.1437 20.2191 25.9391L20.6069 25.312L19.8806 25.1836C19.2158 25.0661 18.7312 24.5116 18.7273 23.8714C18.7247 23.4565 18.9217 23.078 19.243 22.8255L19.8676 22.3347L19.1546 21.9838C18.6934 21.7568 18.3914 21.3048 18.3883 20.7977C18.3838 20.0734 18.997 19.4489 19.799 19.4443L25.5563 19.4112L26.4521 19.406L25.9771 18.6463C25.4542 17.81 25.0787 16.8901 24.8728 15.923Z" fill="white" stroke="#035763"/>
</svg>
