<svg width="88" height="82" viewBox="0 0 88 82" fill="none" xmlns="http://www.w3.org/2000/svg">
<path d="M42.1207 61.1707L42.1206 61.1707C41.6439 61.5802 41.0362 61.8051 40.4078 61.8046C39.7797 61.804 39.1726 61.5783 38.6968 61.1683C38.6966 61.1681 38.6963 61.1679 38.6961 61.1677L38.0239 60.5844C38.0236 60.5842 38.0233 60.5839 38.023 60.5836C28.2945 52.0697 23.5 44.3762 23.5 37.4107C23.5 28.0708 31.0708 20.5 40.4107 20.5C49.7506 20.5 57.3214 28.0708 57.3214 37.4107C57.3214 44.5364 52.3034 52.4258 42.1207 61.1707ZM40.4107 30.2143C38.5021 30.2143 36.6717 30.9725 35.3221 32.3221C33.9725 33.6717 33.2143 35.5021 33.2143 37.4107C33.2143 39.3193 33.9725 41.1498 35.3221 42.4994C36.6717 43.8489 38.5021 44.6071 40.4107 44.6071C42.3193 44.6071 44.1498 43.8489 45.4994 42.4994C46.8489 41.1498 47.6071 39.3193 47.6071 37.4107C47.6071 35.5021 46.8489 33.6717 45.4994 32.3221C44.1498 30.9725 42.3193 30.2143 40.4107 30.2143Z" fill="#2BC2CC" stroke="#035763"/>
<g filter="url(#filter0_d_1975_2643)">
<path d="M65.5 40.5C65.5 54.8684 54.0743 66.5 40 66.5C25.9257 66.5 14.5 54.8684 14.5 40.5C14.5 26.1316 25.9257 14.5 40 14.5C54.0743 14.5 65.5 26.1316 65.5 40.5Z" stroke="#035763" shape-rendering="crispEdges"/>
</g>
<defs>
<filter id="filter0_d_1975_2643" x="0" y="-7" width="88" height="89" filterUnits="userSpaceOnUse" color-interpolation-filters="sRGB">
<feFlood flood-opacity="0" result="BackgroundImageFix"/>
<feColorMatrix in="SourceAlpha" type="matrix" values="0 0 0 0 0 0 0 0 0 0 0 0 0 0 0 0 0 0 127 0" result="hardAlpha"/>
<feMorphology radius="6" operator="dilate" in="SourceAlpha" result="effect1_dropShadow_1975_2643"/>
<feOffset dx="4" dy="-3"/>
<feGaussianBlur stdDeviation="6"/>
<feComposite in2="hardAlpha" operator="out"/>
<feColorMatrix type="matrix" values="0 0 0 0 0.471667 0 0 0 0 0.471667 0 0 0 0 0.471667 0 0 0 0.15 0"/>
<feBlend mode="normal" in2="BackgroundImageFix" result="effect1_dropShadow_1975_2643"/>
<feBlend mode="normal" in="SourceGraphic" in2="effect1_dropShadow_1975_2643" result="shape"/>
</filter>
</defs>
</svg>
