<svg width="72" height="72" viewBox="0 0 72 72" fill="none" xmlns="http://www.w3.org/2000/svg">
<g clip-path="url(#clip0_2175_12)">
<g filter="url(#filter0_d_2175_12)">
<circle cx="36" cy="36" r="25" fill="white"/>
<circle cx="36" cy="36" r="24.5" stroke="#035763"/>
</g>
<path d="M37.812 57.1429L37.8119 57.143C37.3814 57.4986 36.8278 57.6972 36.2511 57.6967C35.6748 57.6963 35.1218 57.4969 34.6921 57.1409C34.6919 57.1407 34.6916 57.1406 34.6914 57.1404L34.0207 56.5807C34.0202 56.5803 34.0197 56.5799 34.0192 56.5795C24.2989 48.3998 19.5931 41.0731 19.5931 34.5104C19.5931 25.7058 27.024 18.5193 36.2539 18.5193C45.4837 18.5193 52.9146 25.7058 52.9146 34.5104C52.9146 41.2248 47.9883 48.7397 37.812 57.1429ZM36.2539 27.3215C34.2882 27.3215 32.3975 28.072 30.9989 29.4168C29.5994 30.7625 28.8074 32.594 28.8074 34.5104C28.8074 36.4267 29.5994 38.2583 30.9989 39.604C32.3975 40.9487 34.2882 41.6992 36.2539 41.6992C38.2195 41.6992 40.1102 40.9487 41.5088 39.604C42.9083 38.2583 43.7003 36.4267 43.7003 34.5104C43.7003 32.594 42.9083 30.7625 41.5088 29.4168C40.1102 28.072 38.2195 27.3215 36.2539 27.3215Z" fill="#2BC2CC" stroke="#035763" stroke-width="1.5"/>
<rect x="26.8431" y="25.4615" width="19" height="20.1923" fill="#2BC2CC"/>
<path d="M35.8728 27.923L35.8724 27.9214L35.7779 27.4845C35.7779 27.4844 35.7779 27.4843 35.7778 27.4841C35.6263 26.7763 36.0981 26.054 36.8803 25.8989C37.6666 25.743 38.4084 26.2339 38.5619 26.9494L38.562 26.9503L38.6564 27.3866C38.6565 27.3868 38.6565 27.3871 38.6566 27.3873C38.9541 28.782 39.7529 30.0263 40.9102 30.9057L40.9108 30.9062L41.206 31.1297C41.2063 31.13 41.2067 31.1303 41.2071 31.1305C42.0004 31.7385 42.4611 32.6491 42.4671 33.6106L42.4937 37.8855C42.5003 38.9441 41.9578 39.9442 41.0331 40.5447L41.0329 40.5448L39.5006 41.5411C39.5005 41.5412 39.5004 41.5413 39.5002 41.5414C38.9521 41.8961 38.3073 42.0883 37.6422 42.0921L33.7441 42.1145C32.9421 42.1191 32.3211 41.5017 32.3166 40.7774C32.316 40.6773 32.327 40.5788 32.3471 40.4851L32.4433 40.0356L32.0034 39.9018C31.4281 39.7268 31.0275 39.2157 31.0239 38.6319C31.0223 38.3793 31.0925 38.1437 31.2191 37.9391L31.6069 37.312L30.8806 37.1836C30.2158 37.0661 29.7312 36.5116 29.7273 35.8714C29.7247 35.4565 29.9217 35.078 30.243 34.8255L30.8676 34.3347L30.1546 33.9838C29.6934 33.7568 29.3914 33.3048 29.3883 32.7977C29.3838 32.0734 29.997 31.4489 30.799 31.4443L36.5563 31.4112L37.4521 31.406L36.9771 30.6463C36.4542 29.81 36.0787 28.8901 35.8728 27.923Z" fill="white" stroke="#035763"/>
</g>
<defs>
<filter id="filter0_d_2175_12" x="2" y="-4" width="74" height="74" filterUnits="userSpaceOnUse" color-interpolation-filters="sRGB">
<feFlood flood-opacity="0" result="BackgroundImageFix"/>
<feColorMatrix in="SourceAlpha" type="matrix" values="0 0 0 0 0 0 0 0 0 0 0 0 0 0 0 0 0 0 127 0" result="hardAlpha"/>
<feMorphology radius="2" operator="dilate" in="SourceAlpha" result="effect1_dropShadow_2175_12"/>
<feOffset dx="3" dy="-3"/>
<feGaussianBlur stdDeviation="5"/>
<feComposite in2="hardAlpha" operator="out"/>
<feColorMatrix type="matrix" values="0 0 0 0 0.471667 0 0 0 0 0.471667 0 0 0 0 0.471667 0 0 0 0.25 0"/>
<feBlend mode="normal" in2="BackgroundImageFix" result="effect1_dropShadow_2175_12"/>
<feBlend mode="normal" in="SourceGraphic" in2="effect1_dropShadow_2175_12" result="shape"/>
</filter>
<clipPath id="clip0_2175_12">
<rect width="72" height="72" fill="white"/>
</clipPath>
</defs>
</svg>
