<svg width="88" height="82" viewBox="0 0 88 82" fill="none" xmlns="http://www.w3.org/2000/svg">
<path d="M40.9578 60.981L40.9577 60.9811C40.5264 61.3516 39.9766 61.555 39.408 61.5546C38.8399 61.5541 38.2908 61.3499 37.8604 60.9793C37.86 60.979 37.8597 60.9787 37.8594 60.9784L37.1886 60.3963C37.1882 60.396 37.1878 60.3956 37.1874 60.3953C27.4713 51.8921 22.75 44.2626 22.75 37.4107C22.75 28.2089 30.2089 20.75 39.4107 20.75C48.6126 20.75 56.0714 28.2089 56.0714 37.4107C56.0714 44.4206 51.1293 52.2458 40.9578 60.981ZM39.4107 29.9643C37.4358 29.9643 35.5418 30.7488 34.1453 32.1453C32.7488 33.5418 31.9643 35.4358 31.9643 37.4107C31.9643 39.3856 32.7488 41.2797 34.1453 42.6761C35.5418 44.0726 37.4358 44.8571 39.4107 44.8571C41.3856 44.8571 43.2797 44.0726 44.6761 42.6761C46.0726 41.2797 46.8571 39.3856 46.8571 37.4107C46.8571 35.4358 46.0726 33.5418 44.6761 32.1453C43.2797 30.7488 41.3856 29.9643 39.4107 29.9643Z" fill="#2BC2CC" stroke="#035763" stroke-width="1.5"/>
<rect x="29" y="28" width="19" height="21" fill="#2BC2CC"/>
<path d="M39.0304 30.5677L39.0301 30.5661L38.9356 30.1117C38.9355 30.1116 38.9355 30.1115 38.9355 30.1114C38.7775 29.3442 39.2724 28.5929 40.0406 28.4345C40.8079 28.2762 41.5594 28.7712 41.7179 29.5395L41.718 29.5404L41.8124 29.9942C41.8125 29.9944 41.8125 29.9946 41.8126 29.9948C42.1082 31.4359 42.9026 32.7261 44.0594 33.6402L44.06 33.6407L44.3552 33.8732C44.3555 33.8735 44.3559 33.8737 44.3562 33.874C45.1505 34.507 45.6179 35.4608 45.6239 36.475L45.6505 40.9209C45.6572 42.0377 45.1068 43.0841 44.1826 43.7082L44.1823 43.7084L42.6501 44.7445C42.6499 44.7446 42.6498 44.7447 42.6496 44.7448C42.1021 45.1133 41.46 45.3118 40.7992 45.3157L36.901 45.339C36.1177 45.3437 35.4781 44.7118 35.4735 43.9284C35.4728 43.8213 35.4841 43.7161 35.5047 43.6162L35.5956 43.1746L35.1658 43.0386C34.5984 42.8592 34.1844 42.3265 34.1807 41.6972C34.1791 41.4264 34.2516 41.1751 34.3804 40.9585L34.7475 40.3411L34.041 40.2112C33.3883 40.0912 32.8882 39.5173 32.8841 38.8262C32.8814 38.3803 33.0852 37.9799 33.4072 37.7168L33.9992 37.2329L33.3186 36.8845C32.8607 36.6501 32.5484 36.1755 32.5451 35.6296C32.5404 34.8463 33.1724 34.2067 33.9557 34.202L39.713 34.1676L40.5908 34.1624L40.1385 33.41C39.6142 32.5379 39.2372 31.5779 39.0304 30.5677Z" fill="white" stroke="#035763"/>
<g filter="url(#filter0_d_1975_2643)">
<path d="M64.6666 40.3428C64.6666 54.6224 53.4243 66.1734 39.5864 66.1734C25.7486 66.1734 14.5063 54.6224 14.5063 40.3428C14.5063 26.0633 25.7486 14.5123 39.5864 14.5123C53.4243 14.5123 64.6666 26.0633 64.6666 40.3428Z" stroke="#035763" shape-rendering="crispEdges"/>
</g>
<defs>
<filter id="filter0_d_1975_2643" x="0.00628662" y="-6.98767" width="87.1603" height="88.661" filterUnits="userSpaceOnUse" color-interpolation-filters="sRGB">
<feFlood flood-opacity="0" result="BackgroundImageFix"/>
<feColorMatrix in="SourceAlpha" type="matrix" values="0 0 0 0 0 0 0 0 0 0 0 0 0 0 0 0 0 0 127 0" result="hardAlpha"/>
<feMorphology radius="6" operator="dilate" in="SourceAlpha" result="effect1_dropShadow_1975_2643"/>
<feOffset dx="4" dy="-3"/>
<feGaussianBlur stdDeviation="6"/>
<feComposite in2="hardAlpha" operator="out"/>
<feColorMatrix type="matrix" values="0 0 0 0 0.471667 0 0 0 0 0.471667 0 0 0 0 0.471667 0 0 0 0.15 0"/>
<feBlend mode="normal" in2="BackgroundImageFix" result="effect1_dropShadow_1975_2643"/>
<feBlend mode="normal" in="SourceGraphic" in2="effect1_dropShadow_1975_2643" result="shape"/>
</filter>
</defs>
</svg>
