<svg width="46" height="47" viewBox="0 0 46 47" fill="none" xmlns="http://www.w3.org/2000/svg">
<circle cx="23" cy="23" r="22.5" fill="white" stroke="#035763"/>
<path d="M24.812 43.1429L24.8119 43.143C24.3814 43.4986 23.8278 43.6972 23.2511 43.6967C22.6749 43.6963 22.122 43.4969 21.6923 43.1411C21.692 43.1409 21.6917 43.1406 21.6914 43.1404L21.0207 42.5807C21.0202 42.5804 21.0198 42.58 21.0193 42.5796C11.299 34.3998 6.59314 27.0731 6.59314 20.5104C6.59314 11.7058 14.024 4.51929 23.2539 4.51929C32.4837 4.51929 39.9146 11.7058 39.9146 20.5104C39.9146 27.2248 34.9883 34.7397 24.812 43.1429ZM23.2539 13.3215C21.2882 13.3215 19.3975 14.072 17.9989 15.4168C16.5994 16.7625 15.8074 18.594 15.8074 20.5104C15.8074 22.4267 16.5994 24.2583 17.9989 25.604C19.3975 26.9487 21.2882 27.6992 23.2539 27.6992C25.2195 27.6992 27.1102 26.9487 28.5088 25.604C29.9083 24.2583 30.7003 22.4267 30.7003 20.5104C30.7003 18.594 29.9083 16.7625 28.5088 15.4168C27.1102 14.072 25.2195 13.3215 23.2539 13.3215Z" fill="#27AE60" stroke="#035763" stroke-width="1.5"/>
<rect x="13.8431" y="11.4615" width="19" height="20.1923" fill="#27AE60"/>
<path d="M23.71 11.5213L25.6423 17.0742L25.7591 17.4098H26.1145H32.2681L27.3199 20.7666L27.0022 20.9821L27.1284 21.3447L29.037 26.8292L23.9907 23.4059L23.71 23.2155L23.4293 23.4059L18.383 26.8292L20.2916 21.3447L20.4178 20.9821L20.1001 20.7666L15.1519 17.4098H21.3055H21.6609L21.7777 17.0742L23.71 11.5213Z" fill="white" stroke="#035763"/>
</svg>
