<svg width="88" height="89" viewBox="0 0 88 89" fill="none" xmlns="http://www.w3.org/2000/svg">
<path d="M41.9578 67.981L41.9577 67.9811C41.5264 68.3516 40.9766 68.555 40.408 68.5546C39.84 68.5541 39.2911 68.35 38.8606 67.9795C38.8602 67.9791 38.8598 67.9787 38.8594 67.9784L38.1886 67.3963C38.1882 67.396 38.1878 67.3956 38.1874 67.3953C28.4713 58.8921 23.75 51.2626 23.75 44.4107C23.75 35.2089 31.2089 27.75 40.4107 27.75C49.6126 27.75 57.0714 35.2089 57.0714 44.4107C57.0714 51.4206 52.1293 59.2458 41.9578 67.981ZM40.4107 38.9454C39.9433 38.9454 39.4002 39.0128 39.0494 39.4199C38.7192 39.8032 38.7481 40.2908 38.7602 40.494C38.7606 40.5019 38.7611 40.5095 38.7615 40.5166C38.7632 40.5481 38.7651 40.5788 38.7669 40.6086C38.7934 41.0547 38.8096 41.3252 38.4697 41.6651C38.3178 41.817 38.1963 41.9343 38.0988 42.0278C38.0827 42.0433 38.0667 42.0586 38.051 42.0736C37.977 42.1444 37.9092 42.2093 37.8571 42.2623C37.8056 42.3148 37.7012 42.4214 37.6275 42.5601C37.5195 42.7636 37.4991 42.9843 37.554 43.192C37.5738 43.267 37.6002 43.3275 37.613 43.3561C37.621 43.374 37.6455 43.4262 37.6456 43.4264C37.6584 43.4542 37.6701 43.482 37.6825 43.5237C37.7082 43.6102 37.75 43.8037 37.75 44.1954C37.75 44.2229 37.7498 44.2489 37.7494 44.2735C37.7156 44.3098 37.6854 44.3489 37.6589 44.3901C37.5731 44.5236 37.5391 44.6597 37.5286 44.7688C37.518 44.8784 37.5288 44.9812 37.5511 45.071C37.5732 45.16 37.6115 45.2567 37.6734 45.3497C37.732 45.4377 37.8385 45.5616 38.0126 45.6421C38.1034 45.684 38.2113 45.713 38.3311 45.7152C38.3722 45.7159 38.4126 45.7134 38.4519 45.7081C38.4577 45.7139 38.4636 45.7197 38.4697 45.7258C39.0729 46.3289 39.5185 46.7424 40.1225 46.8939C40.4104 46.966 40.6968 46.9702 40.9709 46.9657C41.0771 46.9639 41.1815 46.9609 41.2915 46.9577C41.4932 46.9519 41.7139 46.9454 42 46.9454C42.1325 46.9454 42.234 46.9469 42.3094 46.9489C42.3316 46.9518 42.3527 46.9542 42.3726 46.9562C42.4207 46.9612 42.4661 46.9644 42.5061 46.9659C42.5253 46.9666 42.5492 46.9672 42.5746 46.9667C42.5869 46.9664 42.6063 46.9658 42.6294 46.9639L42.6306 46.9639C42.6424 46.9629 42.7074 46.9579 42.7838 46.9354C42.808 46.9284 42.8487 46.9152 42.8965 46.8923C42.9372 46.8729 43.028 46.8256 43.1165 46.7328C43.2139 46.6306 43.3372 46.4382 43.3225 46.1736C43.3089 45.9278 43.1831 45.7666 43.114 45.6948C43.0429 45.6209 42.9729 45.5788 42.9391 45.5599C42.9002 45.5382 42.8669 45.5241 42.846 45.5159C42.8228 45.5068 42.8018 45.5 42.7851 45.495C42.8597 45.4358 42.9102 45.4049 42.9385 45.3898C42.9386 45.3898 42.9388 45.3898 42.9389 45.3898C42.9397 45.3899 42.9407 45.3899 42.9419 45.39C42.9729 45.3915 43.1241 45.3988 43.2908 45.3283C43.524 45.2298 43.6568 45.0444 43.7176 44.881C43.7639 44.7566 43.7688 44.6456 43.7704 44.6087C43.7724 44.5593 43.7711 44.5106 43.7699 44.4765C43.7688 44.4452 43.7673 44.4106 43.7655 44.3713C43.7591 44.2306 43.75 44.0289 43.75 43.6954C43.75 43.3579 43.7597 43.2018 43.7628 43.1575C43.7646 43.1449 43.766 43.1326 43.7672 43.1208C43.768 43.1135 43.7693 43.0999 43.7702 43.0834C43.7706 43.0767 43.7716 43.0585 43.7714 43.0354C43.7714 43.0253 43.7711 42.9997 43.7679 42.9671C43.7661 42.95 43.7598 42.9076 43.7548 42.8823C43.7447 42.8407 43.702 42.724 43.6637 42.6519C43.5546 42.5117 43.1421 42.2989 42.8502 42.3089C42.706 42.3634 42.5387 42.4864 42.4474 42.5721C42.1809 42.235 42.1702 41.7879 42.1537 41.0986C42.1526 41.0519 42.1514 41.0042 42.1502 40.9553C42.1417 40.6226 42.125 40.1087 41.8796 39.6879C41.5709 39.1585 41.0308 38.9454 40.4107 38.9454ZM37.7205 44.6237C37.7204 44.6236 37.7209 44.6214 37.7222 44.6175C37.7211 44.6219 37.7205 44.6238 37.7205 44.6237ZM38.1665 45.4664C38.1665 45.4663 38.1685 45.4672 38.1725 45.4696C38.1686 45.4677 38.1666 45.4665 38.1665 45.4664ZM42.2731 45.4039C42.2731 45.4039 42.274 45.4043 42.2757 45.4053L42.275 45.405C42.2737 45.4043 42.2731 45.4039 42.2731 45.4039ZM42.7288 42.8289C42.7288 42.8292 42.7263 42.8282 42.7211 42.8253C42.7262 42.8273 42.7288 42.8287 42.7288 42.8289ZM42.2654 42.9959C42.2608 43.0081 42.258 43.013 42.2578 43.0124C42.2576 43.0118 42.2599 43.0057 42.2654 42.9959Z" fill="#27AE60" stroke="#035763" stroke-width="1.5"/>
<rect x="32" y="35" width="17" height="21" fill="#27AE60"/>
<path d="M40.5 36.5485L42.3842 42.0713L42.4997 42.4098H42.8574H48.8848L44.0298 45.7692L43.7191 45.9842L43.8411 46.3418L45.7087 51.8157L40.7845 48.4085L40.5 48.2116L40.2155 48.4085L35.2913 51.8157L37.1589 46.3418L37.2809 45.9842L36.9702 45.7692L32.1152 42.4098H38.1426H38.5003L38.6158 42.0713L40.5 36.5485Z" fill="white" stroke="#035763"/>
<g filter="url(#filter0_d_1975_2645)">
<path d="M65.5 47.5C65.5 61.8684 54.0743 73.5 40 73.5C25.9257 73.5 14.5 61.8684 14.5 47.5C14.5 33.1316 25.9257 21.5 40 21.5C54.0743 21.5 65.5 33.1316 65.5 47.5Z" stroke="#035763" shape-rendering="crispEdges"/>
</g>
<defs>
<filter id="filter0_d_1975_2645" x="0" y="0" width="88" height="89" filterUnits="userSpaceOnUse" color-interpolation-filters="sRGB">
<feFlood flood-opacity="0" result="BackgroundImageFix"/>
<feColorMatrix in="SourceAlpha" type="matrix" values="0 0 0 0 0 0 0 0 0 0 0 0 0 0 0 0 0 0 127 0" result="hardAlpha"/>
<feMorphology radius="6" operator="dilate" in="SourceAlpha" result="effect1_dropShadow_1975_2645"/>
<feOffset dx="4" dy="-3"/>
<feGaussianBlur stdDeviation="6"/>
<feComposite in2="hardAlpha" operator="out"/>
<feColorMatrix type="matrix" values="0 0 0 0 0.471667 0 0 0 0 0.471667 0 0 0 0 0.471667 0 0 0 0.15 0"/>
<feBlend mode="normal" in2="BackgroundImageFix" result="effect1_dropShadow_1975_2645"/>
<feBlend mode="normal" in="SourceGraphic" in2="effect1_dropShadow_1975_2645" result="shape"/>
</filter>
</defs>
</svg>
