<svg width="88" height="89" viewBox="0 0 88 89" fill="none" xmlns="http://www.w3.org/2000/svg">
<path d="M42.1207 68.1707L42.1206 68.1707C41.644 68.5802 41.0362 68.8051 40.4078 68.8046C39.7798 68.804 39.1728 68.5783 38.697 68.1685C38.6967 68.1683 38.6964 68.168 38.6961 68.1677L38.0239 67.5844C38.0236 67.5842 38.0233 67.5839 38.023 67.5836C28.2945 59.0697 23.5 51.3762 23.5 44.4107C23.5 35.0708 31.0708 27.5 40.4107 27.5C49.7506 27.5 57.3214 35.0708 57.3214 44.4107C57.3214 51.5364 52.3034 59.4258 42.1207 68.1707ZM40.4107 39.1954C39.9511 39.1954 39.5118 39.2663 39.2388 39.5831C38.9762 39.888 38.9987 40.2838 39.0104 40.4903L39.0111 40.5026C39.0129 40.5356 39.0149 40.5682 39.0169 40.6004C39.0443 41.0471 39.0672 41.4211 38.6464 41.8419C38.4929 41.9955 38.3701 42.1141 38.2719 42.2082C38.255 42.2244 38.2386 42.2401 38.2226 42.2554C38.1487 42.3261 38.0845 42.3876 38.0354 42.4376C37.9834 42.4905 37.9031 42.5742 37.8483 42.6774C37.7706 42.8237 37.7564 42.9795 37.7957 43.1281C37.8161 43.2054 37.8595 43.2947 37.8704 43.3172C37.8716 43.3196 37.8724 43.3213 37.8728 43.3221C37.8887 43.3567 37.9054 43.396 37.9222 43.4525C37.9564 43.5678 38 43.7863 38 44.1954C38 44.2668 37.9987 44.3296 37.9964 44.3847C37.9459 44.4248 37.9031 44.4725 37.8692 44.5252C37.7533 44.7056 37.7654 44.8966 37.7938 45.0108C37.8098 45.0755 37.8375 45.1451 37.8815 45.2112C37.9233 45.2739 37.9976 45.3598 38.1174 45.4151C38.2414 45.4724 38.3878 45.4834 38.5268 45.434C38.5628 45.4671 38.6027 45.5052 38.6464 45.549C39.2579 46.1604 39.657 46.5194 40.1833 46.6514C40.4371 46.715 40.6952 46.7202 40.9668 46.7157C41.0674 46.7141 41.1695 46.7111 41.2784 46.708C41.4827 46.702 41.7112 46.6954 42 46.6954C42.1415 46.6954 42.2494 46.6971 42.329 46.6994C42.3536 46.7026 42.3767 46.7053 42.3982 46.7075C42.4417 46.712 42.4816 46.7148 42.5154 46.7161C42.5318 46.7167 42.5506 46.7171 42.5697 46.7167C42.5734 46.7167 42.5778 46.7165 42.5829 46.7163C42.5904 46.7161 42.5993 46.7156 42.609 46.7148C42.6147 46.7143 42.66 46.7112 42.7134 46.6956C42.7296 46.6908 42.7568 46.682 42.7887 46.6667C42.816 46.6537 42.8765 46.6222 42.9355 46.5603C43.0005 46.4922 43.0827 46.3639 43.0729 46.1874C43.0638 46.0236 42.9799 45.9161 42.9339 45.8682C42.856 45.7873 42.77 45.7545 42.7562 45.7492L42.7549 45.7487C42.7273 45.7379 42.7045 45.7318 42.6935 45.729C42.6548 45.7192 42.6195 45.7152 42.6092 45.7141C42.5753 45.7101 42.5326 45.7071 42.4837 45.7046C42.464 45.7036 42.4421 45.7027 42.4179 45.7018C42.385 45.6964 42.3497 45.6895 42.3143 45.6808C42.2908 45.675 42.2692 45.669 42.2496 45.6627C42.2744 45.6321 42.3081 45.5944 42.3536 45.549C42.6426 45.26 42.8061 45.1714 42.8709 45.1456C42.8851 45.1399 42.894 45.1375 42.8983 45.1366L42.9115 45.1376C42.9172 45.138 42.9329 45.1393 42.9496 45.14L42.9518 45.1401C42.9757 45.1413 43.0797 45.1461 43.1935 45.098C43.3514 45.0313 43.4416 44.9059 43.4833 44.7938C43.5154 44.7077 43.5193 44.6292 43.5206 44.5983C43.5222 44.559 43.5212 44.5184 43.5201 44.4851C43.519 44.4557 43.5175 44.4225 43.5158 44.3842C43.5094 44.2438 43.5 44.0353 43.5 43.6954C43.5 43.3461 43.5102 43.1817 43.5142 43.1304C43.516 43.1181 43.5174 43.1064 43.5185 43.0957C43.519 43.0902 43.5199 43.0806 43.5206 43.0692C43.5209 43.0646 43.5215 43.0523 43.5214 43.0368C43.5214 43.0301 43.5212 43.0129 43.5191 42.9911C43.5179 42.9797 43.5137 42.9515 43.5103 42.9346C43.5036 42.9069 43.4751 42.829 43.4496 42.781C43.3769 42.6875 43.1018 42.5456 42.9072 42.5523C42.7847 42.5986 42.6371 42.7192 42.6014 42.7677C42.5596 42.8324 42.543 42.8934 42.543 42.8936C42.5346 42.921 42.5305 42.9435 42.5299 42.9465C42.5272 42.9606 42.5256 42.9723 42.5249 42.9772C42.5243 42.9817 42.5237 42.9868 42.523 42.9925C42.4797 42.9598 42.4236 42.912 42.3536 42.8419C41.9324 42.4207 41.92 41.854 41.9044 41.1386C41.9031 41.0806 41.9018 41.0217 41.9003 40.9617C41.8915 40.6202 41.8719 40.1711 41.6636 39.8138C41.4131 39.3842 40.9721 39.1954 40.4107 39.1954ZM42.135 45.6117C42.1351 45.6117 42.1356 45.6121 42.1364 45.6128L42.135 45.6117ZM42.4798 43.1241C42.4796 43.1236 42.4814 43.1204 42.4855 43.1155C42.482 43.122 42.4799 43.1245 42.4798 43.1241Z" fill="#27AE60" stroke="#035763"/>
<path d="M40.5 35.7743L42.6208 41.9906L42.6785 42.1598H42.8574H49.6854L44.1721 45.9748L44.0167 46.0823L44.0777 46.2611L46.1902 52.453L40.6423 48.6141L40.5 48.5156L40.3577 48.6141L34.8098 52.453L36.9223 46.2611L36.9833 46.0823L36.8279 45.9748L31.3146 42.1598H38.1426H38.3215L38.3792 41.9906L40.5 35.7743Z" fill="white" stroke="#035763" stroke-width="0.5"/>
<g filter="url(#filter0_d_1975_2645)">
<path d="M65.5 47.5C65.5 61.8684 54.0743 73.5 40 73.5C25.9257 73.5 14.5 61.8684 14.5 47.5C14.5 33.1316 25.9257 21.5 40 21.5C54.0743 21.5 65.5 33.1316 65.5 47.5Z" stroke="#035763" shape-rendering="crispEdges"/>
</g>
<defs>
<filter id="filter0_d_1975_2645" x="0" y="0" width="88" height="89" filterUnits="userSpaceOnUse" color-interpolation-filters="sRGB">
<feFlood flood-opacity="0" result="BackgroundImageFix"/>
<feColorMatrix in="SourceAlpha" type="matrix" values="0 0 0 0 0 0 0 0 0 0 0 0 0 0 0 0 0 0 127 0" result="hardAlpha"/>
<feMorphology radius="6" operator="dilate" in="SourceAlpha" result="effect1_dropShadow_1975_2645"/>
<feOffset dx="4" dy="-3"/>
<feGaussianBlur stdDeviation="6"/>
<feComposite in2="hardAlpha" operator="out"/>
<feColorMatrix type="matrix" values="0 0 0 0 0.471667 0 0 0 0 0.471667 0 0 0 0 0.471667 0 0 0 0.15 0"/>
<feBlend mode="normal" in2="BackgroundImageFix" result="effect1_dropShadow_1975_2645"/>
<feBlend mode="normal" in="SourceGraphic" in2="effect1_dropShadow_1975_2645" result="shape"/>
</filter>
</defs>
</svg>
