<svg width="46" height="46" viewBox="0 0 46 46" fill="none" xmlns="http://www.w3.org/2000/svg">
<g clip-path="url(#clip0_2204_1015)">
<circle cx="23" cy="23" r="22.5" fill="white" stroke="#035763"/>
<path d="M24.812 43.1429L24.8119 43.143C24.3814 43.4986 23.8278 43.6972 23.2511 43.6967C22.6749 43.6963 22.122 43.4969 21.6923 43.1411C21.692 43.1409 21.6917 43.1406 21.6914 43.1404L21.0207 42.5807C21.0202 42.5804 21.0198 42.58 21.0193 42.5796C11.299 34.3998 6.59314 27.0731 6.59314 20.5104C6.59314 11.7058 14.024 4.51929 23.2539 4.51929C32.4837 4.51929 39.9146 11.7058 39.9146 20.5104C39.9146 27.2248 34.9883 34.7397 24.812 43.1429ZM23.2539 13.3215C21.2882 13.3215 19.3975 14.072 17.9989 15.4168C16.5994 16.7625 15.8074 18.594 15.8074 20.5104C15.8074 22.4267 16.5994 24.2583 17.9989 25.604C19.3975 26.9487 21.2882 27.6992 23.2539 27.6992C25.2195 27.6992 27.1102 26.9487 28.5088 25.604C29.9083 24.2583 30.7003 22.4267 30.7003 20.5104C30.7003 18.594 29.9083 16.7625 28.5088 15.4168C27.1102 14.072 25.2195 13.3215 23.2539 13.3215Z" fill="#F2C94C" stroke="#035763" stroke-width="1.5"/>
<rect x="13.8431" y="11.4615" width="19" height="20.1923" fill="#F2C94C"/>
<mask id="path-4-outside-1_2204_1015" maskUnits="userSpaceOnUse" x="15.02" y="10" width="17" height="20" fill="black">
<rect fill="white" x="15.02" y="10" width="17" height="20"/>
<path d="M30.4302 11.9375V29H26.9146L20.0591 17.5625V29H16.5435V11.9375H20.0591L26.9263 23.3867V11.9375H30.4302Z"/>
</mask>
<path d="M30.4302 11.9375V29H26.9146L20.0591 17.5625V29H16.5435V11.9375H20.0591L26.9263 23.3867V11.9375H30.4302Z" fill="white"/>
<path d="M30.4302 11.9375H31.4302V10.9375H30.4302V11.9375ZM30.4302 29V30H31.4302V29H30.4302ZM26.9146 29L26.0568 29.5141L26.3481 30H26.9146V29ZM20.0591 17.5625L20.9168 17.0484L19.0591 13.949V17.5625H20.0591ZM20.0591 29V30H21.0591V29H20.0591ZM16.5435 29H15.5435V30H16.5435V29ZM16.5435 11.9375V10.9375H15.5435V11.9375H16.5435ZM20.0591 11.9375L20.9167 11.4231L20.6254 10.9375H20.0591V11.9375ZM26.9263 23.3867L26.0687 23.9011L27.9263 26.9981V23.3867H26.9263ZM26.9263 11.9375V10.9375H25.9263V11.9375H26.9263ZM29.4302 11.9375V29H31.4302V11.9375H29.4302ZM30.4302 28H26.9146V30H30.4302V28ZM27.7723 28.4859L20.9168 17.0484L19.2014 18.0766L26.0568 29.5141L27.7723 28.4859ZM19.0591 17.5625V29H21.0591V17.5625H19.0591ZM20.0591 28H16.5435V30H20.0591V28ZM17.5435 29V11.9375H15.5435V29H17.5435ZM16.5435 12.9375H20.0591V10.9375H16.5435V12.9375ZM19.2015 12.4519L26.0687 23.9011L27.7838 22.8724L20.9167 11.4231L19.2015 12.4519ZM27.9263 23.3867V11.9375H25.9263V23.3867H27.9263ZM26.9263 12.9375H30.4302V10.9375H26.9263V12.9375Z" fill="#035763" mask="url(#path-4-outside-1_2204_1015)"/>
</g>
<defs>
<clipPath id="clip0_2204_1015">
<rect width="46" height="46" fill="white"/>
</clipPath>
</defs>
</svg>
