<svg width="72" height="72" viewBox="0 0 72 72" fill="none" xmlns="http://www.w3.org/2000/svg">
<g clip-path="url(#clip0_2204_1015)">
<g filter="url(#filter0_d_2204_1015)">
<circle cx="36" cy="36" r="25" fill="white"/>
<circle cx="36" cy="36" r="24.5" stroke="#035763"/>
</g>
<path d="M37.812 57.1429L37.8119 57.143C37.3814 57.4986 36.8278 57.6972 36.2511 57.6967C35.6748 57.6963 35.1218 57.4969 34.6921 57.1409C34.6919 57.1407 34.6916 57.1406 34.6914 57.1404L34.0207 56.5807C34.0202 56.5803 34.0197 56.5799 34.0192 56.5795C24.2989 48.3998 19.5931 41.0731 19.5931 34.5104C19.5931 25.7058 27.024 18.5193 36.2539 18.5193C45.4837 18.5193 52.9146 25.7058 52.9146 34.5104C52.9146 41.2248 47.9883 48.7397 37.812 57.1429ZM36.2539 27.3215C34.2882 27.3215 32.3975 28.072 30.9989 29.4168C29.5994 30.7625 28.8074 32.594 28.8074 34.5104C28.8074 36.4267 29.5994 38.2583 30.9989 39.604C32.3975 40.9487 34.2882 41.6992 36.2539 41.6992C38.2195 41.6992 40.1102 40.9487 41.5088 39.604C42.9083 38.2583 43.7003 36.4267 43.7003 34.5104C43.7003 32.594 42.9083 30.7625 41.5088 29.4168C40.1102 28.072 38.2195 27.3215 36.2539 27.3215Z" fill="#F2C94C" stroke="#035763" stroke-width="1.5"/>
<rect x="26.8431" y="25.4615" width="19" height="20.1923" fill="#F2C94C"/>
<path d="M43.4302 25.9375V43H39.9146L33.0591 31.5625V43H29.5435V25.9375H33.0591L39.9263 37.3867V25.9375H43.4302Z" fill="white"/>
<path d="M43.4302 25.9375H44.4302V24.9375H43.4302V25.9375ZM43.4302 43V44H44.4302V43H43.4302ZM39.9146 43L39.0568 43.5141L39.3481 44H39.9146V43ZM33.0591 31.5625L33.9168 31.0484L32.0591 27.949V31.5625H33.0591ZM33.0591 43V44H34.0591V43H33.0591ZM29.5435 43H28.5435V44H29.5435V43ZM29.5435 25.9375V24.9375H28.5435V25.9375H29.5435ZM33.0591 25.9375L33.9167 25.4231L33.6254 24.9375H33.0591V25.9375ZM39.9263 37.3867L39.0687 37.9011L40.9263 40.9981V37.3867H39.9263ZM39.9263 25.9375V24.9375H38.9263V25.9375H39.9263ZM42.4302 25.9375V43H44.4302V25.9375H42.4302ZM43.4302 42H39.9146V44H43.4302V42ZM40.7723 42.4859L33.9168 31.0484L32.2014 32.0766L39.0568 43.5141L40.7723 42.4859ZM32.0591 31.5625V43H34.0591V31.5625H32.0591ZM33.0591 42H29.5435V44H33.0591V42ZM30.5435 43V25.9375H28.5435V43H30.5435ZM29.5435 26.9375H33.0591V24.9375H29.5435V26.9375ZM32.2015 26.4519L39.0687 37.9011L40.7838 36.8724L33.9167 25.4231L32.2015 26.4519ZM40.9263 37.3867V25.9375H38.9263V37.3867H40.9263ZM39.9263 26.9375H43.4302V24.9375H39.9263V26.9375Z" fill="#035763"/>
</g>
<defs>
<filter id="filter0_d_2204_1015" x="2" y="-4" width="74" height="74" filterUnits="userSpaceOnUse" color-interpolation-filters="sRGB">
<feFlood flood-opacity="0" result="BackgroundImageFix"/>
<feColorMatrix in="SourceAlpha" type="matrix" values="0 0 0 0 0 0 0 0 0 0 0 0 0 0 0 0 0 0 127 0" result="hardAlpha"/>
<feMorphology radius="2" operator="dilate" in="SourceAlpha" result="effect1_dropShadow_2204_1015"/>
<feOffset dx="3" dy="-3"/>
<feGaussianBlur stdDeviation="5"/>
<feComposite in2="hardAlpha" operator="out"/>
<feColorMatrix type="matrix" values="0 0 0 0 0.471667 0 0 0 0 0.471667 0 0 0 0 0.471667 0 0 0 0.25 0"/>
<feBlend mode="normal" in2="BackgroundImageFix" result="effect1_dropShadow_2204_1015"/>
<feBlend mode="normal" in="SourceGraphic" in2="effect1_dropShadow_2204_1015" result="shape"/>
</filter>
<clipPath id="clip0_2204_1015">
<rect width="72" height="72" fill="white"/>
</clipPath>
</defs>
</svg>
