<svg width="88" height="89" viewBox="0 0 88 89" fill="none" xmlns="http://www.w3.org/2000/svg">
<path d="M37.8781 69.1129L37.8799 69.1145C38.5825 69.7202 39.4791 70.0537 40.4067 70.0546C41.3343 70.0554 42.2315 69.7234 42.9351 69.1189C53.1743 60.3256 58.5714 52.1151 58.5714 44.4107C58.5714 34.3804 50.441 26.25 40.4107 26.25C30.3804 26.25 22.25 34.3804 22.25 44.4107C22.25 51.9443 27.4104 59.9572 37.2007 68.5251L37.2031 68.5272L37.8781 69.1129Z" fill="#F2C94C" stroke="#035763" stroke-width="1.5"/>
<path d="M47.4102 36.3284V53.3909H43.8945L37.0391 41.9534V53.3909H33.5234V36.3284H37.0391L43.9062 47.7776V36.3284H47.4102Z" fill="white"/>
<path d="M47.4102 36.3284H47.9102V35.8284H47.4102V36.3284ZM47.4102 53.3909V53.8909H47.9102V53.3909H47.4102ZM43.8945 53.3909L43.4657 53.6479L43.6113 53.8909H43.8945V53.3909ZM37.0391 41.9534L37.4679 41.6963L36.5391 40.1466V41.9534H37.0391ZM37.0391 53.3909V53.8909H37.5391V53.3909H37.0391ZM33.5234 53.3909H33.0234V53.8909H33.5234V53.3909ZM33.5234 36.3284V35.8284H33.0234V36.3284H33.5234ZM37.0391 36.3284L37.4678 36.0712L37.3222 35.8284H37.0391V36.3284ZM43.9062 47.7776L43.4775 48.0348L44.4062 49.5833V47.7776H43.9062ZM43.9062 36.3284V35.8284H43.4062V36.3284H43.9062ZM46.9102 36.3284V53.3909H47.9102V36.3284H46.9102ZM47.4102 52.8909H43.8945V53.8909H47.4102V52.8909ZM44.3234 53.1338L37.4679 41.6963L36.6102 42.2104L43.4657 53.6479L44.3234 53.1338ZM36.5391 41.9534V53.3909H37.5391V41.9534H36.5391ZM37.0391 52.8909H33.5234V53.8909H37.0391V52.8909ZM34.0234 53.3909V36.3284H33.0234V53.3909H34.0234ZM33.5234 36.8284H37.0391V35.8284H33.5234V36.8284ZM36.6103 36.5856L43.4775 48.0348L44.335 47.5204L37.4678 36.0712L36.6103 36.5856ZM44.4062 47.7776V36.3284H43.4062V47.7776H44.4062ZM43.9062 36.8284H47.4102V35.8284H43.9062V36.8284Z" fill="#035763"/>
<g filter="url(#filter0_d_1975_2652)">
<path d="M65.5 47.5C65.5 61.8684 54.0743 73.5 40 73.5C25.9257 73.5 14.5 61.8684 14.5 47.5C14.5 33.1316 25.9257 21.5 40 21.5C54.0743 21.5 65.5 33.1316 65.5 47.5Z" stroke="#035763" shape-rendering="crispEdges"/>
</g>
<defs>
<filter id="filter0_d_1975_2652" x="0" y="0" width="88" height="89" filterUnits="userSpaceOnUse" color-interpolation-filters="sRGB">
<feFlood flood-opacity="0" result="BackgroundImageFix"/>
<feColorMatrix in="SourceAlpha" type="matrix" values="0 0 0 0 0 0 0 0 0 0 0 0 0 0 0 0 0 0 127 0" result="hardAlpha"/>
<feMorphology radius="6" operator="dilate" in="SourceAlpha" result="effect1_dropShadow_1975_2652"/>
<feOffset dx="4" dy="-3"/>
<feGaussianBlur stdDeviation="6"/>
<feComposite in2="hardAlpha" operator="out"/>
<feColorMatrix type="matrix" values="0 0 0 0 0.471667 0 0 0 0 0.471667 0 0 0 0 0.471667 0 0 0 0.15 0"/>
<feBlend mode="normal" in2="BackgroundImageFix" result="effect1_dropShadow_1975_2652"/>
<feBlend mode="normal" in="SourceGraphic" in2="effect1_dropShadow_1975_2652" result="shape"/>
</filter>
</defs>
</svg>
