<svg width="88" height="86" viewBox="0 0 88 86" fill="none" xmlns="http://www.w3.org/2000/svg">
<path d="M42.1207 67.6935L42.1206 67.6936C41.644 68.103 41.0362 68.3279 40.4078 68.3274C39.7798 68.3268 39.1728 68.1012 38.697 67.6913C38.6967 67.6911 38.6964 67.6908 38.6961 67.6906L38.0239 67.1073C38.0236 67.107 38.0233 67.1067 38.023 67.1065C28.2945 58.5925 23.5 50.899 23.5 43.9335C23.5 34.5936 31.0708 27.0228 40.4107 27.0228C49.7506 27.0228 57.3214 34.5936 57.3214 43.9335C57.3214 51.0592 52.3034 58.9486 42.1207 67.6935ZM39.5405 44.1306L39.8314 44.8092L40.3536 44.2871C40.5247 44.1159 40.6649 43.9487 40.7566 43.7806C40.8506 43.6081 40.9154 43.3929 40.8603 43.1587C40.8067 42.9312 40.6619 42.7821 40.5505 42.6917C40.4853 42.6388 40.4129 42.5914 40.3446 42.5503C40.4168 42.3592 40.3762 42.1806 40.3319 42.0691C40.2838 41.9482 40.2089 41.8452 40.1416 41.7657C39.9876 41.5841 39.7539 41.3903 39.4969 41.2068C39.4946 41.1176 39.4908 41.0408 39.4851 40.9761C39.4796 40.914 39.4707 40.8422 39.4524 40.7733L39.4522 40.7728C39.4407 40.7294 39.3971 40.5659 39.243 40.4498C39.1508 40.3804 39.0372 40.3419 38.9181 40.3437C38.7856 40.0924 38.6739 39.907 38.5799 39.7886C38.5386 39.7365 38.4727 39.6604 38.3826 39.6019C38.2967 39.5461 38.0622 39.4326 37.8074 39.5791C37.6061 39.695 37.5537 39.8929 37.5403 39.9464C37.52 40.0275 37.515 40.1082 37.5137 40.1699C37.5136 40.1751 37.5135 40.1804 37.5134 40.1857C37.4702 40.1781 37.4247 40.1729 37.3787 40.1722C37.3242 40.1713 37.2282 40.1754 37.1244 40.22C37.0041 40.2717 36.8754 40.3796 36.8208 40.5555C36.7734 40.708 36.8051 40.8395 36.8285 40.9083C36.8537 40.9822 36.8897 41.0433 36.9191 41.0874C36.9784 41.1763 37.059 41.2661 37.1464 41.3536C37.3272 41.5343 37.5152 41.6732 37.709 41.7604C37.8189 42.463 37.9399 43.2515 37.9796 43.925C38.0056 44.3663 37.9923 44.7049 37.9402 44.9168C37.9313 44.9534 37.9224 44.9808 37.9147 45.0008C37.4457 45.0102 37.0178 45.0948 36.6348 45.1919C36.4597 45.2363 36.2892 45.2847 36.1303 45.3297C36.1061 45.3365 36.0822 45.3433 36.0587 45.35C35.9618 45.3774 35.8695 45.4031 35.7805 45.4267C35.7135 45.3993 35.6459 45.3713 35.5776 45.343L35.569 45.3394C35.3467 45.2473 35.1162 45.1518 34.9022 45.078C34.6904 45.0049 34.4559 44.9389 34.2318 44.9279C34.1214 44.9225 33.9955 44.93 33.8695 44.966C33.7556 44.8741 33.6334 44.7977 33.5041 44.7569C33.3886 44.7205 33.2262 44.6999 33.0569 44.77C32.8833 44.8417 32.7832 44.975 32.731 45.0875C32.6409 45.2814 32.6512 45.4971 32.6653 45.6279C32.6818 45.7826 32.7197 45.9453 32.766 46.0938C32.8123 46.2426 32.8722 46.3935 32.9404 46.5235C32.9745 46.5884 33.0147 46.656 33.0615 46.7182C33.1039 46.7748 33.1728 46.8557 33.2714 46.9177C33.3748 46.9828 33.5732 47.061 33.7983 46.9675C33.998 46.8847 34.0871 46.7177 34.1237 46.6307C34.1518 46.564 34.1716 46.4898 34.1853 46.411C34.3123 46.4609 34.4418 46.4975 34.574 46.5216C34.968 46.5937 35.3512 46.5492 35.7053 46.4734C36.0289 46.5978 36.377 46.7141 36.7151 46.7727C37.2473 46.865 37.873 46.8341 38.3536 46.3536C39.088 45.6191 39.0696 44.6154 39.0576 43.9608C39.0564 43.8956 39.0552 43.8339 39.0549 43.7763C39.0531 43.4384 39.0725 43.2529 39.1148 43.1464C39.246 43.4467 39.3876 43.7742 39.5405 44.1306Z" fill="#F48067" stroke="#035763"/>
<path d="M36.4453 46.9453H33.5469V45.1172H36.4453C36.8932 45.1172 37.2578 45.0443 37.5391 44.8984C37.8203 44.7474 38.026 44.5391 38.1562 44.2734C38.2865 44.0078 38.3516 43.7083 38.3516 43.375C38.3516 43.0365 38.2865 42.7214 38.1562 42.4297C38.026 42.138 37.8203 41.9036 37.5391 41.7266C37.2578 41.5495 36.8932 41.4609 36.4453 41.4609H34.3594V51H32.0156V39.625H36.4453C37.3359 39.625 38.099 39.7865 38.7344 40.1094C39.375 40.4271 39.8646 40.8672 40.2031 41.4297C40.5417 41.9922 40.7109 42.6354 40.7109 43.3594C40.7109 44.0938 40.5417 44.7292 40.2031 45.2656C39.8646 45.8021 39.375 46.2161 38.7344 46.5078C38.099 46.7995 37.3359 46.9453 36.4453 46.9453ZM44.6719 39.625V51H42.3281V39.625H44.6719ZM49.2031 44.4844V46.3125H44.0312V44.4844H49.2031ZM49.75 39.625V41.4609H44.0312V39.625H49.75Z" fill="white"/>
<path d="M33.5469 46.9453H33.0469V47.4453H33.5469V46.9453ZM33.5469 45.1172V44.6172H33.0469V45.1172H33.5469ZM37.5391 44.8984L37.7692 45.3424L37.7756 45.3389L37.5391 44.8984ZM34.3594 41.4609V40.9609H33.8594V41.4609H34.3594ZM34.3594 51V51.5H34.8594V51H34.3594ZM32.0156 51H31.5156V51.5H32.0156V51ZM32.0156 39.625V39.125H31.5156V39.625H32.0156ZM38.7344 40.1094L38.5078 40.5551L38.5122 40.5573L38.7344 40.1094ZM38.7344 46.5078L38.5272 46.0528L38.5258 46.0534L38.7344 46.5078ZM36.4453 46.4453H33.5469V47.4453H36.4453V46.4453ZM34.0469 46.9453V45.1172H33.0469V46.9453H34.0469ZM33.5469 45.6172H36.4453V44.6172H33.5469V45.6172ZM36.4453 45.6172C36.9422 45.6172 37.3936 45.5371 37.7692 45.3423L37.3089 44.4546C37.122 44.5515 36.8442 44.6172 36.4453 44.6172V45.6172ZM37.7756 45.3389C38.1413 45.1426 38.4253 44.8606 38.6052 44.4935L37.7073 44.0534C37.6268 44.2176 37.4993 44.3522 37.3025 44.4579L37.7756 45.3389ZM38.6052 44.4935C38.773 44.1511 38.8516 43.7749 38.8516 43.375H37.8516C37.8516 43.6418 37.7999 43.8645 37.7073 44.0534L38.6052 44.4935ZM38.8516 43.375C38.8516 42.9705 38.7734 42.5855 38.6128 42.2259L37.6997 42.6335C37.7996 42.8572 37.8516 43.1024 37.8516 43.375H38.8516ZM38.6128 42.2259C38.4406 41.8401 38.1668 41.531 37.8055 41.3034L37.2727 42.1497C37.4738 42.2763 37.6115 42.4359 37.6997 42.6335L38.6128 42.2259ZM37.8055 41.3034C37.4212 41.0615 36.9557 40.9609 36.4453 40.9609V41.9609C36.8308 41.9609 37.0944 42.0374 37.2727 42.1497L37.8055 41.3034ZM36.4453 40.9609H34.3594V41.9609H36.4453V40.9609ZM33.8594 41.4609V51H34.8594V41.4609H33.8594ZM34.3594 50.5H32.0156V51.5H34.3594V50.5ZM32.5156 51V39.625H31.5156V51H32.5156ZM32.0156 40.125H36.4453V39.125H32.0156V40.125ZM36.4453 40.125C37.2764 40.125 37.9579 40.2757 38.5079 40.5551L38.9609 39.6636C38.24 39.2973 37.3954 39.125 36.4453 39.125V40.125ZM38.5122 40.5573C39.0753 40.8366 39.4898 41.214 39.7747 41.6875L40.6315 41.1719C40.2394 40.5203 39.6747 40.0176 38.9565 39.6614L38.5122 40.5573ZM39.7747 41.6875C40.0617 42.1643 40.2109 42.7167 40.2109 43.3594H41.2109C41.2109 42.5542 41.0216 41.82 40.6315 41.1719L39.7747 41.6875ZM40.2109 43.3594C40.2109 44.0145 40.0609 44.5541 39.7803 44.9988L40.626 45.5325C41.0225 44.9042 41.2109 44.173 41.2109 43.3594H40.2109ZM39.7803 44.9988C39.4994 45.4439 39.0892 45.7969 38.5272 46.0528L38.9416 46.9629C39.6608 46.6354 40.2298 46.1602 40.626 45.5325L39.7803 44.9988ZM38.5258 46.0534C37.9711 46.308 37.283 46.4453 36.4453 46.4453V47.4453C37.3889 47.4453 38.2268 47.291 38.943 46.9622L38.5258 46.0534ZM44.6719 39.625H45.1719V39.125H44.6719V39.625ZM44.6719 51V51.5H45.1719V51H44.6719ZM42.3281 51H41.8281V51.5H42.3281V51ZM42.3281 39.625V39.125H41.8281V39.625H42.3281ZM49.2031 44.4844H49.7031V43.9844H49.2031V44.4844ZM49.2031 46.3125V46.8125H49.7031V46.3125H49.2031ZM44.0312 46.3125H43.5312V46.8125H44.0312V46.3125ZM44.0312 44.4844V43.9844H43.5312V44.4844H44.0312ZM49.75 39.625H50.25V39.125H49.75V39.625ZM49.75 41.4609V41.9609H50.25V41.4609H49.75ZM44.0312 41.4609H43.5312V41.9609H44.0312V41.4609ZM44.0312 39.625V39.125H43.5312V39.625H44.0312ZM44.1719 39.625V51H45.1719V39.625H44.1719ZM44.6719 50.5H42.3281V51.5H44.6719V50.5ZM42.8281 51V39.625H41.8281V51H42.8281ZM42.3281 40.125H44.6719V39.125H42.3281V40.125ZM48.7031 44.4844V46.3125H49.7031V44.4844H48.7031ZM49.2031 45.8125H44.0312V46.8125H49.2031V45.8125ZM44.5312 46.3125V44.4844H43.5312V46.3125H44.5312ZM44.0312 44.9844H49.2031V43.9844H44.0312V44.9844ZM49.25 39.625V41.4609H50.25V39.625H49.25ZM49.75 40.9609H44.0312V41.9609H49.75V40.9609ZM44.5312 41.4609V39.625H43.5312V41.4609H44.5312ZM44.0312 40.125H49.75V39.125H44.0312V40.125Z" fill="#035763"/>
<g filter="url(#filter0_d_1975_2659)">
<path d="M65.5 47.5C65.5 61.8684 54.0743 73.5 40 73.5C25.9257 73.5 14.5 61.8684 14.5 47.5C14.5 33.1316 25.9257 21.5 40 21.5C54.0743 21.5 65.5 33.1316 65.5 47.5Z" stroke="#035763" shape-rendering="crispEdges"/>
</g>
<defs>
<filter id="filter0_d_1975_2659" x="0" y="0" width="88" height="89" filterUnits="userSpaceOnUse" color-interpolation-filters="sRGB">
<feFlood flood-opacity="0" result="BackgroundImageFix"/>
<feColorMatrix in="SourceAlpha" type="matrix" values="0 0 0 0 0 0 0 0 0 0 0 0 0 0 0 0 0 0 127 0" result="hardAlpha"/>
<feMorphology radius="6" operator="dilate" in="SourceAlpha" result="effect1_dropShadow_1975_2659"/>
<feOffset dx="4" dy="-3"/>
<feGaussianBlur stdDeviation="6"/>
<feComposite in2="hardAlpha" operator="out"/>
<feColorMatrix type="matrix" values="0 0 0 0 0.471667 0 0 0 0 0.471667 0 0 0 0 0.471667 0 0 0 0.15 0"/>
<feBlend mode="normal" in2="BackgroundImageFix" result="effect1_dropShadow_1975_2659"/>
<feBlend mode="normal" in="SourceGraphic" in2="effect1_dropShadow_1975_2659" result="shape"/>
</filter>
</defs>
</svg>
