<svg width="88" height="86" viewBox="0 0 88 86" fill="none" xmlns="http://www.w3.org/2000/svg">
<path d="M41.9578 67.5038L41.9577 67.5039C41.5264 67.8744 40.9766 68.0779 40.408 68.0774C39.84 68.0769 39.291 67.8728 38.8605 67.5022C38.8601 67.5019 38.8597 67.5015 38.8594 67.5012L38.1886 66.9191C38.1882 66.9188 38.1878 66.9184 38.1874 66.9181C28.4713 58.415 23.75 50.7854 23.75 43.9335C23.75 34.7317 31.2089 27.2728 40.4107 27.2728C49.6126 27.2728 57.0714 34.7317 57.0714 43.9335C57.0714 50.9434 52.1293 58.7687 41.9578 67.5038ZM40.5795 42.0239L40.3545 41.75H40.0942C40.0912 41.7481 40.0881 41.7462 40.085 41.7442C39.908 41.6323 39.6809 41.4806 39.4371 41.3177C39.3263 41.2437 39.212 41.1674 39.0974 41.0914C38.7664 40.872 38.3805 40.6196 38.1539 40.5154C38.1192 40.4994 38.0725 40.4794 38.0197 40.4623C37.9822 40.4501 37.8726 40.4155 37.7344 40.419C37.5969 40.4225 37.1836 40.4887 37.0294 40.9303C36.9269 41.2239 37.0385 41.4674 37.0576 41.5092C37.0581 41.5104 37.0586 41.5113 37.0589 41.5122C37.1186 41.644 37.2103 41.7512 37.2523 41.7998C37.3115 41.8684 37.385 41.9457 37.4697 42.0303C37.8505 42.4112 38.1478 42.6621 38.4073 42.8193C38.3023 43.1679 38.3036 43.5317 38.3049 43.7832C38.3051 43.8178 38.3054 43.8518 38.3056 43.8852C38.3067 44.0716 38.3078 44.2398 38.304 44.3927C38.288 44.4303 38.2713 44.4663 38.2536 44.5008C38.1258 44.7502 38.0456 44.7501 38.0022 44.75L38 44.75C37.4681 44.75 36.9891 44.8442 36.5734 44.9496C36.3946 44.9949 36.2205 45.0443 36.0618 45.0892C36.0377 45.0961 36.014 45.1028 35.9907 45.1094C35.9769 45.1133 35.9632 45.1171 35.9497 45.1209C35.9309 45.1141 35.9121 45.1072 35.8931 45.1003C35.6372 45.007 35.3666 44.9086 35.1134 44.8324C34.8664 44.7581 34.5872 44.6895 34.3172 44.678C34.2067 44.6733 34.0759 44.6774 33.9384 44.7044C33.8437 44.6364 33.7226 44.5637 33.5794 44.5185C33.4275 44.4706 33.2014 44.4396 32.9613 44.5389C32.715 44.6408 32.5752 44.8293 32.5043 44.9822C32.4373 45.1263 32.4168 45.2657 32.4097 45.3634C32.4023 45.467 32.4073 45.5669 32.4167 45.6546C32.4354 45.8294 32.4776 46.0084 32.5273 46.1681C32.5772 46.3283 32.6425 46.4937 32.7191 46.6397C32.7573 46.7125 32.8045 46.7923 32.8615 46.8683C32.9122 46.9358 33.0026 47.044 33.1382 47.1293C33.2811 47.2192 33.567 47.3342 33.8942 47.1984C34.1822 47.0789 34.3065 46.8406 34.3537 46.7286C34.4116 46.7438 34.4701 46.7568 34.5291 46.7676C34.9967 46.8531 35.4421 46.7898 35.8279 46.7024C35.8457 46.6983 35.8635 46.6942 35.8814 46.69C36.2705 46.8251 36.6973 46.9566 37.1058 47.0209C37.6899 47.1129 38.4578 47.1028 39.0303 46.5303C39.5894 45.9712 39.7538 45.2705 39.7975 44.6775C39.8764 44.4398 39.9334 44.2043 39.9773 44.001L40.7393 43.8075C40.688 43.5065 40.639 43.259 40.5913 43.0573C40.6295 43.0143 40.6649 42.9642 40.6954 42.9062C40.8147 42.6791 40.7828 42.4691 40.7629 42.3822C40.7409 42.2861 40.705 42.2148 40.6861 42.18C40.6469 42.1077 40.6026 42.052 40.5795 42.0239ZM38.3754 40.8049C38.3714 40.8 38.3697 40.7977 38.3698 40.7977C38.37 40.7978 38.372 40.8003 38.3754 40.8049Z" fill="#F48067" stroke="#035763" stroke-width="1.5"/>
<path d="M36.4453 46.9453H33.5469V45.1172H36.4453C36.8932 45.1172 37.2578 45.0443 37.5391 44.8984C37.8203 44.7474 38.026 44.5391 38.1562 44.2734C38.2865 44.0078 38.3516 43.7083 38.3516 43.375C38.3516 43.0365 38.2865 42.7214 38.1562 42.4297C38.026 42.138 37.8203 41.9036 37.5391 41.7266C37.2578 41.5495 36.8932 41.4609 36.4453 41.4609H34.3594V51H32.0156V39.625H36.4453C37.3359 39.625 38.099 39.7865 38.7344 40.1094C39.375 40.4271 39.8646 40.8672 40.2031 41.4297C40.5417 41.9922 40.7109 42.6354 40.7109 43.3594C40.7109 44.0938 40.5417 44.7292 40.2031 45.2656C39.8646 45.8021 39.375 46.2161 38.7344 46.5078C38.099 46.7995 37.3359 46.9453 36.4453 46.9453ZM44.6719 39.625V51H42.3281V39.625H44.6719ZM49.2031 44.4844V46.3125H44.0312V44.4844H49.2031ZM49.75 39.625V41.4609H44.0312V39.625H49.75Z" fill="white"/>
<path d="M33.5469 46.9453H32.5469V47.9453H33.5469V46.9453ZM33.5469 45.1172V44.1172H32.5469V45.1172H33.5469ZM37.5391 44.8984L37.9994 45.7862L38.0058 45.7829L38.0122 45.7794L37.5391 44.8984ZM34.3594 41.4609V40.4609H33.3594V41.4609H34.3594ZM34.3594 51V52H35.3594V51H34.3594ZM32.0156 51H31.0156V52H32.0156V51ZM32.0156 39.625V38.625H31.0156V39.625H32.0156ZM38.7344 40.1094L38.2813 41.0009L38.2901 41.0053L38.7344 40.1094ZM38.7344 46.5078L38.32 45.5977L38.3172 45.599L38.7344 46.5078ZM36.4453 45.9453H33.5469V47.9453H36.4453V45.9453ZM34.5469 46.9453V45.1172H32.5469V46.9453H34.5469ZM33.5469 46.1172H36.4453V44.1172H33.5469V46.1172ZM36.4453 46.1172C36.9912 46.1172 37.5294 46.0299 37.9994 45.7862L37.0787 44.0107C36.9863 44.0586 36.7952 44.1172 36.4453 44.1172V46.1172ZM38.0122 45.7794C38.4622 45.5377 38.8245 45.1821 39.0542 44.7136L37.2583 43.8333C37.2276 43.8961 37.1784 43.9571 37.0659 44.0174L38.0122 45.7794ZM39.0542 44.7136C39.2596 44.2945 39.3516 43.8414 39.3516 43.375H37.3516C37.3516 43.5752 37.3133 43.7212 37.2583 43.8333L39.0542 44.7136ZM39.3516 43.375C39.3516 42.9046 39.2603 42.4496 39.0694 42.022L37.2431 42.8373C37.3127 42.9931 37.3516 43.1684 37.3516 43.375H39.3516ZM39.0694 42.022C38.8552 41.5422 38.5133 41.1583 38.0719 40.8803L37.0062 42.5728C37.1273 42.649 37.1969 42.7338 37.2431 42.8373L39.0694 42.022ZM38.0719 40.8803C37.5846 40.5735 37.0181 40.4609 36.4453 40.4609V42.4609C36.7683 42.4609 36.931 42.5254 37.0062 42.5728L38.0719 40.8803ZM36.4453 40.4609H34.3594V42.4609H36.4453V40.4609ZM33.3594 41.4609V51H35.3594V41.4609H33.3594ZM34.3594 50H32.0156V52H34.3594V50ZM33.0156 51V39.625H31.0156V51H33.0156ZM32.0156 40.625H36.4453V38.625H32.0156V40.625ZM36.4453 40.625C37.2169 40.625 37.8169 40.7649 38.2813 41.0009L39.1874 39.2179C38.381 38.8081 37.455 38.625 36.4453 38.625V40.625ZM38.2901 41.0053C38.7756 41.246 39.1149 41.5609 39.3463 41.9453L41.0599 40.914C40.6142 40.1735 39.9744 39.6081 39.1787 39.2135L38.2901 41.0053ZM39.3463 41.9453C39.5817 42.3365 39.7109 42.7979 39.7109 43.3594H41.7109C41.7109 42.4729 41.5016 41.6479 41.0599 40.914L39.3463 41.9453ZM39.7109 43.3594C39.7109 43.9352 39.5801 44.3791 39.3574 44.7319L41.0488 45.7993C41.5032 45.0792 41.7109 44.2523 41.7109 43.3594H39.7109ZM39.3574 44.7319C39.1341 45.0858 38.8034 45.3776 38.32 45.5977L39.1487 47.4179C39.9466 47.0547 40.595 46.5184 41.0488 45.7993L39.3574 44.7319ZM38.3172 45.599C37.8433 45.8165 37.23 45.9453 36.4453 45.9453V47.9453C37.4419 47.9453 38.3546 47.7825 39.1515 47.4166L38.3172 45.599ZM44.6719 39.625H45.6719V38.625H44.6719V39.625ZM44.6719 51V52H45.6719V51H44.6719ZM42.3281 51H41.3281V52H42.3281V51ZM42.3281 39.625V38.625H41.3281V39.625H42.3281ZM49.2031 44.4844H50.2031V43.4844H49.2031V44.4844ZM49.2031 46.3125V47.3125H50.2031V46.3125H49.2031ZM44.0312 46.3125H43.0312V47.3125H44.0312V46.3125ZM44.0312 44.4844V43.4844H43.0312V44.4844H44.0312ZM49.75 39.625H50.75V38.625H49.75V39.625ZM49.75 41.4609V42.4609H50.75V41.4609H49.75ZM44.0312 41.4609H43.0312V42.4609H44.0312V41.4609ZM44.0312 39.625V38.625H43.0312V39.625H44.0312ZM43.6719 39.625V51H45.6719V39.625H43.6719ZM44.6719 50H42.3281V52H44.6719V50ZM43.3281 51V39.625H41.3281V51H43.3281ZM42.3281 40.625H44.6719V38.625H42.3281V40.625ZM48.2031 44.4844V46.3125H50.2031V44.4844H48.2031ZM49.2031 45.3125H44.0312V47.3125H49.2031V45.3125ZM45.0312 46.3125V44.4844H43.0312V46.3125H45.0312ZM44.0312 45.4844H49.2031V43.4844H44.0312V45.4844ZM48.75 39.625V41.4609H50.75V39.625H48.75ZM49.75 40.4609H44.0312V42.4609H49.75V40.4609ZM45.0312 41.4609V39.625H43.0312V41.4609H45.0312ZM44.0312 40.625H49.75V38.625H44.0312V40.625Z" fill="#035763"/>
<g filter="url(#filter0_d_1975_2659)">
<path d="M65.5 47.5C65.5 61.8684 54.0743 73.5 40 73.5C25.9257 73.5 14.5 61.8684 14.5 47.5C14.5 33.1316 25.9257 21.5 40 21.5C54.0743 21.5 65.5 33.1316 65.5 47.5Z" stroke="#035763" shape-rendering="crispEdges"/>
</g>
<defs>
<filter id="filter0_d_1975_2659" x="0" y="0" width="88" height="89" filterUnits="userSpaceOnUse" color-interpolation-filters="sRGB">
<feFlood flood-opacity="0" result="BackgroundImageFix"/>
<feColorMatrix in="SourceAlpha" type="matrix" values="0 0 0 0 0 0 0 0 0 0 0 0 0 0 0 0 0 0 127 0" result="hardAlpha"/>
<feMorphology radius="6" operator="dilate" in="SourceAlpha" result="effect1_dropShadow_1975_2659"/>
<feOffset dx="4" dy="-3"/>
<feGaussianBlur stdDeviation="6"/>
<feComposite in2="hardAlpha" operator="out"/>
<feColorMatrix type="matrix" values="0 0 0 0 0.471667 0 0 0 0 0.471667 0 0 0 0 0.471667 0 0 0 0.15 0"/>
<feBlend mode="normal" in2="BackgroundImageFix" result="effect1_dropShadow_1975_2659"/>
<feBlend mode="normal" in="SourceGraphic" in2="effect1_dropShadow_1975_2659" result="shape"/>
</filter>
</defs>
</svg>
