<svg width="46" height="46" viewBox="0 0 46 46" fill="none" xmlns="http://www.w3.org/2000/svg">
<g clip-path="url(#clip0_2204_1076)">
<circle cx="23" cy="23" r="22.5" fill="white" stroke="#035763"/>
<path d="M24.812 43.1429L24.8119 43.143C24.3814 43.4986 23.8278 43.6972 23.2511 43.6967C22.6749 43.6963 22.122 43.4969 21.6923 43.1411C21.692 43.1409 21.6917 43.1406 21.6914 43.1404L21.0207 42.5807C21.0202 42.5804 21.0198 42.58 21.0193 42.5796C11.299 34.3998 6.59314 27.0731 6.59314 20.5104C6.59314 11.7058 14.024 4.51929 23.2539 4.51929C32.4837 4.51929 39.9146 11.7058 39.9146 20.5104C39.9146 27.2248 34.9883 34.7397 24.812 43.1429ZM23.2539 13.3215C21.2882 13.3215 19.3975 14.072 17.9989 15.4168C16.5994 16.7625 15.8074 18.594 15.8074 20.5104C15.8074 22.4267 16.5994 24.2583 17.9989 25.604C19.3975 26.9487 21.2882 27.6992 23.2539 27.6992C25.2195 27.6992 27.1102 26.9487 28.5088 25.604C29.9083 24.2583 30.7003 22.4267 30.7003 20.5104C30.7003 18.594 29.9083 16.7625 28.5088 15.4168C27.1102 14.072 25.2195 13.3215 23.2539 13.3215Z" fill="#F48067" stroke="#035763" stroke-width="1.5"/>
<rect x="13.8431" y="11.4615" width="19" height="20.1923" fill="#F48067"/>
<mask id="path-4-outside-1_2204_1076" maskUnits="userSpaceOnUse" x="14" y="13" width="20" height="14" fill="black">
<rect fill="white" x="14" y="13" width="20" height="14"/>
<path d="M19.4453 21.9453H16.5469V20.1172H19.4453C19.8932 20.1172 20.2578 20.0443 20.5391 19.8984C20.8203 19.7474 21.026 19.5391 21.1562 19.2734C21.2865 19.0078 21.3516 18.7083 21.3516 18.375C21.3516 18.0365 21.2865 17.7214 21.1562 17.4297C21.026 17.138 20.8203 16.9036 20.5391 16.7266C20.2578 16.5495 19.8932 16.4609 19.4453 16.4609H17.3594V26H15.0156V14.625H19.4453C20.3359 14.625 21.099 14.7865 21.7344 15.1094C22.375 15.4271 22.8646 15.8672 23.2031 16.4297C23.5417 16.9922 23.7109 17.6354 23.7109 18.3594C23.7109 19.0938 23.5417 19.7292 23.2031 20.2656C22.8646 20.8021 22.375 21.2161 21.7344 21.5078C21.099 21.7995 20.3359 21.9453 19.4453 21.9453ZM27.6719 14.625V26H25.3281V14.625H27.6719ZM32.2031 19.4844V21.3125H27.0312V19.4844H32.2031ZM32.75 14.625V16.4609H27.0312V14.625H32.75Z"/>
</mask>
<path d="M19.4453 21.9453H16.5469V20.1172H19.4453C19.8932 20.1172 20.2578 20.0443 20.5391 19.8984C20.8203 19.7474 21.026 19.5391 21.1562 19.2734C21.2865 19.0078 21.3516 18.7083 21.3516 18.375C21.3516 18.0365 21.2865 17.7214 21.1562 17.4297C21.026 17.138 20.8203 16.9036 20.5391 16.7266C20.2578 16.5495 19.8932 16.4609 19.4453 16.4609H17.3594V26H15.0156V14.625H19.4453C20.3359 14.625 21.099 14.7865 21.7344 15.1094C22.375 15.4271 22.8646 15.8672 23.2031 16.4297C23.5417 16.9922 23.7109 17.6354 23.7109 18.3594C23.7109 19.0938 23.5417 19.7292 23.2031 20.2656C22.8646 20.8021 22.375 21.2161 21.7344 21.5078C21.099 21.7995 20.3359 21.9453 19.4453 21.9453ZM27.6719 14.625V26H25.3281V14.625H27.6719ZM32.2031 19.4844V21.3125H27.0312V19.4844H32.2031ZM32.75 14.625V16.4609H27.0312V14.625H32.75Z" fill="white"/>
<path d="M16.5469 21.9453H15.5469V22.9453H16.5469V21.9453ZM16.5469 20.1172V19.1172H15.5469V20.1172H16.5469ZM20.5391 19.8984L20.9994 20.7862L21.0058 20.7829L21.0122 20.7794L20.5391 19.8984ZM17.3594 16.4609V15.4609H16.3594V16.4609H17.3594ZM17.3594 26V27H18.3594V26H17.3594ZM15.0156 26H14.0156V27H15.0156V26ZM15.0156 14.625V13.625H14.0156V14.625H15.0156ZM21.7344 15.1094L21.2813 16.0009L21.2901 16.0053L21.7344 15.1094ZM21.7344 21.5078L21.32 20.5977L21.3172 20.599L21.7344 21.5078ZM19.4453 20.9453H16.5469V22.9453H19.4453V20.9453ZM17.5469 21.9453V20.1172H15.5469V21.9453H17.5469ZM16.5469 21.1172H19.4453V19.1172H16.5469V21.1172ZM19.4453 21.1172C19.9912 21.1172 20.5294 21.0299 20.9994 20.7862L20.0787 19.0107C19.9863 19.0586 19.7952 19.1172 19.4453 19.1172V21.1172ZM21.0122 20.7794C21.4622 20.5377 21.8245 20.1821 22.0542 19.7136L20.2583 18.8333C20.2276 18.8961 20.1784 18.9571 20.0659 19.0174L21.0122 20.7794ZM22.0542 19.7136C22.2596 19.2945 22.3516 18.8414 22.3516 18.375H20.3516C20.3516 18.5752 20.3133 18.7212 20.2583 18.8333L22.0542 19.7136ZM22.3516 18.375C22.3516 17.9046 22.2603 17.4496 22.0694 17.022L20.2431 17.8373C20.3127 17.9931 20.3516 18.1684 20.3516 18.375H22.3516ZM22.0694 17.022C21.8552 16.5422 21.5133 16.1583 21.0719 15.8803L20.0062 17.5728C20.1273 17.649 20.1969 17.7338 20.2431 17.8373L22.0694 17.022ZM21.0719 15.8803C20.5846 15.5735 20.0181 15.4609 19.4453 15.4609V17.4609C19.7683 17.4609 19.931 17.5254 20.0062 17.5728L21.0719 15.8803ZM19.4453 15.4609H17.3594V17.4609H19.4453V15.4609ZM16.3594 16.4609V26H18.3594V16.4609H16.3594ZM17.3594 25H15.0156V27H17.3594V25ZM16.0156 26V14.625H14.0156V26H16.0156ZM15.0156 15.625H19.4453V13.625H15.0156V15.625ZM19.4453 15.625C20.2169 15.625 20.8169 15.7649 21.2813 16.0009L22.1874 14.2179C21.381 13.8081 20.455 13.625 19.4453 13.625V15.625ZM21.2901 16.0053C21.7756 16.246 22.1149 16.5609 22.3463 16.9453L24.0599 15.914C23.6142 15.1735 22.9744 14.6081 22.1787 14.2135L21.2901 16.0053ZM22.3463 16.9453C22.5817 17.3365 22.7109 17.7979 22.7109 18.3594H24.7109C24.7109 17.4729 24.5016 16.6479 24.0599 15.914L22.3463 16.9453ZM22.7109 18.3594C22.7109 18.9352 22.5801 19.3791 22.3574 19.7319L24.0488 20.7993C24.5032 20.0792 24.7109 19.2523 24.7109 18.3594H22.7109ZM22.3574 19.7319C22.1341 20.0858 21.8034 20.3776 21.32 20.5977L22.1487 22.4179C22.9466 22.0547 23.595 21.5184 24.0488 20.7993L22.3574 19.7319ZM21.3172 20.599C20.8433 20.8165 20.23 20.9453 19.4453 20.9453V22.9453C20.4419 22.9453 21.3546 22.7825 22.1515 22.4166L21.3172 20.599ZM27.6719 14.625H28.6719V13.625H27.6719V14.625ZM27.6719 26V27H28.6719V26H27.6719ZM25.3281 26H24.3281V27H25.3281V26ZM25.3281 14.625V13.625H24.3281V14.625H25.3281ZM32.2031 19.4844H33.2031V18.4844H32.2031V19.4844ZM32.2031 21.3125V22.3125H33.2031V21.3125H32.2031ZM27.0312 21.3125H26.0312V22.3125H27.0312V21.3125ZM27.0312 19.4844V18.4844H26.0312V19.4844H27.0312ZM32.75 14.625H33.75V13.625H32.75V14.625ZM32.75 16.4609V17.4609H33.75V16.4609H32.75ZM27.0312 16.4609H26.0312V17.4609H27.0312V16.4609ZM27.0312 14.625V13.625H26.0312V14.625H27.0312ZM26.6719 14.625V26H28.6719V14.625H26.6719ZM27.6719 25H25.3281V27H27.6719V25ZM26.3281 26V14.625H24.3281V26H26.3281ZM25.3281 15.625H27.6719V13.625H25.3281V15.625ZM31.2031 19.4844V21.3125H33.2031V19.4844H31.2031ZM32.2031 20.3125H27.0312V22.3125H32.2031V20.3125ZM28.0312 21.3125V19.4844H26.0312V21.3125H28.0312ZM27.0312 20.4844H32.2031V18.4844H27.0312V20.4844ZM31.75 14.625V16.4609H33.75V14.625H31.75ZM32.75 15.4609H27.0312V17.4609H32.75V15.4609ZM28.0312 16.4609V14.625H26.0312V16.4609H28.0312ZM27.0312 15.625H32.75V13.625H27.0312V15.625Z" fill="#035763" mask="url(#path-4-outside-1_2204_1076)"/>
</g>
<defs>
<clipPath id="clip0_2204_1076">
<rect width="46" height="46" fill="white"/>
</clipPath>
</defs>
</svg>
