<svg width="72" height="72" viewBox="0 0 72 72" fill="none" xmlns="http://www.w3.org/2000/svg">
<g clip-path="url(#clip0_2204_1076)">
<g filter="url(#filter0_d_2204_1076)">
<circle cx="36" cy="36" r="25" fill="white"/>
<circle cx="36" cy="36" r="24.5" stroke="#035763"/>
</g>
<path d="M37.812 57.1429L37.8119 57.143C37.3814 57.4986 36.8278 57.6972 36.2511 57.6967C35.6748 57.6963 35.1218 57.4969 34.6921 57.1409C34.6919 57.1407 34.6916 57.1406 34.6914 57.1404L34.0207 56.5807C34.0202 56.5803 34.0197 56.5799 34.0192 56.5795C24.2989 48.3998 19.5931 41.0731 19.5931 34.5104C19.5931 25.7058 27.024 18.5193 36.2539 18.5193C45.4837 18.5193 52.9146 25.7058 52.9146 34.5104C52.9146 41.2248 47.9883 48.7397 37.812 57.1429ZM36.2539 27.3215C34.2882 27.3215 32.3975 28.072 30.9989 29.4168C29.5994 30.7625 28.8074 32.594 28.8074 34.5104C28.8074 36.4267 29.5994 38.2583 30.9989 39.604C32.3975 40.9487 34.2882 41.6992 36.2539 41.6992C38.2195 41.6992 40.1102 40.9487 41.5088 39.604C42.9083 38.2583 43.7003 36.4267 43.7003 34.5104C43.7003 32.594 42.9083 30.7625 41.5088 29.4168C40.1102 28.072 38.2195 27.3215 36.2539 27.3215Z" fill="#F48067" stroke="#035763" stroke-width="1.5"/>
<rect x="26.8431" y="25.4615" width="19" height="20.1923" fill="#F48067"/>
<path d="M32.4453 35.9453H29.5469V34.1172H32.4453C32.8932 34.1172 33.2578 34.0443 33.5391 33.8984C33.8203 33.7474 34.026 33.5391 34.1562 33.2734C34.2865 33.0078 34.3516 32.7083 34.3516 32.375C34.3516 32.0365 34.2865 31.7214 34.1562 31.4297C34.026 31.138 33.8203 30.9036 33.5391 30.7266C33.2578 30.5495 32.8932 30.4609 32.4453 30.4609H30.3594V40H28.0156V28.625H32.4453C33.3359 28.625 34.099 28.7865 34.7344 29.1094C35.375 29.4271 35.8646 29.8672 36.2031 30.4297C36.5417 30.9922 36.7109 31.6354 36.7109 32.3594C36.7109 33.0938 36.5417 33.7292 36.2031 34.2656C35.8646 34.8021 35.375 35.2161 34.7344 35.5078C34.099 35.7995 33.3359 35.9453 32.4453 35.9453ZM40.6719 28.625V40H38.3281V28.625H40.6719ZM45.2031 33.4844V35.3125H40.0312V33.4844H45.2031ZM45.75 28.625V30.4609H40.0312V28.625H45.75Z" fill="white"/>
<path d="M29.5469 35.9453H28.5469V36.9453H29.5469V35.9453ZM29.5469 34.1172V33.1172H28.5469V34.1172H29.5469ZM33.5391 33.8984L33.9994 34.7862L34.0058 34.7829L34.0122 34.7794L33.5391 33.8984ZM30.3594 30.4609V29.4609H29.3594V30.4609H30.3594ZM30.3594 40V41H31.3594V40H30.3594ZM28.0156 40H27.0156V41H28.0156V40ZM28.0156 28.625V27.625H27.0156V28.625H28.0156ZM34.7344 29.1094L34.2813 30.0009L34.2901 30.0053L34.7344 29.1094ZM34.7344 35.5078L34.32 34.5977L34.3172 34.599L34.7344 35.5078ZM32.4453 34.9453H29.5469V36.9453H32.4453V34.9453ZM30.5469 35.9453V34.1172H28.5469V35.9453H30.5469ZM29.5469 35.1172H32.4453V33.1172H29.5469V35.1172ZM32.4453 35.1172C32.9912 35.1172 33.5294 35.0299 33.9994 34.7862L33.0787 33.0107C32.9863 33.0586 32.7952 33.1172 32.4453 33.1172V35.1172ZM34.0122 34.7794C34.4622 34.5377 34.8245 34.1821 35.0542 33.7136L33.2583 32.8333C33.2276 32.8961 33.1784 32.9571 33.0659 33.0174L34.0122 34.7794ZM35.0542 33.7136C35.2596 33.2945 35.3516 32.8414 35.3516 32.375H33.3516C33.3516 32.5752 33.3133 32.7212 33.2583 32.8333L35.0542 33.7136ZM35.3516 32.375C35.3516 31.9046 35.2603 31.4496 35.0694 31.022L33.2431 31.8373C33.3127 31.9931 33.3516 32.1684 33.3516 32.375H35.3516ZM35.0694 31.022C34.8552 30.5422 34.5133 30.1583 34.0719 29.8803L33.0062 31.5728C33.1273 31.649 33.1969 31.7338 33.2431 31.8373L35.0694 31.022ZM34.0719 29.8803C33.5846 29.5735 33.0181 29.4609 32.4453 29.4609V31.4609C32.7683 31.4609 32.931 31.5254 33.0062 31.5728L34.0719 29.8803ZM32.4453 29.4609H30.3594V31.4609H32.4453V29.4609ZM29.3594 30.4609V40H31.3594V30.4609H29.3594ZM30.3594 39H28.0156V41H30.3594V39ZM29.0156 40V28.625H27.0156V40H29.0156ZM28.0156 29.625H32.4453V27.625H28.0156V29.625ZM32.4453 29.625C33.2169 29.625 33.8169 29.7649 34.2813 30.0009L35.1874 28.2179C34.381 27.8081 33.455 27.625 32.4453 27.625V29.625ZM34.2901 30.0053C34.7756 30.246 35.1149 30.5609 35.3463 30.9453L37.0599 29.914C36.6142 29.1735 35.9744 28.6081 35.1787 28.2135L34.2901 30.0053ZM35.3463 30.9453C35.5817 31.3365 35.7109 31.7979 35.7109 32.3594H37.7109C37.7109 31.4729 37.5016 30.6479 37.0599 29.914L35.3463 30.9453ZM35.7109 32.3594C35.7109 32.9352 35.5801 33.3791 35.3574 33.7319L37.0488 34.7993C37.5032 34.0792 37.7109 33.2523 37.7109 32.3594H35.7109ZM35.3574 33.7319C35.1341 34.0858 34.8034 34.3776 34.32 34.5977L35.1487 36.4179C35.9466 36.0547 36.595 35.5184 37.0488 34.7993L35.3574 33.7319ZM34.3172 34.599C33.8433 34.8165 33.23 34.9453 32.4453 34.9453V36.9453C33.4419 36.9453 34.3546 36.7825 35.1515 36.4166L34.3172 34.599ZM40.6719 28.625H41.6719V27.625H40.6719V28.625ZM40.6719 40V41H41.6719V40H40.6719ZM38.3281 40H37.3281V41H38.3281V40ZM38.3281 28.625V27.625H37.3281V28.625H38.3281ZM45.2031 33.4844H46.2031V32.4844H45.2031V33.4844ZM45.2031 35.3125V36.3125H46.2031V35.3125H45.2031ZM40.0312 35.3125H39.0312V36.3125H40.0312V35.3125ZM40.0312 33.4844V32.4844H39.0312V33.4844H40.0312ZM45.75 28.625H46.75V27.625H45.75V28.625ZM45.75 30.4609V31.4609H46.75V30.4609H45.75ZM40.0312 30.4609H39.0312V31.4609H40.0312V30.4609ZM40.0312 28.625V27.625H39.0312V28.625H40.0312ZM39.6719 28.625V40H41.6719V28.625H39.6719ZM40.6719 39H38.3281V41H40.6719V39ZM39.3281 40V28.625H37.3281V40H39.3281ZM38.3281 29.625H40.6719V27.625H38.3281V29.625ZM44.2031 33.4844V35.3125H46.2031V33.4844H44.2031ZM45.2031 34.3125H40.0312V36.3125H45.2031V34.3125ZM41.0312 35.3125V33.4844H39.0312V35.3125H41.0312ZM40.0312 34.4844H45.2031V32.4844H40.0312V34.4844ZM44.75 28.625V30.4609H46.75V28.625H44.75ZM45.75 29.4609H40.0312V31.4609H45.75V29.4609ZM41.0312 30.4609V28.625H39.0312V30.4609H41.0312ZM40.0312 29.625H45.75V27.625H40.0312V29.625Z" fill="#035763"/>
</g>
<defs>
<filter id="filter0_d_2204_1076" x="2" y="-4" width="74" height="74" filterUnits="userSpaceOnUse" color-interpolation-filters="sRGB">
<feFlood flood-opacity="0" result="BackgroundImageFix"/>
<feColorMatrix in="SourceAlpha" type="matrix" values="0 0 0 0 0 0 0 0 0 0 0 0 0 0 0 0 0 0 127 0" result="hardAlpha"/>
<feMorphology radius="2" operator="dilate" in="SourceAlpha" result="effect1_dropShadow_2204_1076"/>
<feOffset dx="3" dy="-3"/>
<feGaussianBlur stdDeviation="5"/>
<feComposite in2="hardAlpha" operator="out"/>
<feColorMatrix type="matrix" values="0 0 0 0 0.471667 0 0 0 0 0.471667 0 0 0 0 0.471667 0 0 0 0.25 0"/>
<feBlend mode="normal" in2="BackgroundImageFix" result="effect1_dropShadow_2204_1076"/>
<feBlend mode="normal" in="SourceGraphic" in2="effect1_dropShadow_2204_1076" result="shape"/>
</filter>
<clipPath id="clip0_2204_1076">
<rect width="72" height="72" fill="white"/>
</clipPath>
</defs>
</svg>
