<svg width="72" height="72" viewBox="0 0 72 72" fill="none" xmlns="http://www.w3.org/2000/svg">
<g clip-path="url(#clip0_2204_1035)">
<g filter="url(#filter0_d_2204_1035)">
<circle cx="36" cy="36" r="25" fill="white"/>
<circle cx="36" cy="36" r="24.5" stroke="#035763"/>
</g>
<path d="M37.812 57.1429L37.8119 57.143C37.3814 57.4986 36.8278 57.6972 36.2511 57.6967C35.6748 57.6963 35.1218 57.4969 34.6921 57.1409C34.6919 57.1407 34.6916 57.1406 34.6914 57.1404L34.0207 56.5807C34.0202 56.5803 34.0197 56.5799 34.0192 56.5795C24.2989 48.3998 19.5931 41.0731 19.5931 34.5104C19.5931 25.7058 27.024 18.5193 36.2539 18.5193C45.4837 18.5193 52.9146 25.7058 52.9146 34.5104C52.9146 41.2248 47.9883 48.7397 37.812 57.1429ZM36.2539 27.3215C34.2882 27.3215 32.3975 28.072 30.9989 29.4168C29.5994 30.7625 28.8074 32.594 28.8074 34.5104C28.8074 36.4267 29.5994 38.2583 30.9989 39.604C32.3975 40.9487 34.2882 41.6992 36.2539 41.6992C38.2195 41.6992 40.1102 40.9487 41.5088 39.604C42.9083 38.2583 43.7003 36.4267 43.7003 34.5104C43.7003 32.594 42.9083 30.7625 41.5088 29.4168C40.1102 28.072 38.2195 27.3215 36.2539 27.3215Z" fill="#504745" stroke="#035763" stroke-width="1.5"/>
<rect x="26.8431" y="25.4615" width="19" height="20.1923" fill="#504745"/>
<path d="M40.2891 25.5C41.0312 25.5 41.5781 26.2422 41.3828 26.9453L39.2734 34.25H42.6328C43.375 34.25 43.9609 34.875 43.9609 35.6172C43.9609 36.0469 43.8047 36.3984 43.4922 36.6719L33.375 45.2656C33.1797 45.4219 32.9453 45.5 32.6719 45.5C31.9297 45.5 31.3828 44.7969 31.5781 44.0938L33.6875 36.75H30.2891C29.5859 36.75 29 36.1641 29 35.4609C29 35.0703 29.1562 34.7188 29.4297 34.4453L39.5859 25.7734C39.7812 25.6172 40.0156 25.5 40.2891 25.5ZM38.8828 28.8203L31.8125 34.875H34.9375C35.2109 34.875 35.4844 35.0312 35.6797 35.2656C35.8359 35.5 35.9141 35.8125 35.8359 36.0859L34.0781 42.2188L41.2266 36.125H38.0625C37.75 36.125 37.4766 36.0078 37.2812 35.7734C37.125 35.5391 37.0469 35.2266 37.125 34.9531L38.8828 28.8203Z" fill="white"/>
<path d="M41.3828 26.9453L41.8632 27.084L41.8646 27.0791L41.3828 26.9453ZM39.2734 34.25L38.7931 34.1113L38.6086 34.75H39.2734V34.25ZM43.4922 36.6719L43.8159 37.053L43.8214 37.0482L43.4922 36.6719ZM33.375 45.2656L33.6873 45.6561L33.6931 45.6515L33.6987 45.6467L33.375 45.2656ZM31.5781 44.0938L31.0975 43.9557L31.0964 43.9599L31.5781 44.0938ZM33.6875 36.75L34.1681 36.888L34.3513 36.25H33.6875V36.75ZM29.4297 34.4453L29.105 34.0651L29.09 34.0778L29.0761 34.0918L29.4297 34.4453ZM39.5859 25.7734L39.2736 25.383L39.2673 25.388L39.2613 25.3932L39.5859 25.7734ZM38.8828 28.8203L39.3635 28.9581L39.8222 27.3576L38.5576 28.4405L38.8828 28.8203ZM31.8125 34.875L31.4873 34.4952L30.4599 35.375H31.8125V34.875ZM35.6797 35.2656L36.0957 34.9883L36.0809 34.9661L36.0638 34.9455L35.6797 35.2656ZM35.8359 36.0859L36.3166 36.2237L36.3167 36.2233L35.8359 36.0859ZM34.0781 42.2188L33.5975 42.081L33.1406 43.675L34.4025 42.5993L34.0781 42.2188ZM41.2266 36.125L41.5509 36.5055L42.5838 35.625H41.2266V36.125ZM37.2812 35.7734L36.8652 36.0508L36.88 36.073L36.8971 36.0935L37.2812 35.7734ZM37.125 34.9531L36.6444 34.8154L36.6442 34.8158L37.125 34.9531ZM40.2891 26C40.6935 26 41.0098 26.4201 40.9011 26.8115L41.8646 27.0791C42.1465 26.0642 41.369 25 40.2891 25V26ZM40.9024 26.8066L38.7931 34.1113L39.7538 34.3887L41.8632 27.084L40.9024 26.8066ZM39.2734 34.75H42.6328V33.75H39.2734V34.75ZM42.6328 34.75C43.0802 34.75 43.4609 35.1321 43.4609 35.6172H44.4609C44.4609 34.6179 43.6698 33.75 42.6328 33.75V34.75ZM43.4609 35.6172C43.4609 35.9084 43.3627 36.1208 43.1629 36.2956L43.8214 37.0482C44.2467 36.6761 44.4609 36.1853 44.4609 35.6172H43.4609ZM43.1685 36.2908L33.0513 44.8845L33.6987 45.6467L43.8159 37.053L43.1685 36.2908ZM33.0627 44.8752C32.9644 44.9538 32.8431 45 32.6719 45V46C33.0476 46 33.395 45.89 33.6873 45.6561L33.0627 44.8752ZM32.6719 45C32.248 45 31.9563 44.6003 32.0599 44.2276L31.0964 43.9599C30.8093 44.9934 31.6113 46 32.6719 46V45ZM32.0587 44.2318L34.1681 36.888L33.2069 36.612L31.0976 43.9557L32.0587 44.2318ZM33.6875 36.25H30.2891V37.25H33.6875V36.25ZM30.2891 36.25C29.8621 36.25 29.5 35.8879 29.5 35.4609H28.5C28.5 36.4402 29.3098 37.25 30.2891 37.25V36.25ZM29.5 35.4609C29.5 35.2116 29.5973 34.9848 29.7832 34.7989L29.0761 34.0918C28.7152 34.4527 28.5 34.929 28.5 35.4609H29.5ZM29.7544 34.8256L39.9106 26.1537L39.2613 25.3932L29.105 34.0651L29.7544 34.8256ZM39.8983 26.1639C40.0392 26.0511 40.1664 26 40.2891 26V25C39.8649 25 39.5233 25.1832 39.2736 25.383L39.8983 26.1639ZM38.5576 28.4405L31.4873 34.4952L32.1377 35.2548L39.208 29.2001L38.5576 28.4405ZM31.8125 35.375H34.9375V34.375H31.8125V35.375ZM34.9375 35.375C35.0239 35.375 35.1674 35.4318 35.2956 35.5857L36.0638 34.9455C35.8014 34.6307 35.398 34.375 34.9375 34.375V35.375ZM35.2637 35.543C35.3596 35.6869 35.3836 35.849 35.3552 35.9486L36.3167 36.2233C36.4445 35.776 36.3122 35.3131 36.0957 34.9883L35.2637 35.543ZM35.3553 35.9482L33.5975 42.081L34.5588 42.3565L36.3166 36.2237L35.3553 35.9482ZM34.4025 42.5993L41.5509 36.5055L40.9022 35.7445L33.7538 41.8382L34.4025 42.5993ZM41.2266 35.625H38.0625V36.625H41.2266V35.625ZM38.0625 35.625C37.8835 35.625 37.7565 35.5628 37.6654 35.4533L36.8971 36.0935C37.1966 36.4529 37.6165 36.625 38.0625 36.625V35.625ZM37.6973 35.4961C37.6013 35.3521 37.5773 35.19 37.6058 35.0905L36.6442 34.8158C36.5164 35.2631 36.6487 35.726 36.8652 36.0508L37.6973 35.4961ZM37.6056 35.0909L39.3635 28.9581L38.4022 28.6825L36.6444 34.8154L37.6056 35.0909Z" fill="#035763"/>
</g>
<defs>
<filter id="filter0_d_2204_1035" x="2" y="-4" width="74" height="74" filterUnits="userSpaceOnUse" color-interpolation-filters="sRGB">
<feFlood flood-opacity="0" result="BackgroundImageFix"/>
<feColorMatrix in="SourceAlpha" type="matrix" values="0 0 0 0 0 0 0 0 0 0 0 0 0 0 0 0 0 0 127 0" result="hardAlpha"/>
<feMorphology radius="2" operator="dilate" in="SourceAlpha" result="effect1_dropShadow_2204_1035"/>
<feOffset dx="3" dy="-3"/>
<feGaussianBlur stdDeviation="5"/>
<feComposite in2="hardAlpha" operator="out"/>
<feColorMatrix type="matrix" values="0 0 0 0 0.471667 0 0 0 0 0.471667 0 0 0 0 0.471667 0 0 0 0.25 0"/>
<feBlend mode="normal" in2="BackgroundImageFix" result="effect1_dropShadow_2204_1035"/>
<feBlend mode="normal" in="SourceGraphic" in2="effect1_dropShadow_2204_1035" result="shape"/>
</filter>
<clipPath id="clip0_2204_1035">
<rect width="72" height="72" fill="white"/>
</clipPath>
</defs>
</svg>
