<svg width="88" height="89" viewBox="0 0 88 89" fill="none" xmlns="http://www.w3.org/2000/svg">
<path d="M42.1207 68.4752L42.1206 68.4753C41.6439 68.8848 41.0362 69.1097 40.4078 69.1091C39.7797 69.1086 39.1726 68.8828 38.6968 68.4729C38.6966 68.4727 38.6963 68.4725 38.6961 68.4723L38.0239 67.889C38.0236 67.8887 38.0233 67.8885 38.023 67.8882C28.2945 59.3742 23.5 51.6808 23.5 44.7153C23.5 35.3753 31.0708 27.8046 40.4107 27.8046C49.7506 27.8046 57.3214 35.3753 57.3214 44.7153C57.3214 51.8409 52.3034 59.7304 42.1207 68.4752ZM40.4107 37.5189C38.5021 37.5189 36.6717 38.277 35.3221 39.6266C33.9725 40.9762 33.2143 42.8067 33.2143 44.7153C33.2143 46.6239 33.9725 48.4543 35.3221 49.8039C36.6717 51.1535 38.5021 51.9117 40.4107 51.9117C42.3193 51.9117 44.1498 51.1535 45.4994 49.8039C46.8489 48.4543 47.6071 46.6239 47.6071 44.7153C47.6071 42.8067 46.8489 40.9762 45.4994 39.6266C44.1498 38.277 42.3193 37.5189 40.4107 37.5189Z" fill="#4F4F4F" stroke="#035763"/>
<rect x="30" y="35.3909" width="21" height="21" rx="3" fill="#4F4F4F"/>
<path d="M44.2891 35.5863C45.0312 35.5863 45.5781 36.3285 45.3828 37.0316L43.2734 44.3363H46.6328C47.375 44.3363 47.9609 44.9613 47.9609 45.7035C47.9609 46.1332 47.8047 46.4847 47.4922 46.7582L37.375 55.3519C37.1797 55.5082 36.9453 55.5863 36.6719 55.5863C35.9297 55.5863 35.3828 54.8832 35.5781 54.1801L37.6875 46.8363H34.2891C33.5859 46.8363 33 46.2504 33 45.5472C33 45.1566 33.1562 44.8051 33.4297 44.5316L43.5859 35.8597C43.7812 35.7035 44.0156 35.5863 44.2891 35.5863ZM42.8828 38.9066L35.8125 44.9613H38.9375C39.2109 44.9613 39.4844 45.1176 39.6797 45.3519C39.8359 45.5863 39.9141 45.8988 39.8359 46.1722L38.0781 52.3051L45.2266 46.2113H42.0625C41.75 46.2113 41.4766 46.0941 41.2812 45.8597C41.125 45.6254 41.0469 45.3129 41.125 45.0394L42.8828 38.9066Z" fill="white"/>
<path d="M45.3828 37.0316L45.8632 37.1703L45.8646 37.1654L45.3828 37.0316ZM43.2734 44.3363L42.7931 44.1976L42.6086 44.8363H43.2734V44.3363ZM47.4922 46.7582L47.8159 47.1393L47.8214 47.1345L47.4922 46.7582ZM37.375 55.3519L37.6873 55.7424L37.6931 55.7378L37.6987 55.733L37.375 55.3519ZM35.5781 54.1801L35.0975 54.042L35.0964 54.0462L35.5781 54.1801ZM37.6875 46.8363L38.1681 46.9743L38.3513 46.3363H37.6875V46.8363ZM33.4297 44.5316L33.105 44.1514L33.09 44.1641L33.0761 44.1781L33.4297 44.5316ZM43.5859 35.8597L43.2736 35.4693L43.2673 35.4743L43.2613 35.4795L43.5859 35.8597ZM42.8828 38.9066L43.3635 39.0444L43.8222 37.4439L42.5576 38.5268L42.8828 38.9066ZM35.8125 44.9613L35.4873 44.5815L34.4599 45.4613H35.8125V44.9613ZM39.6797 45.3519L40.0957 45.0746L40.0809 45.0524L40.0638 45.0318L39.6797 45.3519ZM39.8359 46.1722L40.3166 46.31L40.3167 46.3096L39.8359 46.1722ZM38.0781 52.3051L37.5975 52.1673L37.1406 53.7613L38.4025 52.6856L38.0781 52.3051ZM45.2266 46.2113L45.5509 46.5918L46.5838 45.7113H45.2266V46.2113ZM41.2812 45.8597L40.8652 46.1371L40.88 46.1593L40.8971 46.1798L41.2812 45.8597ZM41.125 45.0394L40.6444 44.9017L40.6442 44.9021L41.125 45.0394ZM44.2891 36.0863C44.6935 36.0863 45.0098 36.5064 44.9011 36.8978L45.8646 37.1654C46.1465 36.1506 45.369 35.0863 44.2891 35.0863V36.0863ZM44.9024 36.8929L42.7931 44.1976L43.7538 44.475L45.8632 37.1703L44.9024 36.8929ZM43.2734 44.8363H46.6328V43.8363H43.2734V44.8363ZM46.6328 44.8363C47.0802 44.8363 47.4609 45.2184 47.4609 45.7035H48.4609C48.4609 44.7042 47.6698 43.8363 46.6328 43.8363V44.8363ZM47.4609 45.7035C47.4609 45.9947 47.3627 46.2071 47.1629 46.3819L47.8214 47.1345C48.2467 46.7624 48.4609 46.2716 48.4609 45.7035H47.4609ZM47.1685 46.3771L37.0513 54.9708L37.6987 55.733L47.8159 47.1393L47.1685 46.3771ZM37.0627 54.9615C36.9644 55.0401 36.8431 55.0863 36.6719 55.0863V56.0863C37.0476 56.0863 37.395 55.9763 37.6873 55.7424L37.0627 54.9615ZM36.6719 55.0863C36.248 55.0863 35.9563 54.6867 36.0599 54.3139L35.0964 54.0462C34.8093 55.0797 35.6113 56.0863 36.6719 56.0863V55.0863ZM36.0587 54.3181L38.1681 46.9743L37.2069 46.6983L35.0976 54.042L36.0587 54.3181ZM37.6875 46.3363H34.2891V47.3363H37.6875V46.3363ZM34.2891 46.3363C33.8621 46.3363 33.5 45.9742 33.5 45.5472H32.5C32.5 46.5265 33.3098 47.3363 34.2891 47.3363V46.3363ZM33.5 45.5472C33.5 45.2979 33.5973 45.0712 33.7832 44.8852L33.0761 44.1781C32.7152 44.539 32.5 45.0153 32.5 45.5472H33.5ZM33.7544 44.9119L43.9106 36.24L43.2613 35.4795L33.105 44.1514L33.7544 44.9119ZM43.8983 36.2502C44.0392 36.1374 44.1664 36.0863 44.2891 36.0863V35.0863C43.8649 35.0863 43.5233 35.2695 43.2736 35.4693L43.8983 36.2502ZM42.5576 38.5268L35.4873 44.5815L36.1377 45.3411L43.208 39.2864L42.5576 38.5268ZM35.8125 45.4613H38.9375V44.4613H35.8125V45.4613ZM38.9375 45.4613C39.0239 45.4613 39.1674 45.5182 39.2956 45.672L40.0638 45.0318C39.8014 44.717 39.398 44.4613 38.9375 44.4613V45.4613ZM39.2637 45.6293C39.3596 45.7732 39.3836 45.9353 39.3552 46.0349L40.3167 46.3096C40.4445 45.8623 40.3122 45.3994 40.0957 45.0746L39.2637 45.6293ZM39.3553 46.0345L37.5975 52.1673L38.5588 52.4428L40.3166 46.31L39.3553 46.0345ZM38.4025 52.6856L45.5509 46.5918L44.9022 45.8308L37.7538 51.9245L38.4025 52.6856ZM45.2266 45.7113H42.0625V46.7113H45.2266V45.7113ZM42.0625 45.7113C41.8835 45.7113 41.7565 45.6491 41.6654 45.5396L40.8971 46.1798C41.1966 46.5392 41.6165 46.7113 42.0625 46.7113V45.7113ZM41.6973 45.5824C41.6013 45.4384 41.5773 45.2763 41.6058 45.1768L40.6442 44.9021C40.5164 45.3494 40.6487 45.8123 40.8652 46.1371L41.6973 45.5824ZM41.6056 45.1772L43.3635 39.0444L42.4022 38.7689L40.6444 44.9017L41.6056 45.1772Z" fill="#035763"/>
<g filter="url(#filter0_d_1975_2655)">
<path d="M65.5 47.5C65.5 61.8684 54.0743 73.5 40 73.5C25.9257 73.5 14.5 61.8684 14.5 47.5C14.5 33.1316 25.9257 21.5 40 21.5C54.0743 21.5 65.5 33.1316 65.5 47.5Z" stroke="#035763" shape-rendering="crispEdges"/>
</g>
<defs>
<filter id="filter0_d_1975_2655" x="0" y="0" width="88" height="89" filterUnits="userSpaceOnUse" color-interpolation-filters="sRGB">
<feFlood flood-opacity="0" result="BackgroundImageFix"/>
<feColorMatrix in="SourceAlpha" type="matrix" values="0 0 0 0 0 0 0 0 0 0 0 0 0 0 0 0 0 0 127 0" result="hardAlpha"/>
<feMorphology radius="6" operator="dilate" in="SourceAlpha" result="effect1_dropShadow_1975_2655"/>
<feOffset dx="4" dy="-3"/>
<feGaussianBlur stdDeviation="6"/>
<feComposite in2="hardAlpha" operator="out"/>
<feColorMatrix type="matrix" values="0 0 0 0 0.471667 0 0 0 0 0.471667 0 0 0 0 0.471667 0 0 0 0.15 0"/>
<feBlend mode="normal" in2="BackgroundImageFix" result="effect1_dropShadow_1975_2655"/>
<feBlend mode="normal" in="SourceGraphic" in2="effect1_dropShadow_1975_2655" result="shape"/>
</filter>
</defs>
</svg>
