<svg width="46" height="46" viewBox="0 0 46 46" fill="none" xmlns="http://www.w3.org/2000/svg">
<g clip-path="url(#clip0_2204_1035)">
<circle cx="23" cy="23" r="22.5" fill="white" stroke="#035763"/>
<path d="M24.812 43.1429L24.8119 43.143C24.3814 43.4986 23.8278 43.6972 23.2511 43.6967C22.6749 43.6963 22.122 43.4969 21.6923 43.1411C21.692 43.1409 21.6917 43.1406 21.6914 43.1404L21.0207 42.5807C21.0202 42.5804 21.0198 42.58 21.0193 42.5796C11.299 34.3998 6.59314 27.0731 6.59314 20.5104C6.59314 11.7058 14.024 4.51929 23.2539 4.51929C32.4837 4.51929 39.9146 11.7058 39.9146 20.5104C39.9146 27.2248 34.9883 34.7397 24.812 43.1429ZM23.2539 13.3215C21.2882 13.3215 19.3975 14.072 17.9989 15.4168C16.5994 16.7625 15.8074 18.594 15.8074 20.5104C15.8074 22.4267 16.5994 24.2583 17.9989 25.604C19.3975 26.9487 21.2882 27.6992 23.2539 27.6992C25.2195 27.6992 27.1102 26.9487 28.5088 25.604C29.9083 24.2583 30.7003 22.4267 30.7003 20.5104C30.7003 18.594 29.9083 16.7625 28.5088 15.4168C27.1102 14.072 25.2195 13.3215 23.2539 13.3215Z" fill="#504745" stroke="#035763" stroke-width="1.5"/>
<rect x="13.8431" y="11.4615" width="19" height="20.1923" fill="#504745"/>
<mask id="path-4-outside-1_2204_1035" maskUnits="userSpaceOnUse" x="15" y="11" width="17" height="21" fill="black">
<rect fill="white" x="15" y="11" width="17" height="21"/>
<path d="M27.2891 11.5C28.0312 11.5 28.5781 12.2422 28.3828 12.9453L26.2734 20.25H29.6328C30.375 20.25 30.9609 20.875 30.9609 21.6172C30.9609 22.0469 30.8047 22.3984 30.4922 22.6719L20.375 31.2656C20.1797 31.4219 19.9453 31.5 19.6719 31.5C18.9297 31.5 18.3828 30.7969 18.5781 30.0938L20.6875 22.75H17.2891C16.5859 22.75 16 22.1641 16 21.4609C16 21.0703 16.1562 20.7188 16.4297 20.4453L26.5859 11.7734C26.7812 11.6172 27.0156 11.5 27.2891 11.5ZM25.8828 14.8203L18.8125 20.875H21.9375C22.2109 20.875 22.4844 21.0312 22.6797 21.2656C22.8359 21.5 22.9141 21.8125 22.8359 22.0859L21.0781 28.2188L28.2266 22.125H25.0625C24.75 22.125 24.4766 22.0078 24.2812 21.7734C24.125 21.5391 24.0469 21.2266 24.125 20.9531L25.8828 14.8203Z"/>
</mask>
<path d="M27.2891 11.5C28.0312 11.5 28.5781 12.2422 28.3828 12.9453L26.2734 20.25H29.6328C30.375 20.25 30.9609 20.875 30.9609 21.6172C30.9609 22.0469 30.8047 22.3984 30.4922 22.6719L20.375 31.2656C20.1797 31.4219 19.9453 31.5 19.6719 31.5C18.9297 31.5 18.3828 30.7969 18.5781 30.0938L20.6875 22.75H17.2891C16.5859 22.75 16 22.1641 16 21.4609C16 21.0703 16.1562 20.7188 16.4297 20.4453L26.5859 11.7734C26.7812 11.6172 27.0156 11.5 27.2891 11.5ZM25.8828 14.8203L18.8125 20.875H21.9375C22.2109 20.875 22.4844 21.0312 22.6797 21.2656C22.8359 21.5 22.9141 21.8125 22.8359 22.0859L21.0781 28.2188L28.2266 22.125H25.0625C24.75 22.125 24.4766 22.0078 24.2812 21.7734C24.125 21.5391 24.0469 21.2266 24.125 20.9531L25.8828 14.8203Z" fill="white"/>
<path d="M28.3828 12.9453L28.8632 13.084L28.8646 13.0791L28.3828 12.9453ZM26.2734 20.25L25.7931 20.1113L25.6086 20.75H26.2734V20.25ZM30.4922 22.6719L30.8159 23.053L30.8214 23.0482L30.4922 22.6719ZM20.375 31.2656L20.6873 31.6561L20.6931 31.6515L20.6987 31.6467L20.375 31.2656ZM18.5781 30.0938L18.0975 29.9557L18.0964 29.9599L18.5781 30.0938ZM20.6875 22.75L21.1681 22.888L21.3513 22.25H20.6875V22.75ZM16.4297 20.4453L16.105 20.0651L16.09 20.0778L16.0761 20.0918L16.4297 20.4453ZM26.5859 11.7734L26.2736 11.383L26.2673 11.388L26.2613 11.3932L26.5859 11.7734ZM25.8828 14.8203L26.3635 14.9581L26.8222 13.3576L25.5576 14.4405L25.8828 14.8203ZM18.8125 20.875L18.4873 20.4952L17.4599 21.375H18.8125V20.875ZM22.6797 21.2656L23.0957 20.9883L23.0809 20.9661L23.0638 20.9455L22.6797 21.2656ZM22.8359 22.0859L23.3166 22.2237L23.3167 22.2233L22.8359 22.0859ZM21.0781 28.2188L20.5975 28.081L20.1406 29.675L21.4025 28.5993L21.0781 28.2188ZM28.2266 22.125L28.5509 22.5055L29.5838 21.625H28.2266V22.125ZM24.2812 21.7734L23.8652 22.0508L23.88 22.073L23.8971 22.0935L24.2812 21.7734ZM24.125 20.9531L23.6444 20.8154L23.6442 20.8158L24.125 20.9531ZM27.2891 12C27.6935 12 28.0098 12.4201 27.9011 12.8115L28.8646 13.0791C29.1465 12.0642 28.369 11 27.2891 11V12ZM27.9024 12.8066L25.7931 20.1113L26.7538 20.3887L28.8632 13.084L27.9024 12.8066ZM26.2734 20.75H29.6328V19.75H26.2734V20.75ZM29.6328 20.75C30.0802 20.75 30.4609 21.1321 30.4609 21.6172H31.4609C31.4609 20.6179 30.6698 19.75 29.6328 19.75V20.75ZM30.4609 21.6172C30.4609 21.9084 30.3627 22.1208 30.1629 22.2956L30.8214 23.0482C31.2467 22.6761 31.4609 22.1853 31.4609 21.6172H30.4609ZM30.1685 22.2908L20.0513 30.8845L20.6987 31.6467L30.8159 23.053L30.1685 22.2908ZM20.0627 30.8752C19.9644 30.9538 19.8431 31 19.6719 31V32C20.0476 32 20.395 31.89 20.6873 31.6561L20.0627 30.8752ZM19.6719 31C19.248 31 18.9563 30.6003 19.0599 30.2276L18.0964 29.9599C17.8093 30.9934 18.6113 32 19.6719 32V31ZM19.0587 30.2318L21.1681 22.888L20.2069 22.612L18.0976 29.9557L19.0587 30.2318ZM20.6875 22.25H17.2891V23.25H20.6875V22.25ZM17.2891 22.25C16.8621 22.25 16.5 21.8879 16.5 21.4609H15.5C15.5 22.4402 16.3098 23.25 17.2891 23.25V22.25ZM16.5 21.4609C16.5 21.2116 16.5973 20.9848 16.7832 20.7989L16.0761 20.0918C15.7152 20.4527 15.5 20.929 15.5 21.4609H16.5ZM16.7544 20.8256L26.9106 12.1537L26.2613 11.3932L16.105 20.0651L16.7544 20.8256ZM26.8983 12.1639C27.0392 12.0511 27.1664 12 27.2891 12V11C26.8649 11 26.5233 11.1832 26.2736 11.383L26.8983 12.1639ZM25.5576 14.4405L18.4873 20.4952L19.1377 21.2548L26.208 15.2001L25.5576 14.4405ZM18.8125 21.375H21.9375V20.375H18.8125V21.375ZM21.9375 21.375C22.0239 21.375 22.1674 21.4318 22.2956 21.5857L23.0638 20.9455C22.8014 20.6307 22.398 20.375 21.9375 20.375V21.375ZM22.2637 21.543C22.3596 21.6869 22.3836 21.849 22.3552 21.9486L23.3167 22.2233C23.4445 21.776 23.3122 21.3131 23.0957 20.9883L22.2637 21.543ZM22.3553 21.9482L20.5975 28.081L21.5588 28.3565L23.3166 22.2237L22.3553 21.9482ZM21.4025 28.5993L28.5509 22.5055L27.9022 21.7445L20.7538 27.8382L21.4025 28.5993ZM28.2266 21.625H25.0625V22.625H28.2266V21.625ZM25.0625 21.625C24.8835 21.625 24.7565 21.5628 24.6654 21.4533L23.8971 22.0935C24.1966 22.4529 24.6165 22.625 25.0625 22.625V21.625ZM24.6973 21.4961C24.6013 21.3521 24.5773 21.19 24.6058 21.0905L23.6442 20.8158C23.5164 21.2631 23.6487 21.726 23.8652 22.0508L24.6973 21.4961ZM24.6056 21.0909L26.3635 14.9581L25.4022 14.6825L23.6444 20.8154L24.6056 21.0909Z" fill="#035763" mask="url(#path-4-outside-1_2204_1035)"/>
</g>
<defs>
<clipPath id="clip0_2204_1035">
<rect width="46" height="46" fill="white"/>
</clipPath>
</defs>
</svg>
