<svg width="72" height="72" viewBox="0 0 72 72" fill="none" xmlns="http://www.w3.org/2000/svg">
<path d="M37.9689 55.3736L37.9688 55.3737C37.5383 55.7293 36.9847 55.9279 36.408 55.9275C35.8317 55.927 35.2789 55.7276 34.8492 55.3718C34.8489 55.3716 34.8486 55.3713 34.8483 55.3711L34.1775 54.8114C34.1771 54.8111 34.1766 54.8107 34.1762 54.8103C24.4558 46.6305 19.75 39.3038 19.75 32.7411C19.75 23.9365 27.1809 16.75 36.4107 16.75C45.6406 16.75 53.0714 23.9365 53.0714 32.7411C53.0714 39.4555 48.1452 46.9704 37.9689 55.3736ZM36.4107 25.5522C34.4451 25.5522 32.5543 26.3027 31.1558 27.6475C29.7563 28.9932 28.9643 30.8248 28.9643 32.7411C28.9643 34.6574 29.7563 36.489 31.1558 37.8347C32.5543 39.1794 34.4451 39.9299 36.4107 39.9299C38.3763 39.9299 40.2671 39.1794 41.6656 37.8347C43.0652 36.489 43.8571 34.6574 43.8571 32.7411C43.8571 30.8248 43.0652 28.9932 41.6656 27.6475C40.2671 26.3027 38.3763 25.5522 36.4107 25.5522Z" fill="#2BC2CC" stroke="#035763" stroke-width="1.5"/>
<rect x="27" y="23.6923" width="19" height="20.1923" fill="#2BC2CC"/>
<path d="M36.0296 26.1537L36.0293 26.1521L35.9348 25.7153C35.9348 25.7152 35.9347 25.7151 35.9347 25.715C35.7831 25.0071 36.2549 24.2847 37.0371 24.1296C37.8234 23.9737 38.5653 24.4646 38.7187 25.1801L38.7189 25.181L38.8133 25.6173C38.8133 25.6175 38.8134 25.6178 38.8134 25.6181C39.111 27.0127 39.9097 28.257 41.067 29.1364L41.0677 29.1369L41.3628 29.3604C41.3632 29.3607 41.3636 29.361 41.3639 29.3613C42.1573 29.9693 42.618 30.8798 42.624 31.8413L42.6505 36.1162C42.6571 37.1748 42.1147 38.1749 41.19 38.7754L41.1898 38.7755L39.6575 39.7718C39.6573 39.7719 39.6572 39.772 39.6571 39.7721C39.1089 40.1268 38.4642 40.319 37.7991 40.3228L33.9009 40.3452C33.0989 40.3498 32.478 39.7324 32.4735 39.0081C32.4729 38.908 32.4838 38.8095 32.5039 38.7158L32.6001 38.2663L32.1603 38.1325C31.585 37.9576 31.1843 37.4464 31.1807 36.8626C31.1791 36.61 31.2494 36.3744 31.3759 36.1698L31.7637 35.5427L31.0375 35.4143C30.3726 35.2968 29.8881 34.7423 29.8841 34.1021C29.8815 33.6872 30.0786 33.3088 30.3999 33.0562L31.0245 32.5654L30.3115 32.2145C29.8503 31.9875 29.5483 31.5355 29.5451 31.0285C29.5406 30.3041 30.1538 29.6796 30.9559 29.675L36.7131 29.6419L37.609 29.6368L37.1339 28.877C36.611 28.0407 36.2355 27.1208 36.0296 26.1537Z" fill="white" stroke="#035763"/>
</svg>
