<svg width="51" height="53" viewBox="0 0 51 53" fill="none" xmlns="http://www.w3.org/2000/svg">
<path d="M26.4923 46.9763L26.4922 46.9763C26.0501 47.3487 25.4838 47.5551 24.8962 47.5546C24.3088 47.554 23.7433 47.347 23.3019 46.9742C23.3016 46.974 23.3014 46.9738 23.3012 46.9736L22.6169 46.3915C22.6166 46.3912 22.6162 46.3909 22.6159 46.3906C12.7025 37.8849 7.89001 30.2564 7.89001 23.4107C7.89001 14.2228 15.4907 6.75 24.8989 6.75C34.3072 6.75 41.9079 14.2228 41.9079 23.4107C41.9079 30.4143 36.8702 38.2385 26.4923 46.9763ZM24.8989 15.9643C22.8932 15.9643 20.9668 16.7453 19.5441 18.1401C18.1209 19.5353 17.3186 21.431 17.3186 23.4107C17.3186 25.3905 18.1209 27.2861 19.5441 28.6814C20.9668 30.0761 22.8932 30.8571 24.8989 30.8571C26.9046 30.8571 28.8311 30.0761 30.2538 28.6814C31.677 27.2861 32.4793 25.3905 32.4793 23.4107C32.4793 21.431 31.677 19.5354 30.2538 18.1401C28.8311 16.7453 26.9046 15.9643 24.8989 15.9643Z" fill="#2BC2CC" stroke="#035763" stroke-width="1.5"/>
<rect x="15.3" y="14" width="19.38" height="21" fill="#2BC2CC"/>
<path d="M24.5008 16.5659L24.5005 16.5643L24.4041 16.1099C24.404 16.1097 24.404 16.1096 24.404 16.1094C24.2449 15.352 24.7418 14.5958 25.5376 14.4349C26.3353 14.2736 27.1022 14.7797 27.2624 15.5414L27.2626 15.5422L27.3589 15.996C27.3589 15.9963 27.359 15.9965 27.359 15.9967C27.661 17.4401 28.4722 18.7302 29.6506 19.6432L29.6513 19.6437L29.9524 19.8761C29.9527 19.8764 29.9531 19.8767 29.9534 19.877C30.7654 20.5114 31.2402 21.4646 31.2464 22.4749L31.2735 26.9208C31.2803 28.0332 30.7212 29.0796 29.7756 29.7057L29.7753 29.7058L28.2124 30.742C28.2123 30.7421 28.2121 30.7421 28.212 30.7422C27.6516 31.112 26.9934 31.3118 26.3152 31.3157L22.3391 31.339C21.5251 31.3438 20.8777 30.7026 20.8729 29.9285C20.8723 29.8222 20.8837 29.7176 20.9046 29.6182L20.9982 29.1727L20.5633 29.0378C19.9766 28.8559 19.5581 28.3201 19.5543 27.6972C19.5527 27.4285 19.626 27.1785 19.7572 26.9623L20.1346 26.34L19.4182 26.2109C18.7418 26.089 18.2359 25.5098 18.2318 24.8262C18.2291 24.3842 18.4351 23.9845 18.7653 23.7198L19.3736 23.2324L18.6768 22.8827C18.205 22.6459 17.8893 22.1704 17.886 21.6297C17.8813 20.8556 18.5209 20.2068 19.3348 20.202L25.2072 20.1676L26.094 20.1624L25.6304 19.4063C25.0957 18.5344 24.7115 17.575 24.5008 16.5659Z" fill="white" stroke="#035763"/>
</svg>
