<svg width="50" height="50" viewBox="0 0 50 50" fill="none" xmlns="http://www.w3.org/2000/svg">
<path d="M26.3523 44.9763L26.3522 44.9763C25.91 45.3487 25.3438 45.5551 24.7562 45.5546C24.1688 45.554 23.6033 45.347 23.1619 44.9742C23.1616 44.974 23.1614 44.9738 23.1612 44.9736L22.4769 44.3915C22.4766 44.3912 22.4762 44.3909 22.4759 44.3906C12.5625 35.8849 7.75 28.2564 7.75 21.4107C7.75 12.2228 15.3507 4.75 24.7589 4.75C34.1672 4.75 41.7679 12.2228 41.7679 21.4107C41.7679 28.4143 36.7302 36.2385 26.3523 44.9763ZM24.7589 13.9643C22.7532 13.9643 20.8268 14.7453 19.4041 16.1401C17.9809 17.5353 17.1786 19.431 17.1786 21.4107C17.1786 23.3905 17.9809 25.2861 19.4041 26.6814C20.8268 28.0761 22.7532 28.8571 24.7589 28.8571C26.7646 28.8571 28.6911 28.0761 30.1138 26.6814C31.537 25.2861 32.3393 23.3905 32.3393 21.4107C32.3393 19.431 31.537 17.5354 30.1138 16.1401C28.6911 14.7453 26.7646 13.9643 24.7589 13.9643Z" fill="#2BC2CC" stroke="#035763" stroke-width="1.5"/>
<rect x="15.16" y="12" width="19.38" height="21" fill="#2BC2CC"/>
<path d="M24.3608 14.5659L24.3605 14.5643L24.2641 14.1099C24.2641 14.1097 24.264 14.1096 24.264 14.1094C24.105 13.352 24.6018 12.5958 25.3976 12.4349C26.1953 12.2736 26.9622 12.7797 27.1225 13.5414L27.1226 13.5422L27.2189 13.996C27.219 13.9963 27.219 13.9965 27.2191 13.9967C27.5211 15.4401 28.3322 16.7302 29.5106 17.6432L29.5113 17.6437L29.8124 17.8761C29.8127 17.8764 29.8131 17.8767 29.8135 17.877C30.6254 18.5114 31.1003 19.4646 31.1064 20.4749L31.1335 24.9208C31.1403 26.0332 30.5812 27.0796 29.6356 27.7057L29.6353 27.7058L28.0724 28.742C28.0723 28.7421 28.0721 28.7421 28.072 28.7422C27.5116 29.112 26.8534 29.3118 26.1752 29.3157L22.1991 29.339C21.3852 29.3438 20.7377 28.7026 20.7329 27.9285C20.7323 27.8222 20.7437 27.7176 20.7646 27.6182L20.8582 27.1727L20.4233 27.0378C19.8366 26.8559 19.4181 26.3201 19.4143 25.6972C19.4127 25.4285 19.486 25.1785 19.6172 24.9623L19.9946 24.34L19.2782 24.2109C18.6018 24.089 18.096 23.5098 18.0918 22.8262C18.0891 22.3842 18.2951 21.9845 18.6253 21.7198L19.2336 21.2324L18.5368 20.8827C18.065 20.6459 17.7493 20.1704 17.746 19.6297C17.7413 18.8556 18.3809 18.2068 19.1948 18.202L25.0672 18.1676L25.9541 18.1624L25.4904 17.4063C24.9558 16.5344 24.5716 15.575 24.3608 14.5659Z" fill="white" stroke="#035763"/>
</svg>
