<svg width="35" height="43" viewBox="0 0 35 43" fill="none" xmlns="http://www.w3.org/2000/svg">
<g id="Map location: specialist">
<path id="Vector" d="M19.2836 41.3603L19.2835 41.3604C18.7615 41.8088 18.0958 42.0552 17.4076 42.0546C16.7195 42.0539 16.0545 41.8066 15.5333 41.3574C15.5332 41.3573 15.533 41.3572 15.5329 41.3571L14.8593 40.7726C14.8592 40.7725 14.8591 40.7724 14.859 40.7723C5.11787 32.2474 0.25 24.4899 0.25 17.4107C0.25 7.93271 7.93271 0.25 17.4107 0.25C26.8887 0.25 34.5714 7.93271 34.5714 17.4107C34.5714 24.6521 29.4776 32.6058 19.2836 41.3603ZM17.4107 10.4643C15.5684 10.4643 13.8016 11.1961 12.4988 12.4988C11.1961 13.8016 10.4643 15.5684 10.4643 17.4107C10.4643 19.253 11.1961 21.0199 12.4988 22.3226C13.8016 23.6253 15.5684 24.3571 17.4107 24.3571C19.253 24.3571 21.0199 23.6253 22.3226 22.3226C23.6253 21.0199 24.3571 19.253 24.3571 17.4107C24.3571 15.5684 23.6253 13.8016 22.3226 12.4988C21.0199 11.1961 19.253 10.4643 17.4107 10.4643Z" fill="#2BC2CC" stroke="#035763" stroke-width="0.5"/>
</g>
</svg>
