<svg width="46" height="46" viewBox="0 0 46 46" fill="none" xmlns="http://www.w3.org/2000/svg">
<path d="M24.9689 42.3736L24.9688 42.3737C24.5383 42.7293 23.9847 42.9279 23.408 42.9275C22.8316 42.927 22.2787 42.7276 21.849 42.3717C21.8487 42.3715 21.8485 42.3713 21.8483 42.3711L21.1775 41.8114C21.177 41.811 21.1766 41.8106 21.1761 41.8102C11.4558 33.6305 6.75 26.3038 6.75 19.7411C6.75 10.9365 14.1809 3.75 23.4107 3.75C32.6406 3.75 40.0714 10.9365 40.0714 19.7411C40.0714 26.4555 35.1452 33.9704 24.9689 42.3736ZM23.4107 12.5522C21.4451 12.5522 19.5543 13.3027 18.1558 14.6475C16.7563 15.9932 15.9643 17.8248 15.9643 19.7411C15.9643 21.6574 16.7563 23.489 18.1558 24.8347C19.5543 26.1794 21.4451 26.9299 23.4107 26.9299C25.3763 26.9299 27.2671 26.1794 28.6656 24.8347C30.0652 23.489 30.8571 21.6574 30.8571 19.7411C30.8571 17.8248 30.0652 15.9932 28.6656 14.6475C27.2671 13.3027 25.3763 12.5522 23.4107 12.5522Z" fill="#2BC2CC" stroke="#035763" stroke-width="1.5"/>
<rect x="14" y="10.6923" width="19" height="20.1923" fill="#2BC2CC"/>
<path d="M23.0296 13.1537L23.0293 13.1521L22.9348 12.7153C22.9347 12.7151 22.9347 12.715 22.9347 12.7148C22.7831 12.007 23.255 11.2847 24.0371 11.1296C24.8234 10.9737 25.5653 11.4646 25.7187 12.1801L25.7189 12.181L25.8133 12.6173C25.8133 12.6175 25.8134 12.6178 25.8134 12.6181C26.111 14.0127 26.9097 15.257 28.067 16.1364L28.0677 16.1369L28.3628 16.3604C28.3632 16.3607 28.3636 16.361 28.3639 16.3613C29.1573 16.9692 29.618 17.8798 29.624 18.8413L29.6505 23.1162C29.6571 24.1748 29.1147 25.1749 28.19 25.7754L28.1898 25.7755L26.6575 26.7718C26.6574 26.7719 26.6572 26.772 26.6571 26.7721C26.1089 27.1268 25.4642 27.319 24.7991 27.3228L20.9009 27.3452C20.0989 27.3498 19.478 26.7324 19.4735 26.0081C19.4729 25.908 19.4838 25.8095 19.5039 25.7158L19.6002 25.2663L19.1603 25.1325C18.585 24.9576 18.1843 24.4464 18.1807 23.8626C18.1791 23.61 18.2494 23.3744 18.3759 23.1698L18.7637 22.5427L18.0375 22.4143C17.3726 22.2968 16.8881 21.7423 16.8841 21.1021C16.8815 20.6872 17.0786 20.3088 17.3999 20.0562L18.0245 19.5654L17.3115 19.2145C16.8503 18.9875 16.5483 18.5355 16.5451 18.0285C16.5406 17.3041 17.1538 16.6796 17.9559 16.675L23.7131 16.6419L24.609 16.6368L24.1339 15.877C23.611 15.0407 23.2355 14.1208 23.0296 13.1537Z" fill="white" stroke="#035763"/>
</svg>
