<svg width="72" height="72" viewBox="0 0 72 72" fill="none" xmlns="http://www.w3.org/2000/svg">
<path d="M37.9689 55.3736L37.9688 55.3737C37.5383 55.7293 36.9847 55.9279 36.408 55.9275C35.8316 55.927 35.2787 55.7276 34.849 55.3717C34.8487 55.3715 34.8485 55.3713 34.8483 55.3711L34.1775 54.8114C34.177 54.811 34.1766 54.8106 34.1761 54.8102C24.4558 46.6305 19.75 39.3038 19.75 32.7411C19.75 23.9365 27.1809 16.75 36.4107 16.75C45.6406 16.75 53.0714 23.9365 53.0714 32.7411C53.0714 39.4555 48.1452 46.9704 37.9689 55.3736ZM36.4107 25.5522C34.4451 25.5522 32.5543 26.3027 31.1558 27.6475C29.7563 28.9932 28.9643 30.8248 28.9643 32.7411C28.9643 34.6574 29.7563 36.489 31.1558 37.8347C32.5543 39.1794 34.4451 39.9299 36.4107 39.9299C38.3763 39.9299 40.2671 39.1794 41.6656 37.8347C43.0652 36.489 43.8571 34.6574 43.8571 32.7411C43.8571 30.8248 43.0652 28.9932 41.6656 27.6475C40.2671 26.3027 38.3763 25.5522 36.4107 25.5522Z" fill="#2BC2CC" stroke="#035763" stroke-width="1.5"/>
<rect x="27" y="23.6923" width="19" height="20.1923" fill="#2BC2CC"/>
<mask id="path-3-outside-1_2477_7379" maskUnits="userSpaceOnUse" x="26" y="25" width="20" height="14" fill="black">
<rect fill="white" x="26" y="25" width="20" height="14"/>
<path d="M35.5625 36.2422V38H27.7812V36.5L31.4609 32.5547C31.8307 32.1432 32.1224 31.7812 32.3359 31.4688C32.5495 31.151 32.7031 30.8672 32.7969 30.6172C32.8958 30.362 32.9453 30.1198 32.9453 29.8906C32.9453 29.5469 32.888 29.2526 32.7734 29.0078C32.6589 28.7578 32.4896 28.5651 32.2656 28.4297C32.0469 28.2943 31.776 28.2266 31.4531 28.2266C31.1094 28.2266 30.8125 28.3099 30.5625 28.4766C30.3177 28.6432 30.1302 28.875 30 29.1719C29.875 29.4688 29.8125 29.8047 29.8125 30.1797H27.5547C27.5547 29.5026 27.7161 28.8828 28.0391 28.3203C28.362 27.7526 28.8177 27.3021 29.4062 26.9688C29.9948 26.6302 30.6927 26.4609 31.5 26.4609C32.2969 26.4609 32.9688 26.5911 33.5156 26.8516C34.0677 27.1068 34.4844 27.4766 34.7656 27.9609C35.0521 28.4401 35.1953 29.013 35.1953 29.6797C35.1953 30.0547 35.1354 30.4219 35.0156 30.7812C34.8958 31.1354 34.724 31.4896 34.5 31.8438C34.2812 32.1927 34.0156 32.5469 33.7031 32.9062C33.3906 33.2656 33.0443 33.638 32.6641 34.0234L30.6875 36.2422H35.5625ZM44.4219 31.6641V33.625H36.625V31.6641H44.4219ZM41.5938 28.5781V36.8594H39.4609V28.5781H41.5938Z"/>
</mask>
<path d="M35.5625 36.2422V38H27.7812V36.5L31.4609 32.5547C31.8307 32.1432 32.1224 31.7812 32.3359 31.4688C32.5495 31.151 32.7031 30.8672 32.7969 30.6172C32.8958 30.362 32.9453 30.1198 32.9453 29.8906C32.9453 29.5469 32.888 29.2526 32.7734 29.0078C32.6589 28.7578 32.4896 28.5651 32.2656 28.4297C32.0469 28.2943 31.776 28.2266 31.4531 28.2266C31.1094 28.2266 30.8125 28.3099 30.5625 28.4766C30.3177 28.6432 30.1302 28.875 30 29.1719C29.875 29.4688 29.8125 29.8047 29.8125 30.1797H27.5547C27.5547 29.5026 27.7161 28.8828 28.0391 28.3203C28.362 27.7526 28.8177 27.3021 29.4062 26.9688C29.9948 26.6302 30.6927 26.4609 31.5 26.4609C32.2969 26.4609 32.9688 26.5911 33.5156 26.8516C34.0677 27.1068 34.4844 27.4766 34.7656 27.9609C35.0521 28.4401 35.1953 29.013 35.1953 29.6797C35.1953 30.0547 35.1354 30.4219 35.0156 30.7812C34.8958 31.1354 34.724 31.4896 34.5 31.8438C34.2812 32.1927 34.0156 32.5469 33.7031 32.9062C33.3906 33.2656 33.0443 33.638 32.6641 34.0234L30.6875 36.2422H35.5625ZM44.4219 31.6641V33.625H36.625V31.6641H44.4219ZM41.5938 28.5781V36.8594H39.4609V28.5781H41.5938Z" fill="white"/>
<path d="M35.5625 36.2422H36.5625V35.2422H35.5625V36.2422ZM35.5625 38V39H36.5625V38H35.5625ZM27.7812 38H26.7812V39H27.7812V38ZM27.7812 36.5L27.05 35.8179L26.7812 36.106V36.5H27.7812ZM31.4609 32.5547L32.1922 33.2367L32.1985 33.23L32.2047 33.2231L31.4609 32.5547ZM32.3359 31.4688L33.1616 32.033L33.1659 32.0266L32.3359 31.4688ZM32.7969 30.6172L31.8645 30.2556L31.8605 30.2661L32.7969 30.6172ZM32.7734 29.0078L31.8643 29.4245L31.8677 29.4318L32.7734 29.0078ZM32.2656 28.4297L31.7392 29.28L31.7482 29.2854L32.2656 28.4297ZM30.5625 28.4766L30.0078 27.6445L29.9997 27.65L30.5625 28.4766ZM30 29.1719L29.0842 28.7702L29.0812 28.777L29.0784 28.7838L30 29.1719ZM29.8125 30.1797V31.1797H30.8125V30.1797H29.8125ZM27.5547 30.1797H26.5547V31.1797H27.5547V30.1797ZM28.0391 28.3203L28.9063 28.8182L28.9083 28.8147L28.0391 28.3203ZM29.4062 26.9688L29.8991 27.8389L29.9049 27.8356L29.4062 26.9688ZM33.5156 26.8516L33.0857 27.7545L33.096 27.7593L33.5156 26.8516ZM34.7656 27.9609L33.9008 28.4631L33.9073 28.4741L34.7656 27.9609ZM35.0156 30.7812L35.9629 31.1017L35.9643 31.0975L35.0156 30.7812ZM34.5 31.8438L33.6548 31.3093L33.6527 31.3126L34.5 31.8438ZM32.6641 34.0234L31.9522 33.3212L31.9343 33.3393L31.9174 33.3583L32.6641 34.0234ZM30.6875 36.2422L29.9408 35.577L28.4574 37.2422H30.6875V36.2422ZM34.5625 36.2422V38H36.5625V36.2422H34.5625ZM35.5625 37H27.7812V39H35.5625V37ZM28.7812 38V36.5H26.7812V38H28.7812ZM28.5125 37.1821L32.1922 33.2367L30.7296 31.8726L27.05 35.8179L28.5125 37.1821ZM32.2047 33.2231C32.5919 32.7923 32.9146 32.3944 33.1616 32.0329L31.5103 30.9046C31.3302 31.1681 31.0696 31.4941 30.7172 31.8862L32.2047 33.2231ZM33.1659 32.0266C33.4058 31.6696 33.6032 31.315 33.7332 30.9683L31.8605 30.2661C31.8031 30.4194 31.6932 30.6324 31.506 30.9109L33.1659 32.0266ZM33.7292 30.9787C33.8644 30.6301 33.9453 30.2649 33.9453 29.8906H31.9453C31.9453 29.9747 31.9273 30.0939 31.8645 30.2557L33.7292 30.9787ZM33.9453 29.8906C33.9453 29.4389 33.8703 28.9923 33.6791 28.5839L31.8677 29.4318C31.9057 29.5129 31.9453 29.6549 31.9453 29.8906H33.9453ZM33.6825 28.5912C33.4888 28.1686 33.1876 27.8186 32.783 27.574L31.7482 29.2854C31.7916 29.3116 31.8289 29.347 31.8644 29.4245L33.6825 28.5912ZM32.792 27.5794C32.3793 27.324 31.9149 27.2266 31.4531 27.2266V29.2266C31.6372 29.2266 31.7144 29.2646 31.7393 29.28L32.792 27.5794ZM31.4531 27.2266C30.9412 27.2266 30.4449 27.3531 30.0078 27.6445L31.1172 29.3086C31.1801 29.2666 31.2775 29.2266 31.4531 29.2266V27.2266ZM29.9997 27.65C29.5851 27.9322 29.2825 28.3182 29.0842 28.7702L30.9158 29.5735C30.978 29.4318 31.0503 29.3542 31.1253 29.3032L29.9997 27.65ZM29.0784 28.7838C28.8939 29.222 28.8125 29.693 28.8125 30.1797H30.8125C30.8125 29.9163 30.8561 29.7155 30.9216 29.5599L29.0784 28.7838ZM29.8125 29.1797H27.5547V31.1797H29.8125V29.1797ZM28.5547 30.1797C28.5547 29.6693 28.6743 29.2224 28.9063 28.8182L27.1718 27.8224C26.758 28.5432 26.5547 29.3359 26.5547 30.1797H28.5547ZM28.9083 28.8147C29.1387 28.4097 29.4617 28.0866 29.8991 27.8389L28.9134 26.0986C28.1737 26.5176 27.5853 27.0955 27.1698 27.8259L28.9083 28.8147ZM29.9049 27.8356C30.3153 27.5995 30.8345 27.4609 31.5 27.4609V25.4609C30.5509 25.4609 29.6743 25.6609 28.9076 26.1019L29.9049 27.8356ZM31.5 27.4609C32.1931 27.4609 32.7085 27.5748 33.0857 27.7544L33.9456 25.9487C33.229 25.6075 32.4007 25.4609 31.5 25.4609V27.4609ZM33.096 27.7593C33.4784 27.936 33.7317 28.1718 33.9008 28.4631L35.6304 27.4588C35.237 26.7813 34.657 26.2775 33.9352 25.9439L33.096 27.7593ZM33.9073 28.4741C34.0845 28.7704 34.1953 29.1584 34.1953 29.6797H36.1953C36.1953 28.8676 36.0197 28.1098 35.6239 27.4478L33.9073 28.4741ZM34.1953 29.6797C34.1953 29.9461 34.1531 30.2066 34.0669 30.465L35.9643 31.0975C36.1177 30.6372 36.1953 30.1633 36.1953 29.6797H34.1953ZM34.0683 30.4608C33.9768 30.7315 33.8414 31.0142 33.6548 31.3093L35.3452 32.3782C35.6065 31.9649 35.8149 31.5394 35.9629 31.1017L34.0683 30.4608ZM33.6527 31.3126C33.4654 31.6114 33.2321 31.924 32.9485 32.2501L34.4577 33.5624C34.7992 33.1698 35.0971 32.774 35.3473 32.3749L33.6527 31.3126ZM32.9485 32.2501C32.6515 32.5917 32.3196 32.9487 31.9522 33.3212L33.376 34.7257C33.7689 34.3274 34.1298 33.9396 34.4577 33.5624L32.9485 32.2501ZM31.9174 33.3583L29.9408 35.577L31.4342 36.9074L33.4107 34.6886L31.9174 33.3583ZM30.6875 37.2422H35.5625V35.2422H30.6875V37.2422ZM44.4219 31.6641H45.4219V30.6641H44.4219V31.6641ZM44.4219 33.625V34.625H45.4219V33.625H44.4219ZM36.625 33.625H35.625V34.625H36.625V33.625ZM36.625 31.6641V30.6641H35.625V31.6641H36.625ZM41.5938 28.5781H42.5938V27.5781H41.5938V28.5781ZM41.5938 36.8594V37.8594H42.5938V36.8594H41.5938ZM39.4609 36.8594H38.4609V37.8594H39.4609V36.8594ZM39.4609 28.5781V27.5781H38.4609V28.5781H39.4609ZM43.4219 31.6641V33.625H45.4219V31.6641H43.4219ZM44.4219 32.625H36.625V34.625H44.4219V32.625ZM37.625 33.625V31.6641H35.625V33.625H37.625ZM36.625 32.6641H44.4219V30.6641H36.625V32.6641ZM40.5938 28.5781V36.8594H42.5938V28.5781H40.5938ZM41.5938 35.8594H39.4609V37.8594H41.5938V35.8594ZM40.4609 36.8594V28.5781H38.4609V36.8594H40.4609ZM39.4609 29.5781H41.5938V27.5781H39.4609V29.5781Z" fill="#035763" mask="url(#path-3-outside-1_2477_7379)"/>
</svg>
