<svg width="46" height="46" viewBox="0 0 46 46" fill="none" xmlns="http://www.w3.org/2000/svg">
<path d="M24.9689 42.3736L24.9688 42.3737C24.5383 42.7293 23.9847 42.9279 23.408 42.9275C22.8317 42.927 22.2789 42.7276 21.8492 42.3718C21.8489 42.3716 21.8486 42.3713 21.8483 42.3711L21.1775 41.8114C21.1771 41.8111 21.1766 41.8107 21.1762 41.8103C11.4558 33.6305 6.75 26.3038 6.75 19.7411C6.75 10.9365 14.1809 3.75 23.4107 3.75C32.6406 3.75 40.0714 10.9365 40.0714 19.7411C40.0714 26.4555 35.1452 33.9704 24.9689 42.3736ZM23.4107 12.5522C21.4451 12.5522 19.5543 13.3027 18.1558 14.6475C16.7563 15.9932 15.9643 17.8248 15.9643 19.7411C15.9643 21.6574 16.7563 23.489 18.1558 24.8347C19.5543 26.1794 21.4451 26.9299 23.4107 26.9299C25.3763 26.9299 27.2671 26.1794 28.6656 24.8347C30.0652 23.489 30.8571 21.6574 30.8571 19.7411C30.8571 17.8248 30.0652 15.9932 28.6656 14.6475C27.2671 13.3027 25.3763 12.5522 23.4107 12.5522Z" fill="#2BC2CC" stroke="#035763" stroke-width="1.5"/>
<rect x="14" y="10.6923" width="19" height="20.1923" fill="#2BC2CC"/>
<mask id="path-3-outside-1_2477_7379" maskUnits="userSpaceOnUse" x="13" y="12" width="20" height="14" fill="black">
<rect fill="white" x="13" y="12" width="20" height="14"/>
<path d="M22.5625 23.2422V25H14.7812V23.5L18.4609 19.5547C18.8307 19.1432 19.1224 18.7812 19.3359 18.4688C19.5495 18.151 19.7031 17.8672 19.7969 17.6172C19.8958 17.362 19.9453 17.1198 19.9453 16.8906C19.9453 16.5469 19.888 16.2526 19.7734 16.0078C19.6589 15.7578 19.4896 15.5651 19.2656 15.4297C19.0469 15.2943 18.776 15.2266 18.4531 15.2266C18.1094 15.2266 17.8125 15.3099 17.5625 15.4766C17.3177 15.6432 17.1302 15.875 17 16.1719C16.875 16.4688 16.8125 16.8047 16.8125 17.1797H14.5547C14.5547 16.5026 14.7161 15.8828 15.0391 15.3203C15.362 14.7526 15.8177 14.3021 16.4062 13.9688C16.9948 13.6302 17.6927 13.4609 18.5 13.4609C19.2969 13.4609 19.9688 13.5911 20.5156 13.8516C21.0677 14.1068 21.4844 14.4766 21.7656 14.9609C22.0521 15.4401 22.1953 16.013 22.1953 16.6797C22.1953 17.0547 22.1354 17.4219 22.0156 17.7812C21.8958 18.1354 21.724 18.4896 21.5 18.8438C21.2812 19.1927 21.0156 19.5469 20.7031 19.9062C20.3906 20.2656 20.0443 20.638 19.6641 21.0234L17.6875 23.2422H22.5625ZM31.4219 18.6641V20.625H23.625V18.6641H31.4219ZM28.5938 15.5781V23.8594H26.4609V15.5781H28.5938Z"/>
</mask>
<path d="M22.5625 23.2422V25H14.7812V23.5L18.4609 19.5547C18.8307 19.1432 19.1224 18.7812 19.3359 18.4688C19.5495 18.151 19.7031 17.8672 19.7969 17.6172C19.8958 17.362 19.9453 17.1198 19.9453 16.8906C19.9453 16.5469 19.888 16.2526 19.7734 16.0078C19.6589 15.7578 19.4896 15.5651 19.2656 15.4297C19.0469 15.2943 18.776 15.2266 18.4531 15.2266C18.1094 15.2266 17.8125 15.3099 17.5625 15.4766C17.3177 15.6432 17.1302 15.875 17 16.1719C16.875 16.4688 16.8125 16.8047 16.8125 17.1797H14.5547C14.5547 16.5026 14.7161 15.8828 15.0391 15.3203C15.362 14.7526 15.8177 14.3021 16.4062 13.9688C16.9948 13.6302 17.6927 13.4609 18.5 13.4609C19.2969 13.4609 19.9688 13.5911 20.5156 13.8516C21.0677 14.1068 21.4844 14.4766 21.7656 14.9609C22.0521 15.4401 22.1953 16.013 22.1953 16.6797C22.1953 17.0547 22.1354 17.4219 22.0156 17.7812C21.8958 18.1354 21.724 18.4896 21.5 18.8438C21.2812 19.1927 21.0156 19.5469 20.7031 19.9062C20.3906 20.2656 20.0443 20.638 19.6641 21.0234L17.6875 23.2422H22.5625ZM31.4219 18.6641V20.625H23.625V18.6641H31.4219ZM28.5938 15.5781V23.8594H26.4609V15.5781H28.5938Z" fill="white"/>
<path d="M22.5625 23.2422H23.5625V22.2422H22.5625V23.2422ZM22.5625 25V26H23.5625V25H22.5625ZM14.7812 25H13.7812V26H14.7812V25ZM14.7812 23.5L14.05 22.8179L13.7812 23.106V23.5H14.7812ZM18.4609 19.5547L19.1922 20.2367L19.1985 20.23L19.2047 20.2231L18.4609 19.5547ZM19.3359 18.4688L20.1616 19.033L20.1659 19.0266L19.3359 18.4688ZM19.7969 17.6172L18.8645 17.2556L18.8605 17.2661L19.7969 17.6172ZM19.7734 16.0078L18.8643 16.4245L18.8677 16.4318L19.7734 16.0078ZM19.2656 15.4297L18.7392 16.28L18.7482 16.2854L19.2656 15.4297ZM17.5625 15.4766L17.0078 14.6445L16.9997 14.65L17.5625 15.4766ZM17 16.1719L16.0842 15.7702L16.0812 15.777L16.0784 15.7838L17 16.1719ZM16.8125 17.1797V18.1797H17.8125V17.1797H16.8125ZM14.5547 17.1797H13.5547V18.1797H14.5547V17.1797ZM15.0391 15.3203L15.9063 15.8182L15.9083 15.8147L15.0391 15.3203ZM16.4062 13.9688L16.8991 14.8389L16.9049 14.8356L16.4062 13.9688ZM20.5156 13.8516L20.0857 14.7545L20.096 14.7593L20.5156 13.8516ZM21.7656 14.9609L20.9008 15.4631L20.9073 15.4741L21.7656 14.9609ZM22.0156 17.7812L22.9629 18.1017L22.9643 18.0975L22.0156 17.7812ZM21.5 18.8438L20.6548 18.3093L20.6527 18.3126L21.5 18.8438ZM19.6641 21.0234L18.9522 20.3212L18.9343 20.3393L18.9174 20.3583L19.6641 21.0234ZM17.6875 23.2422L16.9408 22.577L15.4574 24.2422H17.6875V23.2422ZM21.5625 23.2422V25H23.5625V23.2422H21.5625ZM22.5625 24H14.7812V26H22.5625V24ZM15.7812 25V23.5H13.7812V25H15.7812ZM15.5125 24.1821L19.1922 20.2367L17.7296 18.8726L14.05 22.8179L15.5125 24.1821ZM19.2047 20.2231C19.5919 19.7923 19.9146 19.3944 20.1616 19.0329L18.5103 17.9046C18.3302 18.1681 18.0696 18.4941 17.7172 18.8862L19.2047 20.2231ZM20.1659 19.0266C20.4058 18.6696 20.6032 18.315 20.7332 17.9683L18.8605 17.2661C18.8031 17.4194 18.6932 17.6324 18.506 17.9109L20.1659 19.0266ZM20.7292 17.9787C20.8644 17.6301 20.9453 17.2649 20.9453 16.8906H18.9453C18.9453 16.9747 18.9273 17.0939 18.8645 17.2557L20.7292 17.9787ZM20.9453 16.8906C20.9453 16.4389 20.8703 15.9923 20.6791 15.5839L18.8677 16.4318C18.9057 16.5129 18.9453 16.6549 18.9453 16.8906H20.9453ZM20.6825 15.5912C20.4888 15.1686 20.1876 14.8186 19.783 14.574L18.7482 16.2854C18.7916 16.3116 18.8289 16.347 18.8644 16.4245L20.6825 15.5912ZM19.792 14.5794C19.3793 14.324 18.9149 14.2266 18.4531 14.2266V16.2266C18.6372 16.2266 18.7144 16.2646 18.7393 16.28L19.792 14.5794ZM18.4531 14.2266C17.9412 14.2266 17.4449 14.3531 17.0078 14.6445L18.1172 16.3086C18.1801 16.2666 18.2775 16.2266 18.4531 16.2266V14.2266ZM16.9997 14.65C16.5851 14.9322 16.2825 15.3182 16.0842 15.7702L17.9158 16.5735C17.978 16.4318 18.0503 16.3542 18.1253 16.3032L16.9997 14.65ZM16.0784 15.7838C15.8939 16.222 15.8125 16.693 15.8125 17.1797H17.8125C17.8125 16.9163 17.8561 16.7155 17.9216 16.5599L16.0784 15.7838ZM16.8125 16.1797H14.5547V18.1797H16.8125V16.1797ZM15.5547 17.1797C15.5547 16.6693 15.6743 16.2224 15.9063 15.8182L14.1718 14.8224C13.758 15.5432 13.5547 16.3359 13.5547 17.1797H15.5547ZM15.9083 15.8147C16.1387 15.4097 16.4617 15.0866 16.8991 14.8389L15.9134 13.0986C15.1737 13.5176 14.5853 14.0955 14.1698 14.8259L15.9083 15.8147ZM16.9049 14.8356C17.3153 14.5995 17.8345 14.4609 18.5 14.4609V12.4609C17.5509 12.4609 16.6743 12.6609 15.9076 13.1019L16.9049 14.8356ZM18.5 14.4609C19.1931 14.4609 19.7085 14.5748 20.0857 14.7544L20.9456 12.9487C20.229 12.6075 19.4007 12.4609 18.5 12.4609V14.4609ZM20.096 14.7593C20.4784 14.936 20.7317 15.1718 20.9008 15.4631L22.6304 14.4588C22.237 13.7813 21.657 13.2775 20.9352 12.9439L20.096 14.7593ZM20.9073 15.4741C21.0845 15.7704 21.1953 16.1584 21.1953 16.6797H23.1953C23.1953 15.8676 23.0197 15.1098 22.6239 14.4478L20.9073 15.4741ZM21.1953 16.6797C21.1953 16.9461 21.1531 17.2066 21.0669 17.465L22.9643 18.0975C23.1177 17.6372 23.1953 17.1633 23.1953 16.6797H21.1953ZM21.0683 17.4608C20.9768 17.7315 20.8414 18.0142 20.6548 18.3093L22.3452 19.3782C22.6065 18.9649 22.8149 18.5394 22.9629 18.1017L21.0683 17.4608ZM20.6527 18.3126C20.4654 18.6114 20.2321 18.924 19.9485 19.2501L21.4577 20.5624C21.7992 20.1698 22.0971 19.774 22.3473 19.3749L20.6527 18.3126ZM19.9485 19.2501C19.6515 19.5917 19.3196 19.9487 18.9522 20.3212L20.376 21.7257C20.7689 21.3274 21.1298 20.9396 21.4577 20.5624L19.9485 19.2501ZM18.9174 20.3583L16.9408 22.577L18.4342 23.9074L20.4107 21.6886L18.9174 20.3583ZM17.6875 24.2422H22.5625V22.2422H17.6875V24.2422ZM31.4219 18.6641H32.4219V17.6641H31.4219V18.6641ZM31.4219 20.625V21.625H32.4219V20.625H31.4219ZM23.625 20.625H22.625V21.625H23.625V20.625ZM23.625 18.6641V17.6641H22.625V18.6641H23.625ZM28.5938 15.5781H29.5938V14.5781H28.5938V15.5781ZM28.5938 23.8594V24.8594H29.5938V23.8594H28.5938ZM26.4609 23.8594H25.4609V24.8594H26.4609V23.8594ZM26.4609 15.5781V14.5781H25.4609V15.5781H26.4609ZM30.4219 18.6641V20.625H32.4219V18.6641H30.4219ZM31.4219 19.625H23.625V21.625H31.4219V19.625ZM24.625 20.625V18.6641H22.625V20.625H24.625ZM23.625 19.6641H31.4219V17.6641H23.625V19.6641ZM27.5938 15.5781V23.8594H29.5938V15.5781H27.5938ZM28.5938 22.8594H26.4609V24.8594H28.5938V22.8594ZM27.4609 23.8594V15.5781H25.4609V23.8594H27.4609ZM26.4609 16.5781H28.5938V14.5781H26.4609V16.5781Z" fill="#035763" mask="url(#path-3-outside-1_2477_7379)"/>
</svg>
