<svg width="51" height="53" viewBox="0 0 51 53" fill="none" xmlns="http://www.w3.org/2000/svg">
<path d="M26.4923 47.2808L26.4922 47.2809C26.0501 47.6533 25.4838 47.8596 24.8962 47.8591C24.3091 47.8586 23.7438 47.6517 23.3025 47.2793C23.302 47.2789 23.3016 47.2785 23.3012 47.2782L22.6169 46.6961C22.6164 46.6956 22.6159 46.6952 22.6154 46.6947C12.7024 38.1892 7.89001 30.5608 7.89001 23.7153C7.89001 14.5274 15.4907 7.05457 24.8989 7.05457C34.3072 7.05457 41.9079 14.5274 41.9079 23.7153C41.9079 30.7189 36.8702 38.5431 26.4923 47.2808ZM24.9189 22.4981C24.8546 22.4172 24.7784 22.3536 24.6988 22.3067C24.5936 22.2446 24.4917 22.2165 24.413 22.2035C24.334 22.1905 24.2637 22.1903 24.2086 22.1938C24.1525 22.1974 24.1018 22.2057 24.0587 22.2149C23.9736 22.2333 23.8962 22.2605 23.8307 22.2883C23.7638 22.3168 23.6987 22.3505 23.6374 22.3876C23.599 22.4109 23.5601 22.4367 23.5216 22.4651C23.501 22.4388 23.4756 22.4099 23.4448 22.3809C23.3716 22.3118 23.2117 22.1905 22.9706 22.1774C22.7117 22.1634 22.5213 22.2816 22.4176 22.3784C22.3237 22.4662 22.2755 22.5568 22.2552 22.5983C22.2317 22.6465 22.2181 22.6877 22.2108 22.7123C22.1875 22.79 22.1822 22.8561 22.1813 22.8681L22.1812 22.8694C22.1792 22.8929 22.1786 22.9127 22.1784 22.9251C22.1778 22.9509 22.1784 22.9751 22.1791 22.9945C22.1807 23.0348 22.184 23.0806 22.1891 23.1289C22.1912 23.1487 22.1936 23.1697 22.1965 23.1917C22.1985 23.2669 22.2 23.368 22.2 23.5C22.2 23.5259 22.1998 23.5504 22.1995 23.5737C22.1657 23.6095 22.1352 23.648 22.1084 23.6889C22.0205 23.8231 21.9852 23.9607 21.9742 24.072C21.9633 24.1835 21.9745 24.2879 21.9976 24.3789C22.0204 24.4693 22.06 24.5668 22.1232 24.66C22.1835 24.7487 22.291 24.8705 22.4643 24.949C22.5544 24.9898 22.6607 25.0177 22.7782 25.0198C22.8231 25.0205 22.8671 25.0175 22.9098 25.0111C22.918 25.019 22.9264 25.0272 22.935 25.0356C23.5518 25.6403 24.0032 26.0496 24.612 26.1993C24.9018 26.2705 25.1906 26.2747 25.4698 26.2703C25.5775 26.2685 25.6837 26.2655 25.7958 26.2623C26.0019 26.2564 26.2279 26.25 26.52 26.25C26.6562 26.25 26.7605 26.2515 26.8379 26.2535C26.8608 26.2564 26.8826 26.2589 26.9031 26.2609C26.9516 26.2658 26.9973 26.269 27.0373 26.2705C27.0566 26.2712 27.0804 26.2717 27.1055 26.2712C27.1177 26.271 27.1369 26.2704 27.1596 26.2686L27.1608 26.2685C27.1724 26.2676 27.2363 26.2628 27.3115 26.2411C27.3352 26.2343 27.3755 26.2215 27.4228 26.1994C27.4628 26.1806 27.5536 26.1344 27.6428 26.0427C27.7407 25.942 27.8693 25.7477 27.854 25.4774C27.8398 25.2268 27.7093 25.0644 27.6403 24.9941C27.5686 24.921 27.4984 24.8797 27.4651 24.8614C27.4265 24.8403 27.3934 24.8266 27.3728 24.8187C27.35 24.8099 27.3294 24.8033 27.3129 24.7985C27.3912 24.7382 27.4431 24.7081 27.4712 24.6939C27.4757 24.6942 27.4786 24.6944 27.4789 24.6944C27.4798 24.6944 27.4808 24.6945 27.482 24.6945C27.5126 24.696 27.6614 24.7031 27.8259 24.6349C28.0573 24.5391 28.193 24.3566 28.2562 24.1901C28.3041 24.064 28.3092 23.9513 28.3108 23.9139C28.3129 23.8639 28.3115 23.8147 28.3103 23.7805C28.3092 23.7491 28.3076 23.7144 28.3058 23.675C28.2993 23.5344 28.29 23.333 28.29 23C28.29 22.6632 28.2999 22.5076 28.303 22.4637C28.3048 22.451 28.3063 22.4387 28.3075 22.4269C28.3083 22.4195 28.3096 22.4056 28.3106 22.3888C28.311 22.382 28.312 22.3635 28.3119 22.3399C28.3118 22.3296 28.3115 22.3034 28.3082 22.2702C28.3063 22.2528 28.2998 22.2096 28.2946 22.1839C28.2841 22.1416 28.2401 22.0235 28.2007 21.9508C28.0904 21.8116 27.6809 21.6032 27.3938 21.6127C27.2386 21.6704 27.0549 21.8079 26.9702 21.8923C26.8222 21.7524 26.6737 21.6288 26.5252 21.5396C26.3702 21.4464 26.0569 21.2946 25.6885 21.4117C25.3199 21.5288 25.163 21.8318 25.1084 21.9501C25.0546 22.0666 25.0137 22.2033 24.9892 22.2848C24.9864 22.2945 24.9837 22.3034 24.9813 22.3114C24.9577 22.3891 24.9374 22.4498 24.9189 22.4981ZM23.7401 23.2195C23.7399 23.2193 23.7398 23.2191 23.7397 23.2188L23.7401 23.2195ZM23.6556 22.7322C23.6555 22.7324 23.6553 22.7326 23.6552 22.7328C23.6552 22.7328 23.6552 22.7328 23.6552 22.7328C23.6569 22.73 23.6572 22.7297 23.6556 22.7322ZM22.6228 24.7741C22.6228 24.774 22.6246 24.7749 22.6282 24.7769C22.6246 24.7752 22.6228 24.7742 22.6228 24.7741ZM27.2514 22.1308C27.2515 22.131 27.2493 22.1302 27.2449 22.1279C27.2492 22.1295 27.2514 22.1307 27.2514 22.1308ZM26.8065 22.2958C26.8023 22.3068 26.7998 22.3112 26.7997 22.3106C26.7995 22.3101 26.8016 22.3046 26.8065 22.2958ZM22.1703 23.9248C22.1703 23.9247 22.1708 23.9224 22.1721 23.9184C22.171 23.9229 22.1704 23.9249 22.1703 23.9248Z" fill="#27AE60" stroke="#035763" stroke-width="1.5"/>
<path d="M24.99 15.5213L26.9223 21.0742L27.0391 21.4098H27.3945H33.5481L28.5999 24.7666L28.2822 24.9821L28.4084 25.3447L30.3169 30.8292L25.2707 27.4059L24.99 27.2155L24.7093 27.4059L19.663 30.8292L21.5716 25.3447L21.6978 24.9821L21.3801 24.7666L16.4319 21.4098H22.5855H22.9409L23.0577 21.0742L24.99 15.5213Z" fill="white" stroke="#035763"/>
</svg>
