<svg width="46" height="46" viewBox="0 0 46 46" fill="none" xmlns="http://www.w3.org/2000/svg">
<path d="M24.9689 42.3736L24.9688 42.3737C24.5383 42.7293 23.9847 42.9279 23.408 42.9275C22.8317 42.927 22.2789 42.7276 21.8492 42.3718C21.8489 42.3716 21.8486 42.3713 21.8483 42.3711L21.1775 41.8114C21.1771 41.8111 21.1766 41.8107 21.1762 41.8103C11.4558 33.6305 6.75 26.3038 6.75 19.7411C6.75 10.9365 14.1809 3.75 23.4107 3.75C32.6406 3.75 40.0714 10.9365 40.0714 19.7411C40.0714 26.4555 35.1452 33.9704 24.9689 42.3736ZM23.4107 12.5522C21.4451 12.5522 19.5543 13.3027 18.1558 14.6475C16.7563 15.9932 15.9643 17.8248 15.9643 19.7411C15.9643 21.6574 16.7563 23.489 18.1558 24.8347C19.5543 26.1794 21.4451 26.9299 23.4107 26.9299C25.3763 26.9299 27.2671 26.1794 28.6656 24.8347C30.0652 23.489 30.8571 21.6574 30.8571 19.7411C30.8571 17.8248 30.0652 15.9932 28.6656 14.6475C27.2671 13.3027 25.3763 12.5522 23.4107 12.5522Z" fill="#27AE60" stroke="#035763" stroke-width="1.5"/>
<rect x="14" y="10.6923" width="19" height="20.1923" fill="#27AE60"/>
<path d="M23.71 12.5213L25.6423 18.0742L25.7591 18.4098H26.1145H32.2681L27.3199 21.7666L27.0022 21.9821L27.1284 22.3447L29.037 27.8292L23.9907 24.4059L23.71 24.2155L23.4293 24.4059L18.383 27.8292L20.2916 22.3447L20.4178 21.9821L20.1001 21.7666L15.1519 18.4098H21.3055H21.6609L21.7777 18.0742L23.71 12.5213Z" fill="white" stroke="#035763"/>
</svg>
