<svg width="35" height="43" viewBox="0 0 35 43" fill="none" xmlns="http://www.w3.org/2000/svg">
<g id="Map location: specialist">
<path id="Vector" d="M19.2836 41.3603L19.2835 41.3604C18.7615 41.8088 18.0958 42.0552 17.4076 42.0546C16.7195 42.0539 16.0545 41.8066 15.5333 41.3574C15.5332 41.3573 15.533 41.3572 15.5329 41.3571L14.8593 40.7726C14.8592 40.7725 14.8591 40.7724 14.859 40.7723C5.11787 32.2474 0.25 24.4899 0.25 17.4107C0.25 7.93271 7.93271 0.25 17.4107 0.25C26.8887 0.25 34.5714 7.93271 34.5714 17.4107C34.5714 24.6521 29.4776 32.6058 19.2836 41.3603ZM17.4107 12.4454C16.9589 12.4454 16.6234 12.5197 16.4282 12.7463C16.2356 12.9699 16.2484 13.2701 16.2607 13.4885C16.2626 13.5219 16.2647 13.5555 16.2668 13.5892C16.2951 14.0393 16.3251 14.5167 15.8232 15.0187C15.6679 15.1739 15.5438 15.2939 15.4449 15.3887C15.4274 15.4054 15.4105 15.4216 15.3943 15.4371C15.3205 15.5078 15.2599 15.5658 15.2138 15.6128C15.1613 15.6661 15.105 15.727 15.0691 15.7946C15.0218 15.8838 15.0137 15.9748 15.0374 16.0642C15.0502 16.1129 15.0765 16.1682 15.0923 16.2014C15.0952 16.2077 15.0978 16.2132 15.0999 16.2177C15.119 16.2592 15.1407 16.31 15.1619 16.3814C15.2046 16.5253 15.25 16.7688 15.25 17.1954C15.25 17.333 15.2453 17.4435 15.2378 17.5314C15.1765 17.5548 15.1207 17.5963 15.0796 17.6603C15.0131 17.7638 15.0183 17.8774 15.0364 17.9507C15.0525 18.0156 15.1003 18.1318 15.2223 18.1881C15.2954 18.2219 15.3826 18.226 15.4638 18.1902C15.5005 18.174 15.5306 18.1522 15.5549 18.1289C15.6269 18.1857 15.7156 18.2646 15.8232 18.3722C16.4429 18.9919 16.7954 19.2964 17.2441 19.4089C17.4638 19.4639 17.6937 19.4702 17.9627 19.4658C18.0578 19.4642 18.1574 19.4613 18.2651 19.4582C18.4719 19.4523 18.7084 19.4454 19 19.4454C19.151 19.4454 19.2655 19.4473 19.3496 19.4499C19.3761 19.4535 19.401 19.4565 19.4238 19.4588C19.4627 19.4629 19.4972 19.4652 19.5247 19.4663C19.5382 19.4668 19.552 19.467 19.5648 19.4668C19.5711 19.4667 19.5794 19.4664 19.5885 19.4656C19.5924 19.4653 19.6159 19.4636 19.643 19.4557L19.6435 19.4555C19.6499 19.4538 19.7063 19.4384 19.7545 19.3878C19.7871 19.3537 19.8282 19.2895 19.8233 19.2013C19.8188 19.1193 19.7768 19.0655 19.7537 19.0415C19.7147 19.001 19.6715 18.9845 19.6644 18.9818L19.6637 18.9815C19.6497 18.976 19.6379 18.9728 19.632 18.9713C19.611 18.966 19.5903 18.9635 19.5805 18.9624C19.5544 18.9594 19.5179 18.9567 19.4711 18.9543C19.4485 18.9532 19.4229 18.9521 19.3938 18.951C19.3506 18.9444 19.303 18.9355 19.2547 18.9236C19.1721 18.9033 19.0956 18.8766 19.0359 18.8441C18.9745 18.8107 18.9498 18.7815 18.9414 18.7656L18.9413 18.7653C18.9378 18.7586 18.9275 18.7391 18.9475 18.6837C18.9709 18.6187 19.0331 18.5159 19.1768 18.3722C19.4783 18.0707 19.6698 17.9566 19.7785 17.9133C19.8307 17.8925 19.8641 17.8879 19.8833 17.8868C19.9003 17.8858 19.9055 17.8863 19.9163 17.8873C19.9248 17.8881 19.9366 17.8893 19.9603 17.8903L19.9614 17.8903C19.9781 17.8911 20.0351 17.8936 20.0962 17.8677C20.1787 17.8329 20.2264 17.7674 20.249 17.7066C20.2668 17.6588 20.2697 17.6128 20.2708 17.5878C20.272 17.5587 20.2713 17.5261 20.2702 17.4938C20.2692 17.4662 20.2678 17.4343 20.2661 17.3971C20.2598 17.257 20.25 17.0417 20.25 16.6954C20.25 16.4763 20.2539 16.3254 20.2583 16.2265C20.2605 16.1771 20.2627 16.1411 20.2646 16.1163C20.265 16.1108 20.2654 16.1059 20.2658 16.1015C20.2676 16.0897 20.2689 16.0792 20.2697 16.0706C20.2701 16.0668 20.2706 16.0613 20.271 16.0551C20.2711 16.0525 20.2715 16.0461 20.2714 16.0382C20.2714 16.0348 20.2713 16.0261 20.2703 16.0152C20.2696 16.0095 20.2675 15.9953 20.2659 15.9869C20.2625 15.973 20.2483 15.9341 20.2355 15.91C20.1991 15.8633 20.0616 15.7923 19.9643 15.7957C19.903 15.8189 19.8292 15.8791 19.8114 15.9034C19.7907 15.9354 19.7824 15.9655 19.7821 15.9664L19.7821 15.9664C19.778 15.9797 19.7759 15.9908 19.7755 15.9932L19.7755 15.9934C19.774 16.0009 19.7731 16.0075 19.7726 16.0109C19.7717 16.0177 19.7706 16.0271 19.7694 16.0393C19.7692 16.0407 19.7689 16.0422 19.7686 16.0438C19.7634 16.0732 19.7532 16.118 19.7362 16.1644C19.695 16.2768 19.651 16.3054 19.6332 16.3093C19.6146 16.3133 19.4804 16.3223 19.1768 16.0187C18.6811 15.523 18.668 14.8526 18.6545 14.1608C18.6532 14.0967 18.652 14.0325 18.6503 13.9681C18.6414 13.6179 18.6189 13.2334 18.4477 12.9398C18.2553 12.61 17.9134 12.4454 17.4107 12.4454Z" fill="#27AE60" stroke="#035763" stroke-width="0.5"/>
<path id="Star 1" d="M17.5 8.46969L19.6208 14.686L19.6785 14.8553H19.8574H26.6854L21.1721 18.6702L21.0167 18.7777L21.0777 18.9565L23.1902 25.1484L17.6423 21.3095L17.5 21.2111L17.3577 21.3095L11.8098 25.1484L13.9223 18.9565L13.9833 18.7777L13.8279 18.6702L8.31457 14.8553H15.1426H15.3215L15.3792 14.686L17.5 8.46969Z" fill="white" stroke="#035763" stroke-width="0.5"/>
</g>
</svg>
