<svg width="72" height="72" viewBox="0 0 72 72" fill="none" xmlns="http://www.w3.org/2000/svg">
<path d="M37.9689 55.3736L37.9688 55.3737C37.5383 55.7293 36.9847 55.9279 36.408 55.9275C35.8316 55.927 35.2787 55.7276 34.849 55.3717C34.8487 55.3715 34.8485 55.3713 34.8483 55.3711L34.1775 54.8114C34.177 54.811 34.1766 54.8106 34.1761 54.8102C24.4558 46.6305 19.75 39.3038 19.75 32.7411C19.75 23.9365 27.1809 16.75 36.4107 16.75C45.6406 16.75 53.0714 23.9365 53.0714 32.7411C53.0714 39.4555 48.1452 46.9704 37.9689 55.3736ZM36.4107 25.5522C34.4451 25.5522 32.5543 26.3027 31.1558 27.6475C29.7563 28.9932 28.9643 30.8248 28.9643 32.7411C28.9643 34.6574 29.7563 36.489 31.1558 37.8347C32.5543 39.1794 34.4451 39.9299 36.4107 39.9299C38.3763 39.9299 40.2671 39.1794 41.6656 37.8347C43.0652 36.489 43.8571 34.6574 43.8571 32.7411C43.8571 30.8248 43.0652 28.9932 41.6656 27.6475C40.2671 26.3027 38.3763 25.5522 36.4107 25.5522Z" fill="#27AE60" stroke="#035763" stroke-width="1.5"/>
<rect x="27" y="23.6923" width="19" height="20.1923" fill="#27AE60"/>
<path d="M36.71 25.5213L38.6423 31.0742L38.7591 31.4098H39.1145H45.2681L40.3199 34.7666L40.0022 34.9821L40.1284 35.3447L42.037 40.8292L36.9907 37.4059L36.71 37.2155L36.4293 37.4059L31.383 40.8292L33.2916 35.3447L33.4178 34.9821L33.1001 34.7666L28.1519 31.4098H34.3055H34.6609L34.7777 31.0742L36.71 25.5213Z" fill="white" stroke="#035763"/>
</svg>
