<svg width="72" height="72" viewBox="0 0 72 72" fill="none" xmlns="http://www.w3.org/2000/svg">
<path d="M37.9689 55.3736L37.9688 55.3737C37.5383 55.7293 36.9847 55.9279 36.408 55.9275C35.8316 55.927 35.2787 55.7276 34.849 55.3717C34.8487 55.3715 34.8485 55.3713 34.8483 55.3711L34.1775 54.8114C34.177 54.811 34.1766 54.8106 34.1761 54.8102C24.4558 46.6305 19.75 39.3038 19.75 32.7411C19.75 23.9365 27.1809 16.75 36.4107 16.75C45.6406 16.75 53.0714 23.9365 53.0714 32.7411C53.0714 39.4555 48.1452 46.9704 37.9689 55.3736ZM36.4107 25.5522C34.4451 25.5522 32.5543 26.3027 31.1558 27.6475C29.7563 28.9932 28.9643 30.8248 28.9643 32.7411C28.9643 34.6574 29.7563 36.489 31.1558 37.8347C32.5543 39.1794 34.4451 39.9299 36.4107 39.9299C38.3763 39.9299 40.2671 39.1794 41.6656 37.8347C43.0652 36.489 43.8571 34.6574 43.8571 32.7411C43.8571 30.8248 43.0652 28.9932 41.6656 27.6475C40.2671 26.3027 38.3763 25.5522 36.4107 25.5522Z" fill="#F2C94C" stroke="#035763" stroke-width="1.5"/>
<rect x="27" y="23.6923" width="19" height="20.1923" fill="#F2C94C"/>
<path d="M43.4102 24.9375V42H39.8945L33.0391 30.5625V42H29.5234V24.9375H33.0391L39.9062 36.3867V24.9375H43.4102Z" fill="white"/>
<path d="M43.4102 24.9375H44.4102V23.9375H43.4102V24.9375ZM43.4102 42V43H44.4102V42H43.4102ZM39.8945 42L39.0368 42.5141L39.328 43H39.8945V42ZM33.0391 30.5625L33.8968 30.0484L32.0391 26.949V30.5625H33.0391ZM33.0391 42V43H34.0391V42H33.0391ZM29.5234 42H28.5234V43H29.5234V42ZM29.5234 24.9375V23.9375H28.5234V24.9375H29.5234ZM33.0391 24.9375L33.8966 24.4231L33.6054 23.9375H33.0391V24.9375ZM39.9062 36.3867L39.0487 36.9011L40.9062 39.9981V36.3867H39.9062ZM39.9062 24.9375V23.9375H38.9062V24.9375H39.9062ZM42.4102 24.9375V42H44.4102V24.9375H42.4102ZM43.4102 41H39.8945V43H43.4102V41ZM40.7523 41.4859L33.8968 30.0484L32.1813 31.0766L39.0368 42.5141L40.7523 41.4859ZM32.0391 30.5625V42H34.0391V30.5625H32.0391ZM33.0391 41H29.5234V43H33.0391V41ZM30.5234 42V24.9375H28.5234V42H30.5234ZM29.5234 25.9375H33.0391V23.9375H29.5234V25.9375ZM32.1815 25.4519L39.0487 36.9011L40.7638 35.8724L33.8966 24.4231L32.1815 25.4519ZM40.9062 36.3867V24.9375H38.9062V36.3867H40.9062ZM39.9062 25.9375H43.4102V23.9375H39.9062V25.9375Z" fill="#035763"/>
</svg>
