<svg width="46" height="46" viewBox="0 0 46 46" fill="none" xmlns="http://www.w3.org/2000/svg">
<path d="M24.9689 42.3736L24.9688 42.3737C24.5383 42.7293 23.9847 42.9279 23.408 42.9275C22.8317 42.927 22.2789 42.7276 21.8492 42.3718C21.8489 42.3716 21.8486 42.3713 21.8483 42.3711L21.1775 41.8114C21.1771 41.8111 21.1766 41.8107 21.1762 41.8103C11.4558 33.6305 6.75 26.3038 6.75 19.7411C6.75 10.9365 14.1809 3.75 23.4107 3.75C32.6406 3.75 40.0714 10.9365 40.0714 19.7411C40.0714 26.4555 35.1452 33.9704 24.9689 42.3736ZM23.4107 12.5522C21.4451 12.5522 19.5543 13.3027 18.1558 14.6475C16.7563 15.9932 15.9643 17.8248 15.9643 19.7411C15.9643 21.6574 16.7563 23.489 18.1558 24.8347C19.5543 26.1794 21.4451 26.9299 23.4107 26.9299C25.3763 26.9299 27.2671 26.1794 28.6656 24.8347C30.0652 23.489 30.8571 21.6574 30.8571 19.7411C30.8571 17.8248 30.0652 15.9932 28.6656 14.6475C27.2671 13.3027 25.3763 12.5522 23.4107 12.5522Z" fill="#F2C94C" stroke="#035763" stroke-width="1.5"/>
<rect x="14" y="10.6923" width="19" height="20.1923" fill="#F2C94C"/>
<mask id="path-3-outside-1_2204_1026" maskUnits="userSpaceOnUse" x="15" y="10" width="17" height="20" fill="black">
<rect fill="white" x="15" y="10" width="17" height="20"/>
<path d="M30.4102 11.9375V29H26.8945L20.0391 17.5625V29H16.5234V11.9375H20.0391L26.9062 23.3867V11.9375H30.4102Z"/>
</mask>
<path d="M30.4102 11.9375V29H26.8945L20.0391 17.5625V29H16.5234V11.9375H20.0391L26.9062 23.3867V11.9375H30.4102Z" fill="white"/>
<path d="M30.4102 11.9375H31.4102V10.9375H30.4102V11.9375ZM30.4102 29V30H31.4102V29H30.4102ZM26.8945 29L26.0368 29.5141L26.328 30H26.8945V29ZM20.0391 17.5625L20.8968 17.0484L19.0391 13.949V17.5625H20.0391ZM20.0391 29V30H21.0391V29H20.0391ZM16.5234 29H15.5234V30H16.5234V29ZM16.5234 11.9375V10.9375H15.5234V11.9375H16.5234ZM20.0391 11.9375L20.8966 11.4231L20.6054 10.9375H20.0391V11.9375ZM26.9062 23.3867L26.0487 23.9011L27.9062 26.9981V23.3867H26.9062ZM26.9062 11.9375V10.9375H25.9062V11.9375H26.9062ZM29.4102 11.9375V29H31.4102V11.9375H29.4102ZM30.4102 28H26.8945V30H30.4102V28ZM27.7523 28.4859L20.8968 17.0484L19.1813 18.0766L26.0368 29.5141L27.7523 28.4859ZM19.0391 17.5625V29H21.0391V17.5625H19.0391ZM20.0391 28H16.5234V30H20.0391V28ZM17.5234 29V11.9375H15.5234V29H17.5234ZM16.5234 12.9375H20.0391V10.9375H16.5234V12.9375ZM19.1815 12.4519L26.0487 23.9011L27.7638 22.8724L20.8966 11.4231L19.1815 12.4519ZM27.9062 23.3867V11.9375H25.9062V23.3867H27.9062ZM26.9062 12.9375H30.4102V10.9375H26.9062V12.9375Z" fill="#035763" mask="url(#path-3-outside-1_2204_1026)"/>
</svg>
