<svg width="51" height="53" viewBox="0 0 51 53" fill="none" xmlns="http://www.w3.org/2000/svg">
<path d="M27.5709 46.4858L27.5709 46.4859C27.1502 46.8545 26.6164 47.055 26.0667 47.0546C25.5177 47.0541 24.9847 46.853 24.5648 46.4843C24.5644 46.484 24.564 46.4836 24.5635 46.4832L23.906 45.9012C23.9054 45.9007 23.9049 45.9003 23.9044 45.8998C14.3819 37.3992 9.75 29.7686 9.75 22.9107C9.75 13.6948 17.07 6.25 26.0693 6.25C35.0687 6.25 42.3887 13.6948 42.3887 22.9107C42.3887 29.9268 37.5401 37.7531 27.5709 46.4858ZM20.8898 18.1931C20.9204 18.4487 21.0305 18.7391 21.3015 18.9595C21.315 18.9704 21.3286 18.981 21.3424 18.9912C21.6435 19.4518 22.0084 19.9156 22.3816 20.337C22.5843 20.566 22.7965 20.7904 23.011 21.0021C23.0437 21.2317 23.1768 21.4336 23.3748 21.5539C23.4803 21.6181 23.5828 21.6461 23.6602 21.6587C23.6759 21.7591 23.7 21.8602 23.735 21.959C23.8248 22.2123 23.9912 22.4666 24.2706 22.6482C24.2849 22.6575 24.2993 22.6665 24.3138 22.6752C24.3242 22.7013 24.3349 22.7263 24.3457 22.75C24.3647 22.7913 24.39 22.8416 24.4228 22.8934C24.4515 22.9389 24.5077 23.0207 24.5975 23.0974C24.6811 23.1687 24.8882 23.3138 25.1862 23.2833C25.3335 23.2682 25.4512 23.2159 25.5422 23.1534C25.6354 23.2512 25.738 23.3772 25.8487 23.5348C26.2199 24.0633 26.6002 24.8294 26.9748 25.733C27.5772 27.1859 28.1184 28.8755 28.5667 30.2754C28.6752 30.6141 28.7782 30.9357 28.8753 31.233L29.0934 31.9002L29.7736 31.7267C30.0917 31.6456 30.3457 31.4503 30.5068 31.1789C30.6541 30.9307 30.7014 30.6581 30.711 30.4245C30.7299 29.9638 30.6091 29.4249 30.4407 28.8961C30.0967 27.8158 29.4562 26.4859 28.7717 25.2662C28.0862 24.0448 27.3273 22.8818 26.7237 22.1387C26.5959 21.9815 26.4699 21.8365 26.3485 21.7107L26.567 21.4878L26.3489 21.1499C26.3231 20.9181 26.2562 20.6907 26.1251 20.4876C25.9392 20.1993 25.6723 20.0345 25.403 19.9577C25.3352 19.9384 25.2668 19.9246 25.1986 19.9153C25.1197 19.7372 24.9466 19.5059 24.6083 19.4465C24.546 19.4355 24.4867 19.4326 24.4314 19.4353C24.2761 19.1675 24.1009 18.8932 23.9048 18.6534C23.5804 18.2569 23.1056 17.8394 22.451 17.7625C22.4831 17.6761 22.5238 17.5809 22.5711 17.4772C22.6033 17.4066 22.6364 17.3367 22.6705 17.2648L22.6728 17.2598C22.7052 17.1915 22.7395 17.1192 22.7705 17.0509C22.8202 16.9412 22.9111 16.7396 22.9395 16.5443C22.9512 16.4633 22.9854 16.1889 22.8037 15.9266C22.5738 15.5949 22.2203 15.568 22.0504 15.5831C21.8892 15.5975 21.7506 15.6534 21.6643 15.6925C21.5873 15.7274 21.5073 15.77 21.4257 15.8174C21.2271 15.894 21.0404 16.0148 20.8912 16.1924C20.718 16.3985 20.6335 16.6359 20.6044 16.8624C20.5502 17.2841 20.6807 17.7149 20.8336 18.0686C20.8515 18.1098 20.8702 18.1513 20.8898 18.1931ZM22.296 17.0536C22.2959 17.0536 22.2937 17.0546 22.2894 17.0561C22.2939 17.0542 22.296 17.0535 22.296 17.0536Z" fill="#F2C94C" stroke="#035763" stroke-width="1.5"/>
<rect x="17.34" y="14" width="17.34" height="21" fill="#F2C94C"/>
<path d="M32.4302 14.9375V32H28.9146L22.0591 20.5625V32H18.5435V14.9375H22.0591L28.9263 26.3867V14.9375H32.4302Z" fill="white"/>
<path d="M32.4302 14.9375H33.4302V13.9375H32.4302V14.9375ZM32.4302 32V33H33.4302V32H32.4302ZM28.9146 32L28.0568 32.5141L28.3481 33H28.9146V32ZM22.0591 20.5625L22.9168 20.0484L21.0591 16.949V20.5625H22.0591ZM22.0591 32V33H23.0591V32H22.0591ZM18.5435 32H17.5435V33H18.5435V32ZM18.5435 14.9375V13.9375H17.5435V14.9375H18.5435ZM22.0591 14.9375L22.9167 14.4231L22.6254 13.9375H22.0591V14.9375ZM28.9263 26.3867L28.0687 26.9011L29.9263 29.9981V26.3867H28.9263ZM28.9263 14.9375V13.9375H27.9263V14.9375H28.9263ZM31.4302 14.9375V32H33.4302V14.9375H31.4302ZM32.4302 31H28.9146V33H32.4302V31ZM29.7723 31.4859L22.9168 20.0484L21.2014 21.0766L28.0568 32.5141L29.7723 31.4859ZM21.0591 20.5625V32H23.0591V20.5625H21.0591ZM22.0591 31H18.5435V33H22.0591V31ZM19.5435 32V14.9375H17.5435V32H19.5435ZM18.5435 15.9375H22.0591V13.9375H18.5435V15.9375ZM21.2015 15.4519L28.0687 26.9011L29.7838 25.8724L22.9167 14.4231L21.2015 15.4519ZM29.9263 26.3867V14.9375H27.9263V26.3867H29.9263ZM28.9263 15.9375H32.4302V13.9375H28.9263V15.9375Z" fill="#035763"/>
</svg>
