<svg width="35" height="44" viewBox="0 0 35 44" fill="none" xmlns="http://www.w3.org/2000/svg">
<g id="Map location: specialist">
<path id="Vector" d="M19.2836 42.2512L19.2835 42.2512C18.7615 42.6997 18.0958 42.946 17.4076 42.9454C16.7195 42.9448 16.0545 42.6974 15.5333 42.2483C15.5332 42.2481 15.533 42.248 15.5329 42.2479L14.8593 41.6634C14.8592 41.6633 14.8591 41.6633 14.859 41.6632C5.11787 33.1383 0.25 25.3808 0.25 18.3016C0.25 8.82355 7.93271 1.14084 17.4107 1.14084C26.8887 1.14084 34.5714 8.82355 34.5714 18.3016C34.5714 25.543 29.4776 33.4966 19.2836 42.2512ZM13.0728 12.13L13.0738 12.1297C13.0592 12.1602 13.0439 12.1919 13.0279 12.2248L13.0276 12.2255C12.9932 12.2966 12.9563 12.3729 12.9198 12.4513C12.8973 12.4998 12.8745 12.5498 12.8523 12.6007C12.8378 12.5154 12.8351 12.4422 12.8431 12.3812C12.8524 12.3106 12.8749 12.2629 12.9045 12.2283C12.9344 12.1935 12.9844 12.1569 13.0728 12.13ZM13.2139 11.7909C13.2139 11.791 13.2138 11.7911 13.2138 11.7912L13.2139 11.7909ZM12.5438 13.2626C12.5712 13.3248 12.6011 13.388 12.6333 13.4521C12.6335 13.4566 12.6336 13.4611 12.6339 13.4656C12.6429 13.6449 12.7067 13.8303 12.8743 13.9639C12.9029 13.9866 12.9332 14.0069 12.9653 14.0249C13.2624 14.483 13.6395 14.9587 14.0364 15.3983C14.2884 15.6772 14.552 15.9457 14.8132 16.1894C14.803 16.2214 14.7935 16.2677 14.801 16.3216C14.8126 16.4055 14.8613 16.4767 14.9317 16.5187C14.9892 16.5529 15.0458 16.5587 15.0756 16.5599C15.1247 16.5619 15.1744 16.5534 15.2135 16.5448C15.291 16.6099 15.3675 16.6721 15.4428 16.731C15.4443 16.8849 15.4638 17.0408 15.5156 17.1843C15.5768 17.3535 15.6844 17.5101 15.8586 17.6211C15.914 17.6564 15.9739 17.6857 16.0382 17.7092C16.0651 17.7967 16.0932 17.8736 16.1215 17.9341C16.1431 17.9801 16.1819 18.0561 16.2457 18.1094C16.2801 18.1382 16.3541 18.1871 16.4569 18.1768C16.5646 18.1659 16.6297 18.0981 16.66 18.0543C16.7099 17.9823 16.7264 17.8919 16.7347 17.8292C16.8215 17.8627 16.9135 17.9151 17.0112 17.9892C17.203 18.1346 17.4032 18.3535 17.6085 18.6402C18.0193 19.2137 18.4241 20.0197 18.8107 20.934C19.4342 22.4082 19.9947 24.1242 20.4521 25.5246C20.5618 25.8604 20.6656 26.1781 20.7628 26.4699L20.836 26.6895L21.0606 26.6334C21.2496 26.5861 21.3965 26.4757 21.4929 26.3164C21.5848 26.1647 21.6228 25.9826 21.6306 25.7951C21.6462 25.4225 21.545 24.9503 21.3784 24.4373C21.0426 23.4034 20.408 22.1072 19.717 20.8999C19.0255 19.692 18.2675 18.5557 17.6769 17.8429C17.5288 17.6642 17.3887 17.5091 17.2608 17.3849C17.1915 17.3177 17.1223 17.2561 17.0544 17.2039C17.0603 17.1974 17.0661 17.1907 17.0718 17.1837C17.1411 17.0983 17.1747 16.996 17.1875 16.8917L17.2648 16.8144L17.1923 16.7043C17.1829 16.4849 17.1324 16.2976 17.0337 16.1476C16.9205 15.9756 16.7601 15.877 16.5887 15.8291C16.4243 15.7831 16.245 15.7827 16.0724 15.8038C16.0755 15.78 16.0781 15.7567 16.0798 15.7342C16.0835 15.6869 16.0858 15.6183 16.0674 15.5513C16.0466 15.4755 15.9817 15.3556 15.8305 15.3296C15.72 15.3106 15.6269 15.358 15.5819 15.3838C15.556 15.3985 15.5286 15.4167 15.4997 15.4381C15.2964 15.07 15.0686 14.6776 14.8027 14.359C14.4749 13.9661 14.0525 13.6408 13.5 13.6408C13.4146 13.6408 13.3502 13.633 13.3019 13.6219C13.2425 13.5255 13.1876 13.431 13.138 13.3389C13.1465 13.271 13.1653 13.1911 13.1948 13.0999C13.2396 12.9608 13.3035 12.812 13.3732 12.6622C13.4078 12.5878 13.4431 12.5147 13.4777 12.4432L13.4793 12.44C13.513 12.3703 13.5463 12.3014 13.576 12.2371C13.6316 12.1167 13.6916 11.9785 13.7085 11.8641C13.7162 11.8122 13.726 11.7006 13.6551 11.6003C13.5691 11.4786 13.4362 11.4651 13.3576 11.4719C13.2806 11.4787 13.2026 11.5066 13.1318 11.538C13.0633 11.5685 12.9851 11.6098 12.897 11.6613C12.7485 11.7113 12.6212 11.7905 12.5249 11.903C12.4218 12.0232 12.367 12.1664 12.3474 12.3163C12.3095 12.6052 12.3998 12.9361 12.5438 13.2626ZM21.1311 25.7742C21.1285 25.8366 21.1216 25.889 21.1118 25.9327C21.0536 25.7555 20.9931 25.5704 20.9306 25.3789C20.6092 24.3949 20.2327 23.242 19.8178 22.1245C20.2779 23.0049 20.669 23.8717 20.9029 24.5917C21.0643 25.0889 21.1429 25.4924 21.1311 25.7742ZM15.8383 15.8137C15.8383 15.8139 15.8364 15.8148 15.833 15.8162C15.8367 15.8142 15.8384 15.8135 15.8383 15.8137ZM14.4075 15.0631C14.1398 14.7667 13.8866 14.4588 13.6647 14.1568C13.9337 14.2095 14.1787 14.3916 14.4188 14.6793C14.6776 14.9895 14.9011 15.3863 15.1209 15.7869C15.1199 15.7879 15.119 15.7888 15.118 15.7898C14.8816 15.5672 14.6407 15.3214 14.4075 15.0631ZM16.4957 16.7684C16.4619 16.7701 16.4191 16.7614 16.3634 16.7267C16.3562 16.6248 16.3551 16.5324 16.3609 16.4557C16.3614 16.4493 16.362 16.443 16.3625 16.4369C16.4256 16.4982 16.5065 16.593 16.6067 16.7321C16.5585 16.7588 16.5218 16.7671 16.4957 16.7684Z" fill="#F2C94C" stroke="#035763" stroke-width="0.5"/>
<g id="N">
<path d="M24.4102 10.3284V27.3909H20.8945L14.0391 15.9534V27.3909H10.5234V10.3284H14.0391L20.9062 21.7776V10.3284H24.4102Z" fill="white"/>
<path d="M24.4102 10.3284H24.9102V9.82837H24.4102V10.3284ZM24.4102 27.3909V27.8909H24.9102V27.3909H24.4102ZM20.8945 27.3909L20.4657 27.6479L20.6113 27.8909H20.8945V27.3909ZM14.0391 15.9534L14.4679 15.6963L13.5391 14.1466V15.9534H14.0391ZM14.0391 27.3909V27.8909H14.5391V27.3909H14.0391ZM10.5234 27.3909H10.0234V27.8909H10.5234V27.3909ZM10.5234 10.3284V9.82837H10.0234V10.3284H10.5234ZM14.0391 10.3284L14.4678 10.0712L14.3222 9.82837H14.0391V10.3284ZM20.9062 21.7776L20.4775 22.0348L21.4062 23.5833V21.7776H20.9062ZM20.9062 10.3284V9.82837H20.4062V10.3284H20.9062ZM23.9102 10.3284V27.3909H24.9102V10.3284H23.9102ZM24.4102 26.8909H20.8945V27.8909H24.4102V26.8909ZM21.3234 27.1338L14.4679 15.6963L13.6102 16.2104L20.4657 27.6479L21.3234 27.1338ZM13.5391 15.9534V27.3909H14.5391V15.9534H13.5391ZM14.0391 26.8909H10.5234V27.8909H14.0391V26.8909ZM11.0234 27.3909V10.3284H10.0234V27.3909H11.0234ZM10.5234 10.8284H14.0391V9.82837H10.5234V10.8284ZM13.6103 10.5856L20.4775 22.0348L21.335 21.5204L14.4678 10.0712L13.6103 10.5856ZM21.4062 21.7776V10.3284H20.4062V21.7776H21.4062ZM20.9062 10.8284H24.4102V9.82837H20.9062V10.8284Z" fill="#035763"/>
</g>
</g>
</svg>
