<svg width="46" height="46" viewBox="0 0 46 46" fill="none" xmlns="http://www.w3.org/2000/svg">
<path d="M24.9689 42.3736L24.9688 42.3737C24.5383 42.7293 23.9847 42.9279 23.408 42.9275C22.8317 42.927 22.2789 42.7276 21.8492 42.3718C21.8489 42.3716 21.8486 42.3713 21.8483 42.3711L21.1775 41.8114C21.1771 41.8111 21.1766 41.8107 21.1762 41.8103C11.4558 33.6305 6.75 26.3038 6.75 19.7411C6.75 10.9365 14.1809 3.75 23.4107 3.75C32.6406 3.75 40.0714 10.9365 40.0714 19.7411C40.0714 26.4555 35.1452 33.9704 24.9689 42.3736ZM23.4107 12.5522C21.4451 12.5522 19.5543 13.3027 18.1558 14.6475C16.7563 15.9932 15.9643 17.8248 15.9643 19.7411C15.9643 21.6574 16.7563 23.489 18.1558 24.8347C19.5543 26.1794 21.4451 26.9299 23.4107 26.9299C25.3763 26.9299 27.2671 26.1794 28.6656 24.8347C30.0652 23.489 30.8571 21.6574 30.8571 19.7411C30.8571 17.8248 30.0652 15.9932 28.6656 14.6475C27.2671 13.3027 25.3763 12.5522 23.4107 12.5522Z" fill="#9B51E0" stroke="#035763" stroke-width="1.5"/>
<rect x="14" y="10.6923" width="19" height="20.1923" fill="#9B51E0"/>
<path d="M24.1176 20.2412H21.9176L21.9059 19.0294H23.7529C24.0784 19.0294 24.3451 18.9882 24.5529 18.9059C24.7608 18.8196 24.9157 18.6961 25.0176 18.5353C25.1235 18.3706 25.1765 18.1706 25.1765 17.9353C25.1765 17.6686 25.1255 17.4529 25.0235 17.2882C24.9255 17.1235 24.7706 17.0039 24.5588 16.9294C24.351 16.8549 24.0824 16.8176 23.7529 16.8176H22.5294V24H20.7647V15.4353H23.7529C24.251 15.4353 24.6961 15.4824 25.0882 15.5765C25.4843 15.6706 25.8196 15.8137 26.0941 16.0059C26.3686 16.198 26.5784 16.4412 26.7235 16.7353C26.8686 17.0255 26.9412 17.3706 26.9412 17.7706C26.9412 18.1235 26.8608 18.449 26.7 18.7471C26.5431 19.0451 26.2941 19.2882 25.9529 19.4765C25.6157 19.6647 25.1745 19.7686 24.6294 19.7882L24.1176 20.2412ZM24.0412 24H21.4353L22.1235 22.6235H24.0412C24.351 22.6235 24.6039 22.5745 24.8 22.4765C24.9961 22.3745 25.1412 22.2373 25.2353 22.0647C25.3294 21.8922 25.3765 21.6941 25.3765 21.4706C25.3765 21.2196 25.3333 21.002 25.2471 20.8176C25.1647 20.6333 25.0314 20.4922 24.8471 20.3941C24.6627 20.2922 24.4196 20.2412 24.1176 20.2412H22.4176L22.4294 19.0294H24.5471L24.9529 19.5059C25.4745 19.498 25.8941 19.5902 26.2118 19.7824C26.5333 19.9706 26.7667 20.2157 26.9118 20.5176C27.0608 20.8196 27.1353 21.1431 27.1353 21.4882C27.1353 22.0373 27.0157 22.5 26.7765 22.8765C26.5373 23.249 26.1863 23.5294 25.7235 23.7176C25.2647 23.9059 24.7039 24 24.0412 24Z" fill="white"/>
<path d="M33.57 19.5C33.57 24.8138 29.1715 29.15 23.71 29.15C18.2485 29.15 13.85 24.8138 13.85 19.5C13.85 14.1862 18.2485 9.85 23.71 9.85C29.1715 9.85 33.57 14.1862 33.57 19.5Z" stroke="white" stroke-width="1.7"/>
</svg>
