<svg width="72" height="72" viewBox="0 0 72 72" fill="none" xmlns="http://www.w3.org/2000/svg">
<path d="M37.9689 55.3736L37.9688 55.3737C37.5383 55.7293 36.9847 55.9279 36.408 55.9275C35.8316 55.927 35.2787 55.7276 34.849 55.3717C34.8487 55.3715 34.8485 55.3713 34.8483 55.3711L34.1775 54.8114C34.177 54.811 34.1766 54.8106 34.1761 54.8102C24.4558 46.6305 19.75 39.3038 19.75 32.7411C19.75 23.9365 27.1809 16.75 36.4107 16.75C45.6406 16.75 53.0714 23.9365 53.0714 32.7411C53.0714 39.4555 48.1452 46.9704 37.9689 55.3736ZM36.4107 25.5522C34.4451 25.5522 32.5543 26.3027 31.1558 27.6475C29.7563 28.9932 28.9643 30.8248 28.9643 32.7411C28.9643 34.6574 29.7563 36.489 31.1558 37.8347C32.5543 39.1794 34.4451 39.9299 36.4107 39.9299C38.3763 39.9299 40.2671 39.1794 41.6656 37.8347C43.0652 36.489 43.8571 34.6574 43.8571 32.7411C43.8571 30.8248 43.0652 28.9932 41.6656 27.6475C40.2671 26.3027 38.3763 25.5522 36.4107 25.5522Z" fill="#9B51E0" stroke="#035763" stroke-width="1.5"/>
<rect x="27" y="23.6923" width="19" height="20.1923" fill="#9B51E0"/>
<path d="M37.1176 33.2412H34.9176L34.9059 32.0294H36.7529C37.0784 32.0294 37.3451 31.9882 37.5529 31.9059C37.7608 31.8196 37.9157 31.6961 38.0176 31.5353C38.1235 31.3706 38.1765 31.1706 38.1765 30.9353C38.1765 30.6686 38.1255 30.4529 38.0235 30.2882C37.9255 30.1235 37.7706 30.0039 37.5588 29.9294C37.351 29.8549 37.0824 29.8176 36.7529 29.8176H35.5294V37H33.7647V28.4353H36.7529C37.251 28.4353 37.6961 28.4824 38.0882 28.5765C38.4843 28.6706 38.8196 28.8137 39.0941 29.0059C39.3686 29.198 39.5784 29.4412 39.7235 29.7353C39.8686 30.0255 39.9412 30.3706 39.9412 30.7706C39.9412 31.1235 39.8608 31.449 39.7 31.7471C39.5431 32.0451 39.2941 32.2882 38.9529 32.4765C38.6157 32.6647 38.1745 32.7686 37.6294 32.7882L37.1176 33.2412ZM37.0412 37H34.4353L35.1235 35.6235H37.0412C37.351 35.6235 37.6039 35.5745 37.8 35.4765C37.9961 35.3745 38.1412 35.2373 38.2353 35.0647C38.3294 34.8922 38.3765 34.6941 38.3765 34.4706C38.3765 34.2196 38.3333 34.002 38.2471 33.8176C38.1647 33.6333 38.0314 33.4922 37.8471 33.3941C37.6627 33.2922 37.4196 33.2412 37.1176 33.2412H35.4176L35.4294 32.0294H37.5471L37.9529 32.5059C38.4745 32.498 38.8941 32.5902 39.2118 32.7824C39.5333 32.9706 39.7667 33.2157 39.9118 33.5176C40.0608 33.8196 40.1353 34.1431 40.1353 34.4882C40.1353 35.0373 40.0157 35.5 39.7765 35.8765C39.5373 36.249 39.1863 36.5294 38.7235 36.7176C38.2647 36.9059 37.7039 37 37.0412 37Z" fill="white"/>
<path d="M46.57 32.5C46.57 37.8138 42.1715 42.15 36.71 42.15C31.2485 42.15 26.85 37.8138 26.85 32.5C26.85 27.1862 31.2485 22.85 36.71 22.85C42.1715 22.85 46.57 27.1862 46.57 32.5Z" stroke="white" stroke-width="1.7"/>
</svg>
