<svg width="35" height="43" viewBox="0 0 35 43" fill="none" xmlns="http://www.w3.org/2000/svg">
<path d="M19.2836 41.5786L19.2835 41.5786C18.7615 42.0271 18.0958 42.2734 17.4076 42.2728C16.7195 42.2722 16.0545 42.0249 15.5333 41.5757C15.5332 41.5756 15.533 41.5755 15.5329 41.5753L14.8593 40.9908C14.8592 40.9908 14.8591 40.9907 14.859 40.9906C5.11787 32.4657 0.25 24.7082 0.25 17.629C0.25 8.15097 7.93271 0.468262 17.4107 0.468262C26.8887 0.468262 34.5714 8.15097 34.5714 17.629C34.5714 24.8704 29.4776 32.824 19.2836 41.5786ZM17.4107 12.6637C16.9589 12.6637 16.6234 12.738 16.4282 12.9645C16.2356 13.1882 16.2484 13.4884 16.2607 13.7068C16.2626 13.7402 16.2647 13.7737 16.2668 13.8075C16.2951 14.2576 16.3251 14.735 15.8232 15.2369C15.6679 15.3922 15.5438 15.5121 15.4449 15.6069C15.4274 15.6237 15.4105 15.6399 15.3943 15.6554C15.3205 15.7261 15.2599 15.7841 15.2138 15.831C15.1613 15.8844 15.105 15.9452 15.0691 16.0129C15.0218 16.1021 15.0137 16.1931 15.0374 16.2825C15.0502 16.3312 15.0765 16.3865 15.0923 16.4197C15.0952 16.4259 15.0978 16.4314 15.0999 16.4359C15.119 16.4774 15.1407 16.5282 15.1619 16.5997C15.2046 16.7436 15.25 16.9871 15.25 17.4137C15.25 17.5513 15.2453 17.6618 15.2378 17.7497C15.1765 17.7731 15.1207 17.8146 15.0796 17.8786C15.0131 17.982 15.0183 18.0957 15.0364 18.1689C15.0525 18.2338 15.1003 18.3501 15.2223 18.4064C15.2954 18.4402 15.3826 18.4442 15.4638 18.4085C15.5005 18.3923 15.5306 18.3704 15.5549 18.3472C15.6269 18.404 15.7156 18.4828 15.8232 18.5905C16.4429 19.2101 16.7954 19.5146 17.2441 19.6271C17.4638 19.6822 17.6937 19.6884 17.9627 19.684C18.0578 19.6825 18.1574 19.6796 18.2651 19.6765C18.4719 19.6705 18.7084 19.6637 19 19.6637C19.151 19.6637 19.2655 19.6656 19.3496 19.6681C19.3761 19.6718 19.401 19.6748 19.4238 19.6771C19.4627 19.6811 19.4972 19.6835 19.5247 19.6845C19.5382 19.685 19.552 19.6853 19.5648 19.685C19.5711 19.6849 19.5794 19.6846 19.5885 19.6839C19.5924 19.6836 19.6159 19.6819 19.643 19.6739L19.6435 19.6738C19.6499 19.6721 19.7063 19.6567 19.7545 19.6061C19.7871 19.572 19.8282 19.5078 19.8233 19.4195C19.8188 19.3375 19.7768 19.2838 19.7537 19.2598C19.7147 19.2192 19.6715 19.2027 19.6644 19.2L19.6637 19.1998C19.6497 19.1943 19.6379 19.1911 19.632 19.1896C19.611 19.1843 19.5903 19.1818 19.5805 19.1807C19.5544 19.1777 19.5179 19.1749 19.4711 19.1726C19.4485 19.1714 19.4229 19.1703 19.3938 19.1693C19.3506 19.1627 19.303 19.1537 19.2547 19.1418C19.1721 19.1216 19.0956 19.0949 19.0359 19.0624C18.9745 19.0289 18.9498 18.9998 18.9414 18.9838L18.9413 18.9835C18.9378 18.9769 18.9275 18.9573 18.9475 18.9019C18.9709 18.837 19.0331 18.7341 19.1768 18.5905C19.4783 18.289 19.6698 18.1748 19.7785 18.1315C19.8307 18.1108 19.8641 18.1062 19.8833 18.105C19.9003 18.104 19.9055 18.1045 19.9163 18.1056C19.9248 18.1064 19.9366 18.1075 19.9603 18.1085L19.9614 18.1086C19.9781 18.1093 20.0351 18.1118 20.0962 18.086C20.1787 18.0511 20.2264 17.9857 20.249 17.9248C20.2668 17.877 20.2697 17.831 20.2708 17.8061C20.272 17.7769 20.2713 17.7444 20.2702 17.7121C20.2692 17.6844 20.2678 17.6525 20.2661 17.6153C20.2598 17.4753 20.25 17.2599 20.25 16.9137C20.25 16.6946 20.2539 16.5436 20.2583 16.4448C20.2605 16.3954 20.2627 16.3594 20.2646 16.3346C20.265 16.3291 20.2654 16.3241 20.2658 16.3198C20.2676 16.3079 20.2689 16.2975 20.2697 16.2888C20.2701 16.2851 20.2706 16.2795 20.271 16.2733C20.2711 16.2707 20.2715 16.2644 20.2714 16.2565C20.2714 16.253 20.2713 16.2444 20.2703 16.2335C20.2696 16.2277 20.2675 16.2136 20.2659 16.2051C20.2625 16.1913 20.2483 16.1523 20.2355 16.1283C20.1991 16.0815 20.0616 16.0106 19.9643 16.0139C19.903 16.0371 19.8292 16.0974 19.8114 16.1217C19.7907 16.1536 19.7824 16.1838 19.7821 16.1847L19.7821 16.1847C19.778 16.198 19.7759 16.2091 19.7755 16.2114L19.7755 16.2117C19.774 16.2191 19.7731 16.2258 19.7726 16.2292C19.7717 16.236 19.7706 16.2453 19.7694 16.2576C19.7692 16.259 19.7689 16.2605 19.7686 16.2621C19.7634 16.2915 19.7532 16.3362 19.7362 16.3826C19.695 16.4951 19.651 16.5237 19.6332 16.5275C19.6146 16.5315 19.4804 16.5405 19.1768 16.2369C18.6811 15.7413 18.668 15.0708 18.6545 14.3791C18.6532 14.315 18.652 14.2507 18.6503 14.1864C18.6414 13.8361 18.6189 13.4517 18.4477 13.158C18.2553 12.8282 17.9134 12.6637 17.4107 12.6637Z" fill="#9B51E0" stroke="#035763" stroke-width="0.5"/>
<circle cx="17.5" cy="18.5" r="9" fill="#9B51E0" stroke="white" stroke-width="3"/>
<path d="M18.1176 19.2412H15.9176L15.9059 18.0294H17.7529C18.0784 18.0294 18.3451 17.9882 18.5529 17.9059C18.7608 17.8196 18.9157 17.6961 19.0176 17.5353C19.1235 17.3706 19.1765 17.1706 19.1765 16.9353C19.1765 16.6686 19.1255 16.4529 19.0235 16.2882C18.9255 16.1235 18.7706 16.0039 18.5588 15.9294C18.351 15.8549 18.0824 15.8176 17.7529 15.8176H16.5294V23H14.7647V14.4353H17.7529C18.251 14.4353 18.6961 14.4824 19.0882 14.5765C19.4843 14.6706 19.8196 14.8137 20.0941 15.0059C20.3686 15.198 20.5784 15.4412 20.7235 15.7353C20.8686 16.0255 20.9412 16.3706 20.9412 16.7706C20.9412 17.1235 20.8608 17.449 20.7 17.7471C20.5431 18.0451 20.2941 18.2882 19.9529 18.4765C19.6157 18.6647 19.1745 18.7686 18.6294 18.7882L18.1176 19.2412ZM18.0412 23H15.4353L16.1235 21.6235H18.0412C18.351 21.6235 18.6039 21.5745 18.8 21.4765C18.9961 21.3745 19.1412 21.2373 19.2353 21.0647C19.3294 20.8922 19.3765 20.6941 19.3765 20.4706C19.3765 20.2196 19.3333 20.002 19.2471 19.8176C19.1647 19.6333 19.0314 19.4922 18.8471 19.3941C18.6627 19.2922 18.4196 19.2412 18.1176 19.2412H16.4176L16.4294 18.0294H18.5471L18.9529 18.5059C19.4745 18.498 19.8941 18.5902 20.2118 18.7824C20.5333 18.9706 20.7667 19.2157 20.9118 19.5176C21.0608 19.8196 21.1353 20.1431 21.1353 20.4882C21.1353 21.0373 21.0157 21.5 20.7765 21.8765C20.5373 22.249 20.1863 22.5294 19.7235 22.7176C19.2647 22.9059 18.7039 23 18.0412 23Z" fill="white"/>
</svg>
