<svg width="51" height="53" viewBox="0 0 51 53" fill="none" xmlns="http://www.w3.org/2000/svg">
<path d="M26.4923 46.4991L26.4922 46.4992C26.0501 46.8716 25.4838 47.0779 24.8962 47.0774C24.3091 47.0769 23.7438 46.87 23.3025 46.4975C23.302 46.4972 23.3016 46.4968 23.3012 46.4964L22.6169 45.9143C22.6164 45.9139 22.6159 45.9134 22.6154 45.913C12.7024 37.4075 7.89001 29.7791 7.89001 22.9335C7.89001 13.7456 15.4907 6.27283 24.8989 6.27283C34.3072 6.27283 41.9079 13.7456 41.9079 22.9335C41.9079 29.9372 36.8702 37.7614 26.4923 46.4991ZM23.7929 23.2341L24.2286 24.2303L25.0051 23.4691C25.1865 23.2912 25.3488 23.1046 25.4594 22.9058C25.5737 22.7003 25.6669 22.4173 25.5903 22.0982C25.5166 21.7909 25.3192 21.5981 25.187 21.493C25.1607 21.472 25.1336 21.452 25.1062 21.4328C25.1278 21.2442 25.0832 21.0793 25.0396 20.9719C24.9757 20.8144 24.8796 20.6875 24.8027 20.5985C24.6509 20.4228 24.4363 20.2422 24.2019 20.0716C24.1998 20.029 24.1971 19.9893 24.1938 19.9527C24.1877 19.8851 24.1769 19.7958 24.1524 19.7054L24.1519 19.7036C24.1367 19.6476 24.0731 19.4131 23.8465 19.2458C23.7507 19.1751 23.6399 19.1272 23.5226 19.106C23.4085 18.9015 23.3064 18.7405 23.215 18.6275C23.1671 18.5684 23.0801 18.468 22.9553 18.3886C22.8366 18.313 22.4995 18.1506 22.1295 18.3593C21.833 18.5265 21.7569 18.8127 21.7391 18.8825C21.7355 18.8965 21.7323 18.9105 21.7295 18.9242C21.6565 18.9293 21.5601 18.9448 21.457 18.9882C21.2854 19.0606 21.0922 19.2157 21.0093 19.4772C20.9373 19.7042 20.9862 19.8978 21.0195 19.9933C21.0553 20.0963 21.1051 20.178 21.1417 20.2319C21.2159 20.3408 21.3114 20.4438 21.405 20.5356C21.5682 20.6956 21.7427 20.8308 21.9269 20.9303C22.0329 21.5977 22.1423 22.3189 22.1797 22.9406C22.2016 23.3047 22.194 23.5778 22.1658 23.7579C21.7352 23.7826 21.342 23.8617 20.9919 23.9488C20.81 23.994 20.6327 24.0432 20.4708 24.0882C20.4463 24.095 20.4221 24.1018 20.3983 24.1084C20.3263 24.1283 20.2576 24.1472 20.1913 24.1648C20.1468 24.1469 20.1018 24.1286 20.0563 24.1101L20.0442 24.1052C19.8199 24.014 19.5792 23.9163 19.3542 23.8402C19.1324 23.7652 18.8688 23.6907 18.6074 23.6782C18.5104 23.6736 18.3979 23.677 18.2798 23.6983C18.171 23.6223 18.0515 23.5572 17.9224 23.5173C17.7715 23.4706 17.5484 23.4407 17.3111 23.537C17.066 23.6363 16.9239 23.8219 16.8504 23.977C16.7815 24.1224 16.7602 24.2635 16.753 24.3624C16.7453 24.4671 16.7505 24.5679 16.7601 24.6561C16.7794 24.8321 16.8226 25.012 16.8734 25.1722C16.9245 25.3329 16.9913 25.4988 17.0696 25.6451C17.1087 25.7181 17.1569 25.798 17.2151 25.874C17.267 25.9418 17.3585 26.0488 17.4947 26.1328C17.6378 26.2212 17.9194 26.3315 18.2415 26.2004C18.5295 26.0832 18.6562 25.8471 18.7053 25.7325C18.7065 25.7298 18.7076 25.7271 18.7088 25.7244C18.7735 25.7417 18.8389 25.7562 18.9049 25.768C19.322 25.8428 19.7223 25.8026 20.0806 25.732C20.4014 25.8506 20.7497 25.9614 21.0909 26.0194C21.6642 26.1169 22.3951 26.0944 22.9651 25.5356C23.7126 24.8027 23.769 23.8241 23.7627 23.1652C23.7727 23.188 23.7828 23.211 23.7929 23.2341ZM21.7215 20.416C21.7216 20.416 21.7227 20.4162 21.7248 20.4167C21.7226 20.4163 21.7214 20.416 21.7215 20.416Z" fill="#F48067" stroke="#035763" stroke-width="1.5"/>
<rect x="13.26" y="16" width="22.44" height="16" fill="#F48067"/>
<path d="M20.7453 25.9453H17.8469V24.1172H20.7453C21.1932 24.1172 21.5578 24.0443 21.8391 23.8984C22.1203 23.7474 22.326 23.5391 22.4562 23.2734C22.5864 23.0078 22.6516 22.7083 22.6516 22.375C22.6516 22.0365 22.5864 21.7214 22.4562 21.4297C22.326 21.138 22.1203 20.9036 21.8391 20.7266C21.5578 20.5495 21.1932 20.4609 20.7453 20.4609H18.6594V30H16.3156V18.625H20.7453C21.6359 18.625 22.3989 18.7865 23.0344 19.1094C23.675 19.4271 24.1646 19.8672 24.5031 20.4297C24.8417 20.9922 25.0109 21.6354 25.0109 22.3594C25.0109 23.0938 24.8417 23.7292 24.5031 24.2656C24.1646 24.8021 23.675 25.2161 23.0344 25.5078C22.3989 25.7995 21.6359 25.9453 20.7453 25.9453ZM28.9719 18.625V30H26.6281V18.625H28.9719ZM33.5031 23.4844V25.3125H28.3312V23.4844H33.5031ZM34.05 18.625V20.4609H28.3312V18.625H34.05Z" fill="white"/>
<path d="M17.8469 25.9453H16.8469V26.9453H17.8469V25.9453ZM17.8469 24.1172V23.1172H16.8469V24.1172H17.8469ZM21.8391 23.8984L22.2994 24.7862L22.3058 24.7829L22.3122 24.7794L21.8391 23.8984ZM18.6594 20.4609V19.4609H17.6594V20.4609H18.6594ZM18.6594 30V31H19.6594V30H18.6594ZM16.3156 30H15.3156V31H16.3156V30ZM16.3156 18.625V17.625H15.3156V18.625H16.3156ZM23.0344 19.1094L22.5813 20.0009L22.5901 20.0053L23.0344 19.1094ZM23.0344 25.5078L22.62 24.5977L22.6172 24.599L23.0344 25.5078ZM20.7453 24.9453H17.8469V26.9453H20.7453V24.9453ZM18.8469 25.9453V24.1172H16.8469V25.9453H18.8469ZM17.8469 25.1172H20.7453V23.1172H17.8469V25.1172ZM20.7453 25.1172C21.2912 25.1172 21.8294 25.0299 22.2994 24.7862L21.3787 23.0107C21.2862 23.0586 21.0952 23.1172 20.7453 23.1172V25.1172ZM22.3122 24.7794C22.7622 24.5377 23.1245 24.1821 23.3542 23.7136L21.5583 22.8333C21.5275 22.8961 21.4784 22.9571 21.3659 23.0174L22.3122 24.7794ZM23.3542 23.7136C23.5596 23.2945 23.6516 22.8414 23.6516 22.375H21.6516C21.6516 22.5752 21.6133 22.7212 21.5583 22.8333L23.3542 23.7136ZM23.6516 22.375C23.6516 21.9046 23.5602 21.4496 23.3694 21.022L21.5431 21.8373C21.6127 21.9931 21.6516 22.1684 21.6516 22.375H23.6516ZM23.3694 21.022C23.1552 20.5422 22.8133 20.1583 22.3719 19.8803L21.3062 21.5728C21.4273 21.649 21.4969 21.7338 21.5431 21.8373L23.3694 21.022ZM22.3719 19.8803C21.8846 19.5735 21.3181 19.4609 20.7453 19.4609V21.4609C21.0683 21.4609 21.231 21.5254 21.3062 21.5728L22.3719 19.8803ZM20.7453 19.4609H18.6594V21.4609H20.7453V19.4609ZM17.6594 20.4609V30H19.6594V20.4609H17.6594ZM18.6594 29H16.3156V31H18.6594V29ZM17.3156 30V18.625H15.3156V30H17.3156ZM16.3156 19.625H20.7453V17.625H16.3156V19.625ZM20.7453 19.625C21.5169 19.625 22.1169 19.7649 22.5813 20.0009L23.4874 18.2179C22.681 17.8081 21.7549 17.625 20.7453 17.625V19.625ZM22.5901 20.0053C23.0756 20.246 23.4149 20.5609 23.6463 20.9453L25.3599 19.914C24.9142 19.1735 24.2744 18.6081 23.4787 18.2135L22.5901 20.0053ZM23.6463 20.9453C23.8817 21.3365 24.0109 21.7979 24.0109 22.3594H26.0109C26.0109 21.4729 25.8016 20.6479 25.3599 19.914L23.6463 20.9453ZM24.0109 22.3594C24.0109 22.9352 23.8801 23.3791 23.6574 23.7319L25.3488 24.7993C25.8032 24.0792 26.0109 23.2523 26.0109 22.3594H24.0109ZM23.6574 23.7319C23.4341 24.0858 23.1034 24.3776 22.62 24.5977L23.4487 26.4179C24.2466 26.0547 24.895 25.5184 25.3488 24.7993L23.6574 23.7319ZM22.6172 24.599C22.1433 24.8165 21.53 24.9453 20.7453 24.9453V26.9453C21.7419 26.9453 22.6546 26.7825 23.4515 26.4166L22.6172 24.599ZM28.9719 18.625H29.9719V17.625H28.9719V18.625ZM28.9719 30V31H29.9719V30H28.9719ZM26.6281 30H25.6281V31H26.6281V30ZM26.6281 18.625V17.625H25.6281V18.625H26.6281ZM33.5031 23.4844H34.5031V22.4844H33.5031V23.4844ZM33.5031 25.3125V26.3125H34.5031V25.3125H33.5031ZM28.3312 25.3125H27.3312V26.3125H28.3312V25.3125ZM28.3312 23.4844V22.4844H27.3312V23.4844H28.3312ZM34.05 18.625H35.05V17.625H34.05V18.625ZM34.05 20.4609V21.4609H35.05V20.4609H34.05ZM28.3312 20.4609H27.3312V21.4609H28.3312V20.4609ZM28.3312 18.625V17.625H27.3312V18.625H28.3312ZM27.9719 18.625V30H29.9719V18.625H27.9719ZM28.9719 29H26.6281V31H28.9719V29ZM27.6281 30V18.625H25.6281V30H27.6281ZM26.6281 19.625H28.9719V17.625H26.6281V19.625ZM32.5031 23.4844V25.3125H34.5031V23.4844H32.5031ZM33.5031 24.3125H28.3312V26.3125H33.5031V24.3125ZM29.3312 25.3125V23.4844H27.3312V25.3125H29.3312ZM28.3312 24.4844H33.5031V22.4844H28.3312V24.4844ZM33.05 18.625V20.4609H35.05V18.625H33.05ZM34.05 19.4609H28.3312V21.4609H34.05V19.4609ZM29.3312 20.4609V18.625H27.3312V20.4609H29.3312ZM28.3312 19.625H34.05V17.625H28.3312V19.625Z" fill="#035763"/>
</svg>
