<svg width="35" height="43" viewBox="0 0 35 43" fill="none" xmlns="http://www.w3.org/2000/svg">
<path d="M19.2836 41.8832L19.2835 41.8832C18.7615 42.3317 18.0958 42.578 17.4076 42.5774C16.7195 42.5768 16.0545 42.3294 15.5333 41.8803C15.5332 41.8801 15.533 41.88 15.5329 41.8799L14.8593 41.2954C14.8592 41.2953 14.8591 41.2952 14.859 41.2952C5.11787 32.7703 0.25 25.0128 0.25 17.9335C0.25 8.45554 7.93271 0.772827 17.4107 0.772827C26.8887 0.772827 34.5714 8.45554 34.5714 17.9335C34.5714 25.1749 29.4776 33.1286 19.2836 41.8832ZM16.7702 18.0321L16.9157 18.3714L17.1768 18.1103C17.3409 17.9462 17.462 17.7986 17.5371 17.6609C17.6134 17.521 17.6532 17.3701 17.6169 17.216C17.5814 17.0652 17.4841 16.9597 17.393 16.8858C17.3031 16.8129 17.1925 16.7498 17.0937 16.6941L17.0726 16.6821C17.0424 16.6652 17.0125 16.6483 16.9829 16.6314C17.0285 16.597 17.0695 16.5516 17.098 16.4918C17.1568 16.3689 17.1336 16.2469 17.0996 16.1615C17.0656 16.0762 17.0098 15.997 16.9509 15.9274C16.7947 15.7432 16.5364 15.5359 16.2492 15.3385C16.2476 15.1957 16.2436 15.0834 16.2361 14.9981C16.2311 14.9413 16.2236 14.886 16.2108 14.8376C16.2014 14.8024 16.1753 14.7118 16.0926 14.6495C16.0425 14.6118 15.9809 14.5916 15.9164 14.5938C15.8585 14.5958 15.8132 14.6152 15.7849 14.6308C15.6152 14.2957 15.4842 14.0701 15.3841 13.944C15.3482 13.8988 15.3023 13.8479 15.2464 13.8115C15.1926 13.7766 15.0665 13.7185 14.9321 13.7958C14.8244 13.8578 14.7931 13.9661 14.7829 14.007C14.7692 14.0617 14.7648 14.121 14.7636 14.1751C14.7617 14.269 14.7696 14.3896 14.7842 14.5291C14.7196 14.5035 14.6596 14.482 14.6056 14.4655C14.5322 14.4431 14.4502 14.4234 14.3746 14.4221C14.3373 14.4215 14.2811 14.4247 14.2231 14.4497C14.1569 14.4781 14.0886 14.5362 14.0595 14.6297C14.0341 14.7115 14.0504 14.7844 14.0652 14.8277C14.0808 14.8734 14.1042 14.9144 14.1271 14.9487C14.173 15.0175 14.2402 15.0938 14.3232 15.1768C14.5327 15.3863 14.7362 15.5186 14.9335 15.5782C14.9366 15.5978 14.9397 15.6174 14.9428 15.6371C15.0559 16.3597 15.1872 17.1982 15.2292 17.9103C15.2555 18.3565 15.2445 18.7263 15.183 18.9765C15.1523 19.1015 15.1142 19.1741 15.0813 19.2117C15.0562 19.2405 15.0347 19.25 15 19.25C14.5267 19.25 14.0928 19.3337 13.6963 19.4343C13.5248 19.4778 13.3579 19.525 13.1988 19.5701C13.1746 19.577 13.1505 19.5838 13.1266 19.5905C13.0009 19.6261 12.8802 19.6597 12.7629 19.6895C12.6693 19.6516 12.5755 19.6128 12.4819 19.574L12.4772 19.572C12.252 19.4787 12.0275 19.3856 11.8207 19.3143C11.615 19.2434 11.4076 19.1868 11.2195 19.1776C11.087 19.1712 10.9454 19.1877 10.8191 19.2537C10.6837 19.1275 10.5539 19.0348 10.4289 18.9954C10.3497 18.9704 10.251 18.9602 10.1524 19.001C10.0517 19.0426 9.99122 19.1207 9.95774 19.1928C9.898 19.3214 9.90069 19.4786 9.91383 19.6013C9.92826 19.7358 9.96192 19.8822 10.0047 20.0194C10.0475 20.1568 10.1019 20.2932 10.1618 20.4073C10.1917 20.4643 10.225 20.5197 10.2614 20.5681C10.2957 20.6138 10.343 20.6674 10.4045 20.7061C10.4685 20.7464 10.5794 20.7878 10.7025 20.7366C10.8129 20.6908 10.867 20.5963 10.8932 20.5338C10.9445 20.4118 10.9631 20.2357 10.9642 20.0204C11.1769 20.1529 11.3947 20.2347 11.619 20.2757C11.9895 20.3435 12.3579 20.2962 12.7173 20.2147C12.72 20.2141 12.7227 20.2135 12.7254 20.2129C13.0613 20.3447 13.4168 20.4672 13.7578 20.5264C14.2542 20.6125 14.7795 20.574 15.1768 20.1768C15.8314 19.5221 15.8176 18.6293 15.8072 17.9634C15.8062 17.8992 15.8053 17.8372 15.8049 17.7777C15.8029 17.4082 15.8224 17.1546 15.9123 16.9902C15.9518 16.9181 16.0054 16.8634 16.087 16.8235C16.1243 16.8052 16.1698 16.789 16.2256 16.7764C16.3892 17.1484 16.5702 17.5657 16.7702 18.0321ZM10.4125 19.5613C10.4412 19.5852 10.4734 19.6142 10.5093 19.649C10.4914 19.7089 10.4794 19.7725 10.4724 19.8389C10.4433 19.7404 10.4224 19.644 10.4125 19.5613ZM10.4313 20.3422C10.4313 20.3422 10.4316 20.3415 10.4322 20.3402C10.4316 20.3416 10.4313 20.3423 10.4313 20.3422ZM16.5674 16.2482C16.5585 16.2487 16.5492 16.2491 16.5393 16.2494C16.53 16.2287 16.5209 16.2081 16.5118 16.1877C16.5322 16.2085 16.5507 16.2287 16.5674 16.2482ZM15.5907 16.583C15.5422 16.2334 15.4883 15.888 15.4385 15.5704C15.4902 15.5521 15.5383 15.5292 15.5829 15.5034C15.6152 15.5231 15.6472 15.5428 15.679 15.5627C15.7065 15.6219 15.7348 15.6832 15.7639 15.7466C15.791 15.978 15.8561 16.1733 15.9472 16.3394C15.9198 16.35 15.8932 16.3617 15.8673 16.3743C15.7561 16.4287 15.6647 16.4994 15.5907 16.583ZM13.8192 19.9189C14.163 19.8317 14.5164 19.7632 14.8903 19.7517C14.869 19.7759 14.8467 19.7998 14.8232 19.8232C14.5926 20.0539 14.2682 20.1074 13.8433 20.0337C13.7613 20.0195 13.6778 20.0009 13.5932 19.9788C13.6678 19.9583 13.743 19.9382 13.8192 19.9189Z" fill="#F48067" stroke="#035763" stroke-width="0.5"/>
<path d="M13.4453 20.9453H10.5469V19.1172H13.4453C13.8932 19.1172 14.2578 19.0443 14.5391 18.8984C14.8203 18.7474 15.026 18.5391 15.1562 18.2734C15.2865 18.0078 15.3516 17.7083 15.3516 17.375C15.3516 17.0365 15.2865 16.7214 15.1562 16.4297C15.026 16.138 14.8203 15.9036 14.5391 15.7266C14.2578 15.5495 13.8932 15.4609 13.4453 15.4609H11.3594V25H9.01562V13.625H13.4453C14.3359 13.625 15.099 13.7865 15.7344 14.1094C16.375 14.4271 16.8646 14.8672 17.2031 15.4297C17.5417 15.9922 17.7109 16.6354 17.7109 17.3594C17.7109 18.0938 17.5417 18.7292 17.2031 19.2656C16.8646 19.8021 16.375 20.2161 15.7344 20.5078C15.099 20.7995 14.3359 20.9453 13.4453 20.9453ZM21.6719 13.625V25H19.3281V13.625H21.6719ZM26.2031 18.4844V20.3125H21.0312V18.4844H26.2031ZM26.75 13.625V15.4609H21.0312V13.625H26.75Z" fill="white"/>
<path d="M10.5469 20.9453H10.0469V21.4453H10.5469V20.9453ZM10.5469 19.1172V18.6172H10.0469V19.1172H10.5469ZM14.5391 18.8984L14.7692 19.3424L14.7756 19.3389L14.5391 18.8984ZM11.3594 15.4609V14.9609H10.8594V15.4609H11.3594ZM11.3594 25V25.5H11.8594V25H11.3594ZM9.01562 25H8.51562V25.5H9.01562V25ZM9.01562 13.625V13.125H8.51562V13.625H9.01562ZM15.7344 14.1094L15.5078 14.5551L15.5122 14.5573L15.7344 14.1094ZM15.7344 20.5078L15.5272 20.0528L15.5258 20.0534L15.7344 20.5078ZM13.4453 20.4453H10.5469V21.4453H13.4453V20.4453ZM11.0469 20.9453V19.1172H10.0469V20.9453H11.0469ZM10.5469 19.6172H13.4453V18.6172H10.5469V19.6172ZM13.4453 19.6172C13.9422 19.6172 14.3936 19.5371 14.7692 19.3423L14.3089 18.4546C14.122 18.5515 13.8442 18.6172 13.4453 18.6172V19.6172ZM14.7756 19.3389C15.1413 19.1426 15.4253 18.8606 15.6052 18.4935L14.7073 18.0534C14.6268 18.2176 14.4993 18.3522 14.3025 18.4579L14.7756 19.3389ZM15.6052 18.4935C15.773 18.1511 15.8516 17.7749 15.8516 17.375H14.8516C14.8516 17.6418 14.7999 17.8645 14.7073 18.0534L15.6052 18.4935ZM15.8516 17.375C15.8516 16.9705 15.7734 16.5855 15.6128 16.2259L14.6997 16.6335C14.7996 16.8572 14.8516 17.1024 14.8516 17.375H15.8516ZM15.6128 16.2259C15.4406 15.8401 15.1668 15.531 14.8055 15.3034L14.2727 16.1497C14.4738 16.2763 14.6115 16.4359 14.6997 16.6335L15.6128 16.2259ZM14.8055 15.3034C14.4212 15.0615 13.9557 14.9609 13.4453 14.9609V15.9609C13.8308 15.9609 14.0944 16.0374 14.2727 16.1497L14.8055 15.3034ZM13.4453 14.9609H11.3594V15.9609H13.4453V14.9609ZM10.8594 15.4609V25H11.8594V15.4609H10.8594ZM11.3594 24.5H9.01562V25.5H11.3594V24.5ZM9.51562 25V13.625H8.51562V25H9.51562ZM9.01562 14.125H13.4453V13.125H9.01562V14.125ZM13.4453 14.125C14.2764 14.125 14.9579 14.2757 15.5079 14.5551L15.9609 13.6636C15.24 13.2973 14.3954 13.125 13.4453 13.125V14.125ZM15.5122 14.5573C16.0753 14.8366 16.4898 15.214 16.7747 15.6875L17.6315 15.1719C17.2394 14.5203 16.6747 14.0176 15.9565 13.6614L15.5122 14.5573ZM16.7747 15.6875C17.0617 16.1643 17.2109 16.7167 17.2109 17.3594H18.2109C18.2109 16.5542 18.0216 15.82 17.6315 15.1719L16.7747 15.6875ZM17.2109 17.3594C17.2109 18.0145 17.0609 18.5541 16.7803 18.9988L17.626 19.5325C18.0225 18.9042 18.2109 18.173 18.2109 17.3594H17.2109ZM16.7803 18.9988C16.4994 19.4439 16.0892 19.7969 15.5272 20.0528L15.9416 20.9629C16.6608 20.6354 17.2298 20.1602 17.626 19.5325L16.7803 18.9988ZM15.5258 20.0534C14.9711 20.308 14.283 20.4453 13.4453 20.4453V21.4453C14.3889 21.4453 15.2268 21.291 15.943 20.9622L15.5258 20.0534ZM21.6719 13.625H22.1719V13.125H21.6719V13.625ZM21.6719 25V25.5H22.1719V25H21.6719ZM19.3281 25H18.8281V25.5H19.3281V25ZM19.3281 13.625V13.125H18.8281V13.625H19.3281ZM26.2031 18.4844H26.7031V17.9844H26.2031V18.4844ZM26.2031 20.3125V20.8125H26.7031V20.3125H26.2031ZM21.0312 20.3125H20.5312V20.8125H21.0312V20.3125ZM21.0312 18.4844V17.9844H20.5312V18.4844H21.0312ZM26.75 13.625H27.25V13.125H26.75V13.625ZM26.75 15.4609V15.9609H27.25V15.4609H26.75ZM21.0312 15.4609H20.5312V15.9609H21.0312V15.4609ZM21.0312 13.625V13.125H20.5312V13.625H21.0312ZM21.1719 13.625V25H22.1719V13.625H21.1719ZM21.6719 24.5H19.3281V25.5H21.6719V24.5ZM19.8281 25V13.625H18.8281V25H19.8281ZM19.3281 14.125H21.6719V13.125H19.3281V14.125ZM25.7031 18.4844V20.3125H26.7031V18.4844H25.7031ZM26.2031 19.8125H21.0312V20.8125H26.2031V19.8125ZM21.5312 20.3125V18.4844H20.5312V20.3125H21.5312ZM21.0312 18.9844H26.2031V17.9844H21.0312V18.9844ZM26.25 13.625V15.4609H27.25V13.625H26.25ZM26.75 14.9609H21.0312V15.9609H26.75V14.9609ZM21.5312 15.4609V13.625H20.5312V15.4609H21.5312ZM21.0312 14.125H26.75V13.125H21.0312V14.125Z" fill="#035763"/>
</svg>
