<svg width="46" height="46" viewBox="0 0 46 46" fill="none" xmlns="http://www.w3.org/2000/svg">
<path d="M24.9689 42.3736L24.9688 42.3737C24.5383 42.7293 23.9847 42.9279 23.408 42.9275C22.8317 42.927 22.2789 42.7276 21.8492 42.3718C21.8489 42.3716 21.8486 42.3713 21.8483 42.3711L21.1775 41.8114C21.1771 41.8111 21.1766 41.8107 21.1762 41.8103C11.4558 33.6305 6.75 26.3038 6.75 19.7411C6.75 10.9365 14.1809 3.75 23.4107 3.75C32.6406 3.75 40.0714 10.9365 40.0714 19.7411C40.0714 26.4555 35.1452 33.9704 24.9689 42.3736ZM23.4107 12.5522C21.4451 12.5522 19.5543 13.3027 18.1558 14.6475C16.7563 15.9932 15.9643 17.8248 15.9643 19.7411C15.9643 21.6574 16.7563 23.489 18.1558 24.8347C19.5543 26.1794 21.4451 26.9299 23.4107 26.9299C25.3763 26.9299 27.2671 26.1794 28.6656 24.8347C30.0652 23.489 30.8571 21.6574 30.8571 19.7411C30.8571 17.8248 30.0652 15.9932 28.6656 14.6475C27.2671 13.3027 25.3763 12.5522 23.4107 12.5522Z" fill="#F48067" stroke="#035763" stroke-width="1.5"/>
<rect x="14" y="10.6923" width="19" height="20.1923" fill="#F48067"/>
<mask id="path-3-outside-1_2204_1089" maskUnits="userSpaceOnUse" x="14" y="12" width="20" height="14" fill="black">
<rect fill="white" x="14" y="12" width="20" height="14"/>
<path d="M19.4453 20.9453H16.5469V19.1172H19.4453C19.8932 19.1172 20.2578 19.0443 20.5391 18.8984C20.8203 18.7474 21.026 18.5391 21.1562 18.2734C21.2865 18.0078 21.3516 17.7083 21.3516 17.375C21.3516 17.0365 21.2865 16.7214 21.1562 16.4297C21.026 16.138 20.8203 15.9036 20.5391 15.7266C20.2578 15.5495 19.8932 15.4609 19.4453 15.4609H17.3594V25H15.0156V13.625H19.4453C20.3359 13.625 21.099 13.7865 21.7344 14.1094C22.375 14.4271 22.8646 14.8672 23.2031 15.4297C23.5417 15.9922 23.7109 16.6354 23.7109 17.3594C23.7109 18.0938 23.5417 18.7292 23.2031 19.2656C22.8646 19.8021 22.375 20.2161 21.7344 20.5078C21.099 20.7995 20.3359 20.9453 19.4453 20.9453ZM27.6719 13.625V25H25.3281V13.625H27.6719ZM32.2031 18.4844V20.3125H27.0312V18.4844H32.2031ZM32.75 13.625V15.4609H27.0312V13.625H32.75Z"/>
</mask>
<path d="M19.4453 20.9453H16.5469V19.1172H19.4453C19.8932 19.1172 20.2578 19.0443 20.5391 18.8984C20.8203 18.7474 21.026 18.5391 21.1562 18.2734C21.2865 18.0078 21.3516 17.7083 21.3516 17.375C21.3516 17.0365 21.2865 16.7214 21.1562 16.4297C21.026 16.138 20.8203 15.9036 20.5391 15.7266C20.2578 15.5495 19.8932 15.4609 19.4453 15.4609H17.3594V25H15.0156V13.625H19.4453C20.3359 13.625 21.099 13.7865 21.7344 14.1094C22.375 14.4271 22.8646 14.8672 23.2031 15.4297C23.5417 15.9922 23.7109 16.6354 23.7109 17.3594C23.7109 18.0938 23.5417 18.7292 23.2031 19.2656C22.8646 19.8021 22.375 20.2161 21.7344 20.5078C21.099 20.7995 20.3359 20.9453 19.4453 20.9453ZM27.6719 13.625V25H25.3281V13.625H27.6719ZM32.2031 18.4844V20.3125H27.0312V18.4844H32.2031ZM32.75 13.625V15.4609H27.0312V13.625H32.75Z" fill="white"/>
<path d="M16.5469 20.9453H15.5469V21.9453H16.5469V20.9453ZM16.5469 19.1172V18.1172H15.5469V19.1172H16.5469ZM20.5391 18.8984L20.9994 19.7862L21.0058 19.7829L21.0122 19.7794L20.5391 18.8984ZM17.3594 15.4609V14.4609H16.3594V15.4609H17.3594ZM17.3594 25V26H18.3594V25H17.3594ZM15.0156 25H14.0156V26H15.0156V25ZM15.0156 13.625V12.625H14.0156V13.625H15.0156ZM21.7344 14.1094L21.2813 15.0009L21.2901 15.0053L21.7344 14.1094ZM21.7344 20.5078L21.32 19.5977L21.3172 19.599L21.7344 20.5078ZM19.4453 19.9453H16.5469V21.9453H19.4453V19.9453ZM17.5469 20.9453V19.1172H15.5469V20.9453H17.5469ZM16.5469 20.1172H19.4453V18.1172H16.5469V20.1172ZM19.4453 20.1172C19.9912 20.1172 20.5294 20.0299 20.9994 19.7862L20.0787 18.0107C19.9863 18.0586 19.7952 18.1172 19.4453 18.1172V20.1172ZM21.0122 19.7794C21.4622 19.5377 21.8245 19.1821 22.0542 18.7136L20.2583 17.8333C20.2276 17.8961 20.1784 17.9571 20.0659 18.0174L21.0122 19.7794ZM22.0542 18.7136C22.2596 18.2945 22.3516 17.8414 22.3516 17.375H20.3516C20.3516 17.5752 20.3133 17.7212 20.2583 17.8333L22.0542 18.7136ZM22.3516 17.375C22.3516 16.9046 22.2603 16.4496 22.0694 16.022L20.2431 16.8373C20.3127 16.9931 20.3516 17.1684 20.3516 17.375H22.3516ZM22.0694 16.022C21.8552 15.5422 21.5133 15.1583 21.0719 14.8803L20.0062 16.5728C20.1273 16.649 20.1969 16.7338 20.2431 16.8373L22.0694 16.022ZM21.0719 14.8803C20.5846 14.5735 20.0181 14.4609 19.4453 14.4609V16.4609C19.7683 16.4609 19.931 16.5254 20.0062 16.5728L21.0719 14.8803ZM19.4453 14.4609H17.3594V16.4609H19.4453V14.4609ZM16.3594 15.4609V25H18.3594V15.4609H16.3594ZM17.3594 24H15.0156V26H17.3594V24ZM16.0156 25V13.625H14.0156V25H16.0156ZM15.0156 14.625H19.4453V12.625H15.0156V14.625ZM19.4453 14.625C20.2169 14.625 20.8169 14.7649 21.2813 15.0009L22.1874 13.2179C21.381 12.8081 20.455 12.625 19.4453 12.625V14.625ZM21.2901 15.0053C21.7756 15.246 22.1149 15.5609 22.3463 15.9453L24.0599 14.914C23.6142 14.1735 22.9744 13.6081 22.1787 13.2135L21.2901 15.0053ZM22.3463 15.9453C22.5817 16.3365 22.7109 16.7979 22.7109 17.3594H24.7109C24.7109 16.4729 24.5016 15.6479 24.0599 14.914L22.3463 15.9453ZM22.7109 17.3594C22.7109 17.9352 22.5801 18.3791 22.3574 18.7319L24.0488 19.7993C24.5032 19.0792 24.7109 18.2523 24.7109 17.3594H22.7109ZM22.3574 18.7319C22.1341 19.0858 21.8034 19.3776 21.32 19.5977L22.1487 21.4179C22.9466 21.0547 23.595 20.5184 24.0488 19.7993L22.3574 18.7319ZM21.3172 19.599C20.8433 19.8165 20.23 19.9453 19.4453 19.9453V21.9453C20.4419 21.9453 21.3546 21.7825 22.1515 21.4166L21.3172 19.599ZM27.6719 13.625H28.6719V12.625H27.6719V13.625ZM27.6719 25V26H28.6719V25H27.6719ZM25.3281 25H24.3281V26H25.3281V25ZM25.3281 13.625V12.625H24.3281V13.625H25.3281ZM32.2031 18.4844H33.2031V17.4844H32.2031V18.4844ZM32.2031 20.3125V21.3125H33.2031V20.3125H32.2031ZM27.0312 20.3125H26.0312V21.3125H27.0312V20.3125ZM27.0312 18.4844V17.4844H26.0312V18.4844H27.0312ZM32.75 13.625H33.75V12.625H32.75V13.625ZM32.75 15.4609V16.4609H33.75V15.4609H32.75ZM27.0312 15.4609H26.0312V16.4609H27.0312V15.4609ZM27.0312 13.625V12.625H26.0312V13.625H27.0312ZM26.6719 13.625V25H28.6719V13.625H26.6719ZM27.6719 24H25.3281V26H27.6719V24ZM26.3281 25V13.625H24.3281V25H26.3281ZM25.3281 14.625H27.6719V12.625H25.3281V14.625ZM31.2031 18.4844V20.3125H33.2031V18.4844H31.2031ZM32.2031 19.3125H27.0312V21.3125H32.2031V19.3125ZM28.0312 20.3125V18.4844H26.0312V20.3125H28.0312ZM27.0312 19.4844H32.2031V17.4844H27.0312V19.4844ZM31.75 13.625V15.4609H33.75V13.625H31.75ZM32.75 14.4609H27.0312V16.4609H32.75V14.4609ZM28.0312 15.4609V13.625H26.0312V15.4609H28.0312ZM27.0312 14.625H32.75V12.625H27.0312V14.625Z" fill="#035763" mask="url(#path-3-outside-1_2204_1089)"/>
</svg>
