<svg width="72" height="72" viewBox="0 0 72 72" fill="none" xmlns="http://www.w3.org/2000/svg">
<path d="M37.9689 55.3736L37.9688 55.3737C37.5383 55.7293 36.9847 55.9279 36.408 55.9275C35.8316 55.927 35.2787 55.7276 34.849 55.3717C34.8487 55.3715 34.8485 55.3713 34.8483 55.3711L34.1775 54.8114C34.177 54.811 34.1766 54.8106 34.1761 54.8102C24.4558 46.6305 19.75 39.3038 19.75 32.7411C19.75 23.9365 27.1809 16.75 36.4107 16.75C45.6406 16.75 53.0714 23.9365 53.0714 32.7411C53.0714 39.4555 48.1452 46.9704 37.9689 55.3736ZM36.4107 25.5522C34.4451 25.5522 32.5543 26.3027 31.1558 27.6475C29.7563 28.9932 28.9643 30.8248 28.9643 32.7411C28.9643 34.6574 29.7563 36.489 31.1558 37.8347C32.5543 39.1794 34.4451 39.9299 36.4107 39.9299C38.3763 39.9299 40.2671 39.1794 41.6656 37.8347C43.0652 36.489 43.8571 34.6574 43.8571 32.7411C43.8571 30.8248 43.0652 28.9932 41.6656 27.6475C40.2671 26.3027 38.3763 25.5522 36.4107 25.5522Z" fill="#F48067" stroke="#035763" stroke-width="1.5"/>
<rect x="27" y="23.6923" width="19" height="20.1923" fill="#F48067"/>
<path d="M32.4453 33.9453H29.5469V32.1172H32.4453C32.8932 32.1172 33.2578 32.0443 33.5391 31.8984C33.8203 31.7474 34.026 31.5391 34.1562 31.2734C34.2865 31.0078 34.3516 30.7083 34.3516 30.375C34.3516 30.0365 34.2865 29.7214 34.1562 29.4297C34.026 29.138 33.8203 28.9036 33.5391 28.7266C33.2578 28.5495 32.8932 28.4609 32.4453 28.4609H30.3594V38H28.0156V26.625H32.4453C33.3359 26.625 34.099 26.7865 34.7344 27.1094C35.375 27.4271 35.8646 27.8672 36.2031 28.4297C36.5417 28.9922 36.7109 29.6354 36.7109 30.3594C36.7109 31.0938 36.5417 31.7292 36.2031 32.2656C35.8646 32.8021 35.375 33.2161 34.7344 33.5078C34.099 33.7995 33.3359 33.9453 32.4453 33.9453ZM40.6719 26.625V38H38.3281V26.625H40.6719ZM45.2031 31.4844V33.3125H40.0312V31.4844H45.2031ZM45.75 26.625V28.4609H40.0312V26.625H45.75Z" fill="white"/>
<path d="M29.5469 33.9453H28.5469V34.9453H29.5469V33.9453ZM29.5469 32.1172V31.1172H28.5469V32.1172H29.5469ZM33.5391 31.8984L33.9994 32.7862L34.0058 32.7829L34.0122 32.7794L33.5391 31.8984ZM30.3594 28.4609V27.4609H29.3594V28.4609H30.3594ZM30.3594 38V39H31.3594V38H30.3594ZM28.0156 38H27.0156V39H28.0156V38ZM28.0156 26.625V25.625H27.0156V26.625H28.0156ZM34.7344 27.1094L34.2813 28.0009L34.2901 28.0053L34.7344 27.1094ZM34.7344 33.5078L34.32 32.5977L34.3172 32.599L34.7344 33.5078ZM32.4453 32.9453H29.5469V34.9453H32.4453V32.9453ZM30.5469 33.9453V32.1172H28.5469V33.9453H30.5469ZM29.5469 33.1172H32.4453V31.1172H29.5469V33.1172ZM32.4453 33.1172C32.9912 33.1172 33.5294 33.0299 33.9994 32.7862L33.0787 31.0107C32.9863 31.0586 32.7952 31.1172 32.4453 31.1172V33.1172ZM34.0122 32.7794C34.4622 32.5377 34.8245 32.1821 35.0542 31.7136L33.2583 30.8333C33.2276 30.8961 33.1784 30.9571 33.0659 31.0174L34.0122 32.7794ZM35.0542 31.7136C35.2596 31.2945 35.3516 30.8414 35.3516 30.375H33.3516C33.3516 30.5752 33.3133 30.7212 33.2583 30.8333L35.0542 31.7136ZM35.3516 30.375C35.3516 29.9046 35.2603 29.4496 35.0694 29.022L33.2431 29.8373C33.3127 29.9931 33.3516 30.1684 33.3516 30.375H35.3516ZM35.0694 29.022C34.8552 28.5422 34.5133 28.1583 34.0719 27.8803L33.0062 29.5728C33.1273 29.649 33.1969 29.7338 33.2431 29.8373L35.0694 29.022ZM34.0719 27.8803C33.5846 27.5735 33.0181 27.4609 32.4453 27.4609V29.4609C32.7683 29.4609 32.931 29.5254 33.0062 29.5728L34.0719 27.8803ZM32.4453 27.4609H30.3594V29.4609H32.4453V27.4609ZM29.3594 28.4609V38H31.3594V28.4609H29.3594ZM30.3594 37H28.0156V39H30.3594V37ZM29.0156 38V26.625H27.0156V38H29.0156ZM28.0156 27.625H32.4453V25.625H28.0156V27.625ZM32.4453 27.625C33.2169 27.625 33.8169 27.7649 34.2813 28.0009L35.1874 26.2179C34.381 25.8081 33.455 25.625 32.4453 25.625V27.625ZM34.2901 28.0053C34.7756 28.246 35.1149 28.5609 35.3463 28.9453L37.0599 27.914C36.6142 27.1735 35.9744 26.6081 35.1787 26.2135L34.2901 28.0053ZM35.3463 28.9453C35.5817 29.3365 35.7109 29.7979 35.7109 30.3594H37.7109C37.7109 29.4729 37.5016 28.6479 37.0599 27.914L35.3463 28.9453ZM35.7109 30.3594C35.7109 30.9352 35.5801 31.3791 35.3574 31.7319L37.0488 32.7993C37.5032 32.0792 37.7109 31.2523 37.7109 30.3594H35.7109ZM35.3574 31.7319C35.1341 32.0858 34.8034 32.3776 34.32 32.5977L35.1487 34.4179C35.9466 34.0547 36.595 33.5184 37.0488 32.7993L35.3574 31.7319ZM34.3172 32.599C33.8433 32.8165 33.23 32.9453 32.4453 32.9453V34.9453C33.4419 34.9453 34.3546 34.7825 35.1515 34.4166L34.3172 32.599ZM40.6719 26.625H41.6719V25.625H40.6719V26.625ZM40.6719 38V39H41.6719V38H40.6719ZM38.3281 38H37.3281V39H38.3281V38ZM38.3281 26.625V25.625H37.3281V26.625H38.3281ZM45.2031 31.4844H46.2031V30.4844H45.2031V31.4844ZM45.2031 33.3125V34.3125H46.2031V33.3125H45.2031ZM40.0312 33.3125H39.0312V34.3125H40.0312V33.3125ZM40.0312 31.4844V30.4844H39.0312V31.4844H40.0312ZM45.75 26.625H46.75V25.625H45.75V26.625ZM45.75 28.4609V29.4609H46.75V28.4609H45.75ZM40.0312 28.4609H39.0312V29.4609H40.0312V28.4609ZM40.0312 26.625V25.625H39.0312V26.625H40.0312ZM39.6719 26.625V38H41.6719V26.625H39.6719ZM40.6719 37H38.3281V39H40.6719V37ZM39.3281 38V26.625H37.3281V38H39.3281ZM38.3281 27.625H40.6719V25.625H38.3281V27.625ZM44.2031 31.4844V33.3125H46.2031V31.4844H44.2031ZM45.2031 32.3125H40.0312V34.3125H45.2031V32.3125ZM41.0312 33.3125V31.4844H39.0312V33.3125H41.0312ZM40.0312 32.4844H45.2031V30.4844H40.0312V32.4844ZM44.75 26.625V28.4609H46.75V26.625H44.75ZM45.75 27.4609H40.0312V29.4609H45.75V27.4609ZM41.0312 28.4609V26.625H39.0312V28.4609H41.0312ZM40.0312 27.625H45.75V25.625H40.0312V27.625Z" fill="#035763"/>
</svg>
