<svg width="51" height="53" viewBox="0 0 51 53" fill="none" xmlns="http://www.w3.org/2000/svg">
<path d="M26.4923 46.9763L26.4922 46.9763C26.0501 47.3487 25.4838 47.5551 24.8962 47.5546C24.3088 47.554 23.7433 47.347 23.3019 46.9742C23.3016 46.974 23.3014 46.9738 23.3012 46.9736L22.6169 46.3915C22.6166 46.3912 22.6162 46.3909 22.6159 46.3906C12.7025 37.8849 7.89001 30.2564 7.89001 23.4107C7.89001 14.2228 15.4907 6.75 24.8989 6.75C34.3072 6.75 41.9079 14.2228 41.9079 23.4107C41.9079 30.4143 36.8702 38.2385 26.4923 46.9763ZM24.8989 15.9643C22.8932 15.9643 20.9668 16.7453 19.5441 18.1401C18.1209 19.5353 17.3186 21.431 17.3186 23.4107C17.3186 25.3905 18.1209 27.2861 19.5441 28.6814C20.9668 30.0761 22.8932 30.8571 24.8989 30.8571C26.9046 30.8571 28.8311 30.0761 30.2538 28.6814C31.677 27.2861 32.4793 25.3905 32.4793 23.4107C32.4793 21.431 31.677 19.5354 30.2538 18.1401C28.8311 16.7453 26.9046 15.9643 24.8989 15.9643Z" fill="#4F4F4F" stroke="#035763" stroke-width="1.5"/>
<rect x="14.28" y="14.0863" width="21.42" height="21" rx="3" fill="#4F4F4F"/>
<path d="M28.6291 14.5863C29.3712 14.5863 29.9181 15.3285 29.7228 16.0316L27.6134 23.3363H30.9728C31.715 23.3363 32.3009 23.9613 32.3009 24.7035C32.3009 25.1332 32.1447 25.4847 31.8322 25.7582L21.715 34.3519C21.5197 34.5082 21.2853 34.5863 21.0119 34.5863C20.2697 34.5863 19.7228 33.8832 19.9181 33.1801L22.0275 25.8363H18.6291C17.9259 25.8363 17.34 25.2504 17.34 24.5472C17.34 24.1566 17.4962 23.8051 17.7697 23.5316L27.9259 14.8597C28.1212 14.7035 28.3556 14.5863 28.6291 14.5863ZM27.2228 17.9066L20.1525 23.9613H23.2775C23.5509 23.9613 23.8244 24.1176 24.0197 24.3519C24.1759 24.5863 24.2541 24.8988 24.1759 25.1722L22.4181 31.3051L29.5666 25.2113H26.4025C26.09 25.2113 25.8166 25.0941 25.6212 24.8597C25.465 24.6254 25.3869 24.3129 25.465 24.0394L27.2228 17.9066Z" fill="white"/>
<path d="M29.7228 16.0316L30.2032 16.1703L30.2046 16.1654L29.7228 16.0316ZM27.6134 23.3363L27.1331 23.1976L26.9486 23.8363H27.6134V23.3363ZM31.8322 25.7582L32.1559 26.1393L32.1614 26.1345L31.8322 25.7582ZM21.715 34.3519L22.0273 34.7424L22.0331 34.7378L22.0387 34.733L21.715 34.3519ZM19.9181 33.1801L19.4375 33.042L19.4364 33.0462L19.9181 33.1801ZM22.0275 25.8363L22.5081 25.9743L22.6913 25.3363H22.0275V25.8363ZM17.7697 23.5316L17.445 23.1514L17.43 23.1641L17.4161 23.1781L17.7697 23.5316ZM27.9259 14.8597L27.6136 14.4693L27.6073 14.4743L27.6013 14.4795L27.9259 14.8597ZM27.2228 17.9066L27.7035 18.0444L28.1622 16.4439L26.8976 17.5268L27.2228 17.9066ZM20.1525 23.9613L19.8273 23.5815L18.7999 24.4613H20.1525V23.9613ZM24.0197 24.3519L24.4357 24.0746L24.4209 24.0524L24.4038 24.0318L24.0197 24.3519ZM24.1759 25.1722L24.6566 25.31L24.6567 25.3096L24.1759 25.1722ZM22.4181 31.3051L21.9375 31.1673L21.4806 32.7613L22.7425 31.6856L22.4181 31.3051ZM29.5666 25.2113L29.8909 25.5918L30.9238 24.7113H29.5666V25.2113ZM25.6212 24.8597L25.2052 25.1371L25.22 25.1593L25.2371 25.1798L25.6212 24.8597ZM25.465 24.0394L24.9843 23.9017L24.9842 23.9021L25.465 24.0394ZM28.6291 15.0863C29.0335 15.0863 29.3498 15.5064 29.241 15.8978L30.2046 16.1654C30.4865 15.1506 29.709 14.0863 28.6291 14.0863V15.0863ZM29.2424 15.8929L27.1331 23.1976L28.0938 23.475L30.2032 16.1703L29.2424 15.8929ZM27.6134 23.8363H30.9728V22.8363H27.6134V23.8363ZM30.9728 23.8363C31.4202 23.8363 31.8009 24.2184 31.8009 24.7035H32.8009C32.8009 23.7042 32.0098 22.8363 30.9728 22.8363V23.8363ZM31.8009 24.7035C31.8009 24.9947 31.7027 25.2071 31.5029 25.3819L32.1614 26.1345C32.5867 25.7624 32.8009 25.2716 32.8009 24.7035H31.8009ZM31.5085 25.3771L21.3913 33.9709L22.0387 34.733L32.1559 26.1393L31.5085 25.3771ZM21.4026 33.9615C21.3044 34.0401 21.1831 34.0863 21.0119 34.0863V35.0863C21.3876 35.0863 21.7349 34.9763 22.0273 34.7424L21.4026 33.9615ZM21.0119 34.0863C20.588 34.0863 20.2963 33.6867 20.3999 33.3139L19.4364 33.0462C19.1493 34.0797 19.9513 35.0863 21.0119 35.0863V34.0863ZM20.3987 33.3181L22.5081 25.9743L21.5469 25.6983L19.4376 33.042L20.3987 33.3181ZM22.0275 25.3363H18.6291V26.3363H22.0275V25.3363ZM18.6291 25.3363C18.2021 25.3363 17.84 24.9742 17.84 24.5472H16.84C16.84 25.5265 17.6498 26.3363 18.6291 26.3363V25.3363ZM17.84 24.5472C17.84 24.2979 17.9373 24.0712 18.1232 23.8852L17.4161 23.1781C17.0552 23.539 16.84 24.0153 16.84 24.5472H17.84ZM18.0944 23.9119L28.2506 15.24L27.6013 14.4795L17.445 23.1514L18.0944 23.9119ZM28.2383 15.2502C28.3792 15.1374 28.5064 15.0863 28.6291 15.0863V14.0863C28.2049 14.0863 27.8633 14.2695 27.6136 14.4693L28.2383 15.2502ZM26.8976 17.5268L19.8273 23.5815L20.4777 24.3411L27.548 18.2864L26.8976 17.5268ZM20.1525 24.4613H23.2775V23.4613H20.1525V24.4613ZM23.2775 24.4613C23.3639 24.4613 23.5073 24.5182 23.6356 24.672L24.4038 24.0318C24.1414 23.717 23.738 23.4613 23.2775 23.4613V24.4613ZM23.6037 24.6293C23.6996 24.7732 23.7236 24.9353 23.6952 25.0349L24.6567 25.3096C24.7845 24.8623 24.6522 24.3994 24.4357 24.0746L23.6037 24.6293ZM23.6953 25.0345L21.9375 31.1673L22.8988 31.4428L24.6566 25.31L23.6953 25.0345ZM22.7425 31.6856L29.8909 25.5918L29.2422 24.8308L22.0938 30.9245L22.7425 31.6856ZM29.5666 24.7113H26.4025V25.7113H29.5666V24.7113ZM26.4025 24.7113C26.2235 24.7113 26.0965 24.6491 26.0054 24.5396L25.2371 25.1798C25.5366 25.5392 25.9565 25.7113 26.4025 25.7113V24.7113ZM26.0373 24.5824C25.9413 24.4384 25.9173 24.2763 25.9458 24.1768L24.9842 23.9021C24.8564 24.3494 24.9887 24.8123 25.2052 25.1371L26.0373 24.5824ZM25.9456 24.1772L27.7035 18.0444L26.7422 17.7689L24.9844 23.9017L25.9456 24.1772Z" fill="#035763"/>
</svg>
