<svg width="35" height="43" viewBox="0 0 35 43" fill="none" xmlns="http://www.w3.org/2000/svg">
<path d="M19.2836 41.3603L19.2835 41.3604C18.7615 41.8088 18.0958 42.0552 17.4076 42.0546C16.7195 42.0539 16.0545 41.8066 15.5333 41.3574C15.5332 41.3573 15.533 41.3572 15.5329 41.3571L14.8593 40.7726C14.8592 40.7725 14.8591 40.7724 14.859 40.7723C5.11787 32.2474 0.25 24.4899 0.25 17.4107C0.25 7.93271 7.93271 0.25 17.4107 0.25C26.8887 0.25 34.5714 7.93271 34.5714 17.4107C34.5714 24.6521 29.4776 32.6058 19.2836 41.3603ZM17.4107 10.4643C15.5684 10.4643 13.8016 11.1961 12.4988 12.4988C11.1961 13.8016 10.4643 15.5684 10.4643 17.4107C10.4643 19.253 11.1961 21.0199 12.4988 22.3226C13.8016 23.6253 15.5684 24.3571 17.4107 24.3571C19.253 24.3571 21.0199 23.6253 22.3226 22.3226C23.6253 21.0199 24.3571 19.253 24.3571 17.4107C24.3571 15.5684 23.6253 13.8016 22.3226 12.4988C21.0199 11.1961 19.253 10.4643 17.4107 10.4643Z" fill="#4F4F4F" stroke="#035763" stroke-width="0.5"/>
<rect x="7" y="8.0863" width="21" height="21" rx="3" fill="#4F4F4F"/>
<path d="M21.2891 8.5863C22.0312 8.5863 22.5781 9.32849 22.3828 10.0316L20.2734 17.3363H23.6328C24.375 17.3363 24.9609 17.9613 24.9609 18.7035C24.9609 19.1332 24.8047 19.4847 24.4922 19.7582L14.375 28.3519C14.1797 28.5082 13.9453 28.5863 13.6719 28.5863C12.9297 28.5863 12.3828 27.8832 12.5781 27.1801L14.6875 19.8363H11.2891C10.5859 19.8363 10 19.2504 10 18.5472C10 18.1566 10.1562 17.8051 10.4297 17.5316L20.5859 8.85974C20.7812 8.70349 21.0156 8.5863 21.2891 8.5863ZM19.8828 11.9066L12.8125 17.9613H15.9375C16.2109 17.9613 16.4844 18.1176 16.6797 18.3519C16.8359 18.5863 16.9141 18.8988 16.8359 19.1722L15.0781 25.3051L22.2266 19.2113H19.0625C18.75 19.2113 18.4766 19.0941 18.2812 18.8597C18.125 18.6254 18.0469 18.3129 18.125 18.0394L19.8828 11.9066Z" fill="white"/>
<path d="M22.3828 10.0316L22.8632 10.1703L22.8646 10.1654L22.3828 10.0316ZM20.2734 17.3363L19.7931 17.1976L19.6086 17.8363H20.2734V17.3363ZM24.4922 19.7582L24.8159 20.1393L24.8214 20.1345L24.4922 19.7582ZM14.375 28.3519L14.6873 28.7424L14.6931 28.7378L14.6987 28.733L14.375 28.3519ZM12.5781 27.1801L12.0975 27.042L12.0964 27.0462L12.5781 27.1801ZM14.6875 19.8363L15.1681 19.9743L15.3513 19.3363H14.6875V19.8363ZM10.4297 17.5316L10.105 17.1514L10.09 17.1641L10.0761 17.1781L10.4297 17.5316ZM20.5859 8.85974L20.2736 8.46931L20.2673 8.4743L20.2613 8.47949L20.5859 8.85974ZM19.8828 11.9066L20.3635 12.0444L20.8222 10.4439L19.5576 11.5268L19.8828 11.9066ZM12.8125 17.9613L12.4873 17.5815L11.4599 18.4613H12.8125V17.9613ZM16.6797 18.3519L17.0957 18.0746L17.0809 18.0524L17.0638 18.0318L16.6797 18.3519ZM16.8359 19.1722L17.3166 19.31L17.3167 19.3096L16.8359 19.1722ZM15.0781 25.3051L14.5975 25.1673L14.1406 26.7613L15.4025 25.6856L15.0781 25.3051ZM22.2266 19.2113L22.5509 19.5918L23.5838 18.7113H22.2266V19.2113ZM18.2812 18.8597L17.8652 19.1371L17.88 19.1593L17.8971 19.1798L18.2812 18.8597ZM18.125 18.0394L17.6444 17.9017L17.6442 17.9021L18.125 18.0394ZM21.2891 9.0863C21.6935 9.0863 22.0098 9.50643 21.9011 9.89779L22.8646 10.1654C23.1465 9.15055 22.369 8.0863 21.2891 8.0863V9.0863ZM21.9024 9.8929L19.7931 17.1976L20.7538 17.475L22.8632 10.1703L21.9024 9.8929ZM20.2734 17.8363H23.6328V16.8363H20.2734V17.8363ZM23.6328 17.8363C24.0802 17.8363 24.4609 18.2184 24.4609 18.7035H25.4609C25.4609 17.7042 24.6698 16.8363 23.6328 16.8363V17.8363ZM24.4609 18.7035C24.4609 18.9947 24.3627 19.2071 24.1629 19.3819L24.8214 20.1345C25.2467 19.7624 25.4609 19.2716 25.4609 18.7035H24.4609ZM24.1685 19.3771L14.0513 27.9708L14.6987 28.733L24.8159 20.1393L24.1685 19.3771ZM14.0627 27.9615C13.9644 28.0401 13.8431 28.0863 13.6719 28.0863V29.0863C14.0476 29.0863 14.395 28.9763 14.6873 28.7424L14.0627 27.9615ZM13.6719 28.0863C13.248 28.0863 12.9563 27.6867 13.0599 27.3139L12.0964 27.0462C11.8093 28.0797 12.6113 29.0863 13.6719 29.0863V28.0863ZM13.0587 27.3181L15.1681 19.9743L14.2069 19.6983L12.0976 27.042L13.0587 27.3181ZM14.6875 19.3363H11.2891V20.3363H14.6875V19.3363ZM11.2891 19.3363C10.8621 19.3363 10.5 18.9742 10.5 18.5472H9.5C9.5 19.5265 10.3098 20.3363 11.2891 20.3363V19.3363ZM10.5 18.5472C10.5 18.2979 10.5973 18.0712 10.7832 17.8852L10.0761 17.1781C9.71524 17.539 9.5 18.0153 9.5 18.5472H10.5ZM10.7544 17.9119L20.9106 9.23999L20.2613 8.47949L10.105 17.1514L10.7544 17.9119ZM20.8983 9.25018C21.0392 9.13745 21.1664 9.0863 21.2891 9.0863V8.0863C20.8649 8.0863 20.5233 8.26953 20.2736 8.46931L20.8983 9.25018ZM19.5576 11.5268L12.4873 17.5815L13.1377 18.3411L20.208 12.2864L19.5576 11.5268ZM12.8125 18.4613H15.9375V17.4613H12.8125V18.4613ZM15.9375 18.4613C16.0239 18.4613 16.1674 18.5182 16.2956 18.672L17.0638 18.0318C16.8014 17.717 16.398 17.4613 15.9375 17.4613V18.4613ZM16.2637 18.6293C16.3596 18.7732 16.3836 18.9353 16.3552 19.0349L17.3167 19.3096C17.4445 18.8623 17.3122 18.3994 17.0957 18.0746L16.2637 18.6293ZM16.3553 19.0345L14.5975 25.1673L15.5588 25.4428L17.3166 19.31L16.3553 19.0345ZM15.4025 25.6856L22.5509 19.5918L21.9022 18.8308L14.7538 24.9245L15.4025 25.6856ZM22.2266 18.7113H19.0625V19.7113H22.2266V18.7113ZM19.0625 18.7113C18.8835 18.7113 18.7565 18.6491 18.6654 18.5396L17.8971 19.1798C18.1966 19.5392 18.6165 19.7113 19.0625 19.7113V18.7113ZM18.6973 18.5824C18.6013 18.4384 18.5773 18.2763 18.6058 18.1768L17.6442 17.9021C17.5164 18.3494 17.6487 18.8123 17.8652 19.1371L18.6973 18.5824ZM18.6056 18.1772L20.3635 12.0444L19.4022 11.7689L17.6444 17.9017L18.6056 18.1772Z" fill="#035763"/>
</svg>
