<svg width="72" height="72" viewBox="0 0 72 72" fill="none" xmlns="http://www.w3.org/2000/svg">
<path d="M37.9689 55.3736L37.9688 55.3737C37.5383 55.7293 36.9847 55.9279 36.408 55.9275C35.8316 55.927 35.2787 55.7276 34.849 55.3717C34.8487 55.3715 34.8485 55.3713 34.8483 55.3711L34.1775 54.8114C34.177 54.811 34.1766 54.8106 34.1761 54.8102C24.4558 46.6305 19.75 39.3038 19.75 32.7411C19.75 23.9365 27.1809 16.75 36.4107 16.75C45.6406 16.75 53.0714 23.9365 53.0714 32.7411C53.0714 39.4555 48.1452 46.9704 37.9689 55.3736ZM36.4107 25.5522C34.4451 25.5522 32.5543 26.3027 31.1558 27.6475C29.7563 28.9932 28.9643 30.8248 28.9643 32.7411C28.9643 34.6574 29.7563 36.489 31.1558 37.8347C32.5543 39.1794 34.4451 39.9299 36.4107 39.9299C38.3763 39.9299 40.2671 39.1794 41.6656 37.8347C43.0652 36.489 43.8571 34.6574 43.8571 32.7411C43.8571 30.8248 43.0652 28.9932 41.6656 27.6475C40.2671 26.3027 38.3763 25.5522 36.4107 25.5522Z" fill="#504745" stroke="#035763" stroke-width="1.5"/>
<rect x="27" y="23.6923" width="19" height="20.1923" fill="#504745"/>
<path d="M40.2891 23.5C41.0312 23.5 41.5781 24.2422 41.3828 24.9453L39.2734 32.25H42.6328C43.375 32.25 43.9609 32.875 43.9609 33.6172C43.9609 34.0469 43.8047 34.3984 43.4922 34.6719L33.375 43.2656C33.1797 43.4219 32.9453 43.5 32.6719 43.5C31.9297 43.5 31.3828 42.7969 31.5781 42.0938L33.6875 34.75H30.2891C29.5859 34.75 29 34.1641 29 33.4609C29 33.0703 29.1562 32.7188 29.4297 32.4453L39.5859 23.7734C39.7812 23.6172 40.0156 23.5 40.2891 23.5ZM38.8828 26.8203L31.8125 32.875H34.9375C35.2109 32.875 35.4844 33.0312 35.6797 33.2656C35.8359 33.5 35.9141 33.8125 35.8359 34.0859L34.0781 40.2188L41.2266 34.125H38.0625C37.75 34.125 37.4766 34.0078 37.2812 33.7734C37.125 33.5391 37.0469 33.2266 37.125 32.9531L38.8828 26.8203Z" fill="white"/>
<path d="M41.3828 24.9453L41.8632 25.084L41.8646 25.0791L41.3828 24.9453ZM39.2734 32.25L38.7931 32.1113L38.6086 32.75H39.2734V32.25ZM43.4922 34.6719L43.8159 35.053L43.8214 35.0482L43.4922 34.6719ZM33.375 43.2656L33.6873 43.6561L33.6931 43.6515L33.6987 43.6467L33.375 43.2656ZM31.5781 42.0938L31.0975 41.9557L31.0964 41.9599L31.5781 42.0938ZM33.6875 34.75L34.1681 34.888L34.3513 34.25H33.6875V34.75ZM29.4297 32.4453L29.105 32.0651L29.09 32.0778L29.0761 32.0918L29.4297 32.4453ZM39.5859 23.7734L39.2736 23.383L39.2673 23.388L39.2613 23.3932L39.5859 23.7734ZM38.8828 26.8203L39.3635 26.9581L39.8222 25.3576L38.5576 26.4405L38.8828 26.8203ZM31.8125 32.875L31.4873 32.4952L30.4599 33.375H31.8125V32.875ZM35.6797 33.2656L36.0957 32.9883L36.0809 32.9661L36.0638 32.9455L35.6797 33.2656ZM35.8359 34.0859L36.3166 34.2237L36.3167 34.2233L35.8359 34.0859ZM34.0781 40.2188L33.5975 40.081L33.1406 41.675L34.4025 40.5993L34.0781 40.2188ZM41.2266 34.125L41.5509 34.5055L42.5838 33.625H41.2266V34.125ZM37.2812 33.7734L36.8652 34.0508L36.88 34.073L36.8971 34.0935L37.2812 33.7734ZM37.125 32.9531L36.6444 32.8154L36.6442 32.8158L37.125 32.9531ZM40.2891 24C40.6935 24 41.0098 24.4201 40.9011 24.8115L41.8646 25.0791C42.1465 24.0642 41.369 23 40.2891 23V24ZM40.9024 24.8066L38.7931 32.1113L39.7538 32.3887L41.8632 25.084L40.9024 24.8066ZM39.2734 32.75H42.6328V31.75H39.2734V32.75ZM42.6328 32.75C43.0802 32.75 43.4609 33.1321 43.4609 33.6172H44.4609C44.4609 32.6179 43.6698 31.75 42.6328 31.75V32.75ZM43.4609 33.6172C43.4609 33.9084 43.3627 34.1208 43.1629 34.2956L43.8214 35.0482C44.2467 34.6761 44.4609 34.1853 44.4609 33.6172H43.4609ZM43.1685 34.2908L33.0513 42.8845L33.6987 43.6467L43.8159 35.053L43.1685 34.2908ZM33.0627 42.8752C32.9644 42.9538 32.8431 43 32.6719 43V44C33.0476 44 33.395 43.89 33.6873 43.6561L33.0627 42.8752ZM32.6719 43C32.248 43 31.9563 42.6003 32.0599 42.2276L31.0964 41.9599C30.8093 42.9934 31.6113 44 32.6719 44V43ZM32.0587 42.2318L34.1681 34.888L33.2069 34.612L31.0976 41.9557L32.0587 42.2318ZM33.6875 34.25H30.2891V35.25H33.6875V34.25ZM30.2891 34.25C29.8621 34.25 29.5 33.8879 29.5 33.4609H28.5C28.5 34.4402 29.3098 35.25 30.2891 35.25V34.25ZM29.5 33.4609C29.5 33.2116 29.5973 32.9848 29.7832 32.7989L29.0761 32.0918C28.7152 32.4527 28.5 32.929 28.5 33.4609H29.5ZM29.7544 32.8256L39.9106 24.1537L39.2613 23.3932L29.105 32.0651L29.7544 32.8256ZM39.8983 24.1639C40.0392 24.0511 40.1664 24 40.2891 24V23C39.8649 23 39.5233 23.1832 39.2736 23.383L39.8983 24.1639ZM38.5576 26.4405L31.4873 32.4952L32.1377 33.2548L39.208 27.2001L38.5576 26.4405ZM31.8125 33.375H34.9375V32.375H31.8125V33.375ZM34.9375 33.375C35.0239 33.375 35.1674 33.4318 35.2956 33.5857L36.0638 32.9455C35.8014 32.6307 35.398 32.375 34.9375 32.375V33.375ZM35.2637 33.543C35.3596 33.6869 35.3836 33.849 35.3552 33.9486L36.3167 34.2233C36.4445 33.776 36.3122 33.3131 36.0957 32.9883L35.2637 33.543ZM35.3553 33.9482L33.5975 40.081L34.5588 40.3565L36.3166 34.2237L35.3553 33.9482ZM34.4025 40.5993L41.5509 34.5055L40.9022 33.7445L33.7538 39.8382L34.4025 40.5993ZM41.2266 33.625H38.0625V34.625H41.2266V33.625ZM38.0625 33.625C37.8835 33.625 37.7565 33.5628 37.6654 33.4533L36.8971 34.0935C37.1966 34.4529 37.6165 34.625 38.0625 34.625V33.625ZM37.6973 33.4961C37.6013 33.3521 37.5773 33.19 37.6058 33.0905L36.6442 32.8158C36.5164 33.2631 36.6487 33.726 36.8652 34.0508L37.6973 33.4961ZM37.6056 33.0909L39.3635 26.9581L38.4022 26.6825L36.6444 32.8154L37.6056 33.0909Z" fill="#035763"/>
</svg>
