<svg width="46" height="46" viewBox="0 0 46 46" fill="none" xmlns="http://www.w3.org/2000/svg">
<path d="M24.9689 42.3736L24.9688 42.3737C24.5383 42.7293 23.9847 42.9279 23.408 42.9275C22.8317 42.927 22.2789 42.7276 21.8492 42.3718C21.8489 42.3716 21.8486 42.3713 21.8483 42.3711L21.1775 41.8114C21.1771 41.8111 21.1766 41.8107 21.1762 41.8103C11.4558 33.6305 6.75 26.3038 6.75 19.7411C6.75 10.9365 14.1809 3.75 23.4107 3.75C32.6406 3.75 40.0714 10.9365 40.0714 19.7411C40.0714 26.4555 35.1452 33.9704 24.9689 42.3736ZM23.4107 12.5522C21.4451 12.5522 19.5543 13.3027 18.1558 14.6475C16.7563 15.9932 15.9643 17.8248 15.9643 19.7411C15.9643 21.6574 16.7563 23.489 18.1558 24.8347C19.5543 26.1794 21.4451 26.9299 23.4107 26.9299C25.3763 26.9299 27.2671 26.1794 28.6656 24.8347C30.0652 23.489 30.8571 21.6574 30.8571 19.7411C30.8571 17.8248 30.0652 15.9932 28.6656 14.6475C27.2671 13.3027 25.3763 12.5522 23.4107 12.5522Z" fill="#504745" stroke="#035763" stroke-width="1.5"/>
<rect x="14" y="10.6923" width="19" height="20.1923" fill="#504745"/>
<mask id="path-3-outside-1_2204_1046" maskUnits="userSpaceOnUse" x="15" y="10" width="17" height="21" fill="black">
<rect fill="white" x="15" y="10" width="17" height="21"/>
<path d="M27.2891 10.5C28.0312 10.5 28.5781 11.2422 28.3828 11.9453L26.2734 19.25H29.6328C30.375 19.25 30.9609 19.875 30.9609 20.6172C30.9609 21.0469 30.8047 21.3984 30.4922 21.6719L20.375 30.2656C20.1797 30.4219 19.9453 30.5 19.6719 30.5C18.9297 30.5 18.3828 29.7969 18.5781 29.0938L20.6875 21.75H17.2891C16.5859 21.75 16 21.1641 16 20.4609C16 20.0703 16.1562 19.7188 16.4297 19.4453L26.5859 10.7734C26.7812 10.6172 27.0156 10.5 27.2891 10.5ZM25.8828 13.8203L18.8125 19.875H21.9375C22.2109 19.875 22.4844 20.0312 22.6797 20.2656C22.8359 20.5 22.9141 20.8125 22.8359 21.0859L21.0781 27.2188L28.2266 21.125H25.0625C24.75 21.125 24.4766 21.0078 24.2812 20.7734C24.125 20.5391 24.0469 20.2266 24.125 19.9531L25.8828 13.8203Z"/>
</mask>
<path d="M27.2891 10.5C28.0312 10.5 28.5781 11.2422 28.3828 11.9453L26.2734 19.25H29.6328C30.375 19.25 30.9609 19.875 30.9609 20.6172C30.9609 21.0469 30.8047 21.3984 30.4922 21.6719L20.375 30.2656C20.1797 30.4219 19.9453 30.5 19.6719 30.5C18.9297 30.5 18.3828 29.7969 18.5781 29.0938L20.6875 21.75H17.2891C16.5859 21.75 16 21.1641 16 20.4609C16 20.0703 16.1562 19.7188 16.4297 19.4453L26.5859 10.7734C26.7812 10.6172 27.0156 10.5 27.2891 10.5ZM25.8828 13.8203L18.8125 19.875H21.9375C22.2109 19.875 22.4844 20.0312 22.6797 20.2656C22.8359 20.5 22.9141 20.8125 22.8359 21.0859L21.0781 27.2188L28.2266 21.125H25.0625C24.75 21.125 24.4766 21.0078 24.2812 20.7734C24.125 20.5391 24.0469 20.2266 24.125 19.9531L25.8828 13.8203Z" fill="white"/>
<path d="M28.3828 11.9453L28.8632 12.084L28.8646 12.0791L28.3828 11.9453ZM26.2734 19.25L25.7931 19.1113L25.6086 19.75H26.2734V19.25ZM30.4922 21.6719L30.8159 22.053L30.8214 22.0482L30.4922 21.6719ZM20.375 30.2656L20.6873 30.6561L20.6931 30.6515L20.6987 30.6467L20.375 30.2656ZM18.5781 29.0938L18.0975 28.9557L18.0964 28.9599L18.5781 29.0938ZM20.6875 21.75L21.1681 21.888L21.3513 21.25H20.6875V21.75ZM16.4297 19.4453L16.105 19.0651L16.09 19.0778L16.0761 19.0918L16.4297 19.4453ZM26.5859 10.7734L26.2736 10.383L26.2673 10.388L26.2613 10.3932L26.5859 10.7734ZM25.8828 13.8203L26.3635 13.9581L26.8222 12.3576L25.5576 13.4405L25.8828 13.8203ZM18.8125 19.875L18.4873 19.4952L17.4599 20.375H18.8125V19.875ZM22.6797 20.2656L23.0957 19.9883L23.0809 19.9661L23.0638 19.9455L22.6797 20.2656ZM22.8359 21.0859L23.3166 21.2237L23.3167 21.2233L22.8359 21.0859ZM21.0781 27.2188L20.5975 27.081L20.1406 28.675L21.4025 27.5993L21.0781 27.2188ZM28.2266 21.125L28.5509 21.5055L29.5838 20.625H28.2266V21.125ZM24.2812 20.7734L23.8652 21.0508L23.88 21.073L23.8971 21.0935L24.2812 20.7734ZM24.125 19.9531L23.6444 19.8154L23.6442 19.8158L24.125 19.9531ZM27.2891 11C27.6935 11 28.0098 11.4201 27.9011 11.8115L28.8646 12.0791C29.1465 11.0642 28.369 10 27.2891 10V11ZM27.9024 11.8066L25.7931 19.1113L26.7538 19.3887L28.8632 12.084L27.9024 11.8066ZM26.2734 19.75H29.6328V18.75H26.2734V19.75ZM29.6328 19.75C30.0802 19.75 30.4609 20.1321 30.4609 20.6172H31.4609C31.4609 19.6179 30.6698 18.75 29.6328 18.75V19.75ZM30.4609 20.6172C30.4609 20.9084 30.3627 21.1208 30.1629 21.2956L30.8214 22.0482C31.2467 21.6761 31.4609 21.1853 31.4609 20.6172H30.4609ZM30.1685 21.2908L20.0513 29.8845L20.6987 30.6467L30.8159 22.053L30.1685 21.2908ZM20.0627 29.8752C19.9644 29.9538 19.8431 30 19.6719 30V31C20.0476 31 20.395 30.89 20.6873 30.6561L20.0627 29.8752ZM19.6719 30C19.248 30 18.9563 29.6003 19.0599 29.2276L18.0964 28.9599C17.8093 29.9934 18.6113 31 19.6719 31V30ZM19.0587 29.2318L21.1681 21.888L20.2069 21.612L18.0976 28.9557L19.0587 29.2318ZM20.6875 21.25H17.2891V22.25H20.6875V21.25ZM17.2891 21.25C16.8621 21.25 16.5 20.8879 16.5 20.4609H15.5C15.5 21.4402 16.3098 22.25 17.2891 22.25V21.25ZM16.5 20.4609C16.5 20.2116 16.5973 19.9848 16.7832 19.7989L16.0761 19.0918C15.7152 19.4527 15.5 19.929 15.5 20.4609H16.5ZM16.7544 19.8256L26.9106 11.1537L26.2613 10.3932L16.105 19.0651L16.7544 19.8256ZM26.8983 11.1639C27.0392 11.0511 27.1664 11 27.2891 11V10C26.8649 10 26.5233 10.1832 26.2736 10.383L26.8983 11.1639ZM25.5576 13.4405L18.4873 19.4952L19.1377 20.2548L26.208 14.2001L25.5576 13.4405ZM18.8125 20.375H21.9375V19.375H18.8125V20.375ZM21.9375 20.375C22.0239 20.375 22.1674 20.4318 22.2956 20.5857L23.0638 19.9455C22.8014 19.6307 22.398 19.375 21.9375 19.375V20.375ZM22.2637 20.543C22.3596 20.6869 22.3836 20.849 22.3552 20.9486L23.3167 21.2233C23.4445 20.776 23.3122 20.3131 23.0957 19.9883L22.2637 20.543ZM22.3553 20.9482L20.5975 27.081L21.5588 27.3565L23.3166 21.2237L22.3553 20.9482ZM21.4025 27.5993L28.5509 21.5055L27.9022 20.7445L20.7538 26.8382L21.4025 27.5993ZM28.2266 20.625H25.0625V21.625H28.2266V20.625ZM25.0625 20.625C24.8835 20.625 24.7565 20.5628 24.6654 20.4533L23.8971 21.0935C24.1966 21.4529 24.6165 21.625 25.0625 21.625V20.625ZM24.6973 20.4961C24.6013 20.3521 24.5773 20.19 24.6058 20.0905L23.6442 19.8158C23.5164 20.2631 23.6487 20.726 23.8652 21.0508L24.6973 20.4961ZM24.6056 20.0909L26.3635 13.9581L25.4022 13.6825L23.6444 19.8154L24.6056 20.0909Z" fill="#035763" mask="url(#path-3-outside-1_2204_1046)"/>
</svg>
