<svg width="81" height="89" viewBox="0 0 81 89" fill="none" xmlns="http://www.w3.org/2000/svg">
<g filter="url(#filter0_dd_2073_1741)">
<path d="M42.2836 60.3603L42.2835 60.3604C41.7615 60.8088 41.0958 61.0552 40.4076 61.0546C39.7195 61.0539 39.0545 60.8066 38.5333 60.3574C38.5332 60.3573 38.533 60.3572 38.5329 60.3571L37.8593 59.7726C37.8592 59.7725 37.8591 59.7724 37.859 59.7723C28.1179 51.2474 23.25 43.4899 23.25 36.4107C23.25 26.9327 30.9327 19.25 40.4107 19.25C49.8887 19.25 57.5714 26.9327 57.5714 36.4107C57.5714 43.6521 52.4776 51.6058 42.2836 60.3603ZM40.4107 29.4643C38.5684 29.4643 36.8016 30.1961 35.4988 31.4988C34.1961 32.8016 33.4643 34.5684 33.4643 36.4107C33.4643 38.253 34.1961 40.0199 35.4988 41.3226C36.8016 42.6253 38.5684 43.3571 40.4107 43.3571C42.253 43.3571 44.0199 42.6253 45.3226 41.3226C46.6253 40.0199 47.3571 38.253 47.3571 36.4107C47.3571 34.5684 46.6253 32.8016 45.3226 31.4988C44.0199 30.1961 42.253 29.4643 40.4107 29.4643Z" fill="#2BC2CC" stroke="#035763" stroke-width="0.5"/>
</g>
<defs>
<filter id="filter0_dd_2073_1741" x="0" y="0" width="80.8214" height="88.3046" filterUnits="userSpaceOnUse" color-interpolation-filters="sRGB">
<feFlood flood-opacity="0" result="BackgroundImageFix"/>
<feColorMatrix in="SourceAlpha" type="matrix" values="0 0 0 0 0 0 0 0 0 0 0 0 0 0 0 0 0 0 127 0" result="hardAlpha"/>
<feMorphology radius="2" operator="dilate" in="SourceAlpha" result="effect1_dropShadow_2073_1741"/>
<feOffset dx="5" dy="5"/>
<feGaussianBlur stdDeviation="6"/>
<feComposite in2="hardAlpha" operator="out"/>
<feColorMatrix type="matrix" values="0 0 0 0 0.471667 0 0 0 0 0.471667 0 0 0 0 0.471667 0 0 0 0.25 0"/>
<feBlend mode="normal" in2="BackgroundImageFix" result="effect1_dropShadow_2073_1741"/>
<feColorMatrix in="SourceAlpha" type="matrix" values="0 0 0 0 0 0 0 0 0 0 0 0 0 0 0 0 0 0 127 0" result="hardAlpha"/>
<feMorphology radius="3" operator="dilate" in="SourceAlpha" result="effect2_dropShadow_2073_1741"/>
<feOffset dy="4"/>
<feGaussianBlur stdDeviation="10"/>
<feComposite in2="hardAlpha" operator="out"/>
<feColorMatrix type="matrix" values="0 0 0 0 0.255 0 0 0 0 0.253937 0 0 0 0 0.253937 0 0 0 0.25 0"/>
<feBlend mode="normal" in2="effect1_dropShadow_2073_1741" result="effect2_dropShadow_2073_1741"/>
<feBlend mode="normal" in="SourceGraphic" in2="effect2_dropShadow_2073_1741" result="shape"/>
</filter>
</defs>
</svg>
