<svg width="46" height="46" viewBox="0 0 46 46" fill="none" xmlns="http://www.w3.org/2000/svg">
<g clip-path="url(#clip0_2623_8472)">
<circle cx="23" cy="23" r="22.5" fill="white" stroke="#035763" stroke-dasharray="4 4"/>
<path d="M24.812 43.1429L24.8119 43.143C24.3814 43.4986 23.8278 43.6972 23.2511 43.6967C22.6748 43.6963 22.1218 43.4969 21.6921 43.1409C21.6919 43.1407 21.6916 43.1406 21.6914 43.1404L21.0207 42.5807C21.0202 42.5803 21.0197 42.5799 21.0192 42.5795C11.2989 34.3998 6.59314 27.0731 6.59314 20.5104C6.59314 11.7058 14.024 4.51929 23.2539 4.51929C32.4837 4.51929 39.9146 11.7058 39.9146 20.5104C39.9146 27.2248 34.9883 34.7397 24.812 43.1429ZM23.2539 13.3215C21.2882 13.3215 19.3975 14.072 17.9989 15.4168C16.5994 16.7625 15.8074 18.594 15.8074 20.5104C15.8074 22.4267 16.5994 24.2583 17.9989 25.604C19.3975 26.9487 21.2882 27.6992 23.2539 27.6992C25.2195 27.6992 27.1102 26.9487 28.5088 25.604C29.9083 24.2583 30.7003 22.4267 30.7003 20.5104C30.7003 18.594 29.9083 16.7625 28.5088 15.4168C27.1102 14.072 25.2195 13.3215 23.2539 13.3215Z" fill="#2BC2CC" stroke="#035763" stroke-width="1.5"/>
<rect x="13.8431" y="11.4615" width="19" height="20.1923" fill="#2BC2CC"/>
<path d="M22.8728 13.923L22.8724 13.9214L22.7779 13.4845C22.7779 13.4844 22.7779 13.4843 22.7778 13.4841C22.6263 12.7763 23.0981 12.054 23.8803 11.8989C24.6666 11.743 25.4084 12.2339 25.5619 12.9494L25.562 12.9503L25.6564 13.3866C25.6565 13.3868 25.6565 13.3871 25.6566 13.3873C25.9541 14.782 26.7529 16.0263 27.9102 16.9057L27.9108 16.9062L28.206 17.1297C28.2063 17.13 28.2067 17.1303 28.2071 17.1305C29.0004 17.7385 29.4611 18.6491 29.4671 19.6106L29.4937 23.8855C29.5003 24.9441 28.9578 25.9442 28.0331 26.5447L28.0329 26.5448L26.5006 27.5411C26.5005 27.5412 26.5004 27.5413 26.5002 27.5414C25.9521 27.8961 25.3073 28.0883 24.6422 28.0921L20.7441 28.1145C19.9421 28.1191 19.3211 27.5017 19.3166 26.7774C19.316 26.6773 19.327 26.5788 19.3471 26.4851L19.4433 26.0356L19.0034 25.9018C18.4281 25.7268 18.0275 25.2157 18.0239 24.6319C18.0223 24.3793 18.0925 24.1437 18.2191 23.9391L18.6069 23.312L17.8806 23.1836C17.2158 23.0661 16.7312 22.5116 16.7273 21.8714C16.7247 21.4565 16.9217 21.078 17.243 20.8255L17.8676 20.3347L17.1546 19.9838C16.6934 19.7568 16.3914 19.3048 16.3883 18.7977C16.3838 18.0734 16.997 17.4489 17.799 17.4443L23.5563 17.4112L24.4521 17.406L23.9771 16.6463C23.4542 15.81 23.0787 14.8901 22.8728 13.923Z" fill="white" stroke="#035763"/>
</g>
<defs>
<clipPath id="clip0_2623_8472">
<rect width="46" height="46" fill="white"/>
</clipPath>
</defs>
</svg>
