<svg width="82" height="89" viewBox="0 0 82 89" fill="none" xmlns="http://www.w3.org/2000/svg">
<g filter="url(#filter0_dd_2148_6239)">
<path d="M42.3523 59.9763L42.3522 59.9763C41.91 60.3487 41.3438 60.5551 40.7562 60.5546C40.1688 60.554 39.6033 60.347 39.1619 59.9742C39.1616 59.974 39.1614 59.9738 39.1612 59.9736L38.4769 59.3915C38.4766 59.3912 38.4762 59.3909 38.4759 59.3906C28.5625 50.8849 23.75 43.2564 23.75 36.4107C23.75 27.2228 31.3507 19.75 40.7589 19.75C50.1672 19.75 57.7679 27.2228 57.7679 36.4107C57.7679 43.4143 52.7302 51.2385 42.3523 59.9763ZM40.7589 28.9643C38.7532 28.9643 36.8268 29.7453 35.4041 31.1401C33.9809 32.5353 33.1786 34.431 33.1786 36.4107C33.1786 38.3905 33.9809 40.2861 35.4041 41.6814C36.8268 43.0761 38.7532 43.8571 40.7589 43.8571C42.7646 43.8571 44.6911 43.0761 46.1138 41.6814C47.537 40.2861 48.3393 38.3905 48.3393 36.4107C48.3393 34.431 47.537 32.5354 46.1138 31.1401C44.6911 29.7453 42.7646 28.9643 40.7589 28.9643Z" fill="#2BC2CC" stroke="#035763" stroke-width="1.5"/>
<rect x="31.16" y="27" width="19.38" height="21" fill="#2BC2CC"/>
<path d="M40.3608 29.5659L40.3605 29.5643L40.2641 29.1099C40.2641 29.1097 40.264 29.1096 40.264 29.1094C40.105 28.352 40.6018 27.5958 41.3976 27.4349C42.1953 27.2736 42.9622 27.7797 43.1225 28.5414L43.1226 28.5422L43.2189 28.996C43.219 28.9963 43.219 28.9965 43.2191 28.9967C43.5211 30.4401 44.3322 31.7302 45.5106 32.6432L45.5113 32.6437L45.8124 32.8761C45.8127 32.8764 45.8131 32.8767 45.8135 32.877C46.6254 33.5114 47.1003 34.4646 47.1064 35.4749L47.1335 39.9208C47.1403 41.0332 46.5812 42.0796 45.6356 42.7057L45.6353 42.7058L44.0724 43.742C44.0723 43.7421 44.0721 43.7421 44.072 43.7422C43.5116 44.112 42.8534 44.3118 42.1752 44.3157L38.1991 44.339C37.3852 44.3438 36.7377 43.7026 36.7329 42.9285C36.7323 42.8222 36.7437 42.7176 36.7646 42.6182L36.8582 42.1727L36.4233 42.0378C35.8366 41.8559 35.4181 41.3201 35.4143 40.6972C35.4127 40.4285 35.486 40.1785 35.6172 39.9623L35.9946 39.34L35.2782 39.2109C34.6018 39.089 34.096 38.5098 34.0918 37.8262C34.0891 37.3842 34.2951 36.9845 34.6253 36.7198L35.2336 36.2324L34.5368 35.8827C34.065 35.6459 33.7493 35.1704 33.746 34.6297C33.7413 33.8556 34.3809 33.2068 35.1948 33.202L41.0672 33.1676L41.9541 33.1624L41.4904 32.4063C40.9558 31.5344 40.5716 30.575 40.3608 29.5659Z" fill="white" stroke="#035763"/>
</g>
<defs>
<filter id="filter0_dd_2148_6239" x="-7" y="-4" width="96" height="96" filterUnits="userSpaceOnUse" color-interpolation-filters="sRGB">
<feFlood flood-opacity="0" result="BackgroundImageFix"/>
<feColorMatrix in="SourceAlpha" type="matrix" values="0 0 0 0 0 0 0 0 0 0 0 0 0 0 0 0 0 0 127 0" result="hardAlpha"/>
<feMorphology radius="2" operator="dilate" in="SourceAlpha" result="effect1_dropShadow_2148_6239"/>
<feOffset dx="5" dy="5"/>
<feGaussianBlur stdDeviation="6"/>
<feComposite in2="hardAlpha" operator="out"/>
<feColorMatrix type="matrix" values="0 0 0 0 0.471667 0 0 0 0 0.471667 0 0 0 0 0.471667 0 0 0 0.25 0"/>
<feBlend mode="normal" in2="BackgroundImageFix" result="effect1_dropShadow_2148_6239"/>
<feColorMatrix in="SourceAlpha" type="matrix" values="0 0 0 0 0 0 0 0 0 0 0 0 0 0 0 0 0 0 127 0" result="hardAlpha"/>
<feMorphology radius="3" operator="dilate" in="SourceAlpha" result="effect2_dropShadow_2148_6239"/>
<feOffset dy="4"/>
<feGaussianBlur stdDeviation="10"/>
<feComposite in2="hardAlpha" operator="out"/>
<feColorMatrix type="matrix" values="0 0 0 0 0.255 0 0 0 0 0.253937 0 0 0 0 0.253937 0 0 0 0.25 0"/>
<feBlend mode="normal" in2="effect1_dropShadow_2148_6239" result="effect2_dropShadow_2148_6239"/>
<feBlend mode="normal" in="SourceGraphic" in2="effect2_dropShadow_2148_6239" result="shape"/>
</filter>
</defs>
</svg>
