<svg width="81" height="89" viewBox="0 0 81 89" fill="none" xmlns="http://www.w3.org/2000/svg">
<g filter="url(#filter0_dd_2073_1741)">
<path d="M41.7949 59.7914L41.7948 59.7915C41.4089 60.1229 40.9169 60.305 40.4082 60.3046C39.8998 60.3041 39.4084 60.1214 39.0233 59.7896C39.023 59.7894 39.0228 59.7892 39.0226 59.789L38.3532 59.2082C38.3527 59.2078 38.3522 59.2073 38.3517 59.2069C28.6482 50.7146 24 43.1489 24 36.4107C24 27.3469 31.3469 20 40.4107 20C49.4745 20 56.8214 27.3469 56.8214 36.4107C56.8214 43.3049 51.9551 51.0659 41.7949 59.7914ZM40.4107 28.7143C38.3695 28.7143 36.4119 29.5252 34.9685 30.9685C33.5252 32.4119 32.7143 34.3695 32.7143 36.4107C32.7143 38.4519 33.5252 40.4096 34.9685 41.8529C36.4119 43.2963 38.3695 44.1071 40.4107 44.1071C42.4519 44.1071 44.4096 43.2963 45.8529 41.8529C47.2963 40.4095 48.1071 38.4519 48.1071 36.4107C48.1071 34.3695 47.2963 32.4119 45.8529 30.9685C44.4095 29.5252 42.4519 28.7143 40.4107 28.7143Z" fill="#2BC2CC" stroke="#035763" stroke-width="2"/>
<rect x="30" y="27" width="19" height="21" fill="#2BC2CC"/>
<path d="M40.0304 29.5677L40.0301 29.5661L39.9356 29.1117C39.9355 29.1116 39.9355 29.1115 39.9355 29.1114C39.7775 28.3442 40.2724 27.5929 41.0406 27.4345C41.8079 27.2762 42.5594 27.7712 42.7179 28.5395L42.718 28.5404L42.8124 28.9942C42.8125 28.9944 42.8125 28.9946 42.8126 28.9948C43.1082 30.4359 43.9026 31.7261 45.0594 32.6402L45.06 32.6407L45.3552 32.8732C45.3555 32.8735 45.3559 32.8737 45.3562 32.874C46.1505 33.507 46.6179 34.4608 46.6239 35.475L46.6505 39.9209C46.6572 41.0377 46.1068 42.0841 45.1826 42.7082L45.1823 42.7084L43.6501 43.7445C43.6499 43.7446 43.6498 43.7447 43.6496 43.7448C43.1021 44.1133 42.46 44.3118 41.7992 44.3157L37.901 44.339C37.1177 44.3437 36.4781 43.7118 36.4735 42.9284C36.4728 42.8213 36.4841 42.7161 36.5047 42.6162L36.5956 42.1746L36.1658 42.0386C35.5984 41.8592 35.1844 41.3265 35.1807 40.6972C35.1791 40.4264 35.2516 40.1751 35.3804 39.9585L35.7475 39.3411L35.041 39.2112C34.3883 39.0912 33.8882 38.5173 33.8841 37.8262C33.8814 37.3803 34.0852 36.9799 34.4072 36.7168L34.9992 36.2329L34.3186 35.8845C33.8607 35.6501 33.5484 35.1755 33.5451 34.6296C33.5404 33.8463 34.1724 33.2067 34.9557 33.202L40.713 33.1676L41.5908 33.1624L41.1385 32.41C40.6142 31.5379 40.2372 30.5779 40.0304 29.5677Z" fill="white" stroke="#035763"/>
</g>
<defs>
<filter id="filter0_dd_2073_1741" x="-8" y="-6" width="97" height="99" filterUnits="userSpaceOnUse" color-interpolation-filters="sRGB">
<feFlood flood-opacity="0" result="BackgroundImageFix"/>
<feColorMatrix in="SourceAlpha" type="matrix" values="0 0 0 0 0 0 0 0 0 0 0 0 0 0 0 0 0 0 127 0" result="hardAlpha"/>
<feMorphology radius="2" operator="dilate" in="SourceAlpha" result="effect1_dropShadow_2073_1741"/>
<feOffset dx="5" dy="5"/>
<feGaussianBlur stdDeviation="6"/>
<feComposite in2="hardAlpha" operator="out"/>
<feColorMatrix type="matrix" values="0 0 0 0 0.471667 0 0 0 0 0.471667 0 0 0 0 0.471667 0 0 0 0.25 0"/>
<feBlend mode="normal" in2="BackgroundImageFix" result="effect1_dropShadow_2073_1741"/>
<feColorMatrix in="SourceAlpha" type="matrix" values="0 0 0 0 0 0 0 0 0 0 0 0 0 0 0 0 0 0 127 0" result="hardAlpha"/>
<feMorphology radius="3" operator="dilate" in="SourceAlpha" result="effect2_dropShadow_2073_1741"/>
<feOffset dy="4"/>
<feGaussianBlur stdDeviation="10"/>
<feComposite in2="hardAlpha" operator="out"/>
<feColorMatrix type="matrix" values="0 0 0 0 0.255 0 0 0 0 0.253937 0 0 0 0 0.253937 0 0 0 0.25 0"/>
<feBlend mode="normal" in2="effect1_dropShadow_2073_1741" result="effect2_dropShadow_2073_1741"/>
<feBlend mode="normal" in="SourceGraphic" in2="effect2_dropShadow_2073_1741" result="shape"/>
</filter>
</defs>
</svg>
