<svg width="81" height="89" viewBox="0 0 81 89" fill="none" xmlns="http://www.w3.org/2000/svg">
<g filter="url(#filter0_dd_2073_1743)">
<path d="M41.7949 60.0959L41.7948 60.096C41.4089 60.4275 40.9169 60.6096 40.4082 60.6091C39.9001 60.6087 39.4089 60.4261 39.0238 60.0946C39.0234 60.0943 39.023 60.0939 39.0226 60.0936L38.3532 59.5128C38.3527 59.5123 38.3522 59.5119 38.3517 59.5115C28.6482 51.0192 24 43.4535 24 36.7153C24 27.6515 31.3469 20.3046 40.4107 20.3046C49.4745 20.3046 56.8214 27.6515 56.8214 36.7153C56.8214 43.6094 51.9551 51.3704 41.7949 60.0959ZM40.4107 31C39.9355 31 39.2885 31.0639 38.86 31.5613C38.4612 32.0242 38.4976 32.606 38.5102 32.8081C38.5108 32.8181 38.5114 32.8271 38.5119 32.8352C38.5134 32.8629 38.515 32.8897 38.5165 32.9155C38.5427 33.3674 38.5523 33.5334 38.2929 33.7929C38.1427 33.9431 38.0226 34.059 37.9258 34.1519C37.9102 34.1668 37.8946 34.1818 37.8791 34.1966C37.8053 34.2673 37.7338 34.3357 37.6788 34.3917L37.6765 34.394C37.6239 34.4475 37.4979 34.5757 37.4067 34.7475C37.2684 35.008 37.2417 35.2935 37.3122 35.5604C37.3373 35.6554 37.3705 35.7307 37.3848 35.7627C37.3931 35.7812 37.4011 35.7984 37.4059 35.8086L37.4184 35.8354C37.4281 35.8564 37.4349 35.8725 37.4429 35.8994C37.4598 35.9564 37.499 36.1215 37.5 36.4863C37.4818 36.5101 37.4646 36.5345 37.4486 36.5595C37.337 36.7331 37.2932 36.9094 37.2797 37.0494C37.2662 37.1901 37.2801 37.3213 37.3085 37.4357C37.3365 37.549 37.3855 37.673 37.4653 37.7928C37.5407 37.906 37.6793 38.0681 37.9078 38.1736C38.027 38.2287 38.1689 38.2669 38.3266 38.2697C38.3363 38.2699 38.346 38.2699 38.3557 38.2698C38.9229 38.8348 39.4042 39.276 40.0617 39.4409C40.3837 39.5216 40.6983 39.5247 40.975 39.5202C41.0869 39.5184 41.1934 39.5153 41.3044 39.512C41.5034 39.5062 41.7166 39.5 42 39.5C42.1238 39.5 42.2193 39.5013 42.2906 39.5031C42.3103 39.5055 42.3291 39.5076 42.347 39.5095C42.3996 39.5149 42.4505 39.5186 42.4967 39.5203C42.5189 39.5211 42.5478 39.5218 42.5795 39.5212C42.5947 39.5209 42.6198 39.5201 42.6499 39.5177L42.6514 39.5175C42.6666 39.5164 42.7526 39.5097 42.8542 39.4799C42.8863 39.4705 42.9406 39.4529 43.0042 39.4225C43.0585 39.3966 43.1795 39.3336 43.2974 39.2099C43.4273 39.0736 43.5917 38.8171 43.5722 38.4643C43.5569 38.1889 43.4359 37.9932 43.3431 37.8809C43.358 37.8755 43.373 37.8696 43.3881 37.8632C43.6967 37.7328 43.872 37.4874 43.9519 37.2727C44.0123 37.1104 44.0183 36.9673 44.0201 36.924L44.0201 36.9237C44.0226 36.8641 44.021 36.8074 44.0197 36.7724C44.0186 36.7391 44.017 36.7033 44.0152 36.6629C44.0088 36.5222 44 36.3271 44 36C44 35.6746 44.0092 35.5261 44.0116 35.4878C44.0133 35.4752 44.0147 35.4628 44.0159 35.4506C44.0169 35.4414 44.0186 35.4238 44.0198 35.4022C44.0203 35.3934 44.0216 35.3693 44.0214 35.3386C44.0213 35.3252 44.021 35.291 44.0168 35.2476C44.0143 35.2248 44.0059 35.1683 43.9993 35.1346C43.9858 35.0792 43.9288 34.9235 43.8778 34.8274C43.7324 34.6404 43.1823 34.3567 42.7931 34.37C42.7057 34.4031 42.612 34.455 42.5243 34.5125C42.4255 34.2589 42.4166 33.9063 42.4019 33.3238C42.4013 33.3008 42.4007 33.2773 42.4001 33.2535L42.4 33.2499C42.3917 32.9252 42.377 32.3492 42.0955 31.8665C41.7286 31.2374 41.0895 31 40.4107 31ZM42.8545 34.9187C42.8546 34.9194 42.8488 34.9165 42.8369 34.908C42.8484 34.9138 42.8544 34.9181 42.8545 34.9187ZM37.4768 36.8735C37.4767 36.8732 37.4775 36.8688 37.4796 36.8608C37.478 36.8697 37.4769 36.8737 37.4768 36.8735ZM38.0394 37.9859C38.0394 37.9857 38.0425 37.9874 38.0488 37.9916C38.0425 37.9882 38.0394 37.9861 38.0394 37.9859Z" fill="#27AE60" stroke="#035763" stroke-width="2"/>
<rect x="32" y="27" width="17" height="21" fill="#27AE60"/>
<path d="M40.5 28.5485L42.3842 34.0713L42.4997 34.4098H42.8574H48.8848L44.0298 37.7692L43.7191 37.9842L43.8411 38.3418L45.7087 43.8157L40.7845 40.4085L40.5 40.2116L40.2155 40.4085L35.2913 43.8157L37.1589 38.3418L37.2809 37.9842L36.9702 37.7692L32.1152 34.4098H38.1426H38.5003L38.6158 34.0713L40.5 28.5485Z" fill="white" stroke="#035763"/>
</g>
<defs>
<filter id="filter0_dd_2073_1743" x="-8" y="-6" width="97" height="99" filterUnits="userSpaceOnUse" color-interpolation-filters="sRGB">
<feFlood flood-opacity="0" result="BackgroundImageFix"/>
<feColorMatrix in="SourceAlpha" type="matrix" values="0 0 0 0 0 0 0 0 0 0 0 0 0 0 0 0 0 0 127 0" result="hardAlpha"/>
<feMorphology radius="2" operator="dilate" in="SourceAlpha" result="effect1_dropShadow_2073_1743"/>
<feOffset dx="5" dy="5"/>
<feGaussianBlur stdDeviation="6"/>
<feComposite in2="hardAlpha" operator="out"/>
<feColorMatrix type="matrix" values="0 0 0 0 0.471667 0 0 0 0 0.471667 0 0 0 0 0.471667 0 0 0 0.25 0"/>
<feBlend mode="normal" in2="BackgroundImageFix" result="effect1_dropShadow_2073_1743"/>
<feColorMatrix in="SourceAlpha" type="matrix" values="0 0 0 0 0 0 0 0 0 0 0 0 0 0 0 0 0 0 127 0" result="hardAlpha"/>
<feMorphology radius="3" operator="dilate" in="SourceAlpha" result="effect2_dropShadow_2073_1743"/>
<feOffset dy="4"/>
<feGaussianBlur stdDeviation="10"/>
<feComposite in2="hardAlpha" operator="out"/>
<feColorMatrix type="matrix" values="0 0 0 0 0.255 0 0 0 0 0.253937 0 0 0 0 0.253937 0 0 0 0.25 0"/>
<feBlend mode="normal" in2="effect1_dropShadow_2073_1743" result="effect2_dropShadow_2073_1743"/>
<feBlend mode="normal" in="SourceGraphic" in2="effect2_dropShadow_2073_1743" result="shape"/>
</filter>
</defs>
</svg>
