<svg width="72" height="72" viewBox="0 0 72 72" fill="none" xmlns="http://www.w3.org/2000/svg">
<g clip-path="url(#clip0_2204_1001)">
<g filter="url(#filter0_dd_2204_1001)">
<path d="M36.4107 16C46.0268 16 53.8214 23.4948 53.8214 32.7411C53.8214 39.8152 48.6518 47.5247 38.4464 55.9519C37.879 56.4206 37.1555 56.6781 36.4074 56.6774C35.6593 56.6768 34.9362 56.4182 34.3696 55.9485L33.6946 55.3853C23.9411 47.1779 19 39.6573 19 32.7411C19 23.4948 26.7946 16 36.4107 16ZM36.4107 26.3022C34.6347 26.3022 32.9314 26.9806 31.6756 28.1881C30.4198 29.3956 29.7143 31.0334 29.7143 32.7411C29.7143 34.4488 30.4198 36.0865 31.6756 37.294C32.9314 38.5016 34.6347 39.1799 36.4107 39.1799C38.1867 39.1799 39.89 38.5016 41.1458 37.294C42.4016 36.0865 43.1071 34.4488 43.1071 32.7411C43.1071 31.0334 42.4016 29.3956 41.1458 28.1881C39.89 26.9806 38.1867 26.3022 36.4107 26.3022Z" fill="#27AE60"/>
<path d="M37.9689 55.3736L37.9688 55.3737C37.5383 55.7293 36.9847 55.9279 36.408 55.9274C35.8316 55.927 35.2786 55.7275 34.8488 55.3715C34.8487 55.3714 34.8485 55.3712 34.8483 55.3711L34.1775 54.8114C34.1771 54.8111 34.1766 54.8107 34.1762 54.8103C24.4558 46.6305 19.75 39.3038 19.75 32.7411C19.75 23.9365 27.1809 16.75 36.4107 16.75C45.6406 16.75 53.0714 23.9365 53.0714 32.7411C53.0714 39.4555 48.1452 46.9704 37.9689 55.3736ZM36.4107 25.5522C34.4451 25.5522 32.5543 26.3027 31.1558 27.6475C29.7563 28.9932 28.9643 30.8248 28.9643 32.7411C28.9643 34.6574 29.7563 36.489 31.1558 37.8347C32.5543 39.1794 34.4451 39.9299 36.4107 39.9299C38.3763 39.9299 40.2671 39.1794 41.6656 37.8347C43.0652 36.489 43.8571 34.6574 43.8571 32.7411C43.8571 30.8248 43.0652 28.9932 41.6656 27.6475C40.2671 26.3027 38.3763 25.5522 36.4107 25.5522Z" stroke="#035763" stroke-width="1.5"/>
</g>
<rect x="27" y="23.6923" width="19" height="20.1923" fill="#27AE60"/>
<path d="M36.71 25.5213L38.6423 31.0742L38.7591 31.4098H39.1145H45.2681L40.3199 34.7666L40.0022 34.9821L40.1284 35.3447L42.037 40.8292L36.9907 37.4059L36.71 37.2155L36.4293 37.4059L31.383 40.8292L33.2916 35.3447L33.4178 34.9821L33.1001 34.7666L28.1519 31.4098H34.3055H34.6609L34.7777 31.0742L36.71 25.5213Z" fill="white" stroke="#035763"/>
</g>
<defs>
<filter id="filter0_dd_2204_1001" x="-4" y="-3" width="80.8214" height="86.6775" filterUnits="userSpaceOnUse" color-interpolation-filters="sRGB">
<feFlood flood-opacity="0" result="BackgroundImageFix"/>
<feColorMatrix in="SourceAlpha" type="matrix" values="0 0 0 0 0 0 0 0 0 0 0 0 0 0 0 0 0 0 127 0" result="hardAlpha"/>
<feMorphology radius="2" operator="dilate" in="SourceAlpha" result="effect1_dropShadow_2204_1001"/>
<feOffset dx="5" dy="5"/>
<feGaussianBlur stdDeviation="6"/>
<feComposite in2="hardAlpha" operator="out"/>
<feColorMatrix type="matrix" values="0 0 0 0 0.471667 0 0 0 0 0.471667 0 0 0 0 0.471667 0 0 0 0.25 0"/>
<feBlend mode="normal" in2="BackgroundImageFix" result="effect1_dropShadow_2204_1001"/>
<feColorMatrix in="SourceAlpha" type="matrix" values="0 0 0 0 0 0 0 0 0 0 0 0 0 0 0 0 0 0 127 0" result="hardAlpha"/>
<feMorphology radius="3" operator="dilate" in="SourceAlpha" result="effect2_dropShadow_2204_1001"/>
<feOffset dy="4"/>
<feGaussianBlur stdDeviation="10"/>
<feComposite in2="hardAlpha" operator="out"/>
<feColorMatrix type="matrix" values="0 0 0 0 0.255 0 0 0 0 0.253937 0 0 0 0 0.253937 0 0 0 0.25 0"/>
<feBlend mode="normal" in2="effect1_dropShadow_2204_1001" result="effect2_dropShadow_2204_1001"/>
<feBlend mode="normal" in="SourceGraphic" in2="effect2_dropShadow_2204_1001" result="shape"/>
</filter>
<clipPath id="clip0_2204_1001">
<rect width="72" height="72" fill="white"/>
</clipPath>
</defs>
</svg>
