<svg width="81" height="89" viewBox="0 0 81 89" fill="none" xmlns="http://www.w3.org/2000/svg">
<g filter="url(#filter0_dd_2073_1743)">
<path d="M42.2836 60.6649L42.2835 60.6649C41.7615 61.1134 41.0958 61.3597 40.4076 61.3591C39.7195 61.3585 39.0545 61.1112 38.5333 60.662C38.5332 60.6619 38.533 60.6618 38.5329 60.6616L37.8593 60.0771C37.8592 60.0771 37.8591 60.077 37.859 60.0769C28.1179 51.552 23.25 43.7945 23.25 36.7153C23.25 27.2373 30.9327 19.5546 40.4107 19.5546C49.8887 19.5546 57.5714 27.2373 57.5714 36.7153C57.5714 43.9567 52.4776 51.9103 42.2836 60.6649ZM40.4107 31.75C39.9589 31.75 39.6234 31.8243 39.4282 32.0508C39.2356 32.2745 39.2484 32.5747 39.2607 32.7931C39.2626 32.8265 39.2647 32.86 39.2668 32.8938C39.2951 33.3439 39.3251 33.8213 38.8232 34.3232C38.6679 34.4785 38.5438 34.5984 38.4449 34.6932C38.4274 34.71 38.4105 34.7262 38.3943 34.7417C38.3205 34.8124 38.2599 34.8704 38.2138 34.9173C38.1613 34.9707 38.105 35.0315 38.0691 35.0992C38.0218 35.1884 38.0137 35.2794 38.0374 35.3688C38.0502 35.4175 38.0765 35.4728 38.0923 35.506C38.0952 35.5122 38.0978 35.5177 38.0999 35.5222C38.119 35.5637 38.1407 35.6145 38.1619 35.686C38.2046 35.8299 38.25 36.0734 38.25 36.5C38.25 36.6376 38.2453 36.7481 38.2378 36.836C38.1765 36.8594 38.1207 36.9009 38.0796 36.9649C38.0131 37.0683 38.0183 37.182 38.0364 37.2552C38.0525 37.3201 38.1003 37.4364 38.2223 37.4927C38.2954 37.5265 38.3826 37.5305 38.4638 37.4948C38.5005 37.4786 38.5306 37.4567 38.5549 37.4335C38.6269 37.4903 38.7156 37.5691 38.8232 37.6768C39.4429 38.2964 39.7954 38.6009 40.2441 38.7134C40.4638 38.7685 40.6937 38.7747 40.9627 38.7703C41.0578 38.7688 41.1574 38.7659 41.2651 38.7628C41.4719 38.7568 41.7084 38.75 42 38.75C42.151 38.75 42.2655 38.7519 42.3496 38.7544C42.3761 38.7581 42.401 38.7611 42.4238 38.7634C42.4627 38.7674 42.4972 38.7698 42.5247 38.7708C42.5382 38.7713 42.552 38.7716 42.5648 38.7713C42.5711 38.7712 42.5794 38.7709 42.5885 38.7702C42.5924 38.7699 42.6159 38.7682 42.643 38.7602L42.6435 38.7601C42.6499 38.7584 42.7063 38.743 42.7545 38.6924C42.7871 38.6583 42.8282 38.5941 42.8233 38.5058C42.8188 38.4238 42.7768 38.3701 42.7537 38.3461C42.7147 38.3056 42.6715 38.2891 42.6644 38.2863L42.6637 38.2861C42.6497 38.2806 42.6379 38.2774 42.632 38.2759C42.611 38.2706 42.5903 38.2681 42.5805 38.267C42.5544 38.264 42.5179 38.2612 42.4711 38.2589C42.4485 38.2577 42.4229 38.2566 42.3938 38.2556C42.3506 38.249 42.303 38.24 42.2547 38.2281C42.1721 38.2079 42.0956 38.1812 42.0359 38.1487C41.9745 38.1152 41.9498 38.0861 41.9414 38.0701L41.9413 38.0698C41.9378 38.0632 41.9275 38.0436 41.9475 37.9882C41.9709 37.9233 42.0331 37.8204 42.1768 37.6768C42.4783 37.3753 42.6698 37.2611 42.7785 37.2179C42.8307 37.1971 42.8641 37.1925 42.8833 37.1913C42.9003 37.1903 42.9055 37.1908 42.9163 37.1919C42.9248 37.1927 42.9366 37.1938 42.9603 37.1948L42.9614 37.1949C42.9781 37.1956 43.0351 37.1981 43.0962 37.1723C43.1787 37.1374 43.2264 37.072 43.249 37.0112C43.2668 36.9633 43.2697 36.9173 43.2708 36.8924C43.272 36.8632 43.2713 36.8307 43.2702 36.7984C43.2692 36.7707 43.2678 36.7388 43.2661 36.7016C43.2598 36.5616 43.25 36.3462 43.25 36C43.25 35.7809 43.2539 35.6299 43.2583 35.5311C43.2605 35.4817 43.2627 35.4457 43.2646 35.4209C43.265 35.4154 43.2654 35.4105 43.2658 35.4061C43.2676 35.3943 43.2689 35.3838 43.2697 35.3751C43.2701 35.3714 43.2706 35.3658 43.271 35.3596C43.2711 35.357 43.2715 35.3507 43.2714 35.3428C43.2714 35.3393 43.2713 35.3307 43.2703 35.3198C43.2696 35.3141 43.2675 35.2999 43.2659 35.2914C43.2625 35.2776 43.2483 35.2386 43.2355 35.2146C43.1991 35.1678 43.0616 35.0969 42.9643 35.1002C42.903 35.1234 42.8292 35.1837 42.8114 35.208C42.7907 35.2399 42.7824 35.2701 42.7821 35.271L42.7821 35.271C42.778 35.2843 42.7759 35.2954 42.7755 35.2978L42.7755 35.298C42.774 35.3055 42.7731 35.3121 42.7726 35.3155C42.7717 35.3223 42.7706 35.3316 42.7694 35.3439C42.7692 35.3453 42.7689 35.3468 42.7686 35.3484C42.7634 35.3778 42.7532 35.4225 42.7362 35.469C42.695 35.5814 42.651 35.61 42.6332 35.6138C42.6146 35.6179 42.4804 35.6268 42.1768 35.3232C41.6811 34.8276 41.668 34.1571 41.6545 33.4654C41.6532 33.4013 41.652 33.337 41.6503 33.2727C41.6414 32.9224 41.6189 32.538 41.4477 32.2443C41.2553 31.9145 40.9134 31.75 40.4107 31.75Z" fill="#27AE60" stroke="#035763" stroke-width="0.5"/>
<path d="M40.5 27.7743L42.6208 33.9906L42.6785 34.1598H42.8574H49.6854L44.1721 37.9748L44.0167 38.0823L44.0777 38.2611L46.1902 44.453L40.6423 40.6141L40.5 40.5156L40.3577 40.6141L34.8098 44.453L36.9223 38.2611L36.9833 38.0823L36.8279 37.9748L31.3146 34.1598H38.1426H38.3215L38.3792 33.9906L40.5 27.7743Z" fill="white" stroke="#035763" stroke-width="0.5"/>
</g>
<defs>
<filter id="filter0_dd_2073_1743" x="0" y="0.304565" width="80.8214" height="88.3046" filterUnits="userSpaceOnUse" color-interpolation-filters="sRGB">
<feFlood flood-opacity="0" result="BackgroundImageFix"/>
<feColorMatrix in="SourceAlpha" type="matrix" values="0 0 0 0 0 0 0 0 0 0 0 0 0 0 0 0 0 0 127 0" result="hardAlpha"/>
<feMorphology radius="2" operator="dilate" in="SourceAlpha" result="effect1_dropShadow_2073_1743"/>
<feOffset dx="5" dy="5"/>
<feGaussianBlur stdDeviation="6"/>
<feComposite in2="hardAlpha" operator="out"/>
<feColorMatrix type="matrix" values="0 0 0 0 0.471667 0 0 0 0 0.471667 0 0 0 0 0.471667 0 0 0 0.25 0"/>
<feBlend mode="normal" in2="BackgroundImageFix" result="effect1_dropShadow_2073_1743"/>
<feColorMatrix in="SourceAlpha" type="matrix" values="0 0 0 0 0 0 0 0 0 0 0 0 0 0 0 0 0 0 127 0" result="hardAlpha"/>
<feMorphology radius="3" operator="dilate" in="SourceAlpha" result="effect2_dropShadow_2073_1743"/>
<feOffset dy="4"/>
<feGaussianBlur stdDeviation="10"/>
<feComposite in2="hardAlpha" operator="out"/>
<feColorMatrix type="matrix" values="0 0 0 0 0.255 0 0 0 0 0.253937 0 0 0 0 0.253937 0 0 0 0.25 0"/>
<feBlend mode="normal" in2="effect1_dropShadow_2073_1743" result="effect2_dropShadow_2073_1743"/>
<feBlend mode="normal" in="SourceGraphic" in2="effect2_dropShadow_2073_1743" result="shape"/>
</filter>
</defs>
</svg>
