<svg width="81" height="89" viewBox="0 0 81 89" fill="none" xmlns="http://www.w3.org/2000/svg">
<g filter="url(#filter0_dd_2073_1750)">
<path d="M42.2836 60.8603L42.2835 60.8604C41.7615 61.3088 41.0958 61.5552 40.4076 61.5546C39.7195 61.5539 39.0545 61.3066 38.5333 60.8574C38.5332 60.8573 38.533 60.8572 38.5329 60.8571L37.8593 60.2726C37.8592 60.2725 37.8591 60.2724 37.859 60.2723C28.1179 51.7474 23.25 43.9899 23.25 36.9107C23.25 27.4327 30.9327 19.75 40.4107 19.75C49.8887 19.75 57.5714 27.4327 57.5714 36.9107C57.5714 44.1521 52.4776 52.1058 42.2836 60.8603ZM36.0728 30.7392L36.0738 30.7389C36.0592 30.7694 36.0439 30.801 36.0279 30.834L36.0276 30.8347C35.9932 30.9058 35.9563 30.9821 35.9198 31.0604C35.8973 31.109 35.8745 31.1589 35.8523 31.2098C35.8378 31.1246 35.8351 31.0513 35.8431 30.9904C35.8524 30.9198 35.8749 30.8721 35.9045 30.8375C35.9344 30.8027 35.9844 30.7661 36.0728 30.7392ZM36.2139 30.4001C36.2139 30.4002 36.2138 30.4003 36.2138 30.4004L36.2139 30.4001ZM35.5438 31.8718C35.5712 31.9339 35.6011 31.9972 35.6333 32.0612C35.6335 32.0658 35.6336 32.0703 35.6339 32.0748C35.6429 32.254 35.7067 32.4394 35.8743 32.573C35.9029 32.5958 35.9332 32.6161 35.9653 32.634C36.2624 33.0921 36.6395 33.5679 37.0364 34.0074C37.2884 34.2864 37.552 34.5548 37.8132 34.7986C37.803 34.8305 37.7935 34.8769 37.801 34.9308C37.8126 35.0147 37.8613 35.0859 37.9317 35.1278C37.9892 35.1621 38.0458 35.1678 38.0756 35.169C38.1247 35.1711 38.1744 35.1626 38.2135 35.1539C38.291 35.2191 38.3675 35.2813 38.4428 35.3401C38.4443 35.494 38.4638 35.65 38.5156 35.7934C38.5768 35.9626 38.6844 36.1192 38.8586 36.2303C38.914 36.2656 38.9739 36.2949 39.0382 36.3184C39.0651 36.4059 39.0932 36.4827 39.1215 36.5432C39.1431 36.5892 39.1819 36.6653 39.2457 36.7186C39.2801 36.7474 39.3541 36.7963 39.4569 36.7859C39.5646 36.7751 39.6297 36.7073 39.66 36.6635C39.7099 36.5915 39.7264 36.5011 39.7347 36.4384C39.8215 36.4719 39.9135 36.5242 40.0112 36.5983C40.203 36.7437 40.4032 36.9627 40.6085 37.2494C41.0193 37.8229 41.4241 38.6288 41.8107 39.5431C42.4342 41.0174 42.9947 42.7333 43.4521 44.1338C43.5618 44.4696 43.6656 44.7872 43.7628 45.0791L43.836 45.2987L44.0606 45.2425C44.2496 45.1953 44.3965 45.0849 44.4929 44.9256C44.5848 44.7739 44.6228 44.5918 44.6306 44.4042C44.6462 44.0316 44.545 43.5595 44.3784 43.0464C44.0426 42.0126 43.408 40.7163 42.717 39.5091C42.0255 38.3011 41.2675 37.1648 40.6769 36.4521C40.5288 36.2734 40.3887 36.1182 40.2608 35.9941C40.1915 35.9269 40.1223 35.8653 40.0544 35.8131C40.0603 35.8066 40.0661 35.7998 40.0718 35.7928C40.1411 35.7075 40.1747 35.6052 40.1875 35.5008L40.2648 35.4236L40.1923 35.3135C40.1829 35.094 40.1324 34.9068 40.0337 34.7568C39.9205 34.5848 39.7601 34.4861 39.5887 34.4382C39.4243 34.3923 39.245 34.3919 39.0724 34.4129C39.0755 34.3892 39.0781 34.3658 39.0798 34.3434C39.0835 34.2961 39.0858 34.2274 39.0674 34.1605C39.0466 34.0847 38.9817 33.9648 38.8305 33.9388C38.72 33.9198 38.6269 33.9672 38.5819 33.9929C38.556 34.0077 38.5286 34.0259 38.4997 34.0472C38.2964 33.6791 38.0686 33.2867 37.8027 32.9681C37.4749 32.5752 37.0525 32.25 36.5 32.25C36.4146 32.25 36.3502 32.2422 36.3019 32.231C36.2425 32.1347 36.1876 32.0401 36.138 31.9481C36.1465 31.8802 36.1653 31.8003 36.1948 31.709C36.2396 31.57 36.3035 31.4211 36.3732 31.2714C36.4078 31.1969 36.4431 31.1239 36.4777 31.0524L36.4793 31.0492C36.513 30.9794 36.5463 30.9105 36.576 30.8462C36.6316 30.7259 36.6916 30.5876 36.7085 30.4733C36.7162 30.4214 36.726 30.3098 36.6551 30.2095C36.5691 30.0877 36.4362 30.0742 36.3576 30.0811C36.2806 30.0878 36.2026 30.1157 36.1318 30.1472C36.0633 30.1776 35.9851 30.2189 35.897 30.2705C35.7485 30.3205 35.6212 30.3997 35.5249 30.5121C35.4218 30.6324 35.367 30.7755 35.3474 30.9254C35.3095 31.2143 35.3998 31.5453 35.5438 31.8718ZM44.1311 44.3833C44.1285 44.4457 44.1216 44.4981 44.1118 44.5419C44.0536 44.3647 43.9931 44.1795 43.9306 43.988C43.6092 43.004 43.2327 41.8512 42.8178 40.7337C43.2779 41.614 43.669 42.4809 43.9029 43.2009C44.0643 43.698 44.1429 44.1016 44.1311 44.3833ZM38.8383 34.4229C38.8383 34.423 38.8364 34.424 38.833 34.4254C38.8367 34.4234 38.8384 34.4227 38.8383 34.4229ZM37.4075 33.6723C37.1398 33.3758 36.8866 33.068 36.6647 32.7659C36.9337 32.8187 37.1787 33.0007 37.4188 33.2885C37.6776 33.5986 37.9011 33.9955 38.1209 34.396C38.1199 34.397 38.119 34.398 38.118 34.3989C37.8816 34.1764 37.6407 33.9305 37.4075 33.6723ZM39.4957 35.3775C39.4619 35.3792 39.4191 35.3706 39.3634 35.3358C39.3562 35.2339 39.3551 35.1416 39.3609 35.0649C39.3614 35.0584 39.362 35.0521 39.3625 35.0461C39.4256 35.1073 39.5065 35.2022 39.6067 35.3413C39.5585 35.3679 39.5218 35.3762 39.4957 35.3775Z" fill="#F2C94C" stroke="#035763" stroke-width="0.5"/>
<path d="M47.4102 28.9375V46H43.8945L37.0391 34.5625V46H33.5234V28.9375H37.0391L43.9062 40.3867V28.9375H47.4102Z" fill="white"/>
<path d="M47.4102 28.9375H47.9102V28.4375H47.4102V28.9375ZM47.4102 46V46.5H47.9102V46H47.4102ZM43.8945 46L43.4657 46.2571L43.6113 46.5H43.8945V46ZM37.0391 34.5625L37.4679 34.3054L36.5391 32.7558V34.5625H37.0391ZM37.0391 46V46.5H37.5391V46H37.0391ZM33.5234 46H33.0234V46.5H33.5234V46ZM33.5234 28.9375V28.4375H33.0234V28.9375H33.5234ZM37.0391 28.9375L37.4678 28.6803L37.3222 28.4375H37.0391V28.9375ZM43.9062 40.3867L43.4775 40.6439L44.4062 42.1924V40.3867H43.9062ZM43.9062 28.9375V28.4375H43.4062V28.9375H43.9062ZM46.9102 28.9375V46H47.9102V28.9375H46.9102ZM47.4102 45.5H43.8945V46.5H47.4102V45.5ZM44.3234 45.7429L37.4679 34.3054L36.6102 34.8196L43.4657 46.2571L44.3234 45.7429ZM36.5391 34.5625V46H37.5391V34.5625H36.5391ZM37.0391 45.5H33.5234V46.5H37.0391V45.5ZM34.0234 46V28.9375H33.0234V46H34.0234ZM33.5234 29.4375H37.0391V28.4375H33.5234V29.4375ZM36.6103 29.1947L43.4775 40.6439L44.335 40.1295L37.4678 28.6803L36.6103 29.1947ZM44.4062 40.3867V28.9375H43.4062V40.3867H44.4062ZM43.9062 29.4375H47.4102V28.4375H43.9062V29.4375Z" fill="#035763"/>
</g>
<defs>
<filter id="filter0_dd_2073_1750" x="0" y="0.5" width="80.8214" height="88.4137" filterUnits="userSpaceOnUse" color-interpolation-filters="sRGB">
<feFlood flood-opacity="0" result="BackgroundImageFix"/>
<feColorMatrix in="SourceAlpha" type="matrix" values="0 0 0 0 0 0 0 0 0 0 0 0 0 0 0 0 0 0 127 0" result="hardAlpha"/>
<feMorphology radius="2" operator="dilate" in="SourceAlpha" result="effect1_dropShadow_2073_1750"/>
<feOffset dx="5" dy="5"/>
<feGaussianBlur stdDeviation="6"/>
<feComposite in2="hardAlpha" operator="out"/>
<feColorMatrix type="matrix" values="0 0 0 0 0.471667 0 0 0 0 0.471667 0 0 0 0 0.471667 0 0 0 0.25 0"/>
<feBlend mode="normal" in2="BackgroundImageFix" result="effect1_dropShadow_2073_1750"/>
<feColorMatrix in="SourceAlpha" type="matrix" values="0 0 0 0 0 0 0 0 0 0 0 0 0 0 0 0 0 0 127 0" result="hardAlpha"/>
<feMorphology radius="3" operator="dilate" in="SourceAlpha" result="effect2_dropShadow_2073_1750"/>
<feOffset dy="4"/>
<feGaussianBlur stdDeviation="10"/>
<feComposite in2="hardAlpha" operator="out"/>
<feColorMatrix type="matrix" values="0 0 0 0 0.255 0 0 0 0 0.253937 0 0 0 0 0.253937 0 0 0 0.25 0"/>
<feBlend mode="normal" in2="effect1_dropShadow_2073_1750" result="effect2_dropShadow_2073_1750"/>
<feBlend mode="normal" in="SourceGraphic" in2="effect2_dropShadow_2073_1750" result="shape"/>
</filter>
</defs>
</svg>
