<svg width="81" height="89" viewBox="0 0 81 89" fill="none" xmlns="http://www.w3.org/2000/svg">
<g filter="url(#filter0_dd_2073_1750)">
<path d="M41.7949 60.2914L41.7948 60.2915C41.4089 60.6229 40.9169 60.805 40.4082 60.8046C39.9001 60.8041 39.4089 60.6216 39.0238 60.29C39.0234 60.2897 39.023 60.2894 39.0226 60.289L38.3532 59.7082C38.3527 59.7078 38.3522 59.7073 38.3517 59.7069C28.6482 51.2146 24 43.6489 24 36.9107C24 27.8469 31.3469 20.5 40.4107 20.5C49.4745 20.5 56.8214 27.8469 56.8214 36.9107C56.8214 43.8049 51.9551 51.5659 41.7949 60.2914ZM34.9006 32.2692C34.9458 32.5673 35.0853 32.9033 35.4068 33.1595C35.4116 33.1633 35.4163 33.167 35.4211 33.1707C35.7333 33.6343 36.1049 34.0949 36.4798 34.5101C36.6717 34.7225 36.8724 34.9319 37.0765 35.1318C37.1413 35.4027 37.3129 35.6321 37.5477 35.7721C37.6196 35.8149 37.6901 35.8451 37.7553 35.8665C37.7703 35.9273 37.7885 35.9881 37.8103 36.0484C37.9164 36.3419 38.1128 36.638 38.4376 36.8512C38.4392 36.8545 38.4407 36.8578 38.4422 36.8611C38.4648 36.9092 38.496 36.9703 38.5374 37.0346C38.5736 37.0906 38.6465 37.1952 38.7644 37.2939C38.875 37.3863 39.145 37.5711 39.5319 37.5322C39.6411 37.5212 39.738 37.4947 39.8234 37.4591C39.8779 37.5239 39.9365 37.5992 39.9988 37.6861C40.3611 38.1918 40.7403 38.9374 41.12 39.8353C41.7297 41.277 42.2771 42.9526 42.7344 44.3522C42.8455 44.6923 42.9513 45.0161 43.0513 45.3162L43.3442 46.1947L44.2425 45.9701C44.6234 45.8749 44.9356 45.6427 45.1345 45.314C45.3151 45.0157 45.3691 44.695 45.38 44.4355C45.4012 43.9267 45.2661 43.3517 45.0917 42.8147C44.7328 41.7098 44.0696 40.3624 43.3679 39.1365C42.6647 37.908 41.8825 36.7316 41.2544 35.9735C41.1803 35.8842 41.1062 35.798 41.0327 35.7163L41.2274 35.5216L40.9209 35.0562C40.886 34.8133 40.8076 34.5685 40.6602 34.3445C40.4323 33.9982 40.1076 33.8045 39.7905 33.7159C39.7507 33.7048 39.7108 33.6953 39.6709 33.6872C39.546 33.4807 39.325 33.2629 38.9578 33.1997C38.9281 33.1945 38.899 33.1908 38.8705 33.1883C38.7241 32.9486 38.56 32.705 38.3786 32.4876C38.0794 32.1291 37.6457 31.7354 37.0593 31.5746C37.0893 31.5104 37.1203 31.4464 37.1529 31.3789L37.1558 31.3729C37.1885 31.3052 37.2243 31.2312 37.2568 31.1609L37.2597 31.1547C37.309 31.0481 37.4158 30.8173 37.4504 30.583C37.4649 30.4848 37.5124 30.123 37.2676 29.7766C36.9623 29.3446 36.5002 29.3158 36.2923 29.334C36.0913 29.3515 35.9232 29.4192 35.8273 29.4618C35.7451 29.4983 35.6617 29.5416 35.5788 29.5884C35.3526 29.6766 35.1337 29.816 34.9554 30.0241C34.7422 30.2728 34.6389 30.5592 34.6037 30.828C34.539 31.3223 34.6955 31.8071 34.8575 32.1744C34.8714 32.2059 34.8858 32.2375 34.9006 32.2692ZM43.3789 44.3836C43.3788 44.3836 43.379 44.3823 43.3796 44.3796C43.3792 44.3823 43.3789 44.3836 43.3789 44.3836Z" fill="#F2C94C" stroke="#035763" stroke-width="2"/>
<rect x="32" y="28" width="17" height="21" fill="#F2C94C"/>
<path d="M47.4102 28.9375V46H43.8945L37.0391 34.5625V46H33.5234V28.9375H37.0391L43.9062 40.3867V28.9375H47.4102Z" fill="white"/>
<path d="M47.4102 28.9375H47.9102V28.4375H47.4102V28.9375ZM47.4102 46V46.5H47.9102V46H47.4102ZM43.8945 46L43.4657 46.2571L43.6113 46.5H43.8945V46ZM37.0391 34.5625L37.4679 34.3054L36.5391 32.7558V34.5625H37.0391ZM37.0391 46V46.5H37.5391V46H37.0391ZM33.5234 46H33.0234V46.5H33.5234V46ZM33.5234 28.9375V28.4375H33.0234V28.9375H33.5234ZM37.0391 28.9375L37.4678 28.6803L37.3222 28.4375H37.0391V28.9375ZM43.9062 40.3867L43.4775 40.6439L44.4062 42.1924V40.3867H43.9062ZM43.9062 28.9375V28.4375H43.4062V28.9375H43.9062ZM46.9102 28.9375V46H47.9102V28.9375H46.9102ZM47.4102 45.5H43.8945V46.5H47.4102V45.5ZM44.3234 45.7429L37.4679 34.3054L36.6102 34.8196L43.4657 46.2571L44.3234 45.7429ZM36.5391 34.5625V46H37.5391V34.5625H36.5391ZM37.0391 45.5H33.5234V46.5H37.0391V45.5ZM34.0234 46V28.9375H33.0234V46H34.0234ZM33.5234 29.4375H37.0391V28.4375H33.5234V29.4375ZM36.6103 29.1947L43.4775 40.6439L44.335 40.1295L37.4678 28.6803L36.6103 29.1947ZM44.4062 40.3867V28.9375H43.4062V40.3867H44.4062ZM43.9062 29.4375H47.4102V28.4375H43.9062V29.4375Z" fill="#035763"/>
</g>
<defs>
<filter id="filter0_dd_2073_1750" x="-8" y="-5" width="97" height="99" filterUnits="userSpaceOnUse" color-interpolation-filters="sRGB">
<feFlood flood-opacity="0" result="BackgroundImageFix"/>
<feColorMatrix in="SourceAlpha" type="matrix" values="0 0 0 0 0 0 0 0 0 0 0 0 0 0 0 0 0 0 127 0" result="hardAlpha"/>
<feMorphology radius="2" operator="dilate" in="SourceAlpha" result="effect1_dropShadow_2073_1750"/>
<feOffset dx="5" dy="5"/>
<feGaussianBlur stdDeviation="6"/>
<feComposite in2="hardAlpha" operator="out"/>
<feColorMatrix type="matrix" values="0 0 0 0 0.471667 0 0 0 0 0.471667 0 0 0 0 0.471667 0 0 0 0.25 0"/>
<feBlend mode="normal" in2="BackgroundImageFix" result="effect1_dropShadow_2073_1750"/>
<feColorMatrix in="SourceAlpha" type="matrix" values="0 0 0 0 0 0 0 0 0 0 0 0 0 0 0 0 0 0 127 0" result="hardAlpha"/>
<feMorphology radius="3" operator="dilate" in="SourceAlpha" result="effect2_dropShadow_2073_1750"/>
<feOffset dy="4"/>
<feGaussianBlur stdDeviation="10"/>
<feComposite in2="hardAlpha" operator="out"/>
<feColorMatrix type="matrix" values="0 0 0 0 0.255 0 0 0 0 0.253937 0 0 0 0 0.253937 0 0 0 0.25 0"/>
<feBlend mode="normal" in2="effect1_dropShadow_2073_1750" result="effect2_dropShadow_2073_1750"/>
<feBlend mode="normal" in="SourceGraphic" in2="effect2_dropShadow_2073_1750" result="shape"/>
</filter>
</defs>
</svg>
