<svg width="46" height="46" viewBox="0 0 46 46" fill="none" xmlns="http://www.w3.org/2000/svg">
<g clip-path="url(#clip0_2623_8496)">
<circle cx="23" cy="23" r="22.5" fill="white" stroke="#035763" stroke-dasharray="4 4"/>
<path d="M24.8181 43.2077L24.8181 43.2077C24.3878 43.5555 23.8321 43.7515 23.2511 43.7511C22.6707 43.7506 22.1159 43.554 21.6865 43.2062C21.6861 43.2058 21.6857 43.2055 21.6853 43.2052L21.0146 42.6575C21.0141 42.6571 21.0136 42.6567 21.0131 42.6563C11.2901 34.6483 6.59314 27.4827 6.59314 21.074C6.59314 12.4809 14.0084 5.43909 23.2539 5.43909C32.4993 5.43909 39.9146 12.4809 39.9146 21.074C39.9146 27.6309 34.9974 34.9809 24.8181 43.2077ZM23.2539 14.0221C21.2931 14.0221 19.4043 14.7547 18.0048 16.0717C16.6037 17.3902 15.8074 19.1885 15.8074 21.074C15.8074 22.9594 16.6037 24.7578 18.0048 26.0762C19.4043 27.3933 21.2931 28.1258 23.2539 28.1258C25.2146 28.1258 27.1035 27.3933 28.5029 26.0762C29.904 24.7578 30.7003 22.9594 30.7003 21.074C30.7003 19.1885 29.904 17.3902 28.5029 16.0717C27.1035 14.7547 25.2146 14.0221 23.2539 14.0221Z" fill="#9B51E0" stroke="#035763" stroke-width="1.5"/>
<rect x="13.8431" y="12.2177" width="19" height="19.7627" fill="#9B51E0"/>
<path d="M24.2577 21.9433H22.0577L22.0459 20.7316H23.893C24.2184 20.7316 24.4851 20.6904 24.693 20.608C24.9008 20.5218 25.0557 20.3982 25.1577 20.2374C25.2635 20.0727 25.3165 19.8727 25.3165 19.6374C25.3165 19.3708 25.2655 19.1551 25.1635 18.9904C25.0655 18.8257 24.9106 18.7061 24.6988 18.6316C24.491 18.5571 24.2224 18.5198 23.893 18.5198H22.6694V25.7021H20.9047V17.1374H23.893C24.391 17.1374 24.8361 17.1845 25.2283 17.2786C25.6243 17.3727 25.9596 17.5159 26.2341 17.708C26.5086 17.9002 26.7184 18.1433 26.8635 18.4374C27.0086 18.7276 27.0812 19.0727 27.0812 19.4727C27.0812 19.8257 27.0008 20.1512 26.84 20.4492C26.6832 20.7472 26.4341 20.9904 26.093 21.1786C25.7557 21.3669 25.3145 21.4708 24.7694 21.4904L24.2577 21.9433ZM24.1812 25.7021H21.5753L22.2635 24.3257H24.1812C24.491 24.3257 24.7439 24.2767 24.94 24.1786C25.1361 24.0767 25.2812 23.9394 25.3753 23.7669C25.4694 23.5943 25.5165 23.3963 25.5165 23.1727C25.5165 22.9218 25.4733 22.7041 25.3871 22.5198C25.3047 22.3355 25.1714 22.1943 24.9871 22.0963C24.8028 21.9943 24.5596 21.9433 24.2577 21.9433H22.5577L22.5694 20.7316H24.6871L25.093 21.208C25.6145 21.2002 26.0341 21.2923 26.3518 21.4845C26.6733 21.6727 26.9067 21.9178 27.0518 22.2198C27.2008 22.5218 27.2753 22.8453 27.2753 23.1904C27.2753 23.7394 27.1557 24.2021 26.9165 24.5786C26.6773 24.9512 26.3263 25.2316 25.8635 25.4198C25.4047 25.608 24.8439 25.7021 24.1812 25.7021Z" fill="white"/>
<path d="M33.57 21.0638C33.57 26.2372 29.189 30.4904 23.71 30.4904C18.231 30.4904 13.85 26.2372 13.85 21.0638C13.85 15.8904 18.231 11.6372 23.71 11.6372C29.189 11.6372 33.57 15.8904 33.57 21.0638Z" stroke="white" stroke-width="1.7"/>
</g>
<defs>
<clipPath id="clip0_2623_8496">
<rect width="46" height="46" fill="white"/>
</clipPath>
</defs>
</svg>
