<svg width="72" height="72" viewBox="0 0 72 72" fill="none" xmlns="http://www.w3.org/2000/svg">
<g clip-path="url(#clip0_2204_1060)">
<g filter="url(#filter0_dd_2204_1060)">
<path d="M36.4107 16C46.0268 16 53.8214 23.4948 53.8214 32.7411C53.8214 39.8152 48.6518 47.5247 38.4464 55.9519C37.879 56.4206 37.1555 56.6781 36.4074 56.6774C35.6593 56.6768 34.9362 56.4182 34.3696 55.9485L33.6946 55.3853C23.9411 47.1779 19 39.6573 19 32.7411C19 23.4948 26.7946 16 36.4107 16ZM36.4107 26.3022C34.6347 26.3022 32.9314 26.9806 31.6756 28.1881C30.4198 29.3956 29.7143 31.0334 29.7143 32.7411C29.7143 34.4488 30.4198 36.0865 31.6756 37.294C32.9314 38.5016 34.6347 39.1799 36.4107 39.1799C38.1867 39.1799 39.89 38.5016 41.1458 37.294C42.4016 36.0865 43.1071 34.4488 43.1071 32.7411C43.1071 31.0334 42.4016 29.3956 41.1458 28.1881C39.89 26.9806 38.1867 26.3022 36.4107 26.3022Z" fill="#9B51E0"/>
<path d="M37.9689 55.3736L37.9688 55.3737C37.5383 55.7293 36.9847 55.9279 36.408 55.9274C35.8316 55.927 35.2786 55.7275 34.8488 55.3715C34.8487 55.3714 34.8485 55.3712 34.8483 55.3711L34.1775 54.8114C34.1771 54.8111 34.1766 54.8107 34.1762 54.8103C24.4558 46.6305 19.75 39.3038 19.75 32.7411C19.75 23.9365 27.1809 16.75 36.4107 16.75C45.6406 16.75 53.0714 23.9365 53.0714 32.7411C53.0714 39.4555 48.1452 46.9704 37.9689 55.3736ZM36.4107 25.5522C34.4451 25.5522 32.5543 26.3027 31.1558 27.6475C29.7563 28.9932 28.9643 30.8248 28.9643 32.7411C28.9643 34.6574 29.7563 36.489 31.1558 37.8347C32.5543 39.1794 34.4451 39.9299 36.4107 39.9299C38.3763 39.9299 40.2671 39.1794 41.6656 37.8347C43.0652 36.489 43.8571 34.6574 43.8571 32.7411C43.8571 30.8248 43.0652 28.9932 41.6656 27.6475C40.2671 26.3027 38.3763 25.5522 36.4107 25.5522Z" stroke="#035763" stroke-width="1.5"/>
</g>
<rect x="27" y="23.6923" width="19" height="20.1923" fill="#9B51E0"/>
<path d="M37.2577 33.2412H35.0577L35.0459 32.0294H36.893C37.2184 32.0294 37.4851 31.9882 37.693 31.9059C37.9008 31.8196 38.0557 31.6961 38.1577 31.5353C38.2635 31.3706 38.3165 31.1706 38.3165 30.9353C38.3165 30.6686 38.2655 30.4529 38.1635 30.2882C38.0655 30.1235 37.9106 30.0039 37.6988 29.9294C37.491 29.8549 37.2224 29.8176 36.893 29.8176H35.6694V37H33.9047V28.4353H36.893C37.391 28.4353 37.8361 28.4824 38.2283 28.5765C38.6243 28.6706 38.9596 28.8137 39.2341 29.0059C39.5086 29.198 39.7184 29.4412 39.8635 29.7353C40.0086 30.0255 40.0812 30.3706 40.0812 30.7706C40.0812 31.1235 40.0008 31.449 39.84 31.7471C39.6832 32.0451 39.4341 32.2882 39.093 32.4765C38.7557 32.6647 38.3145 32.7686 37.7694 32.7882L37.2577 33.2412ZM37.1812 37H34.5753L35.2635 35.6235H37.1812C37.491 35.6235 37.7439 35.5745 37.94 35.4765C38.1361 35.3745 38.2812 35.2373 38.3753 35.0647C38.4694 34.8922 38.5165 34.6941 38.5165 34.4706C38.5165 34.2196 38.4733 34.002 38.3871 33.8176C38.3047 33.6333 38.1714 33.4922 37.9871 33.3941C37.8028 33.2922 37.5596 33.2412 37.2577 33.2412H35.5577L35.5694 32.0294H37.6871L38.093 32.5059C38.6145 32.498 39.0341 32.5902 39.3518 32.7824C39.6733 32.9706 39.9067 33.2157 40.0518 33.5176C40.2008 33.8196 40.2753 34.1431 40.2753 34.4882C40.2753 35.0373 40.1557 35.5 39.9165 35.8765C39.6773 36.249 39.3263 36.5294 38.8635 36.7176C38.4047 36.9059 37.8439 37 37.1812 37Z" fill="white"/>
<path d="M46.57 32.5C46.57 37.8138 42.1715 42.15 36.71 42.15C31.2485 42.15 26.85 37.8138 26.85 32.5C26.85 27.1862 31.2485 22.85 36.71 22.85C42.1715 22.85 46.57 27.1862 46.57 32.5Z" stroke="white" stroke-width="1.7"/>
</g>
<defs>
<filter id="filter0_dd_2204_1060" x="-4" y="-3" width="80.8214" height="86.6775" filterUnits="userSpaceOnUse" color-interpolation-filters="sRGB">
<feFlood flood-opacity="0" result="BackgroundImageFix"/>
<feColorMatrix in="SourceAlpha" type="matrix" values="0 0 0 0 0 0 0 0 0 0 0 0 0 0 0 0 0 0 127 0" result="hardAlpha"/>
<feMorphology radius="2" operator="dilate" in="SourceAlpha" result="effect1_dropShadow_2204_1060"/>
<feOffset dx="5" dy="5"/>
<feGaussianBlur stdDeviation="6"/>
<feComposite in2="hardAlpha" operator="out"/>
<feColorMatrix type="matrix" values="0 0 0 0 0.471667 0 0 0 0 0.471667 0 0 0 0 0.471667 0 0 0 0.25 0"/>
<feBlend mode="normal" in2="BackgroundImageFix" result="effect1_dropShadow_2204_1060"/>
<feColorMatrix in="SourceAlpha" type="matrix" values="0 0 0 0 0 0 0 0 0 0 0 0 0 0 0 0 0 0 127 0" result="hardAlpha"/>
<feMorphology radius="3" operator="dilate" in="SourceAlpha" result="effect2_dropShadow_2204_1060"/>
<feOffset dy="4"/>
<feGaussianBlur stdDeviation="10"/>
<feComposite in2="hardAlpha" operator="out"/>
<feColorMatrix type="matrix" values="0 0 0 0 0.255 0 0 0 0 0.253937 0 0 0 0 0.253937 0 0 0 0.25 0"/>
<feBlend mode="normal" in2="effect1_dropShadow_2204_1060" result="effect2_dropShadow_2204_1060"/>
<feBlend mode="normal" in="SourceGraphic" in2="effect2_dropShadow_2204_1060" result="shape"/>
</filter>
<clipPath id="clip0_2204_1060">
<rect width="72" height="72" fill="white"/>
</clipPath>
</defs>
</svg>
