<svg width="81" height="89" viewBox="0 0 81 89" fill="none" xmlns="http://www.w3.org/2000/svg">
<g filter="url(#filter0_dd_2073_1746)">
<path d="M42.2836 60.5786L42.2835 60.5786C41.7615 61.0271 41.0958 61.2734 40.4076 61.2728C39.7195 61.2722 39.0545 61.0249 38.5333 60.5757C38.5332 60.5756 38.533 60.5755 38.5329 60.5753L37.8593 59.9908C37.8592 59.9908 37.8591 59.9907 37.859 59.9906C28.1179 51.4657 23.25 43.7082 23.25 36.629C23.25 27.151 30.9327 19.4683 40.4107 19.4683C49.8887 19.4683 57.5714 27.151 57.5714 36.629C57.5714 43.8704 52.4776 51.824 42.2836 60.5786ZM40.4107 31.6637C39.9589 31.6637 39.6234 31.738 39.4282 31.9645C39.2356 32.1882 39.2484 32.4884 39.2607 32.7068C39.2626 32.7402 39.2647 32.7737 39.2668 32.8075C39.2951 33.2576 39.3251 33.735 38.8232 34.2369C38.6679 34.3922 38.5438 34.5121 38.4449 34.6069C38.4274 34.6237 38.4105 34.6399 38.3943 34.6554C38.3205 34.7261 38.2599 34.7841 38.2138 34.831C38.1613 34.8844 38.105 34.9452 38.0691 35.0129C38.0218 35.1021 38.0137 35.1931 38.0374 35.2825C38.0502 35.3312 38.0765 35.3865 38.0923 35.4197C38.0952 35.4259 38.0978 35.4314 38.0999 35.4359C38.119 35.4774 38.1407 35.5282 38.1619 35.5997C38.2046 35.7436 38.25 35.9871 38.25 36.4137C38.25 36.5513 38.2453 36.6618 38.2378 36.7497C38.1765 36.7731 38.1207 36.8146 38.0796 36.8786C38.0131 36.982 38.0183 37.0957 38.0364 37.1689C38.0525 37.2338 38.1003 37.3501 38.2223 37.4064C38.2954 37.4402 38.3826 37.4442 38.4638 37.4085C38.5005 37.3923 38.5306 37.3704 38.5549 37.3472C38.6269 37.404 38.7156 37.4828 38.8232 37.5905C39.4429 38.2101 39.7954 38.5146 40.2441 38.6271C40.4638 38.6822 40.6937 38.6884 40.9627 38.684C41.0578 38.6825 41.1574 38.6796 41.2651 38.6765C41.4719 38.6705 41.7084 38.6637 42 38.6637C42.151 38.6637 42.2655 38.6656 42.3496 38.6681C42.3761 38.6718 42.401 38.6748 42.4238 38.6771C42.4627 38.6811 42.4972 38.6835 42.5247 38.6845C42.5382 38.685 42.552 38.6853 42.5648 38.685C42.5711 38.6849 42.5794 38.6846 42.5885 38.6839C42.5924 38.6836 42.6159 38.6819 42.643 38.6739L42.6435 38.6738C42.6499 38.6721 42.7063 38.6567 42.7545 38.6061C42.7871 38.572 42.8282 38.5078 42.8233 38.4195C42.8188 38.3375 42.7768 38.2838 42.7537 38.2598C42.7147 38.2192 42.6715 38.2027 42.6644 38.2L42.6637 38.1998C42.6497 38.1943 42.6379 38.1911 42.632 38.1896C42.611 38.1843 42.5903 38.1818 42.5805 38.1807C42.5544 38.1777 42.5179 38.1749 42.4711 38.1726C42.4485 38.1714 42.4229 38.1703 42.3938 38.1693C42.3506 38.1627 42.303 38.1537 42.2547 38.1418C42.1721 38.1216 42.0956 38.0949 42.0359 38.0624C41.9745 38.0289 41.9498 37.9998 41.9414 37.9838L41.9413 37.9835C41.9378 37.9769 41.9275 37.9573 41.9475 37.9019C41.9709 37.837 42.0331 37.7341 42.1768 37.5905C42.4783 37.289 42.6698 37.1748 42.7785 37.1315C42.8307 37.1108 42.8641 37.1062 42.8833 37.105C42.9003 37.104 42.9055 37.1045 42.9163 37.1056C42.9248 37.1064 42.9366 37.1075 42.9603 37.1085L42.9614 37.1086C42.9781 37.1093 43.0351 37.1118 43.0962 37.086C43.1787 37.0511 43.2264 36.9857 43.249 36.9248C43.2668 36.877 43.2697 36.831 43.2708 36.8061C43.272 36.7769 43.2713 36.7444 43.2702 36.7121C43.2692 36.6844 43.2678 36.6525 43.2661 36.6153C43.2598 36.4753 43.25 36.2599 43.25 35.9137C43.25 35.6946 43.2539 35.5436 43.2583 35.4448C43.2605 35.3954 43.2627 35.3594 43.2646 35.3346C43.265 35.3291 43.2654 35.3241 43.2658 35.3198C43.2676 35.3079 43.2689 35.2975 43.2697 35.2888C43.2701 35.2851 43.2706 35.2795 43.271 35.2733C43.2711 35.2707 43.2715 35.2644 43.2714 35.2565C43.2714 35.253 43.2713 35.2444 43.2703 35.2335C43.2696 35.2277 43.2675 35.2136 43.2659 35.2051C43.2625 35.1913 43.2483 35.1523 43.2355 35.1283C43.1991 35.0815 43.0616 35.0106 42.9643 35.0139C42.903 35.0371 42.8292 35.0974 42.8114 35.1217C42.7907 35.1536 42.7824 35.1838 42.7821 35.1847L42.7821 35.1847C42.778 35.198 42.7759 35.2091 42.7755 35.2114L42.7755 35.2117C42.774 35.2191 42.7731 35.2258 42.7726 35.2292C42.7717 35.236 42.7706 35.2453 42.7694 35.2576C42.7692 35.259 42.7689 35.2605 42.7686 35.2621C42.7634 35.2915 42.7532 35.3362 42.7362 35.3826C42.695 35.4951 42.651 35.5237 42.6332 35.5275C42.6146 35.5315 42.4804 35.5405 42.1768 35.2369C41.6811 34.7413 41.668 34.0708 41.6545 33.3791C41.6532 33.315 41.652 33.2507 41.6503 33.1864C41.6414 32.8361 41.6189 32.4517 41.4477 32.158C41.2553 31.8282 40.9134 31.6637 40.4107 31.6637Z" fill="#9B51E0" stroke="#035763" stroke-width="0.5"/>
<circle cx="40.5" cy="37.5" r="9" fill="#9B51E0" stroke="white" stroke-width="3"/>
<path d="M41.1176 38.2412H38.9176L38.9059 37.0294H40.7529C41.0784 37.0294 41.3451 36.9882 41.5529 36.9059C41.7608 36.8196 41.9157 36.6961 42.0176 36.5353C42.1235 36.3706 42.1765 36.1706 42.1765 35.9353C42.1765 35.6686 42.1255 35.4529 42.0235 35.2882C41.9255 35.1235 41.7706 35.0039 41.5588 34.9294C41.351 34.8549 41.0824 34.8176 40.7529 34.8176H39.5294V42H37.7647V33.4353H40.7529C41.251 33.4353 41.6961 33.4824 42.0882 33.5765C42.4843 33.6706 42.8196 33.8137 43.0941 34.0059C43.3686 34.198 43.5784 34.4412 43.7235 34.7353C43.8686 35.0255 43.9412 35.3706 43.9412 35.7706C43.9412 36.1235 43.8608 36.449 43.7 36.7471C43.5431 37.0451 43.2941 37.2882 42.9529 37.4765C42.6157 37.6647 42.1745 37.7686 41.6294 37.7882L41.1176 38.2412ZM41.0412 42H38.4353L39.1235 40.6235H41.0412C41.351 40.6235 41.6039 40.5745 41.8 40.4765C41.9961 40.3745 42.1412 40.2373 42.2353 40.0647C42.3294 39.8922 42.3765 39.6941 42.3765 39.4706C42.3765 39.2196 42.3333 39.002 42.2471 38.8176C42.1647 38.6333 42.0314 38.4922 41.8471 38.3941C41.6627 38.2922 41.4196 38.2412 41.1176 38.2412H39.4176L39.4294 37.0294H41.5471L41.9529 37.5059C42.4745 37.498 42.8941 37.5902 43.2118 37.7824C43.5333 37.9706 43.7667 38.2157 43.9118 38.5176C44.0608 38.8196 44.1353 39.1431 44.1353 39.4882C44.1353 40.0373 44.0157 40.5 43.7765 40.8765C43.5373 41.249 43.1863 41.5294 42.7235 41.7176C42.2647 41.9059 41.7039 42 41.0412 42Z" fill="white"/>
</g>
<defs>
<filter id="filter0_dd_2073_1746" x="0" y="0.218262" width="80.8214" height="88.3046" filterUnits="userSpaceOnUse" color-interpolation-filters="sRGB">
<feFlood flood-opacity="0" result="BackgroundImageFix"/>
<feColorMatrix in="SourceAlpha" type="matrix" values="0 0 0 0 0 0 0 0 0 0 0 0 0 0 0 0 0 0 127 0" result="hardAlpha"/>
<feMorphology radius="2" operator="dilate" in="SourceAlpha" result="effect1_dropShadow_2073_1746"/>
<feOffset dx="5" dy="5"/>
<feGaussianBlur stdDeviation="6"/>
<feComposite in2="hardAlpha" operator="out"/>
<feColorMatrix type="matrix" values="0 0 0 0 0.471667 0 0 0 0 0.471667 0 0 0 0 0.471667 0 0 0 0.25 0"/>
<feBlend mode="normal" in2="BackgroundImageFix" result="effect1_dropShadow_2073_1746"/>
<feColorMatrix in="SourceAlpha" type="matrix" values="0 0 0 0 0 0 0 0 0 0 0 0 0 0 0 0 0 0 127 0" result="hardAlpha"/>
<feMorphology radius="3" operator="dilate" in="SourceAlpha" result="effect2_dropShadow_2073_1746"/>
<feOffset dy="4"/>
<feGaussianBlur stdDeviation="10"/>
<feComposite in2="hardAlpha" operator="out"/>
<feColorMatrix type="matrix" values="0 0 0 0 0.255 0 0 0 0 0.253937 0 0 0 0 0.253937 0 0 0 0.25 0"/>
<feBlend mode="normal" in2="effect1_dropShadow_2073_1746" result="effect2_dropShadow_2073_1746"/>
<feBlend mode="normal" in="SourceGraphic" in2="effect2_dropShadow_2073_1746" result="shape"/>
</filter>
</defs>
</svg>
