<svg width="72" height="72" viewBox="0 0 72 72" fill="none" xmlns="http://www.w3.org/2000/svg">
<g clip-path="url(#clip0_2204_1054)">
<g filter="url(#filter0_d_2204_1054)">
<circle cx="36" cy="36" r="25" fill="white"/>
<circle cx="36" cy="36" r="24.5" stroke="#035763"/>
</g>
<path d="M37.812 57.1429L37.8119 57.143C37.3814 57.4986 36.8278 57.6972 36.2511 57.6967C35.6748 57.6963 35.1218 57.4969 34.6921 57.1409C34.6919 57.1407 34.6916 57.1406 34.6914 57.1404L34.0207 56.5807C34.0202 56.5803 34.0197 56.5799 34.0192 56.5795C24.2989 48.3998 19.5931 41.0731 19.5931 34.5104C19.5931 25.7058 27.024 18.5193 36.2539 18.5193C45.4837 18.5193 52.9146 25.7058 52.9146 34.5104C52.9146 41.2248 47.9883 48.7397 37.812 57.1429ZM36.2539 27.3215C34.2882 27.3215 32.3975 28.072 30.9989 29.4168C29.5994 30.7625 28.8074 32.594 28.8074 34.5104C28.8074 36.4267 29.5994 38.2583 30.9989 39.604C32.3975 40.9487 34.2882 41.6992 36.2539 41.6992C38.2195 41.6992 40.1102 40.9487 41.5088 39.604C42.9083 38.2583 43.7003 36.4267 43.7003 34.5104C43.7003 32.594 42.9083 30.7625 41.5088 29.4168C40.1102 28.072 38.2195 27.3215 36.2539 27.3215Z" fill="#9B51E0" stroke="#035763" stroke-width="1.5"/>
<rect x="26.8431" y="25.4615" width="19" height="20.1923" fill="#9B51E0"/>
<path d="M37.2577 35.2412H35.0577L35.0459 34.0294H36.893C37.2184 34.0294 37.4851 33.9882 37.693 33.9059C37.9008 33.8196 38.0557 33.6961 38.1577 33.5353C38.2635 33.3706 38.3165 33.1706 38.3165 32.9353C38.3165 32.6686 38.2655 32.4529 38.1635 32.2882C38.0655 32.1235 37.9106 32.0039 37.6988 31.9294C37.491 31.8549 37.2224 31.8176 36.893 31.8176H35.6694V39H33.9047V30.4353H36.893C37.391 30.4353 37.8361 30.4824 38.2283 30.5765C38.6243 30.6706 38.9596 30.8137 39.2341 31.0059C39.5086 31.198 39.7184 31.4412 39.8635 31.7353C40.0086 32.0255 40.0812 32.3706 40.0812 32.7706C40.0812 33.1235 40.0008 33.449 39.84 33.7471C39.6832 34.0451 39.4341 34.2882 39.093 34.4765C38.7557 34.6647 38.3145 34.7686 37.7694 34.7882L37.2577 35.2412ZM37.1812 39H34.5753L35.2635 37.6235H37.1812C37.491 37.6235 37.7439 37.5745 37.94 37.4765C38.1361 37.3745 38.2812 37.2373 38.3753 37.0647C38.4694 36.8922 38.5165 36.6941 38.5165 36.4706C38.5165 36.2196 38.4733 36.002 38.3871 35.8176C38.3047 35.6333 38.1714 35.4922 37.9871 35.3941C37.8028 35.2922 37.5596 35.2412 37.2577 35.2412H35.5577L35.5694 34.0294H37.6871L38.093 34.5059C38.6145 34.498 39.0341 34.5902 39.3518 34.7824C39.6733 34.9706 39.9067 35.2157 40.0518 35.5176C40.2008 35.8196 40.2753 36.1431 40.2753 36.4882C40.2753 37.0373 40.1557 37.5 39.9165 37.8765C39.6773 38.249 39.3263 38.5294 38.8635 38.7176C38.4047 38.9059 37.8439 39 37.1812 39Z" fill="white"/>
<path d="M46.57 34.5C46.57 39.8138 42.1715 44.15 36.71 44.15C31.2485 44.15 26.85 39.8138 26.85 34.5C26.85 29.1862 31.2485 24.85 36.71 24.85C42.1715 24.85 46.57 29.1862 46.57 34.5Z" stroke="white" stroke-width="1.7"/>
</g>
<defs>
<filter id="filter0_d_2204_1054" x="2" y="-4" width="74" height="74" filterUnits="userSpaceOnUse" color-interpolation-filters="sRGB">
<feFlood flood-opacity="0" result="BackgroundImageFix"/>
<feColorMatrix in="SourceAlpha" type="matrix" values="0 0 0 0 0 0 0 0 0 0 0 0 0 0 0 0 0 0 127 0" result="hardAlpha"/>
<feMorphology radius="2" operator="dilate" in="SourceAlpha" result="effect1_dropShadow_2204_1054"/>
<feOffset dx="3" dy="-3"/>
<feGaussianBlur stdDeviation="5"/>
<feComposite in2="hardAlpha" operator="out"/>
<feColorMatrix type="matrix" values="0 0 0 0 0.471667 0 0 0 0 0.471667 0 0 0 0 0.471667 0 0 0 0.25 0"/>
<feBlend mode="normal" in2="BackgroundImageFix" result="effect1_dropShadow_2204_1054"/>
<feBlend mode="normal" in="SourceGraphic" in2="effect1_dropShadow_2204_1054" result="shape"/>
</filter>
<clipPath id="clip0_2204_1054">
<rect width="72" height="72" fill="white"/>
</clipPath>
</defs>
</svg>
