<svg width="81" height="79" viewBox="0 0 81 79" fill="none" xmlns="http://www.w3.org/2000/svg">
<g filter="url(#filter0_dd_2073_1757)">
<path d="M41.7949 60.3142L41.7948 60.3143C41.4089 60.6458 40.9169 60.8278 40.4082 60.8274C39.9001 60.8269 39.4089 60.6444 39.0238 60.3129C39.0234 60.3125 39.023 60.3122 39.0226 60.3119L38.3532 59.731C38.3527 59.7306 38.3522 59.7302 38.3517 59.7297C28.6482 51.2374 24 43.6717 24 36.9335C24 27.8698 31.3469 20.5228 40.4107 20.5228C49.4745 20.5228 56.8214 27.8698 56.8214 36.9335C56.8214 43.8277 51.9551 51.5887 41.7949 60.3142ZM38.7071 39.7071C39.5058 38.9085 39.5691 37.8453 39.5625 37.1743L40.9191 36.5395C40.8357 36.3449 40.7554 36.1586 40.6782 35.9802C40.7133 35.9304 40.7459 35.8755 40.7748 35.8152C40.9574 35.4328 40.873 35.0765 40.7965 34.8842C40.72 34.6921 40.6071 34.5417 40.523 34.4424C40.3073 34.188 39.984 33.9324 39.6591 33.7101C39.3946 33.1564 39.1673 32.7244 38.9716 32.4778C38.9194 32.412 38.8133 32.2855 38.655 32.1826C38.505 32.0852 38.0537 31.8606 37.5581 32.1457C37.2743 32.309 37.1473 32.5541 37.0918 32.7052C37.0396 32.7182 36.9841 32.7361 36.9269 32.7607C36.6985 32.8589 36.4491 33.0666 36.3433 33.4071C36.252 33.7008 36.3143 33.9496 36.3553 34.0697C36.3996 34.1998 36.4606 34.3011 36.5032 34.365C36.5893 34.494 36.6964 34.6106 36.7929 34.7071C36.9662 34.8804 37.1214 35.0203 37.2612 35.1353C37.356 35.7512 37.4475 36.3939 37.4805 36.9544C37.4944 37.1912 37.4953 37.3811 37.4878 37.5268C37.1303 37.5635 36.8032 37.6334 36.5119 37.7073C36.3294 37.7536 36.1516 37.804 35.9931 37.8489C35.9691 37.8557 35.9457 37.8623 35.9227 37.8688C35.8851 37.8794 35.8488 37.8897 35.8134 37.8995C35.7987 37.8934 35.7839 37.8873 35.7691 37.8811L35.7537 37.8747C35.5363 37.7847 35.2938 37.6841 35.0653 37.6053C34.8412 37.528 34.5527 37.4431 34.2562 37.4285C34.1761 37.4246 34.0849 37.4256 33.9872 37.4361C33.8946 37.3782 33.783 37.3206 33.6546 37.2801C33.4664 37.2207 33.1766 37.1794 32.8658 37.3079C32.5466 37.4399 32.3673 37.6836 32.2775 37.8769C32.1932 38.0585 32.1686 38.2309 32.1604 38.3455C32.1516 38.468 32.1576 38.5834 32.1681 38.6812C32.189 38.8761 32.2354 39.0716 32.2886 39.2425C32.342 39.414 32.4127 39.5939 32.4977 39.7558C32.5401 39.8366 32.5942 39.9286 32.6616 40.0184C32.7204 40.0968 32.8324 40.2322 33.0051 40.3409C33.1874 40.4556 33.5609 40.6075 33.99 40.4293C34.2382 40.3263 34.3921 40.1566 34.4848 40.0136C34.9091 40.0911 35.3115 40.0567 35.6629 39.9917C35.9678 40.1039 36.3007 40.2083 36.6297 40.2653C37.2333 40.37 38.06 40.3542 38.7071 39.7071ZM39.0134 33.201C39.0135 33.1961 39.0136 33.1969 39.0133 33.2025L39.0134 33.201ZM37.446 37.827C37.4459 37.8269 37.4466 37.825 37.448 37.8215C37.4467 37.8254 37.446 37.8272 37.446 37.827ZM32.7068 39.1588C32.7068 39.1588 32.707 39.157 32.7076 39.1537C32.7072 39.1572 32.7069 39.1588 32.7068 39.1588Z" fill="#F48067" stroke="#035763" stroke-width="2"/>
<rect x="30" y="30" width="22" height="16" fill="#F48067"/>
<path d="M36.4453 39.9453H33.5469V38.1172H36.4453C36.8932 38.1172 37.2578 38.0443 37.5391 37.8984C37.8203 37.7474 38.026 37.5391 38.1562 37.2734C38.2865 37.0078 38.3516 36.7083 38.3516 36.375C38.3516 36.0365 38.2865 35.7214 38.1562 35.4297C38.026 35.138 37.8203 34.9036 37.5391 34.7266C37.2578 34.5495 36.8932 34.4609 36.4453 34.4609H34.3594V44H32.0156V32.625H36.4453C37.3359 32.625 38.099 32.7865 38.7344 33.1094C39.375 33.4271 39.8646 33.8672 40.2031 34.4297C40.5417 34.9922 40.7109 35.6354 40.7109 36.3594C40.7109 37.0938 40.5417 37.7292 40.2031 38.2656C39.8646 38.8021 39.375 39.2161 38.7344 39.5078C38.099 39.7995 37.3359 39.9453 36.4453 39.9453ZM44.6719 32.625V44H42.3281V32.625H44.6719ZM49.2031 37.4844V39.3125H44.0312V37.4844H49.2031ZM49.75 32.625V34.4609H44.0312V32.625H49.75Z" fill="white"/>
<path d="M33.5469 39.9453H32.5469V40.9453H33.5469V39.9453ZM33.5469 38.1172V37.1172H32.5469V38.1172H33.5469ZM37.5391 37.8984L37.9994 38.7862L38.0058 38.7829L38.0122 38.7794L37.5391 37.8984ZM34.3594 34.4609V33.4609H33.3594V34.4609H34.3594ZM34.3594 44V45H35.3594V44H34.3594ZM32.0156 44H31.0156V45H32.0156V44ZM32.0156 32.625V31.625H31.0156V32.625H32.0156ZM38.7344 33.1094L38.2813 34.0009L38.2901 34.0053L38.7344 33.1094ZM38.7344 39.5078L38.32 38.5977L38.3172 38.599L38.7344 39.5078ZM36.4453 38.9453H33.5469V40.9453H36.4453V38.9453ZM34.5469 39.9453V38.1172H32.5469V39.9453H34.5469ZM33.5469 39.1172H36.4453V37.1172H33.5469V39.1172ZM36.4453 39.1172C36.9912 39.1172 37.5294 39.0299 37.9994 38.7862L37.0787 37.0107C36.9863 37.0586 36.7952 37.1172 36.4453 37.1172V39.1172ZM38.0122 38.7794C38.4622 38.5377 38.8245 38.1821 39.0542 37.7136L37.2583 36.8333C37.2276 36.8961 37.1784 36.9571 37.0659 37.0174L38.0122 38.7794ZM39.0542 37.7136C39.2596 37.2945 39.3516 36.8414 39.3516 36.375H37.3516C37.3516 36.5752 37.3133 36.7212 37.2583 36.8333L39.0542 37.7136ZM39.3516 36.375C39.3516 35.9046 39.2603 35.4496 39.0694 35.022L37.2431 35.8373C37.3127 35.9931 37.3516 36.1684 37.3516 36.375H39.3516ZM39.0694 35.022C38.8552 34.5422 38.5133 34.1583 38.0719 33.8803L37.0062 35.5728C37.1273 35.649 37.1969 35.7338 37.2431 35.8373L39.0694 35.022ZM38.0719 33.8803C37.5846 33.5735 37.0181 33.4609 36.4453 33.4609V35.4609C36.7683 35.4609 36.931 35.5254 37.0062 35.5728L38.0719 33.8803ZM36.4453 33.4609H34.3594V35.4609H36.4453V33.4609ZM33.3594 34.4609V44H35.3594V34.4609H33.3594ZM34.3594 43H32.0156V45H34.3594V43ZM33.0156 44V32.625H31.0156V44H33.0156ZM32.0156 33.625H36.4453V31.625H32.0156V33.625ZM36.4453 33.625C37.2169 33.625 37.8169 33.7649 38.2813 34.0009L39.1874 32.2179C38.381 31.8081 37.455 31.625 36.4453 31.625V33.625ZM38.2901 34.0053C38.7756 34.246 39.1149 34.5609 39.3463 34.9453L41.0599 33.914C40.6142 33.1735 39.9744 32.6081 39.1787 32.2135L38.2901 34.0053ZM39.3463 34.9453C39.5817 35.3365 39.7109 35.7979 39.7109 36.3594H41.7109C41.7109 35.4729 41.5016 34.6479 41.0599 33.914L39.3463 34.9453ZM39.7109 36.3594C39.7109 36.9352 39.5801 37.3791 39.3574 37.7319L41.0488 38.7993C41.5032 38.0792 41.7109 37.2523 41.7109 36.3594H39.7109ZM39.3574 37.7319C39.1341 38.0858 38.8034 38.3776 38.32 38.5977L39.1487 40.4179C39.9466 40.0547 40.595 39.5184 41.0488 38.7993L39.3574 37.7319ZM38.3172 38.599C37.8433 38.8165 37.23 38.9453 36.4453 38.9453V40.9453C37.4419 40.9453 38.3546 40.7825 39.1515 40.4166L38.3172 38.599ZM44.6719 32.625H45.6719V31.625H44.6719V32.625ZM44.6719 44V45H45.6719V44H44.6719ZM42.3281 44H41.3281V45H42.3281V44ZM42.3281 32.625V31.625H41.3281V32.625H42.3281ZM49.2031 37.4844H50.2031V36.4844H49.2031V37.4844ZM49.2031 39.3125V40.3125H50.2031V39.3125H49.2031ZM44.0312 39.3125H43.0312V40.3125H44.0312V39.3125ZM44.0312 37.4844V36.4844H43.0312V37.4844H44.0312ZM49.75 32.625H50.75V31.625H49.75V32.625ZM49.75 34.4609V35.4609H50.75V34.4609H49.75ZM44.0312 34.4609H43.0312V35.4609H44.0312V34.4609ZM44.0312 32.625V31.625H43.0312V32.625H44.0312ZM43.6719 32.625V44H45.6719V32.625H43.6719ZM44.6719 43H42.3281V45H44.6719V43ZM43.3281 44V32.625H41.3281V44H43.3281ZM42.3281 33.625H44.6719V31.625H42.3281V33.625ZM48.2031 37.4844V39.3125H50.2031V37.4844H48.2031ZM49.2031 38.3125H44.0312V40.3125H49.2031V38.3125ZM45.0312 39.3125V37.4844H43.0312V39.3125H45.0312ZM44.0312 38.4844H49.2031V36.4844H44.0312V38.4844ZM48.75 32.625V34.4609H50.75V32.625H48.75ZM49.75 33.4609H44.0312V35.4609H49.75V33.4609ZM45.0312 34.4609V32.625H43.0312V34.4609H45.0312ZM44.0312 33.625H49.75V31.625H44.0312V33.625Z" fill="#035763"/>
</g>
<defs>
<filter id="filter0_dd_2073_1757" x="-8" y="-5" width="97" height="99" filterUnits="userSpaceOnUse" color-interpolation-filters="sRGB">
<feFlood flood-opacity="0" result="BackgroundImageFix"/>
<feColorMatrix in="SourceAlpha" type="matrix" values="0 0 0 0 0 0 0 0 0 0 0 0 0 0 0 0 0 0 127 0" result="hardAlpha"/>
<feMorphology radius="2" operator="dilate" in="SourceAlpha" result="effect1_dropShadow_2073_1757"/>
<feOffset dx="5" dy="5"/>
<feGaussianBlur stdDeviation="6"/>
<feComposite in2="hardAlpha" operator="out"/>
<feColorMatrix type="matrix" values="0 0 0 0 0.471667 0 0 0 0 0.471667 0 0 0 0 0.471667 0 0 0 0.25 0"/>
<feBlend mode="normal" in2="BackgroundImageFix" result="effect1_dropShadow_2073_1757"/>
<feColorMatrix in="SourceAlpha" type="matrix" values="0 0 0 0 0 0 0 0 0 0 0 0 0 0 0 0 0 0 127 0" result="hardAlpha"/>
<feMorphology radius="3" operator="dilate" in="SourceAlpha" result="effect2_dropShadow_2073_1757"/>
<feOffset dy="4"/>
<feGaussianBlur stdDeviation="10"/>
<feComposite in2="hardAlpha" operator="out"/>
<feColorMatrix type="matrix" values="0 0 0 0 0.255 0 0 0 0 0.253937 0 0 0 0 0.253937 0 0 0 0.25 0"/>
<feBlend mode="normal" in2="effect1_dropShadow_2073_1757" result="effect2_dropShadow_2073_1757"/>
<feBlend mode="normal" in="SourceGraphic" in2="effect2_dropShadow_2073_1757" result="shape"/>
</filter>
</defs>
</svg>
