<svg width="81" height="79" viewBox="0 0 81 79" fill="none" xmlns="http://www.w3.org/2000/svg">
<g filter="url(#filter0_dd_2073_1757)">
<path d="M42.2836 60.8832L42.2835 60.8832C41.7615 61.3317 41.0958 61.578 40.4076 61.5774C39.7195 61.5768 39.0545 61.3294 38.5333 60.8803C38.5332 60.8801 38.533 60.88 38.5329 60.8799L37.8593 60.2954C37.8592 60.2953 37.8591 60.2952 37.859 60.2952C28.1179 51.7703 23.25 44.0128 23.25 36.9335C23.25 27.4555 30.9327 19.7728 40.4107 19.7728C49.8887 19.7728 57.5714 27.4555 57.5714 36.9335C57.5714 44.1749 52.4776 52.1286 42.2836 60.8832ZM39.7702 37.0321L39.9157 37.3714L40.1768 37.1103C40.3409 36.9462 40.462 36.7986 40.5371 36.6609C40.6134 36.521 40.6532 36.3701 40.6169 36.216C40.5814 36.0652 40.4841 35.9597 40.393 35.8858C40.3031 35.8129 40.1925 35.7498 40.0937 35.6941L40.0726 35.6821C40.0424 35.6652 40.0125 35.6483 39.9829 35.6314C40.0285 35.597 40.0695 35.5516 40.098 35.4918C40.1568 35.3689 40.1336 35.2469 40.0996 35.1615C40.0656 35.0762 40.0098 34.997 39.9509 34.9274C39.7947 34.7432 39.5364 34.5359 39.2492 34.3385C39.2476 34.1957 39.2436 34.0834 39.2361 33.9981C39.2311 33.9413 39.2236 33.886 39.2108 33.8376C39.2014 33.8024 39.1753 33.7118 39.0926 33.6495C39.0425 33.6118 38.9809 33.5916 38.9164 33.5938C38.8585 33.5958 38.8132 33.6152 38.7849 33.6308C38.6152 33.2957 38.4842 33.0701 38.3841 32.944C38.3482 32.8988 38.3023 32.8479 38.2464 32.8115C38.1926 32.7766 38.0665 32.7185 37.9321 32.7958C37.8244 32.8578 37.7931 32.9661 37.7829 33.007C37.7692 33.0617 37.7648 33.121 37.7636 33.1751C37.7617 33.269 37.7696 33.3896 37.7842 33.5291C37.7196 33.5035 37.6596 33.482 37.6056 33.4655C37.5322 33.4431 37.4502 33.4234 37.3746 33.4221C37.3373 33.4215 37.2811 33.4247 37.2231 33.4497C37.1569 33.4781 37.0886 33.5362 37.0595 33.6297C37.0341 33.7115 37.0504 33.7844 37.0652 33.8277C37.0808 33.8734 37.1042 33.9144 37.1271 33.9487C37.173 34.0175 37.2402 34.0938 37.3232 34.1768C37.5327 34.3863 37.7362 34.5186 37.9335 34.5782C37.9366 34.5978 37.9397 34.6174 37.9428 34.6371C38.0559 35.3597 38.1872 36.1982 38.2292 36.9103C38.2555 37.3565 38.2445 37.7263 38.183 37.9765C38.1523 38.1015 38.1142 38.1741 38.0813 38.2117C38.0562 38.2405 38.0347 38.25 38 38.25C37.5267 38.25 37.0928 38.3337 36.6963 38.4343C36.5248 38.4778 36.3579 38.525 36.1988 38.5701C36.1746 38.577 36.1505 38.5838 36.1266 38.5905C36.0009 38.6261 35.8802 38.6597 35.7629 38.6895C35.6693 38.6516 35.5755 38.6128 35.4819 38.574L35.4772 38.572C35.252 38.4787 35.0275 38.3856 34.8207 38.3143C34.615 38.2434 34.4076 38.1868 34.2195 38.1776C34.087 38.1712 33.9454 38.1877 33.8191 38.2537C33.6837 38.1275 33.5539 38.0348 33.4289 37.9954C33.3497 37.9704 33.251 37.9602 33.1524 38.001C33.0517 38.0426 32.9912 38.1207 32.9577 38.1928C32.898 38.3214 32.9007 38.4786 32.9138 38.6013C32.9283 38.7358 32.9619 38.8822 33.0047 39.0194C33.0475 39.1568 33.1019 39.2932 33.1618 39.4073C33.1917 39.4643 33.225 39.5197 33.2614 39.5681C33.2957 39.6138 33.343 39.6674 33.4045 39.7061C33.4685 39.7464 33.5794 39.7878 33.7025 39.7366C33.8129 39.6908 33.867 39.5963 33.8932 39.5338C33.9445 39.4118 33.9631 39.2357 33.9642 39.0204C34.1769 39.1529 34.3947 39.2347 34.619 39.2757C34.9895 39.3435 35.3579 39.2962 35.7173 39.2147C35.72 39.2141 35.7227 39.2135 35.7254 39.2129C36.0613 39.3447 36.4168 39.4672 36.7578 39.5264C37.2542 39.6125 37.7795 39.574 38.1768 39.1768C38.8314 38.5221 38.8176 37.6293 38.8072 36.9634C38.8062 36.8992 38.8053 36.8372 38.8049 36.7777C38.8029 36.4082 38.8224 36.1546 38.9123 35.9902C38.9518 35.9181 39.0054 35.8634 39.087 35.8235C39.1243 35.8052 39.1698 35.789 39.2256 35.7764C39.3892 36.1484 39.5702 36.5657 39.7702 37.0321ZM33.4125 38.5613C33.4412 38.5852 33.4734 38.6142 33.5093 38.649C33.4914 38.7089 33.4794 38.7725 33.4724 38.8389C33.4433 38.7404 33.4224 38.644 33.4125 38.5613ZM33.4313 39.3422C33.4313 39.3422 33.4316 39.3415 33.4322 39.3402C33.4316 39.3416 33.4313 39.3423 33.4313 39.3422ZM39.5674 35.2482C39.5585 35.2487 39.5492 35.2491 39.5393 35.2494C39.53 35.2287 39.5209 35.2081 39.5118 35.1877C39.5322 35.2085 39.5507 35.2287 39.5674 35.2482ZM38.5907 35.583C38.5422 35.2334 38.4883 34.888 38.4385 34.5704C38.4902 34.5521 38.5383 34.5292 38.5829 34.5034C38.6152 34.5231 38.6472 34.5428 38.679 34.5627C38.7065 34.6219 38.7348 34.6832 38.7639 34.7466C38.791 34.978 38.8561 35.1733 38.9472 35.3394C38.9198 35.35 38.8932 35.3617 38.8673 35.3743C38.7561 35.4287 38.6647 35.4994 38.5907 35.583ZM36.8192 38.9189C37.163 38.8317 37.5164 38.7632 37.8903 38.7517C37.869 38.7759 37.8467 38.7998 37.8232 38.8232C37.5926 39.0539 37.2682 39.1074 36.8433 39.0337C36.7613 39.0195 36.6778 39.0009 36.5932 38.9788C36.6678 38.9583 36.743 38.9382 36.8192 38.9189Z" fill="#F48067" stroke="#035763" stroke-width="0.5"/>
<path d="M36.4453 39.9453H33.5469V38.1172H36.4453C36.8932 38.1172 37.2578 38.0443 37.5391 37.8984C37.8203 37.7474 38.026 37.5391 38.1562 37.2734C38.2865 37.0078 38.3516 36.7083 38.3516 36.375C38.3516 36.0365 38.2865 35.7214 38.1562 35.4297C38.026 35.138 37.8203 34.9036 37.5391 34.7266C37.2578 34.5495 36.8932 34.4609 36.4453 34.4609H34.3594V44H32.0156V32.625H36.4453C37.3359 32.625 38.099 32.7865 38.7344 33.1094C39.375 33.4271 39.8646 33.8672 40.2031 34.4297C40.5417 34.9922 40.7109 35.6354 40.7109 36.3594C40.7109 37.0938 40.5417 37.7292 40.2031 38.2656C39.8646 38.8021 39.375 39.2161 38.7344 39.5078C38.099 39.7995 37.3359 39.9453 36.4453 39.9453ZM44.6719 32.625V44H42.3281V32.625H44.6719ZM49.2031 37.4844V39.3125H44.0312V37.4844H49.2031ZM49.75 32.625V34.4609H44.0312V32.625H49.75Z" fill="white"/>
<path d="M33.5469 39.9453H33.0469V40.4453H33.5469V39.9453ZM33.5469 38.1172V37.6172H33.0469V38.1172H33.5469ZM37.5391 37.8984L37.7692 38.3424L37.7756 38.3389L37.5391 37.8984ZM34.3594 34.4609V33.9609H33.8594V34.4609H34.3594ZM34.3594 44V44.5H34.8594V44H34.3594ZM32.0156 44H31.5156V44.5H32.0156V44ZM32.0156 32.625V32.125H31.5156V32.625H32.0156ZM38.7344 33.1094L38.5078 33.5551L38.5122 33.5573L38.7344 33.1094ZM38.7344 39.5078L38.5272 39.0528L38.5258 39.0534L38.7344 39.5078ZM36.4453 39.4453H33.5469V40.4453H36.4453V39.4453ZM34.0469 39.9453V38.1172H33.0469V39.9453H34.0469ZM33.5469 38.6172H36.4453V37.6172H33.5469V38.6172ZM36.4453 38.6172C36.9422 38.6172 37.3936 38.5371 37.7692 38.3423L37.3089 37.4546C37.122 37.5515 36.8442 37.6172 36.4453 37.6172V38.6172ZM37.7756 38.3389C38.1413 38.1426 38.4253 37.8606 38.6052 37.4935L37.7073 37.0534C37.6268 37.2176 37.4993 37.3522 37.3025 37.4579L37.7756 38.3389ZM38.6052 37.4935C38.773 37.1511 38.8516 36.7749 38.8516 36.375H37.8516C37.8516 36.6418 37.7999 36.8645 37.7073 37.0534L38.6052 37.4935ZM38.8516 36.375C38.8516 35.9705 38.7734 35.5855 38.6128 35.2259L37.6997 35.6335C37.7996 35.8572 37.8516 36.1024 37.8516 36.375H38.8516ZM38.6128 35.2259C38.4406 34.8401 38.1668 34.531 37.8055 34.3034L37.2727 35.1497C37.4738 35.2763 37.6115 35.4359 37.6997 35.6335L38.6128 35.2259ZM37.8055 34.3034C37.4212 34.0615 36.9557 33.9609 36.4453 33.9609V34.9609C36.8308 34.9609 37.0944 35.0374 37.2727 35.1497L37.8055 34.3034ZM36.4453 33.9609H34.3594V34.9609H36.4453V33.9609ZM33.8594 34.4609V44H34.8594V34.4609H33.8594ZM34.3594 43.5H32.0156V44.5H34.3594V43.5ZM32.5156 44V32.625H31.5156V44H32.5156ZM32.0156 33.125H36.4453V32.125H32.0156V33.125ZM36.4453 33.125C37.2764 33.125 37.9579 33.2757 38.5079 33.5551L38.9609 32.6636C38.24 32.2973 37.3954 32.125 36.4453 32.125V33.125ZM38.5122 33.5573C39.0753 33.8366 39.4898 34.214 39.7747 34.6875L40.6315 34.1719C40.2394 33.5203 39.6747 33.0176 38.9565 32.6614L38.5122 33.5573ZM39.7747 34.6875C40.0617 35.1643 40.2109 35.7167 40.2109 36.3594H41.2109C41.2109 35.5542 41.0216 34.82 40.6315 34.1719L39.7747 34.6875ZM40.2109 36.3594C40.2109 37.0145 40.0609 37.5541 39.7803 37.9988L40.626 38.5325C41.0225 37.9042 41.2109 37.173 41.2109 36.3594H40.2109ZM39.7803 37.9988C39.4994 38.4439 39.0892 38.7969 38.5272 39.0528L38.9416 39.9629C39.6608 39.6354 40.2298 39.1602 40.626 38.5325L39.7803 37.9988ZM38.5258 39.0534C37.9711 39.308 37.283 39.4453 36.4453 39.4453V40.4453C37.3889 40.4453 38.2268 40.291 38.943 39.9622L38.5258 39.0534ZM44.6719 32.625H45.1719V32.125H44.6719V32.625ZM44.6719 44V44.5H45.1719V44H44.6719ZM42.3281 44H41.8281V44.5H42.3281V44ZM42.3281 32.625V32.125H41.8281V32.625H42.3281ZM49.2031 37.4844H49.7031V36.9844H49.2031V37.4844ZM49.2031 39.3125V39.8125H49.7031V39.3125H49.2031ZM44.0312 39.3125H43.5312V39.8125H44.0312V39.3125ZM44.0312 37.4844V36.9844H43.5312V37.4844H44.0312ZM49.75 32.625H50.25V32.125H49.75V32.625ZM49.75 34.4609V34.9609H50.25V34.4609H49.75ZM44.0312 34.4609H43.5312V34.9609H44.0312V34.4609ZM44.0312 32.625V32.125H43.5312V32.625H44.0312ZM44.1719 32.625V44H45.1719V32.625H44.1719ZM44.6719 43.5H42.3281V44.5H44.6719V43.5ZM42.8281 44V32.625H41.8281V44H42.8281ZM42.3281 33.125H44.6719V32.125H42.3281V33.125ZM48.7031 37.4844V39.3125H49.7031V37.4844H48.7031ZM49.2031 38.8125H44.0312V39.8125H49.2031V38.8125ZM44.5312 39.3125V37.4844H43.5312V39.3125H44.5312ZM44.0312 37.9844H49.2031V36.9844H44.0312V37.9844ZM49.25 32.625V34.4609H50.25V32.625H49.25ZM49.75 33.9609H44.0312V34.9609H49.75V33.9609ZM44.5312 34.4609V32.625H43.5312V34.4609H44.5312ZM44.0312 33.125H49.75V32.125H44.0312V33.125Z" fill="#035763"/>
</g>
<defs>
<filter id="filter0_dd_2073_1757" x="0" y="0.522827" width="80.8214" height="88.3046" filterUnits="userSpaceOnUse" color-interpolation-filters="sRGB">
<feFlood flood-opacity="0" result="BackgroundImageFix"/>
<feColorMatrix in="SourceAlpha" type="matrix" values="0 0 0 0 0 0 0 0 0 0 0 0 0 0 0 0 0 0 127 0" result="hardAlpha"/>
<feMorphology radius="2" operator="dilate" in="SourceAlpha" result="effect1_dropShadow_2073_1757"/>
<feOffset dx="5" dy="5"/>
<feGaussianBlur stdDeviation="6"/>
<feComposite in2="hardAlpha" operator="out"/>
<feColorMatrix type="matrix" values="0 0 0 0 0.471667 0 0 0 0 0.471667 0 0 0 0 0.471667 0 0 0 0.25 0"/>
<feBlend mode="normal" in2="BackgroundImageFix" result="effect1_dropShadow_2073_1757"/>
<feColorMatrix in="SourceAlpha" type="matrix" values="0 0 0 0 0 0 0 0 0 0 0 0 0 0 0 0 0 0 127 0" result="hardAlpha"/>
<feMorphology radius="3" operator="dilate" in="SourceAlpha" result="effect2_dropShadow_2073_1757"/>
<feOffset dy="4"/>
<feGaussianBlur stdDeviation="10"/>
<feComposite in2="hardAlpha" operator="out"/>
<feColorMatrix type="matrix" values="0 0 0 0 0.255 0 0 0 0 0.253937 0 0 0 0 0.253937 0 0 0 0.25 0"/>
<feBlend mode="normal" in2="effect1_dropShadow_2073_1757" result="effect2_dropShadow_2073_1757"/>
<feBlend mode="normal" in="SourceGraphic" in2="effect2_dropShadow_2073_1757" result="shape"/>
</filter>
</defs>
</svg>
