<svg width="81" height="89" viewBox="0 0 81 89" fill="none" xmlns="http://www.w3.org/2000/svg">
<g filter="url(#filter0_dd_2073_1753)">
<path d="M42.2836 60.3603L42.2835 60.3604C41.7615 60.8088 41.0958 61.0552 40.4076 61.0546C39.7195 61.0539 39.0545 60.8066 38.5333 60.3574C38.5332 60.3573 38.533 60.3572 38.5329 60.3571L37.8593 59.7726C37.8592 59.7725 37.8591 59.7724 37.859 59.7723C28.1179 51.2474 23.25 43.4899 23.25 36.4107C23.25 26.9327 30.9327 19.25 40.4107 19.25C49.8887 19.25 57.5714 26.9327 57.5714 36.4107C57.5714 43.6521 52.4776 51.6058 42.2836 60.3603ZM40.4107 29.4643C38.5684 29.4643 36.8016 30.1961 35.4988 31.4988C34.1961 32.8016 33.4643 34.5684 33.4643 36.4107C33.4643 38.253 34.1961 40.0199 35.4988 41.3226C36.8016 42.6253 38.5684 43.3571 40.4107 43.3571C42.253 43.3571 44.0199 42.6253 45.3226 41.3226C46.6253 40.0199 47.3571 38.253 47.3571 36.4107C47.3571 34.5684 46.6253 32.8016 45.3226 31.4988C44.0199 30.1961 42.253 29.4643 40.4107 29.4643Z" fill="#4F4F4F" stroke="#035763" stroke-width="0.5"/>
<rect x="30" y="27.0863" width="21" height="21" rx="3" fill="#4F4F4F"/>
<path d="M44.2891 27.5863C45.0312 27.5863 45.5781 28.3285 45.3828 29.0316L43.2734 36.3363H46.6328C47.375 36.3363 47.9609 36.9613 47.9609 37.7035C47.9609 38.1332 47.8047 38.4847 47.4922 38.7582L37.375 47.3519C37.1797 47.5082 36.9453 47.5863 36.6719 47.5863C35.9297 47.5863 35.3828 46.8832 35.5781 46.1801L37.6875 38.8363H34.2891C33.5859 38.8363 33 38.2504 33 37.5472C33 37.1566 33.1562 36.8051 33.4297 36.5316L43.5859 27.8597C43.7812 27.7035 44.0156 27.5863 44.2891 27.5863ZM42.8828 30.9066L35.8125 36.9613H38.9375C39.2109 36.9613 39.4844 37.1176 39.6797 37.3519C39.8359 37.5863 39.9141 37.8988 39.8359 38.1722L38.0781 44.3051L45.2266 38.2113H42.0625C41.75 38.2113 41.4766 38.0941 41.2812 37.8597C41.125 37.6254 41.0469 37.3129 41.125 37.0394L42.8828 30.9066Z" fill="white"/>
<path d="M45.3828 29.0316L45.8632 29.1703L45.8646 29.1654L45.3828 29.0316ZM43.2734 36.3363L42.7931 36.1976L42.6086 36.8363H43.2734V36.3363ZM47.4922 38.7582L47.8159 39.1393L47.8214 39.1345L47.4922 38.7582ZM37.375 47.3519L37.6873 47.7424L37.6931 47.7378L37.6987 47.733L37.375 47.3519ZM35.5781 46.1801L35.0975 46.042L35.0964 46.0462L35.5781 46.1801ZM37.6875 38.8363L38.1681 38.9743L38.3513 38.3363H37.6875V38.8363ZM33.4297 36.5316L33.105 36.1514L33.09 36.1641L33.0761 36.1781L33.4297 36.5316ZM43.5859 27.8597L43.2736 27.4693L43.2673 27.4743L43.2613 27.4795L43.5859 27.8597ZM42.8828 30.9066L43.3635 31.0444L43.8222 29.4439L42.5576 30.5268L42.8828 30.9066ZM35.8125 36.9613L35.4873 36.5815L34.4599 37.4613H35.8125V36.9613ZM39.6797 37.3519L40.0957 37.0746L40.0809 37.0524L40.0638 37.0318L39.6797 37.3519ZM39.8359 38.1722L40.3166 38.31L40.3167 38.3096L39.8359 38.1722ZM38.0781 44.3051L37.5975 44.1673L37.1406 45.7613L38.4025 44.6856L38.0781 44.3051ZM45.2266 38.2113L45.5509 38.5918L46.5838 37.7113H45.2266V38.2113ZM41.2812 37.8597L40.8652 38.1371L40.88 38.1593L40.8971 38.1798L41.2812 37.8597ZM41.125 37.0394L40.6444 36.9017L40.6442 36.9021L41.125 37.0394ZM44.2891 28.0863C44.6935 28.0863 45.0098 28.5064 44.9011 28.8978L45.8646 29.1654C46.1465 28.1506 45.369 27.0863 44.2891 27.0863V28.0863ZM44.9024 28.8929L42.7931 36.1976L43.7538 36.475L45.8632 29.1703L44.9024 28.8929ZM43.2734 36.8363H46.6328V35.8363H43.2734V36.8363ZM46.6328 36.8363C47.0802 36.8363 47.4609 37.2184 47.4609 37.7035H48.4609C48.4609 36.7042 47.6698 35.8363 46.6328 35.8363V36.8363ZM47.4609 37.7035C47.4609 37.9947 47.3627 38.2071 47.1629 38.3819L47.8214 39.1345C48.2467 38.7624 48.4609 38.2716 48.4609 37.7035H47.4609ZM47.1685 38.3771L37.0513 46.9708L37.6987 47.733L47.8159 39.1393L47.1685 38.3771ZM37.0627 46.9615C36.9644 47.0401 36.8431 47.0863 36.6719 47.0863V48.0863C37.0476 48.0863 37.395 47.9763 37.6873 47.7424L37.0627 46.9615ZM36.6719 47.0863C36.248 47.0863 35.9563 46.6867 36.0599 46.3139L35.0964 46.0462C34.8093 47.0797 35.6113 48.0863 36.6719 48.0863V47.0863ZM36.0587 46.3181L38.1681 38.9743L37.2069 38.6983L35.0976 46.042L36.0587 46.3181ZM37.6875 38.3363H34.2891V39.3363H37.6875V38.3363ZM34.2891 38.3363C33.8621 38.3363 33.5 37.9742 33.5 37.5472H32.5C32.5 38.5265 33.3098 39.3363 34.2891 39.3363V38.3363ZM33.5 37.5472C33.5 37.2979 33.5973 37.0712 33.7832 36.8852L33.0761 36.1781C32.7152 36.539 32.5 37.0153 32.5 37.5472H33.5ZM33.7544 36.9119L43.9106 28.24L43.2613 27.4795L33.105 36.1514L33.7544 36.9119ZM43.8983 28.2502C44.0392 28.1374 44.1664 28.0863 44.2891 28.0863V27.0863C43.8649 27.0863 43.5233 27.2695 43.2736 27.4693L43.8983 28.2502ZM42.5576 30.5268L35.4873 36.5815L36.1377 37.3411L43.208 31.2864L42.5576 30.5268ZM35.8125 37.4613H38.9375V36.4613H35.8125V37.4613ZM38.9375 37.4613C39.0239 37.4613 39.1674 37.5182 39.2956 37.672L40.0638 37.0318C39.8014 36.717 39.398 36.4613 38.9375 36.4613V37.4613ZM39.2637 37.6293C39.3596 37.7732 39.3836 37.9353 39.3552 38.0349L40.3167 38.3096C40.4445 37.8623 40.3122 37.3994 40.0957 37.0746L39.2637 37.6293ZM39.3553 38.0345L37.5975 44.1673L38.5588 44.4428L40.3166 38.31L39.3553 38.0345ZM38.4025 44.6856L45.5509 38.5918L44.9022 37.8308L37.7538 43.9245L38.4025 44.6856ZM45.2266 37.7113H42.0625V38.7113H45.2266V37.7113ZM42.0625 37.7113C41.8835 37.7113 41.7565 37.6491 41.6654 37.5396L40.8971 38.1798C41.1966 38.5392 41.6165 38.7113 42.0625 38.7113V37.7113ZM41.6973 37.5824C41.6013 37.4384 41.5773 37.2763 41.6058 37.1768L40.6442 36.9021C40.5164 37.3494 40.6487 37.8123 40.8652 38.1371L41.6973 37.5824ZM41.6056 37.1772L43.3635 31.0444L42.4022 30.7689L40.6444 36.9017L41.6056 37.1772Z" fill="#035763"/>
</g>
<defs>
<filter id="filter0_dd_2073_1753" x="0" y="0" width="80.8214" height="88.3046" filterUnits="userSpaceOnUse" color-interpolation-filters="sRGB">
<feFlood flood-opacity="0" result="BackgroundImageFix"/>
<feColorMatrix in="SourceAlpha" type="matrix" values="0 0 0 0 0 0 0 0 0 0 0 0 0 0 0 0 0 0 127 0" result="hardAlpha"/>
<feMorphology radius="2" operator="dilate" in="SourceAlpha" result="effect1_dropShadow_2073_1753"/>
<feOffset dx="5" dy="5"/>
<feGaussianBlur stdDeviation="6"/>
<feComposite in2="hardAlpha" operator="out"/>
<feColorMatrix type="matrix" values="0 0 0 0 0.471667 0 0 0 0 0.471667 0 0 0 0 0.471667 0 0 0 0.25 0"/>
<feBlend mode="normal" in2="BackgroundImageFix" result="effect1_dropShadow_2073_1753"/>
<feColorMatrix in="SourceAlpha" type="matrix" values="0 0 0 0 0 0 0 0 0 0 0 0 0 0 0 0 0 0 127 0" result="hardAlpha"/>
<feMorphology radius="3" operator="dilate" in="SourceAlpha" result="effect2_dropShadow_2073_1753"/>
<feOffset dy="4"/>
<feGaussianBlur stdDeviation="10"/>
<feComposite in2="hardAlpha" operator="out"/>
<feColorMatrix type="matrix" values="0 0 0 0 0.255 0 0 0 0 0.253937 0 0 0 0 0.253937 0 0 0 0.25 0"/>
<feBlend mode="normal" in2="effect1_dropShadow_2073_1753" result="effect2_dropShadow_2073_1753"/>
<feBlend mode="normal" in="SourceGraphic" in2="effect2_dropShadow_2073_1753" result="shape"/>
</filter>
</defs>
</svg>
